<svg width="186" height="136" fill="none" xmlns="http://www.w3.org/2000/svg"><g clip-path="url(#a)"><path d="M0 0h186v136H0V0Z" fill="#C8313E"/><path d="M83.104 58.768c-2.534-1.574-5.22-2.879-7.985-3.954a21.93 21.93 0 0 0-3.761 12.322c0 2.265.345 4.453.998 6.526a41.517 41.517 0 0 1 4.376-7.677 42.657 42.657 0 0 1 6.372-7.217Zm-6.756-5.566c2.994 1.037 5.873 2.38 8.637 3.954.614-.537 1.266-.998 1.88-1.459a49.952 49.952 0 0 0-9.212-3.915c-.46.46-.921.921-1.305 1.42Zm2.687-2.725c3.455.921 6.756 2.188 9.865 3.838.73-.46 1.459-.883 2.15-1.305-3.302-1.689-6.795-2.917-10.403-3.8-.57.38-1.109.803-1.612 1.267Zm3.263-2.303a45.36 45.36 0 0 1 10.94 3.685 46.517 46.517 0 0 1 10.939-3.685c-3.186-1.881-6.947-2.956-10.94-2.956a21.605 21.605 0 0 0-10.94 2.956Zm23.53 1.075a47.435 47.435 0 0 0-10.403 3.761c.725.421 1.442.856 2.15 1.305a48.214 48.214 0 0 1 9.865-3.838 9.927 9.927 0 0 0-1.612-1.229Zm2.994 2.571a48.33 48.33 0 0 0-9.213 3.877 36.43 36.43 0 0 1 1.92 1.459 49.829 49.829 0 0 1 8.598-3.954 8.866 8.866 0 0 0-1.305-1.382Zm2.533 3.033a44.897 44.897 0 0 0-7.945 3.915c2.341 2.111 4.452 4.53 6.372 7.217a46.511 46.511 0 0 1 4.376 7.677c.614-2.111.959-4.261.959-6.526 0-4.568-1.382-8.79-3.762-12.283Zm-1.88 15.047a46.264 46.264 0 0 0-8.138-9.827l-2.073 1.497a47.187 47.187 0 0 1 12.015 17.965c.614-.921 1.19-1.881 1.65-2.84a51.424 51.424 0 0 0-3.454-6.795Zm-12.169-9.98c.691-.5 1.382-.998 2.112-1.459-.615-.537-1.267-1.036-1.92-1.535l-2.188 1.42h.039a69.83 69.83 0 0 1 1.957 1.574Zm-4.069-3.071 2.188-1.344-2.188-1.343c-.729.422-1.42.883-2.15 1.343.73.423 1.421.883 2.15 1.344Zm-2.072 1.497c-.73-.5-1.42-.96-2.15-1.42l-1.957 1.497 2.11 1.458a39.273 39.273 0 0 1 1.997-1.535Zm2.072 1.535a60.997 60.997 0 0 0-1.995 1.613c.69.537 1.343 1.113 1.995 1.688.653-.575 1.306-1.151 1.997-1.688-.653-.538-1.306-1.114-1.996-1.613Zm0 7.178a48.486 48.486 0 0 0-7.561 10.787 46.434 46.434 0 0 0-3.379 8.291c3.225 1.804 6.948 2.879 10.94 2.879 3.993 0 7.716-1.075 10.94-2.879a46.353 46.353 0 0 0-3.378-8.291c-2.073-4.03-4.606-7.64-7.562-10.787ZM80.57 81.608a49.028 49.028 0 0 1 10.71-16.545c-.653-.614-1.305-1.19-1.996-1.804-5.259 5.106-9.482 11.44-12.053 18.77.723.8 1.506 1.545 2.341 2.227.307-.883.653-1.766.998-2.648Zm14.625-16.545c4.53 4.607 8.214 10.172 10.748 16.545.346.882.653 1.765.96 2.648.844-.69 1.65-1.42 2.38-2.226-2.611-7.332-6.833-13.665-12.092-18.77l-1.996 1.803ZM75.196 79.535c2.649-7.063 6.833-13.09 12.053-17.926a42.432 42.432 0 0 0-2.11-1.536A47.452 47.452 0 0 0 77 69.938a48.76 48.76 0 0 0-3.454 6.756c.46.998 1.036 1.92 1.65 2.84Zm18.157-36.083c13.511 0 24.528 11.017 24.528 24.529 0 13.511-11.017 24.528-24.528 24.528-13.512 0-24.529-11.017-24.529-24.528 0-13.512 11.017-24.529 24.529-24.529Zm10.824-5.374c-.69.806-1.458 1.843-2.226 3.493-.192-.422-.192-.92-.077-1.458.192-1.766.691-2.84 1.613-4.338.306-.537.614-.998.767-1.574.576-1.727.461-4.03-.806-5.834.192 2.034-.422 3.723-1.113 4.76-.115.191-.23.307-.384.46-.729.73-1.535 1.459-2.572 3.148-.576.921-1.151 2.034-1.689 3.8-.23-.384-.307-.844-.268-1.382-.078-1.804.23-2.917.883-4.568.23-.575.46-1.075.537-1.689.269-1.765-.192-4.03-1.727-5.604.498 1.958.191 3.723-.346 4.875-.115.192-.192.346-.307.499-.614.845-1.267 1.689-2.073 3.493-.384 1.036-.806 2.226-1.036 4.03-.307-.345-.461-.806-.5-1.343-.345-1.766-.23-2.917.154-4.644.154-.576.307-1.114.269-1.728 0-1.804-.806-3.954-2.572-5.297.806 1.88.768 3.685.422 4.913-.077.154-.153.346-.23.5-.46.959-.998 1.88-1.497 3.8-.23 1.074-.46 2.34-.422 4.145-.308-.307-.538-.73-.691-1.228-.615-1.728-.691-2.84-.538-4.645.039-.614.077-1.151 0-1.727-.307-1.805-1.458-3.8-3.378-4.837 1.075 1.727 1.305 3.532 1.152 4.76l-.115.576c-.307.998-.691 1.996-.883 3.992a14.868 14.868 0 0 0 .23 4.145c-.384-.268-.653-.652-.883-1.113-.882-1.612-1.113-2.725-1.266-4.49-.039-.615-.077-1.152-.308-1.728-.537-1.727-1.996-3.532-4.068-4.223 1.343 1.498 1.88 3.225 1.88 4.491 0 .192 0 .384-.038.576-.153 1.037-.345 2.111-.23 4.07.115 1.074.269 2.34.883 4.068-.423-.192-.768-.537-1.075-.96-1.113-1.42-1.497-2.495-1.92-4.222-.153-.614-.268-1.113-.575-1.689-.806-1.574-2.533-3.148-4.683-3.531 1.535 1.304 2.341 2.955 2.572 4.183.038.192.038.384.038.576.039 1.037 0 2.112.422 4.07.269 1.036.615 2.264 1.497 3.838-.422-.116-.806-.384-1.19-.768-1.343-1.228-1.919-2.226-2.572-3.877-.23-.576-.46-1.075-.805-1.574-1.075-1.42-2.995-2.687-5.22-2.725 1.765 1.036 2.801 2.495 3.224 3.685l.115.576c.192 1.036.307 2.11 1.036 3.953.422.998.998 2.15 2.111 3.57-.46-.038-.883-.268-1.305-.575-1.497-.998-2.226-1.92-3.186-3.417-.307-.537-.576-.998-1.036-1.42-1.267-1.267-3.378-2.226-5.566-1.92 1.88.768 3.147 2.073 3.762 3.187.076.153.153.345.23.537.345.96.614 1.996 1.612 3.723.576.922 1.305 1.958 2.649 3.225-.46 0-.922-.154-1.382-.384-1.65-.768-2.495-1.535-3.647-2.879-.422-.46-.768-.883-1.266-1.267-1.46-1.036-3.686-1.65-5.797-.998 1.996.46 3.455 1.536 4.184 2.534.154.153.23.307.307.499.5.921.96 1.919 2.227 3.416.69.844 1.573 1.766 3.07 2.802-.422.077-.882 0-1.42-.192-1.727-.46-2.687-1.113-4.03-2.264-.46-.384-.883-.73-1.42-1.037-1.613-.806-3.916-1.036-5.912-.077 2.034.116 3.647.998 4.568 1.843.115.153.23.269.345.46.653.807 1.229 1.728 2.726 3.033.806.69 1.842 1.459 3.493 2.265-.422.153-.921.153-1.42.038-1.805-.192-2.84-.691-4.376-1.612-.538-.307-.998-.614-1.574-.768-1.727-.576-3.992-.46-5.796.806 1.996-.192 3.723.423 4.76 1.113.153.116.306.23.422.384.767.73 1.497 1.536 3.147 2.572.922.576 2.073 1.19 3.8 1.69-.383.23-.844.306-1.381.306-1.805.039-2.917-.269-4.568-.921-.576-.23-1.075-.46-1.69-.537-1.765-.27-4.03.191-5.604 1.727 1.958-.499 3.762-.192 4.876.345.191.115.345.192.498.307.845.615 1.69 1.267 3.532 2.073.998.384 2.188.806 3.992 1.037-.345.307-.806.46-1.305.499-1.804.383-2.917.23-4.683-.154-.576-.153-1.113-.269-1.727-.269-1.804 0-3.954.806-5.26 2.572 1.843-.806 3.647-.767 4.876-.422.192.077.345.154.537.23.921.461 1.881.999 3.8 1.497 1.037.23 2.303.46 4.107.423-.306.307-.729.537-1.228.69-1.689.615-2.84.692-4.606.538-.614-.039-1.151-.077-1.766 0-1.765.307-3.762 1.459-4.798 3.416 1.689-1.113 3.493-1.343 4.76-1.19l.537.115c.998.346 1.996.692 3.992.883 1.075.077 2.342.115 4.146-.23-.269.384-.653.653-1.113.883-1.574.883-2.726 1.113-4.491 1.267-.615.076-1.152.115-1.727.307-1.728.537-3.494 1.996-4.223 4.069 1.535-1.344 3.263-1.843 4.53-1.881.191 0 .383 0 .575.038.998.154 2.073.346 4.069.23 1.075-.076 2.341-.268 4.03-.882-.153.422-.499.767-.96 1.074-1.42 1.113-2.494 1.497-4.221 1.92-.576.153-1.114.268-1.651.575-1.612.807-3.148 2.534-3.532 4.683 1.267-1.535 2.918-2.341 4.146-2.572.192-.038.384-.038.576-.038 1.036-.038 2.15 0 4.069-.422 1.036-.269 2.264-.614 3.877-1.497-.115.422-.422.844-.806 1.19-1.229 1.344-2.227 1.92-3.877 2.572-.538.268-1.037.46-1.536.806-1.459 1.075-2.725 2.994-2.764 5.22 1.037-1.766 2.534-2.802 3.724-3.224l.537-.115c1.037-.192 2.111-.307 3.954-1.037.998-.422 2.15-.998 3.608-2.073-.076.423-.269.845-.614 1.267-.998 1.497-1.88 2.227-3.416 3.186-.5.307-.96.576-1.42 1.037-1.267 1.266-2.189 3.377-1.881 5.566.729-1.881 2.034-3.148 3.147-3.762.192-.077.346-.154.537-.23.998-.308 2.035-.615 3.724-1.613.921-.576 1.958-1.305 3.224-2.648.039.46-.115.921-.383 1.382-.768 1.65-1.536 2.495-2.88 3.646-.46.422-.882.768-1.228 1.267-1.036 1.459-1.65 3.685-.998 5.796.422-1.996 1.497-3.454 2.534-4.184a3.2 3.2 0 0 1 .46-.307c.922-.499 1.92-.96 3.455-2.226.806-.691 1.727-1.574 2.764-3.071.077.422 0 .92-.154 1.42-.499 1.727-1.113 2.687-2.303 4.03-.384.461-.73.884-.998 1.46-.806 1.611-1.075 3.876-.115 5.872.153-2.034.998-3.646 1.88-4.529.116-.154.27-.269.423-.384.844-.653 1.727-1.229 3.033-2.726.69-.806 1.458-1.842 2.264-3.493.154.423.154.922.077 1.42-.23 1.805-.691 2.841-1.612 4.377-.346.537-.614.998-.806 1.573-.538 1.728-.422 4.031.844 5.835-.192-2.035.384-3.762 1.113-4.798.115-.154.23-.307.346-.422.73-.768 1.535-1.498 2.61-3.148.537-.921 1.152-2.073 1.65-3.8.231.384.308.844.308 1.382.076 1.804-.23 2.917-.922 4.567-.23.576-.422 1.075-.537 1.69-.269 1.765.192 4.03 1.727 5.604-.499-1.958-.192-3.762.384-4.875.077-.192.154-.346.269-.499.614-.845 1.305-1.689 2.073-3.532.422-.998.844-2.188 1.075-3.992.268.346.422.806.499 1.305.345 1.805.23 2.917-.192 4.683-.154.576-.269 1.114-.269 1.728 0 1.804.845 3.953 2.61 5.258-.806-1.842-.806-3.646-.422-4.874.039-.192.115-.346.192-.538.46-.921.998-1.881 1.497-3.8.23-1.037.46-2.303.422-4.107.346.307.537.729.691 1.228.653 1.689.691 2.84.576 4.645-.077.576-.115 1.113 0 1.727.269 1.804 1.42 3.8 3.378 4.837-1.075-1.728-1.344-3.532-1.152-4.76 0-.192.039-.384.115-.576.307-.998.691-1.996.883-3.992.039-1.075.077-2.341-.23-4.146.345.27.653.653.883 1.114.883 1.573 1.113 2.725 1.267 4.491.038.614.076 1.151.268 1.727.576 1.727 1.996 3.493 4.108 4.222-1.344-1.535-1.881-3.262-1.92-4.529 0-.192 0-.384.039-.576.153-.998.383-2.073.23-4.069-.077-1.075-.269-2.341-.845-4.03.384.192.73.499 1.037.96 1.113 1.42 1.535 2.494 1.957 4.222.116.576.269 1.113.538 1.65.844 1.613 2.533 3.148 4.721 3.532-1.573-1.267-2.38-2.917-2.61-4.146-.038-.192-.038-.384-.038-.576 0-1.036.038-2.11-.384-4.068a15.953 15.953 0 0 0-1.535-3.877c.46.115.844.422 1.19.806 1.343 1.228 1.919 2.226 2.61 3.877.23.537.422 1.036.806 1.535 1.075 1.459 2.994 2.725 5.182 2.764-1.727-1.037-2.764-2.534-3.186-3.724a2.858 2.858 0 0 1-.154-.537c-.153-1.036-.307-2.111-1.036-3.954-.422-.998-.96-2.15-2.073-3.57.461.039.883.23 1.305.576 1.497.998 2.227 1.881 3.148 3.417.307.499.614.998 1.036 1.42 1.267 1.267 3.378 2.188 5.566 1.88-1.881-.729-3.147-2.034-3.723-3.147a1.622 1.622 0 0 1-.231-.537c-.345-.998-.652-2.035-1.65-3.724a16.2 16.2 0 0 0-2.61-3.224c.422 0 .883.115 1.381.384 1.613.767 2.496 1.535 3.647 2.879.384.46.729.882 1.229 1.228 1.458 1.075 3.684 1.65 5.795 1.037-1.957-.461-3.416-1.536-4.183-2.573a3.144 3.144 0 0 1-.308-.46c-.498-.921-.921-1.92-2.188-3.455-.729-.806-1.612-1.727-3.109-2.763.461-.077.921 0 1.421.153 1.727.5 2.686 1.151 4.068 2.303.461.384.883.73 1.421.998 1.612.806 3.877 1.075 5.873.115-2.035-.153-3.609-.998-4.53-1.88-.153-.116-.268-.27-.384-.423-.614-.844-1.228-1.727-2.687-3.032a17.767 17.767 0 0 0-3.493-2.265c.422-.153.883-.153 1.42-.077 1.766.23 2.841.691 4.338 1.651.537.307.998.576 1.574.768 1.727.537 4.03.422 5.834-.845-2.034.192-3.723-.384-4.759-1.113l-.461-.345c-.729-.73-1.459-1.536-3.148-2.61-.921-.538-2.034-1.152-3.8-1.651.384-.23.883-.308 1.382-.308 1.843-.076 2.956.23 4.568.922.576.23 1.075.422 1.689.537 1.766.269 4.03-.192 5.604-1.727-1.957.499-3.723.192-4.875-.384-.153-.077-.345-.154-.499-.269-.844-.614-1.689-1.266-3.493-2.073a17.92 17.92 0 0 0-4.03-1.074c.345-.269.806-.422 1.343-.5 1.766-.345 2.917-.23 4.645.193.576.153 1.113.268 1.727.268 1.804 0 3.954-.844 5.298-2.571-1.881.767-3.686.767-4.876.383a2.242 2.242 0 0 1-.537-.192c-.96-.46-1.881-.998-3.8-1.497-1.075-.23-2.303-.46-4.146-.422.307-.345.73-.537 1.229-.69 1.727-.654 2.878-.692 4.644-.577.614.077 1.152.116 1.766 0 1.766-.268 3.762-1.42 4.798-3.377-1.727 1.074-3.493 1.343-4.76 1.19a3.198 3.198 0 0 1-.575-.154c-.998-.307-1.996-.691-3.954-.883-1.075-.039-2.38-.077-4.146.269.231-.384.614-.691 1.114-.922 1.573-.883 2.686-1.113 4.452-1.266.614-.039 1.152-.077 1.727-.27 1.728-.575 3.532-1.995 4.223-4.106-1.497 1.343-3.224 1.88-4.491 1.92-.192 0-.384 0-.576-.04-1.036-.153-2.111-.383-4.069-.23-1.075.077-2.341.27-4.069.883.192-.422.538-.767.96-1.075 1.42-1.113 2.495-1.535 4.222-1.957a6.646 6.646 0 0 0 1.689-.538c1.574-.844 3.148-2.533 3.532-4.721-1.305 1.574-2.918 2.38-4.184 2.61-.192.038-.384.038-.576.038-1.036 0-2.111-.038-4.03.385a14.794 14.794 0 0 0-3.877 1.535c.115-.46.383-.845.767-1.19 1.229-1.344 2.227-1.92 3.877-2.61.576-.23 1.075-.423 1.574-.806 1.42-1.075 2.687-2.995 2.725-5.182-1.036 1.727-2.495 2.763-3.685 3.186a3.175 3.175 0 0 1-.575.153c-1.037.192-2.112.307-3.954 1.036-.96.423-2.111.96-3.57 2.073.038-.422.269-.883.576-1.305.998-1.497 1.919-2.226 3.416-3.147.537-.307.998-.615 1.42-1.037 1.267-1.267 2.227-3.378 1.92-5.566-.768 1.881-2.073 3.148-3.186 3.762a2.691 2.691 0 0 1-.499.192c-.998.346-2.035.653-3.762 1.65a16.184 16.184 0 0 0-3.224 2.61c0-.421.153-.882.383-1.343.768-1.65 1.536-2.495 2.879-3.685.461-.384.883-.73 1.267-1.228 1.036-1.459 1.651-3.685.998-5.796-.461 1.957-1.535 3.416-2.533 4.184-.154.115-.308.23-.5.307-.921.499-1.919.921-3.416 2.188-.844.729-1.766 1.612-2.764 3.109-.115-.422-.038-.921.154-1.42.499-1.727 1.113-2.687 2.265-4.069.384-.46.767-.845 1.036-1.42.806-1.613 1.037-3.877.077-5.873-.115 2.034-.96 3.608-1.843 4.53a3.762 3.762 0 0 1-.422.383c-.844.614-1.765 1.228-3.071 2.725Z" fill="#FF0"/></g><defs><clipPath id="a"><path fill="#fff" d="M0 0h186v136H0z"/></clipPath></defs></svg>