<svg width="186" height="136" fill="none" xmlns="http://www.w3.org/2000/svg"><path d="M185.369 115.077c0 5.549-2.17 10.871-6.033 14.795-3.862 3.924-9.101 6.128-14.564 6.128H20.597c-5.463 0-10.702-2.204-14.564-6.128C2.17 125.948 0 120.626 0 115.077V94.153h185.369v20.924Z" fill="#CE2028"/><path d="M.315 41.846h185.369v52.308H.315V41.846Z" fill="#22408C"/><path d="M165.404 0H21.228C15.765 0 10.526 2.204 6.664 6.128 2.8 10.052.63 15.374.63 20.923v20.924H186V20.923c0-5.549-2.17-10.87-6.032-14.795C176.105 2.204 170.866 0 165.404 0Z" fill="#EEE"/></svg>