<svg width="28" height="28" viewBox="0 0 28 28" fill="none" xmlns="http://www.w3.org/2000/svg">
<path d="M15.1788 22.4001C6.15896 22.4001 1.01417 16.0938 0.799805 5.6001H5.31798C5.46639 13.3022 8.79731 16.5647 11.4357 17.2373V5.6001H15.69V12.2427C18.2954 11.9569 21.0327 8.92983 21.9561 5.6001H26.2104C25.8625 7.32699 25.1688 8.96208 24.1729 10.4031C23.177 11.8441 21.9003 13.0601 20.4225 13.9749C22.072 14.8108 23.529 15.9939 24.6972 17.4462C25.8654 18.8985 26.7184 20.5869 27.1998 22.4001H22.5167C22.0846 20.8252 21.2063 19.4155 19.9919 18.3475C18.7775 17.2795 17.281 16.6008 15.69 16.3965V22.4001H15.1788V22.4001Z" fill="black"/>
</svg>
