<svg width="28" height="28" viewBox="0 0 28 28" fill="none" xmlns="http://www.w3.org/2000/svg">
<path d="M23.5122 4.47505C21.1415 2.11255 17.9805 0.800049 14.6439 0.800049C7.70731 0.800049 2.0878 6.40005 2.0878 13.3125C2.0878 15.5 2.70244 17.6875 3.7561 19.525L2 26L8.67317 24.25C10.5171 25.2125 12.5366 25.7376 14.6439 25.7376C21.5805 25.7376 27.2 20.1376 27.2 13.2251C27.1122 9.98755 25.8829 6.83755 23.5122 4.47505ZM20.7024 17.775C20.439 18.475 19.2098 19.175 18.5951 19.2625C18.0683 19.35 17.3659 19.3501 16.6634 19.1751C16.2244 19.0001 15.6098 18.8251 14.9073 18.4751C11.7463 17.1626 9.72683 14.0125 9.55122 13.75C9.37561 13.575 8.23415 12.0875 8.23415 10.5125C8.23415 8.93755 9.02439 8.23755 9.2878 7.88755C9.55122 7.53755 9.90244 7.53755 10.1659 7.53755C10.3415 7.53755 10.6049 7.53755 10.7805 7.53755C10.9561 7.53755 11.2195 7.45005 11.4829 8.06255C11.7463 8.67505 12.361 10.25 12.4488 10.3375C12.5366 10.5125 12.5366 10.6875 12.4488 10.8625C12.361 11.0375 12.2732 11.2125 12.0976 11.3875C11.9219 11.5625 11.7463 11.825 11.6585 11.9125C11.4829 12.0875 11.3073 12.2625 11.4829 12.525C11.6585 12.875 12.2732 13.8375 13.239 14.7125C14.4683 15.7625 15.4341 16.1126 15.7854 16.2876C16.1366 16.4626 16.3122 16.375 16.4878 16.2C16.6634 16.025 17.2781 15.3251 17.4537 14.9751C17.6293 14.6251 17.8927 14.7125 18.1561 14.8C18.4195 14.8875 20 15.6751 20.2634 15.8501C20.6146 16.0251 20.7902 16.1125 20.878 16.2C20.9659 16.4625 20.9659 17.075 20.7024 17.775Z" fill="black"/>
</svg>
