<svg viewBox="0 0 175 27" id="logo" xmlns="http://www.w3.org/2000/svg">
<rect width="27" height="27" fill="var(--logo-square-color, #20212B)"/>
<path d="M4.45068 23.5879V3.26373H10.2364V11.5714H10.5331L15.8738 3.26373H21.5111L16.3188 10.8297L16.4672 11.1264L22.6979 23.5879H15.8738L12.4617 16.1703L10.3847 18.6923V23.5879H4.45068Z" fill="white"/>
<path d="M156.751 23.5879V3.26373H162.537V11.5714H162.834L168.175 3.26373H173.812L168.62 10.8297L168.768 11.1264L174.999 23.5879H168.175L164.762 16.1703L162.686 18.6923V23.5879H156.751Z" fill="#FAAA00"/>
<path d="M41.5386 3.26373H35.6045V23.7363H49.6979V18.8407H41.8353V3.26373H41.5386Z" fill="#FAAA00"/>
<path d="M84.21 12.29V16.6383H89.1568V21.7007H89.5456L90.19 23.6521H93.137V12.29H84.21Z" fill="#FAAA00"/>
<path fill-rule="evenodd" clip-rule="evenodd" d="M93.2689 13.4532C93.2689 19.2962 87.4712 24.0329 84.3582 24.0329C78.61 24.0329 74.7559 20.0971 74.7559 13.4532C74.7559 7.6101 78.7088 2.67117 84.3582 2.87337C88.7268 2.87337 92.1011 5.3068 93.0259 10.0739L87.4374 10.7459C86.8866 8.73664 85.7398 7.35763 84.4426 7.38425C82.6652 7.42072 81.2688 9.62133 81.3449 13.3291C81.4115 16.5758 82.2995 19.1418 84.6839 19.1418C87.3395 18.8783 87.8482 16.4438 87.7816 13.197C87.7744 12.8476 87.7507 12.5056 87.7118 12.1736H93.1372H93.2647C93.2818 12.5866 93.2834 13.0131 93.2689 13.4532Z" fill="#FAAA00"/>
<path fill-rule="evenodd" clip-rule="evenodd" d="M61.8948 24.033C67.3288 24.033 71.734 19.2963 71.734 13.4532C71.734 7.61015 67.3288 2.87341 61.8948 2.87341C56.4608 2.87341 52.0557 7.61015 52.0557 13.4532C52.0557 19.2963 56.4608 24.033 61.8948 24.033ZM61.8867 19.4261C63.5017 19.4261 64.8108 16.7754 64.8108 13.5055C64.8108 10.2356 63.5017 7.5848 61.8867 7.5848C60.2717 7.5848 58.9625 10.2356 58.9625 13.5055C58.9625 16.7754 60.2717 19.4261 61.8867 19.4261Z" fill="#FAAA00"/>
<path d="M98.1279 23.612V3.35071H104.289V23.612H98.1279Z" fill="#FAAA00"/>
<path d="M145.489 23.612V3.35071H151.65V23.612H145.489Z" fill="#FAAA00"/>
<path d="M119.865 9.44915L124.953 7.80838C124.552 7.04289 123.401 5.09058 121.022 3.9186C119.117 2.98102 117.402 3.02552 116.31 3.06706C114.764 3.1264 112.153 3.22432 110.213 5.22113C109.848 5.59794 108.418 7.1141 108.341 9.46695C108.323 9.96838 108.293 11.6359 109.37 13.0838C110.874 15.1013 113.818 15.7155 115.806 16.1339C117.39 16.4662 118.722 16.5285 119.06 17.3919C119.241 17.8518 119.096 18.4333 118.79 18.7834C118.334 19.3086 117.156 19.4165 116.153 19.3483C115.203 19.28 114.782 19.0594 114.019 18.4274C113.346 17.8726 113.076 17.1634 112.969 16.8074C111.085 17.11 109.198 17.4097 107.314 17.7123C107.875 20.0296 109.044 21.2639 109.628 21.792C111.931 23.8689 115.076 23.86 117.408 23.8511C118.224 23.8511 118.856 23.8422 119.698 23.6405C120.345 23.4862 122.849 22.8839 124.363 20.5192C124.683 20.0177 125.523 18.6648 125.416 16.7659C125.398 16.4454 125.253 14.3715 123.662 12.8405C122.793 12.0038 121.749 11.6863 119.695 11.0899C116.589 10.185 114.859 10.2592 114.476 9.18212C114.346 8.81717 114.405 8.41959 114.565 8.14366C115.049 7.30695 116.607 7.35146 117.509 7.59772C118.885 7.97454 119.627 9.06344 119.865 9.44915Z" fill="#FAAA00"/>
<path d="M131.971 23.5441V8.30533H127.826V3.26636H142.17V8.30533H137.863V23.5441H131.971Z" fill="#FAAA00"/>
</svg>
