<svg width="1019" height="1018" viewBox="0 0 1019 1018" fill="none" xmlns="http://www.w3.org/2000/svg">
<g opacity="0.05">
<path d="M467.401 919.343C467.401 919.343 469.059 919.866 469.864 920.038C517.957 921.321 569.729 912.528 621.78 893.014C621.153 892.796 620.658 892.353 620.031 892.135C567.669 911.918 515.672 920.579 467.401 919.343Z" fill="#1A1B27"/>
<path d="M777.257 797.192C777.257 797.192 777.89 798.169 778.161 798.48C820.963 760.818 855.813 717.412 881.128 671.712C880.944 670.999 880.806 670.464 880.622 669.751C855.175 715.675 820.013 759.351 777.033 797.06L777.257 797.192Z" fill="#1A1B27"/>
<path d="M624.577 890.582C624.577 890.582 625.699 891.243 626.326 891.461C648.294 882.942 670.159 872.547 691.921 860.278C721.781 843.257 749.432 823.575 774.477 801.902C774.339 801.367 773.89 801.103 773.574 800.614C748.351 822.332 720.567 842.24 690.529 859.306C668.813 871.754 646.769 882.194 624.623 890.76L624.577 890.582Z" fill="#1A1B27"/>
<path d="M883.201 667.944C896.34 643.639 906.837 618.685 914.474 593.708C915.166 590.487 915.725 587.491 916.416 584.27C908.663 611.749 897.469 639.165 883.006 665.713C883.19 666.426 883.328 666.961 883.334 667.72L883.201 667.944Z" fill="#1A1B27"/>
<path d="M927.814 523.718C928.421 515.005 928.624 506.206 928.517 497.677L928.324 489.551C928.712 499.909 928.566 510.404 927.838 520.859C927.89 521.797 927.941 522.734 927.993 523.672L927.814 523.718Z" fill="#1A1B27"/>
<path d="M925.82 538.112C925.618 541.017 925.415 543.921 925.167 546.647C926.193 540.298 926.816 533.862 927.486 527.605C927.434 526.668 927.382 525.73 927.331 524.793C926.961 529.262 926.368 533.598 925.774 537.934L925.82 538.112Z" fill="#1A1B27"/>
<path d="M456.991 919.557C459.897 919.758 462.803 919.959 465.841 919.935C465.036 919.763 464.184 919.412 463.379 919.24C458.194 919.056 452.963 918.695 447.686 918.155C450.862 918.666 453.814 919.045 456.945 919.378L456.991 919.557Z" fill="#1A1B27"/>
<path d="M208.595 793.882C217.317 801.138 226.661 807.855 236.356 813.719C235.724 812.742 234.912 811.81 234.28 810.833C223.238 804.174 212.904 796.573 203.325 788.206C205.125 790.023 206.748 791.887 208.549 793.704L208.595 793.882Z" fill="#1A1B27"/>
<path d="M827.57 235.47L822.432 229.57C832.028 240.214 840.514 251.715 847.934 264.251C849.424 266.338 850.96 268.604 852.674 270.824C845.386 258.063 837.033 246.338 827.57 235.47Z" fill="#1A1B27"/>
<path d="M719.177 719.578C719.989 720.51 720.621 721.487 721.433 722.419C768.097 681.288 806.315 633.971 833.968 584.056C833.157 583.124 832.345 582.192 831.713 581.215C804.014 630.952 765.842 678.448 719.177 719.578Z" fill="#1A1B27"/>
<path d="M882.083 423.904C877.674 474.668 860.943 527.09 833.871 577.045C834.682 577.977 835.494 578.908 836.126 579.886C863.198 529.93 879.929 477.509 884.338 426.745C883.527 425.813 882.716 424.882 881.905 423.95L882.083 423.904Z" fill="#1A1B27"/>
<path d="M553.506 820.883C554.317 821.814 554.95 822.792 555.761 823.723C579.646 814.519 603.56 803.216 627.279 789.681C659.988 771.165 690.217 749.676 717.391 725.933C716.58 725.001 715.947 724.024 715.136 723.092C687.738 746.703 657.686 768.146 624.977 786.662C601.259 800.197 577.345 811.5 553.46 820.704L553.506 820.883Z" fill="#1A1B27"/>
<path d="M239.947 815.835C280.115 839.507 328.251 852.757 380.371 854.902C379.738 853.925 378.927 852.993 378.294 852.015C325.996 849.917 278.039 836.62 237.871 812.948C238.503 813.926 239.315 814.858 239.947 815.835Z" fill="#1A1B27"/>
<path d="M382.719 852.205C383.352 853.182 384.163 854.114 384.796 855.092C437.314 856.563 493.816 846.93 550.725 825.593C549.914 824.661 549.281 823.684 548.47 822.752C491.561 844.089 435.059 853.723 382.719 852.205Z" fill="#1A1B27"/>
<path d="M164.715 745.499L169.231 751.939C169.231 751.939 169.818 752.739 170.088 753.049C169.502 752.25 168.915 751.451 168.328 750.651C167.108 748.874 165.935 747.276 164.715 745.499Z" fill="#1A1B27"/>
<path d="M882.499 419.614C883.31 420.545 884.121 421.477 884.932 422.408C888.102 379.38 882.209 337.358 866.376 298.852C865.018 296.54 863.707 294.407 862.349 292.095C862.487 292.63 862.579 292.986 862.895 293.475C879.494 332.735 885.571 375.469 882.499 419.614Z" fill="#1A1B27"/>
<path d="M194.913 689.223C230.818 710.382 273.624 722.155 320.335 723.984C319.968 722.558 319.6 721.131 319.232 719.705C272.877 717.784 230.295 706.143 194.615 685.116C194.759 686.41 194.948 687.883 195.092 689.177L194.913 689.223Z" fill="#1A1B27"/>
<path d="M110.48 595.02C128.155 634.763 156.489 665.671 191.95 687.325C191.807 686.031 191.617 684.559 191.652 683.219C156.415 661.697 128.305 630.921 110.677 591.357C110.596 592.519 110.515 593.68 110.613 594.796L110.48 595.02Z" fill="#1A1B27"/>
<path d="M108.847 591.639C108.927 590.477 109.008 589.316 108.911 588.2C103.637 575.871 99.5657 563.041 96.611 550.113C96.8981 552.701 97.2311 555.467 97.5182 558.055C100.462 569.464 104.165 580.868 108.668 591.685L108.847 591.639Z" fill="#1A1B27"/>
<path d="M766.399 339.856C762.44 384.99 747.765 431.367 723.647 475.807C724.861 476.825 726.029 477.665 727.421 478.636C751.672 433.972 766.479 387.37 770.525 341.834C769.224 341.219 767.924 340.604 766.578 339.81L766.399 339.856Z" fill="#1A1B27"/>
<path d="M323.122 720.033C323.49 721.459 323.858 722.885 324.226 724.311C371.023 725.738 421.5 717.088 472.303 697.897C471.578 696.563 470.853 695.229 470.261 693.67C419.769 712.591 369.649 721.149 323.076 719.854L323.122 720.033Z" fill="#1A1B27"/>
<path d="M91.7668 474.547L91.5187 477.273C91.1548 482.5 90.9234 487.504 90.7379 492.685C90.8647 491.702 90.8132 490.764 90.94 489.781C91.1255 484.599 91.357 479.596 91.7668 474.547Z" fill="#1A1B27"/>
<path d="M578.585 96.4469L569.861 95.085C580.731 96.6537 591.337 98.671 601.545 101.361C604.365 101.965 607.409 102.701 610.275 103.482C600.02 100.614 589.501 98.1939 578.585 96.4469Z" fill="#1A1B27"/>
<path d="M474.629 692.163C475.354 693.497 476.079 694.831 476.849 696.344C498.104 688.008 519.48 677.93 540.752 665.977C569.945 649.319 596.796 630.223 621.219 609.091C620.137 607.849 619.28 606.739 618.198 605.497C593.908 626.404 567.057 645.501 538.221 662.067C517.127 673.974 495.93 684.006 474.675 692.341L474.629 692.163Z" fill="#1A1B27"/>
<path d="M766.728 335.968C768.028 336.584 769.329 337.199 770.629 337.814C773.603 298.449 768.094 260.131 753.181 225.19C750.863 219.894 748.591 214.776 746.008 209.928C744.754 209.491 743.545 209.232 742.291 208.795C744.874 213.643 747.324 218.715 749.463 224.057C764.331 258.82 769.794 296.96 766.774 336.147L766.728 335.968Z" fill="#1A1B27"/>
<path d="M90.9684 493.576C90.9684 493.576 90.7147 495.543 90.7663 496.481C90.7243 502.956 90.9068 509.564 91.2217 515.947C91.1994 512.911 91.2232 510.053 91.2009 507.016C90.9892 502.508 90.9558 497.953 90.9224 493.398L90.9684 493.576Z" fill="#1A1B27"/>
<path d="M621.75 602.299C622.832 603.541 623.689 604.651 624.771 605.893C666.462 569.088 700.472 526.849 725.171 482.449C723.957 481.431 722.789 480.592 721.575 479.574C697.008 523.75 663.177 565.943 621.75 602.299Z" fill="#1A1B27"/>
<path d="M91.7672 474.547L92.2579 468.335C92.0502 470.481 91.7965 472.447 91.7672 474.547Z" fill="#1A1B27"/>
<path d="M740.525 205.638C741.779 206.075 742.988 206.334 744.242 206.771C723.995 169.593 693.623 141.113 656.659 121.748C656.256 121.662 655.807 121.397 655.404 121.311C654.599 121.138 653.615 121.012 652.809 120.84C689.905 139.98 720.099 168.507 740.346 205.684L740.525 205.638Z" fill="#1A1B27"/>
<path d="M649.938 119.299C649.938 119.299 649.311 119.08 648.908 118.994C648.908 118.994 649.357 119.258 649.535 119.212C649.535 119.212 649.714 119.166 649.892 119.12L649.938 119.299Z" fill="#1A1B27"/>
<path d="M529.66 133.977C503.244 120.828 472.273 114.368 438.895 114.803C438.095 115.39 437.473 115.93 436.673 116.517C469.47 116.042 500.038 122.416 526.052 135.479C527.301 135.157 528.458 134.478 529.706 134.156L529.66 133.977Z" fill="#1A1B27"/>
<path d="M148.224 464.735C148.886 463.613 149.548 462.492 150.343 461.146C141.612 440.581 137.607 418.418 137.751 395.374C136.997 396.139 136.289 397.082 135.535 397.847C135.258 421.115 139.356 443.635 148.357 464.51L148.224 464.735Z" fill="#1A1B27"/>
<path d="M228.033 208.372C228.033 208.372 227.406 208.154 227.181 208.021C199.448 234.761 177.014 265.076 161.382 296.68C162.095 296.495 162.539 296.001 163.206 295.638C178.574 264.484 200.565 234.663 228.033 208.372Z" fill="#1A1B27"/>
<path d="M589.051 195.281C590.524 195.091 591.997 194.901 593.516 194.89C579.159 168.742 557.785 148.587 531.679 135.168C530.43 135.49 529.227 135.99 528.025 136.491C553.728 149.824 574.785 169.49 588.918 195.505L589.051 195.281Z" fill="#1A1B27"/>
<path d="M607.322 286.017C608.933 286.362 610.499 286.529 612.11 286.874C614.096 259.171 610.236 232.407 599.912 207.88C598.411 204.275 596.732 200.715 594.874 197.201C593.401 197.391 591.881 197.403 590.408 197.593C592.22 200.928 593.9 204.488 595.401 208.094C605.632 232.263 609.401 258.671 607.5 285.971L607.322 286.017Z" fill="#1A1B27"/>
<path d="M159.971 299.325C144.742 331.015 136.044 363.681 135.426 395.213C136.18 394.448 136.888 393.505 137.642 392.74C138.398 361.743 146.785 329.347 161.974 298.238C161.26 298.422 160.639 298.963 160.149 299.279L159.971 299.325Z" fill="#1A1B27"/>
<path d="M433.813 116.494C433.813 116.494 435.235 115.367 436.035 114.78C402.571 115.618 366.923 123.484 331.286 138.762C331.021 139.211 330.935 139.613 330.67 140.062C365.772 124.922 400.884 117.194 433.945 116.27L433.813 116.494Z" fill="#1A1B27"/>
<path d="M208.517 533.221C233.65 548.033 263.74 556.241 296.461 557.687C296.404 555.99 296.393 554.472 296.336 552.776C264.017 551.416 234.509 543.248 209.646 528.747C209.255 530.179 208.909 531.789 208.517 533.221Z" fill="#1A1B27"/>
<path d="M404.38 533.457C404.794 535.062 405.565 536.574 406.112 537.954C420.995 532.213 436.091 525.086 450.866 516.711C471.293 505.166 490.229 491.534 507.371 476.845C506.289 475.603 505.208 474.36 504.126 473.118C487.341 487.716 468.67 500.899 448.421 512.398C433.825 520.727 419.085 527.762 404.38 533.457Z" fill="#1A1B27"/>
<path d="M299.017 552.844C299.074 554.541 299.085 556.059 299.143 557.755C331.95 558.798 367.476 552.675 403.038 539.317C402.624 537.713 401.854 536.201 401.261 534.642C366.234 547.862 331.244 553.847 299.017 552.844Z" fill="#1A1B27"/>
<path d="M327.596 141.425C327.596 141.425 327.947 140.574 328.212 140.126C317.789 144.716 307.504 149.841 297.224 155.726C272.17 169.985 249.504 186.861 229.622 205.68C229.8 205.634 230.249 205.899 230.474 206.031C250.045 187.482 272.579 170.831 297.098 156.709C307.199 150.871 317.305 145.792 327.55 141.247L327.596 141.425Z" fill="#1A1B27"/>
<path d="M506.613 470.956C507.694 472.198 508.776 473.44 509.857 474.682C538.983 448.914 562.942 419.346 580.364 388.042C578.839 387.294 577.493 386.501 576.146 385.707C558.943 416.385 535.473 445.637 506.837 471.088L506.613 470.956Z" fill="#1A1B27"/>
<path d="M149.225 467.138C161.718 494.908 181.405 516.638 206.273 531.898C206.665 530.466 207.011 528.856 207.402 527.424C182.983 512.429 163.388 491.055 151.166 463.595C150.504 464.717 149.887 466.017 149.047 467.184L149.225 467.138Z" fill="#1A1B27"/>
<path d="M607.252 288.697C604.488 320.023 594.179 352.344 577.557 383.062C579.082 383.809 580.428 384.603 581.953 385.35C599.018 354.138 609.368 321.236 612.219 289.507C610.607 289.162 608.996 288.818 607.431 288.651L607.252 288.697Z" fill="#1A1B27"/>
<path d="M286.181 246.419C286.181 246.419 284.743 245.269 283.845 244.74C273.018 255.139 264.256 266.907 258.314 279.277C259.476 279.358 260.639 279.438 261.755 279.34C267.478 267.596 275.843 256.502 286.048 246.643L286.181 246.419Z" fill="#1A1B27"/>
<path d="M253.072 344.516C254.315 343.435 255.605 342.532 256.848 341.451C253.53 333.751 252.128 325.366 252.199 316.791C250.817 317.338 249.482 318.063 248.279 318.563C248.168 327.719 249.84 336.414 253.251 344.47L253.072 344.516Z" fill="#1A1B27"/>
<path d="M253.481 345.362C258.387 356.265 266.044 364.557 275.785 370.6C276.758 369.208 277.507 367.684 278.48 366.292C269.233 360.692 262.025 352.665 257.256 342.296C256.013 343.378 254.724 344.281 253.481 345.362Z" fill="#1A1B27"/>
<path d="M276.684 371.129C286.557 376.948 298.198 380.029 310.893 380.556C311.239 378.946 311.585 377.336 311.93 375.726C299.817 375.238 288.757 372.197 279.332 366.643C278.359 368.035 277.61 369.559 276.638 370.951L276.684 371.129Z" fill="#1A1B27"/>
<path d="M428.506 276.629C427.565 288.471 423.632 300.514 417.281 312.039C418.76 312.608 420.193 312.999 421.672 313.568C428.241 301.416 432.393 288.746 433.375 276.324C431.677 276.382 429.98 276.439 428.328 276.675L428.506 276.629Z" fill="#1A1B27"/>
<path d="M401.561 215.702C391.29 210.556 379.205 207.969 366.338 208.247C365.675 209.368 365.238 210.622 364.576 211.743C376.908 211.604 388.365 213.972 398.188 218.853C399.252 217.818 400.496 216.737 401.561 215.702Z" fill="#1A1B27"/>
<path d="M428.633 275.646C430.331 275.588 431.983 275.352 433.681 275.295C434.541 264.615 432.99 254.177 428.987 244.562C428.44 243.182 427.67 241.67 426.945 240.336C425.385 240.928 423.871 241.699 422.312 242.291C423.036 243.626 423.583 245.006 424.083 246.208C427.948 255.288 429.361 265.191 428.588 275.468L428.633 275.646Z" fill="#1A1B27"/>
<path d="M363.459 211.841C364.121 210.72 364.559 209.466 365.221 208.345C352.175 208.668 338.299 211.678 324.446 217.723C324.676 218.615 324.595 219.776 324.693 220.892C337.878 215.209 351.04 212.383 363.505 212.02L363.459 211.841Z" fill="#1A1B27"/>
<path d="M257.784 280.175C251.842 292.546 248.449 305.21 248.181 317.448C249.563 316.901 250.898 316.176 252.101 315.676C252.328 304.019 255.456 291.803 261.179 280.059C260.017 279.979 258.901 280.077 257.56 280.042L257.784 280.175Z" fill="#1A1B27"/>
<path d="M421.724 241.492C423.284 240.9 424.797 240.129 426.357 239.537C420.875 229.352 412.372 221.469 402.279 216.277C401.036 217.358 399.971 218.393 398.728 219.475C408.371 224.402 416.38 231.843 421.546 241.538L421.724 241.492Z" fill="#1A1B27"/>
<path d="M323.49 221.393C323.214 220.323 323.162 219.386 323.065 218.27C318.967 220.088 315.093 222.038 311.133 224.39C301.343 229.958 292.588 236.59 284.777 243.929C285.497 244.504 286.216 245.079 286.981 245.833C294.303 238.81 302.793 232.627 312.094 227.375C315.921 225.247 319.795 223.297 323.536 221.571L323.49 221.393Z" fill="#1A1B27"/>
<path d="M390.801 345.11C391.836 346.174 392.872 347.238 393.907 348.302C405.23 338.346 414.619 326.797 421.366 314.598C419.887 314.029 418.409 313.46 416.976 313.069C410.625 324.594 401.68 335.649 390.979 345.064L390.801 345.11Z" fill="#1A1B27"/>
<path d="M352.318 368.538C352.686 369.964 353.1 371.569 353.468 372.995C359.35 370.717 365.094 367.904 370.925 364.689C378.89 360.162 386.269 354.835 392.797 349.159C391.761 348.095 390.726 347.031 389.868 345.921C383.473 351.374 376.584 356.384 368.929 360.64C363.455 363.764 357.844 366.352 352.318 368.538Z" fill="#1A1B27"/>
<path d="M312.736 375.898C312.39 377.508 312.045 379.119 311.877 380.683C324.705 380.986 338.407 378.782 352.266 373.495C351.898 372.069 351.484 370.465 351.116 369.038C337.925 373.963 324.804 376.207 312.736 375.898Z" fill="#1A1B27"/>
<path d="M927.012 511.756C927.199 476.341 923.001 440.157 913.757 404.324C902.535 360.825 884.768 320.726 861.937 284.596C861.983 284.774 862.253 285.085 862.477 285.217C869.83 294.538 876.157 304.314 881.415 314.366L878.061 308.006C873.034 298.845 867.339 290.047 860.62 281.703C859.808 280.772 858.997 279.84 858.364 278.863C856.558 276.286 854.884 273.486 853.078 270.91C851.542 268.644 850.052 266.557 848.338 264.337C805.088 204.383 746.787 157.629 680.477 127.772C688.584 130.434 696.519 133.901 704.011 137.862L698.315 134.959C690.869 131.175 683.204 128.019 675.142 125.535C654.341 116.451 632.659 109.116 610.499 103.615C607.633 102.833 604.814 102.229 601.769 101.494C568.601 93.889 534.39 90.3561 499.585 91.1596C501.282 91.1018 502.98 91.0441 504.678 90.9864L502.042 91.096L499.585 91.1596C497.887 91.2173 496.011 91.321 494.313 91.3787C464.515 92.4116 434.606 96.7052 404.633 104.438C333.448 122.803 271.281 158.426 221.623 205.653L218.739 208.488C185.503 240.45 158.026 277.771 137.143 318.524C135.773 320.589 134.581 322.608 133.568 324.58L131.719 328.48C132.687 326.329 133.879 324.31 135.249 322.245C110.629 371.378 95.6987 425.617 91.9094 481.735C91.4828 484.507 91.0563 487.279 90.8081 490.005C90.6813 490.989 90.7328 491.926 90.606 492.909C90.4442 495.233 90.3285 497.734 90.3452 500.012L90.2977 505.728C90.2755 502.692 90.4776 499.788 90.6338 496.705C90.7606 495.722 90.7091 494.784 90.8359 493.801C91.0436 491.656 91.2514 489.51 91.5915 487.141C91.2387 493.887 91.0644 500.587 91.0685 507.241C91.0447 510.099 91.067 513.135 91.0892 516.172C91.7716 548.319 95.9874 580.886 104.358 613.332C107.9 627.059 112.063 640.246 116.761 653.294C118.682 659.263 120.827 665.365 123.282 671.196L126.147 677.872C123.512 672.087 121.281 666.388 119.36 660.419C131.978 693.1 148.556 723.429 168.241 751.054C168.828 751.853 169.415 752.652 170.002 753.452C267.695 888.725 441.852 957.497 613.303 913.264C730.697 882.978 823.437 805.813 876.74 707.069C876.521 707.696 876.256 708.144 876.038 708.771L878.11 705.004C878.11 705.004 878.726 703.704 879.078 702.853C904.198 654.922 920.077 602.15 925.127 547.228C925.329 544.323 925.577 541.597 925.779 538.693C926.356 532.08 926.531 525.38 926.659 518.502C926.854 520.733 927.095 523.143 927.112 525.42C927.163 526.357 927.215 527.295 927.266 528.232C927.3 532.787 927.287 537.163 926.918 541.632L927.368 536.002C927.697 532.114 927.802 528.094 927.549 524.166C927.498 523.229 927.446 522.291 927.395 521.354C927.194 518.364 926.947 515.195 926.568 512.25L927.012 511.756ZM916.462 584.449C915.949 587.623 915.212 590.666 914.52 593.886C907.825 625.465 897.459 656.09 883.818 685.088C884.361 679.814 884.23 674.144 883.247 668.123C883.063 667.41 882.925 666.875 882.92 666.116C879.047 643.728 865.443 616.815 841.402 586.321C839.734 584.279 838.019 582.06 836.351 580.018C835.54 579.087 834.728 578.155 834.096 577.178C806.596 544.343 769.797 510.865 727.421 478.636C726.207 477.619 725.039 476.779 723.647 475.807C680.914 443.67 632.473 413.006 581.82 385.574C580.296 384.827 578.949 384.034 577.424 383.286C526.64 356.079 473.69 332.282 421.942 313.879C420.463 313.31 419.031 312.919 417.552 312.35C389.73 302.605 362.5 294.419 336.001 288.326C362.235 294.868 389.557 303.41 417.068 313.425C418.547 313.994 420.026 314.564 421.459 314.954C472.988 333.984 525.672 358.23 576.192 385.886C577.539 386.679 579.063 387.427 580.41 388.22C630.797 416.1 678.974 447.213 721.574 479.574C722.788 480.592 723.956 481.432 725.17 482.449C767.414 514.903 804.08 548.605 831.58 581.439C832.391 582.371 833.202 583.302 833.835 584.28C835.549 586.5 837.218 588.541 838.886 590.582C862.928 621.077 876.663 647.765 880.715 670.107C880.899 670.82 881.037 671.355 881.221 672.068C882.249 678.268 882.426 684.116 881.751 689.614C876.909 699.61 871.485 709.565 865.97 719.164C844.783 755.052 818.343 787.543 787.18 815.737C786.306 812.35 783.315 806.657 778.253 798.836C778.115 798.301 777.666 798.037 777.35 797.548C767.541 782.396 750.841 759.704 726.575 729.078C724.907 727.036 723.193 724.817 721.478 722.597C720.667 721.666 720.034 720.688 719.223 719.756C692.299 686.203 659.973 647.198 624.816 606.072C623.734 604.829 622.877 603.72 621.796 602.478C586.414 561.219 548.334 517.614 509.903 474.86C508.822 473.618 507.74 472.376 506.659 471.134C468.228 428.38 429.848 386.564 393.954 348.48C392.918 347.416 391.883 346.352 390.847 345.288C371.706 324.938 353.244 305.744 335.955 288.148C352.933 306.014 371.084 325.479 389.914 346.099C390.95 347.163 391.986 348.227 392.843 349.337C428.294 387.916 466.23 430.227 503.994 473.343C505.075 474.585 506.157 475.827 507.238 477.069C545.18 520.139 582.949 564.014 618.02 605.543C619.101 606.785 619.959 607.895 621.04 609.137C656.065 650.488 688.212 689.539 715.004 723.317C715.815 724.248 716.448 725.226 717.259 726.157C718.973 728.377 720.642 730.418 722.356 732.638C746.398 763.132 763.501 785.91 773.441 800.838C773.579 801.373 774.074 801.816 774.344 802.126C779.631 810.079 782.754 815.548 783.761 818.711C745.535 852.721 700.422 879.951 650.103 898.066C642.91 898.211 634.94 896.084 626.372 891.639C625.745 891.421 625.25 890.978 624.623 890.76C606.274 880.853 584.767 860.923 560.726 830.428C559.057 828.387 557.343 826.167 555.629 823.948C554.817 823.016 554.185 822.039 553.374 821.107C527.607 786.875 501.376 744.206 476.717 696.568C475.992 695.234 475.267 693.9 474.497 692.387C449.792 644.571 426.527 592.011 406.025 538.357C405.433 536.798 404.84 535.24 404.294 533.86C383.97 480.16 366.455 425.545 353.382 373.398C353.014 371.971 352.6 370.367 352.232 368.941C345.414 341.038 339.764 313.975 335.598 288.24C339.229 314.113 344.522 341.268 350.983 369.263C351.351 370.689 351.765 372.294 352.133 373.72C364.493 426.052 381.34 481.029 401.129 534.867C401.543 536.471 402.313 537.983 402.906 539.542C422.873 593.334 445.827 646.165 470.174 694.073C470.899 695.407 471.624 696.741 472.216 698.3C496.697 745.984 522.571 788.744 548.338 822.977C549.149 823.908 549.782 824.886 550.593 825.817C552.307 828.037 553.975 830.078 555.69 832.298C579.731 862.792 601.416 882.677 619.944 892.537C620.571 892.756 621.066 893.198 621.693 893.417C630.439 897.815 638.409 899.942 645.603 899.798C634.771 903.543 623.669 906.977 612.43 909.877C566.221 921.799 519.774 925.415 474.657 921.654C473.046 921.309 471.435 920.964 469.777 920.441C468.972 920.269 468.12 919.918 467.315 919.745C440.264 911.513 413.848 892.469 389.807 861.975C388.138 859.933 386.424 857.714 384.888 855.448C384.255 854.471 383.444 853.539 382.811 852.561C357.936 818.099 338.445 774.262 324.318 724.668C323.95 723.241 323.582 721.815 323.214 720.389C309.576 670.478 301.395 615.167 299.235 558.112C299.177 556.416 299.166 554.897 299.109 553.201C297.305 496.054 301.567 437.342 311.969 381.04C312.314 379.429 312.66 377.819 312.827 376.255C318.728 346.021 326.332 316.49 335.823 288.372C325.975 316.582 317.968 346.027 311.665 376.174C311.319 377.785 310.974 379.395 310.628 381.005C299.467 437.314 294.802 495.939 296.071 553.224C296.128 554.921 296.139 556.439 296.196 558.135C297.776 615.15 305.6 670.554 319.013 720.332C319.381 721.758 319.749 723.184 320.117 724.611C333.841 774.119 353.333 817.956 378.029 852.464C378.662 853.442 379.473 854.373 380.106 855.351C381.82 857.571 383.31 859.658 385.025 861.878C409.066 892.372 435.66 911.37 462.935 919.734C463.787 920.085 464.592 920.258 465.398 920.43C466.607 920.689 467.815 920.947 469.069 921.384C464.955 920.925 460.84 920.465 456.726 920.005C453.595 919.672 450.597 919.115 447.467 918.782C394.41 910.794 343.87 892.65 298.316 865.804C285.301 858.134 272.907 849.923 260.865 840.861C255.238 835.277 249.698 829.291 244.601 822.811C242.932 820.769 241.218 818.55 239.682 816.284C239.049 815.306 238.238 814.375 237.605 813.397C213.582 779.286 199.551 736.702 194.648 689.671C194.505 688.377 194.315 686.905 194.172 685.611C189.758 638.264 194.652 586.425 208.074 533.716C208.465 532.284 208.811 530.673 209.203 529.241C223.16 476.395 245.646 422.678 276.24 371.624C277.213 370.232 277.961 368.708 278.934 367.316C295.492 340.037 314.38 313.679 335.466 288.464C314.109 313.368 294.818 339.641 278.036 366.787C277.064 368.179 276.315 369.703 275.342 371.095C244.299 421.885 221.365 475.337 207.137 527.873C206.745 529.305 206.4 530.915 206.008 532.347C192.183 584.97 187.066 636.677 191.209 683.713C191.352 685.007 191.542 686.48 191.507 687.82C196.185 734.718 210.17 777.124 234.193 811.235C234.826 812.213 235.637 813.144 236.27 814.122C237.806 816.388 239.474 818.429 241.189 820.649C245.699 826.33 250.474 831.563 255.382 836.571C238.754 823.749 223.098 809.534 208.508 794.284C206.707 792.467 205.085 790.604 203.284 788.787C162.287 743.463 130.563 689.092 112.101 627.116C110.728 616.632 110.069 605.965 110.48 595.021C110.561 593.859 110.642 592.697 110.544 591.581C112.258 551.02 125.487 508.628 149.225 467.138C149.887 466.017 150.503 464.717 151.344 463.55C175.484 422.146 210 381.868 253.659 345.316C254.902 344.235 256.145 343.153 257.435 342.25C281.155 322.821 307.252 304.49 335.909 287.97C182.068 375.384 97.1106 508.534 110.22 620.566C109.484 617.714 108.795 615.04 108.059 612.187C103.413 594.182 100.063 576.032 97.875 557.963C97.5879 555.375 97.2548 552.609 96.9678 550.021C93.9827 520.749 94.2606 491.586 97.4041 463.205C104.701 440.597 117.5 418.662 135.581 398.025C136.335 397.26 137.043 396.317 137.797 395.552C164.437 366.053 201.781 339.686 248.279 318.563C249.66 318.017 250.996 317.292 252.199 316.791C277.453 305.522 305.401 295.84 335.909 287.97C305.488 295.438 277.494 304.942 252.326 315.808C250.944 316.355 249.563 316.901 248.406 317.58C201.77 338.168 164.467 363.953 137.867 392.872C137.112 393.637 136.404 394.58 135.65 395.345C118.099 415.085 105.473 436.215 97.9924 458.11C104.445 405.678 120.968 355.401 146.105 309.747C150.279 306.009 154.901 302.535 160.196 299.457C160.909 299.273 161.531 298.733 162.02 298.416C184.363 286.187 216.759 279.731 257.83 280.353C258.993 280.433 260.109 280.335 261.45 280.37C283.842 280.867 308.661 283.401 335.955 288.148C308.794 283.176 284.061 280.241 261.98 279.473C260.817 279.392 259.655 279.312 258.538 279.41C217.686 278.161 185.555 284.168 163.477 295.949C162.763 296.133 162.32 296.628 161.652 296.99C156.49 299.843 152 303.093 147.959 306.607C149.37 303.962 150.959 301.27 152.548 298.578C172.278 265.157 196.72 234.514 225.167 207.59C225.973 207.763 226.6 207.981 227.406 208.154C227.584 208.108 228.033 208.372 228.257 208.504C238.874 212.04 257.776 224.086 284.07 244.872C284.789 245.447 285.508 246.022 286.406 246.551C300.744 257.873 317.469 271.812 336.134 288.102C317.78 271.541 301.365 257.333 287.338 245.74C286.619 245.165 285.9 244.59 285.134 243.837C259.33 222.734 241.05 210.148 230.698 206.163C230.52 206.209 230.071 205.945 229.846 205.813C228.995 205.462 228.414 205.422 227.786 205.203C258.19 177.014 293.139 153.167 331.793 134.829C330.688 136.445 329.45 138.285 328.615 140.212C328.35 140.66 328.264 141.063 327.999 141.512C321.095 156.793 319.587 182.66 323.646 218.31C323.876 219.201 323.795 220.363 324.071 221.433C326.403 240.796 330.454 263.138 336.312 288.056C330.765 262.867 327.07 240.433 325.096 220.978C324.82 219.909 324.947 218.925 324.849 217.81C321.457 181.798 323.679 155.746 331.072 140.148C331.337 139.7 331.424 139.297 331.688 138.848C332.834 136.652 334.072 134.811 335.356 133.149C357.802 122.795 381.468 114.217 406.267 107.819C427.676 102.296 449.188 98.6474 470.711 96.517C459.166 100.446 447.638 106.653 436.616 114.82C435.815 115.407 435.194 115.948 434.394 116.534C408.843 136.246 385.431 167.194 365.802 208.385C365.14 209.506 364.703 210.76 364.041 211.882C353.659 234.334 344.416 259.726 336.49 288.01C344.819 259.812 354.419 234.329 365.203 211.962C365.819 210.662 366.303 209.587 366.965 208.465C387.129 167.137 411.301 136.182 437.254 116.557C438.054 115.97 438.676 115.43 439.476 114.843C450.987 106.359 462.919 100.239 474.999 96.1715C535.333 91.0634 594.738 99.3148 649.668 118.988C650.071 119.074 650.295 119.207 650.698 119.293C650.698 119.293 650.519 119.339 650.341 119.385C612.937 113.063 572.042 118.29 530.241 134.018C528.992 134.34 527.835 135.019 526.586 135.341C484.791 151.828 442.446 178.724 402.188 215.92C401.123 216.955 399.88 218.037 398.815 219.072C377.2 239.289 356.322 262.358 336.49 288.01C356.5 262.312 377.828 239.507 399.666 219.423C400.91 218.341 401.975 217.306 403.218 216.225C443.971 179.472 486.897 152.615 528.963 136.439C530.212 136.117 531.368 135.438 532.617 135.116C574.643 119.52 615.986 114.558 653.615 121.012C654.421 121.184 655.405 121.311 656.21 121.483C656.613 121.569 657.062 121.834 657.465 121.92C679.198 130.193 700.276 140.347 720.293 152.295C766.969 179.802 808.216 216.505 841.249 260.462C815.151 236.012 782.399 218.222 744.87 206.989C743.615 206.552 742.407 206.294 741.152 205.857C697.224 193.423 647.014 189.834 594.322 195.062C592.849 195.252 591.376 195.442 589.856 195.454C536.945 201.308 481.552 215.98 427.163 239.709C425.604 240.301 424.09 241.072 422.53 241.665C393.31 254.527 364.601 270.11 336.536 288.188C364.693 270.466 393.672 255.194 422.939 242.51C424.498 241.917 426.012 241.147 427.572 240.554C482.323 217.492 537.808 203.177 590.989 197.633C592.463 197.443 593.936 197.253 595.455 197.242C648.418 192.324 698.719 196.269 742.74 209.06C743.994 209.497 745.203 209.755 746.457 210.192C785.241 221.862 819.029 240.716 845.448 266.413C851.408 274.763 857.281 283.515 862.798 292.36C864.155 294.671 865.467 296.805 866.825 299.116C885.876 331.659 900.749 367.18 910.637 405.509C918.088 434.39 922.322 463.339 923.426 491.956C917.642 471.011 906.851 449.838 890.432 428.975C888.764 426.934 887.05 424.714 885.203 422.719C884.392 421.787 883.58 420.856 882.769 419.924C854.964 388.119 816.466 360.594 770.946 338.303C769.645 337.688 768.345 337.072 767.045 336.457C721.213 314.437 668.406 297.828 612.426 287.362C610.815 287.017 609.25 286.851 607.638 286.506C551.572 276.443 492.334 272.522 433.997 275.783C432.299 275.841 430.601 275.899 428.95 276.135C397.683 278.117 366.388 282.198 336.047 288.504C366.301 282.6 397.465 278.744 428.823 277.118C430.52 277.061 432.218 277.003 433.87 276.767C492.345 274.04 551.319 278.409 607.523 289.008C609.134 289.353 610.745 289.697 612.31 289.864C668.204 300.732 720.971 317.922 766.67 340.167C767.97 340.782 769.27 341.397 770.617 342.191C816.005 364.706 854.549 392.409 882.4 424.393C883.211 425.324 884.022 426.256 884.833 427.187C886.502 429.229 888.394 431.402 890.063 433.444C907.068 455.106 918.221 476.946 923.787 498.517C924.493 527.807 922.247 556.717 916.957 584.891L916.462 584.449Z" fill="#1A1B27"/>
</g>
<circle cx="436.606" cy="115.811" r="4" transform="rotate(-14.4664 436.606 115.811)" fill="#FAAA00"/>
<circle cx="109.827" cy="590.495" r="4" transform="rotate(-14.4664 109.827 590.495)" fill="#FAAA00"/>
<circle cx="742.419" cy="208.35" r="4" transform="rotate(-14.4664 742.419 208.35)" fill="#FAAA00"/>
<circle cx="618.796" cy="605.835" r="4" transform="rotate(-14.4664 618.796 605.835)" fill="#FAAA00"/>
<circle cx="317.466" cy="722.819" r="4" transform="rotate(-14.4664 317.466 722.819)" fill="#FAAA00"/>
<circle cx="135.046" cy="396.029" r="4" transform="rotate(-14.4664 135.046 396.029)" fill="#FAAA00"/>
<circle cx="577.612" cy="386.158" r="4" transform="rotate(-14.4664 577.612 386.158)" fill="#FAAA00"/>
<circle cx="207.596" cy="529.125" r="4" transform="rotate(-14.4664 207.596 529.125)" fill="#FAAA00"/>
<circle cx="885.459" cy="426.534" r="4" transform="rotate(-14.4664 885.459 426.534)" fill="#FAAA00"/>
</svg>
