<svg width="186" height="136" viewBox="0 0 186 136" fill="none" xmlns="http://www.w3.org/2000/svg">
<g clip-path="url(#clip0_451_12657)">
<path d="M0 0L186 0V136H0L0 0Z" fill="#C8313E"/>
<path d="M83.1037 58.7682C80.5703 57.1944 77.8831 55.8893 75.1194 54.8144C72.7394 58.3459 71.3576 62.5683 71.3576 67.136C71.3576 69.4009 71.7031 71.5889 72.3556 73.6618C73.5071 71.0132 74.9659 68.4414 76.7317 65.9846C78.5766 63.3464 80.7142 60.9255 83.1037 58.7682ZM76.3477 53.2022C79.342 54.2387 82.2206 55.5822 84.9846 57.1559C85.5989 56.6187 86.2512 56.1579 86.8655 55.6973C83.9483 54.085 80.8389 52.7801 77.6528 51.7819C77.1923 52.2427 76.7317 52.7033 76.3477 53.2022ZM79.0348 50.477C82.4895 51.3981 85.7906 52.6647 88.8998 54.3153C89.6292 53.8547 90.3586 53.4325 91.0495 53.0104C87.7484 51.3213 84.2552 50.0932 80.6469 49.2101C80.0771 49.5894 79.538 50.013 79.0348 50.477ZM82.2975 48.1738C86.0978 48.9415 89.7827 50.1698 93.2375 51.8587C96.7305 50.1698 100.416 48.9415 104.177 48.1738C100.991 46.2929 97.2296 45.2181 93.2375 45.2181C89.2455 45.2181 85.5218 46.2929 82.2975 48.1738ZM105.828 49.2487C102.225 50.0927 98.7343 51.3552 95.4253 53.0104C96.1503 53.4313 96.867 53.8664 97.575 54.3153C100.723 52.6647 104.024 51.3981 107.44 50.477C106.941 50.0161 106.404 49.5941 105.828 49.2484L105.828 49.2487ZM108.822 51.8204C105.636 52.7801 102.565 54.085 99.6094 55.6973C100.265 56.162 100.905 56.6484 101.529 57.1559C104.254 55.5822 107.133 54.2387 110.127 53.2022C109.743 52.7033 109.321 52.2427 108.822 51.8204ZM111.355 54.8528C108.584 55.8928 105.923 57.2044 103.41 58.7682C105.751 60.8794 107.862 63.2977 109.782 65.9846C111.481 68.3987 112.946 70.9694 114.158 73.6618C114.772 71.5506 115.117 69.4009 115.117 67.136C115.117 62.5683 113.735 58.3457 111.355 54.8528ZM109.475 69.9C107.171 66.1766 104.408 62.8754 101.337 60.0733L99.2639 61.5702C104.446 66.4069 108.63 72.4718 111.279 79.5347C111.893 78.6135 112.469 77.6538 112.929 76.6941C111.97 74.3912 110.818 72.1263 109.475 69.9ZM97.3062 59.9199C97.9973 59.4208 98.6882 58.9216 99.4176 58.4611C98.8033 57.9239 98.1508 57.4247 97.4982 56.9256L95.3102 58.3459H95.3487C96.0013 58.845 96.6539 59.3822 97.3062 59.9197V59.9199ZM93.2375 56.8488L95.4253 55.5053L93.2375 54.1619C92.5081 54.5842 91.8172 55.0447 91.0878 55.5053C91.8172 55.9276 92.5081 56.3882 93.2375 56.8488ZM91.1647 58.3459C90.4353 57.8468 89.7444 57.3862 89.015 56.9256L87.0575 58.4228L89.1686 59.8814C89.8174 59.3483 90.4831 58.8363 91.1647 58.3459ZM93.2375 59.8814C92.5847 60.3803 91.9324 60.9177 91.2415 61.4936C91.9324 62.0308 92.585 62.6066 93.2375 63.1823C93.8901 62.6066 94.5425 62.0308 95.2336 61.4936C94.5808 60.9562 93.9284 60.3803 93.2375 59.8814ZM93.2375 67.0594C90.2379 70.2941 87.6937 73.9231 85.6755 77.8458C84.2552 80.5327 83.142 83.335 82.2975 86.1371C85.522 87.9413 89.2453 89.016 93.2375 89.016C97.2298 89.016 100.953 87.9411 104.177 86.1371C103.333 83.335 102.22 80.5327 100.799 77.8456C98.7265 73.8155 96.193 70.2069 93.2375 67.0594ZM80.5703 81.6076C83.0652 75.2355 86.7503 69.6697 91.2798 65.0632C90.627 64.4491 89.9747 63.8734 89.2838 63.2594C84.0251 68.3646 79.8023 74.6981 77.2306 82.0296C77.9538 82.8297 78.7366 83.574 79.572 84.2562C79.8794 83.3733 80.2248 82.4904 80.5703 81.6076ZM95.195 65.0632C99.7245 69.6697 103.409 75.2355 105.943 81.6076C106.289 82.4904 106.596 83.3733 106.903 84.2562C107.747 83.5653 108.553 82.8359 109.283 82.0299C106.672 74.6981 102.45 68.3646 97.1911 63.2594L95.195 65.0634V65.0632ZM75.1962 79.5347C77.8448 72.4718 82.0289 66.4452 87.2492 61.6088C86.5614 61.0754 85.8574 60.5634 85.1381 60.0733C82.0672 62.9137 79.3037 66.2149 77.0003 69.9383C75.6751 72.0971 74.5201 74.3559 73.5459 76.6941C74.0062 77.6921 74.582 78.6135 75.1962 79.5347ZM93.3527 43.4523C106.864 43.4523 117.881 54.469 117.881 67.9806C117.881 81.4922 106.864 92.5091 93.3527 92.5091C79.8411 92.5091 68.8242 81.4924 68.8242 67.9806C68.8242 54.4688 79.8409 43.4523 93.3527 43.4523ZM104.177 38.0783C103.487 38.8845 102.719 39.9209 101.951 41.5712C101.759 41.1492 101.759 40.6503 101.874 40.1128C102.066 38.3471 102.565 37.2723 103.487 35.7751C103.793 35.2379 104.101 34.7771 104.254 34.2014C104.83 32.4742 104.715 30.171 103.448 28.367C103.64 30.4013 103.026 32.0902 102.335 33.1265C102.22 33.3185 102.105 33.4337 101.951 33.5873C101.222 34.3165 100.416 35.0459 99.3791 36.7348C98.8033 37.656 98.2276 38.7692 97.6902 40.5349C97.4599 40.1512 97.383 39.6906 97.4216 39.1531C97.3445 37.3489 97.6519 36.2359 98.3045 34.5854C98.5347 34.0096 98.765 33.5105 98.8417 32.8962C99.1105 31.1305 98.6499 28.8659 97.1145 27.2919C97.6133 29.2496 97.3062 31.0154 96.769 32.1671C96.6539 32.3588 96.577 32.5125 96.4619 32.6659C95.8476 33.5105 95.195 34.3548 94.389 36.1589C94.0053 37.1954 93.583 38.3854 93.3527 40.1895C93.0456 39.844 92.8919 39.3834 92.8536 38.846C92.5081 37.0803 92.6233 35.9288 93.0072 34.2016C93.1607 33.6257 93.3142 33.0882 93.2758 32.474C93.2758 30.6699 92.4698 28.5204 90.7041 27.1768C91.5101 29.0576 91.4718 30.8619 91.1261 32.0902C91.0495 32.2437 90.9727 32.4357 90.8958 32.5891C90.4353 33.5488 89.8978 34.4702 89.3989 36.3894C89.1686 37.4643 88.9384 38.7309 88.9767 40.5351C88.6695 40.228 88.4395 39.8057 88.2858 39.3066C87.6715 37.5794 87.5947 36.4662 87.7483 34.6622C87.7869 34.0479 87.8252 33.5105 87.7483 32.9348C87.4412 31.1305 86.2898 29.1345 84.3703 28.0982C85.4452 29.8254 85.6755 31.6296 85.5218 32.8579L85.4069 33.4337C85.0998 34.4317 84.7158 35.4297 84.524 37.4257C84.447 38.5006 84.4089 39.7672 84.7543 41.5715C84.3703 41.3026 84.1015 40.9189 83.8714 40.4583C82.9886 38.846 82.7583 37.7329 82.6046 35.9671C82.5661 35.3529 82.5278 34.8157 82.2975 34.2399C81.7603 32.5125 80.3014 30.7084 78.2288 30.0173C79.5723 31.5145 80.1097 33.2417 80.1097 34.5085C80.1097 34.7005 80.1097 34.8923 80.0712 35.0842C79.9177 36.1206 79.7257 37.1954 79.8409 39.1531C79.956 40.228 80.1097 41.4946 80.7237 43.2218C80.3014 43.03 79.956 42.6846 79.6489 42.2623C78.5359 40.842 78.152 39.7674 77.7297 38.04C77.5762 37.4257 77.4611 36.9268 77.154 36.3511C76.3477 34.7771 74.6205 33.2034 72.471 32.8196C74.0062 34.1245 74.8125 35.7754 75.0428 37.0034C75.0811 37.1954 75.0811 37.3874 75.0811 37.5792C75.1196 38.6157 75.0811 39.6906 75.5034 41.6483C75.772 42.6846 76.1176 43.9129 77.0003 45.4867C76.5782 45.3715 76.1942 45.1029 75.8103 44.7189C74.4668 43.4906 73.8911 42.4926 73.2385 40.842C73.0082 40.2663 72.7779 39.7674 72.4325 39.2683C71.3576 37.848 69.4382 36.5814 67.2121 36.5428C68.9779 37.5794 70.0142 39.038 70.4365 40.228L70.5516 40.8037C70.7436 41.84 70.8587 42.9149 71.5879 44.7575C72.0102 45.7555 72.5859 46.907 73.6991 48.3275C73.2385 48.2889 72.8162 48.0587 72.3942 47.7515C70.897 46.7535 70.1676 45.8323 69.2082 44.3352C68.901 43.798 68.6324 43.3372 68.1716 42.9149C66.905 41.6483 64.7938 40.6886 62.6058 40.9957C64.4867 41.7634 65.7533 43.0684 66.3676 44.1817C66.4444 44.3352 66.521 44.5272 66.5979 44.7189C66.9433 45.6786 67.2121 46.7152 68.2101 48.4424C68.7859 49.3638 69.5153 50.4001 70.8587 51.6667C70.3981 51.6667 69.9373 51.5133 69.4768 51.283C67.8262 50.5153 66.9818 49.7475 65.8301 48.4041C65.4079 47.9435 65.0624 47.5212 64.5635 47.1372C63.1047 46.1009 60.8784 45.4867 58.7672 46.1392C60.7632 46.5998 62.2218 47.6747 62.9512 48.6727C63.1047 48.8264 63.1815 48.9798 63.2584 49.1718C63.7573 50.093 64.2181 51.091 65.4847 52.5881C66.1756 53.4325 67.0584 54.3539 68.5556 55.3902C68.1333 55.467 67.6727 55.3902 67.1353 55.1982C65.4081 54.7376 64.4484 54.0853 63.1047 52.9336C62.6441 52.5496 62.2218 52.2042 61.6846 51.8972C60.0723 51.091 57.7692 50.8607 55.7732 51.8202C57.8075 51.9356 59.4198 52.8184 60.341 53.663C60.4561 53.8164 60.5712 53.9316 60.6864 54.1236C61.3392 54.9296 61.9149 55.8508 63.4118 57.1559C64.2181 57.8468 65.2544 58.6145 66.9048 59.4208C66.4827 59.5742 65.9838 59.5742 65.4847 59.4593C63.6804 59.2671 62.6441 58.768 61.1087 57.8468C60.5715 57.5399 60.1107 57.2325 59.5349 57.0791C57.8077 56.5033 55.5429 56.6185 53.7386 57.8853C55.7349 57.6933 57.4621 58.3076 58.4986 58.9983C58.6521 59.1136 58.8055 59.2288 58.9207 59.3822C59.6884 60.1116 60.4178 60.9177 62.0684 61.9542C62.9896 62.53 64.1412 63.1442 65.8684 63.6431C65.4847 63.8734 65.0241 63.9502 64.4867 63.9502C62.6824 63.9888 61.5695 63.6814 59.9189 63.0288C59.3432 62.7986 58.844 62.5683 58.2298 62.4916C56.464 62.2228 54.1994 62.6834 52.6254 64.2188C54.5832 63.72 56.3874 64.0269 57.5006 64.5643C57.6924 64.6794 57.846 64.7563 57.9995 64.8714C58.844 65.4857 59.6884 66.1383 61.531 66.9443C62.529 67.328 63.719 67.7503 65.523 67.9806C65.1776 68.2877 64.717 68.4412 64.2181 68.4797C62.4138 68.8635 61.3009 68.71 59.5352 68.326C58.9592 68.1726 58.4218 68.0574 57.8075 68.0574C56.0035 68.0574 53.854 68.8635 52.5488 70.6292C54.3912 69.8232 56.1954 69.8615 57.4238 70.2072C57.6157 70.2838 57.7692 70.3606 57.961 70.4374C58.8824 70.898 59.8421 71.4355 61.7612 71.9344C62.7978 72.1646 64.0644 72.3949 65.8684 72.3566C65.5615 72.6638 65.1393 72.8938 64.6401 73.0475C62.9512 73.6618 61.7998 73.7386 60.034 73.5849C59.4198 73.5464 58.8826 73.5081 58.2683 73.5849C56.5026 73.8921 54.5063 75.0435 53.47 77.0013C55.1589 75.8881 56.9629 75.6578 58.23 75.8113L58.7672 75.9264C59.7652 76.2721 60.7632 76.6175 62.7593 76.8093C63.8341 76.8863 65.1007 76.9244 66.905 76.579C66.6362 76.963 66.2524 77.2318 65.7918 77.4618C64.2181 78.3447 63.0664 78.575 61.3007 78.7287C60.6864 78.8053 60.1492 78.8438 59.5735 79.0358C57.846 79.573 56.0803 81.0318 55.3509 83.1045C56.8863 81.761 58.6137 81.2621 59.8804 81.2236C60.0723 81.2236 60.2643 81.2236 60.4561 81.2621C61.4541 81.4156 62.529 81.6076 64.525 81.4924C65.5998 81.4156 66.8665 81.2236 68.5556 80.6096C68.4019 81.0318 68.0565 81.3773 67.5959 81.6844C66.1756 82.7974 65.101 83.1813 63.3735 83.6036C62.7978 83.7571 62.2604 83.8722 61.7229 84.1793C60.1107 84.9856 58.5752 86.7128 58.1915 88.8623C59.4581 87.3271 61.1087 86.5208 62.3372 86.2905C62.529 86.2522 62.7209 86.2522 62.9129 86.2522C63.9493 86.2137 65.0624 86.2522 66.9816 85.8299C68.0182 85.5613 69.2465 85.2157 70.8587 84.333C70.7436 84.7551 70.4365 85.1774 70.0525 85.523C68.8242 86.8665 67.8262 87.4422 66.1756 88.0948C65.6384 88.3634 65.1393 88.5554 64.6401 88.9008C63.1815 89.9757 61.9149 91.8951 61.8764 94.1212C62.9129 92.3554 64.4098 91.3191 65.5998 90.8968L66.137 90.7817C67.1736 90.5897 68.2484 90.4746 70.091 89.7454C71.089 89.3231 72.2405 88.7474 73.6991 87.6725C73.6225 88.0948 73.4305 88.5171 73.0848 88.9391C72.087 90.4362 71.2042 91.1657 69.6687 92.1251C69.1696 92.4323 68.709 92.7009 68.2484 93.1617C66.9818 94.4283 66.0604 96.5395 66.3676 98.7275C67.097 96.8466 68.4019 95.58 69.5153 94.9657C69.707 94.8889 69.8607 94.8123 70.0525 94.7354C71.0505 94.4283 72.087 94.1212 73.7759 93.1232C74.6973 92.5474 75.7337 91.818 77.0003 90.4746C77.0388 90.9351 76.8851 91.396 76.6165 91.8565C75.8488 93.5071 75.0811 94.3515 73.7376 95.5032C73.277 95.9254 72.8548 96.2709 72.5091 96.7698C71.4728 98.2286 70.8587 100.455 71.5113 102.566C71.9334 100.57 73.0082 99.1115 74.0448 98.382C74.1982 98.2669 74.3517 98.1518 74.5054 98.0749C75.4265 97.576 76.4245 97.1152 77.96 95.8486C78.766 95.1577 79.6872 94.2748 80.7237 92.7777C80.8006 93.2 80.7237 93.6989 80.5703 94.198C80.0711 95.9252 79.4571 96.8849 78.2671 98.2286C77.8831 98.6892 77.5377 99.1115 77.2691 99.6872C76.4631 101.299 76.1942 103.564 77.154 105.56C77.3074 103.526 78.152 101.914 79.0348 101.031C79.15 100.877 79.3034 100.762 79.4571 100.647C80.3014 99.9943 81.1843 99.4184 82.4895 97.9215C83.1803 97.1152 83.9481 96.0789 84.7543 94.4285C84.9078 94.8506 84.9078 95.3495 84.8309 95.8486C84.6006 97.6529 84.14 98.6892 83.2189 100.225C82.8734 100.762 82.6046 101.223 82.4126 101.798C81.8754 103.526 81.9906 105.829 83.2572 107.633C83.0652 105.598 83.6412 103.871 84.3703 102.835C84.4855 102.681 84.6006 102.528 84.7158 102.413C85.4452 101.645 86.2512 100.915 87.3261 99.2649C87.8633 98.3437 88.4775 97.192 88.9767 95.4648C89.207 95.8486 89.2838 96.3092 89.2838 96.8466C89.3604 98.6509 89.0535 99.7638 88.3624 101.414C88.1321 101.99 87.9403 102.489 87.8252 103.104C87.5564 104.869 88.017 107.134 89.5524 108.708C89.0535 106.75 89.3604 104.946 89.9364 103.833C90.013 103.641 90.0898 103.487 90.205 103.334C90.8192 102.489 91.5101 101.645 92.2778 99.8023C92.7001 98.8043 93.1224 97.6143 93.3527 95.8103C93.6213 96.1557 93.7747 96.6163 93.8516 97.1152C94.197 98.9195 94.0819 100.032 93.6596 101.798C93.5061 102.374 93.391 102.912 93.391 103.526C93.391 105.33 94.2356 107.479 96.0013 108.784C95.195 106.942 95.195 105.138 95.579 103.91C95.6175 103.718 95.6942 103.564 95.771 103.372C96.2316 102.451 96.769 101.491 97.2679 99.572C97.4982 98.5355 97.7285 97.2689 97.6902 95.4648C98.0356 95.7718 98.2274 96.194 98.3811 96.6932C99.0339 98.382 99.0722 99.5335 98.9568 101.338C98.8802 101.914 98.8417 102.451 98.9568 103.065C99.2256 104.869 100.377 106.865 102.335 107.902C101.26 106.174 100.991 104.37 101.183 103.142C101.183 102.95 101.222 102.758 101.298 102.566C101.605 101.568 101.989 100.57 102.181 98.574C102.22 97.4992 102.258 96.2326 101.951 94.4283C102.296 94.6971 102.604 95.0809 102.834 95.5415C103.717 97.1152 103.947 98.2669 104.101 100.033C104.139 100.647 104.177 101.184 104.369 101.76C104.945 103.487 106.365 105.253 108.477 105.982C107.133 104.447 106.596 102.72 106.557 101.453C106.557 101.261 106.557 101.069 106.596 100.877C106.749 99.8792 106.979 98.8043 106.826 96.8083C106.749 95.7334 106.557 94.4668 105.981 92.7777C106.365 92.9697 106.711 93.2768 107.018 93.7374C108.131 95.1577 108.553 96.2323 108.975 97.9598C109.091 98.5355 109.244 99.0729 109.513 99.6104C110.357 101.223 112.046 102.758 114.234 103.142C112.661 101.875 111.854 100.225 111.624 98.9961C111.586 98.8043 111.586 98.6123 111.586 98.4204C111.586 97.384 111.624 96.3092 111.202 94.3517C110.933 93.3151 110.549 92.0868 109.667 90.4746C110.127 90.5897 110.511 90.8968 110.857 91.2808C112.2 92.5091 112.776 93.5071 113.467 95.1577C113.697 95.6949 113.889 96.194 114.273 96.6932C115.348 98.1518 117.267 99.4184 119.455 99.4569C117.728 98.4204 116.691 96.9234 116.269 95.7334C116.192 95.5415 116.154 95.388 116.115 95.1962C115.962 94.1597 115.808 93.0848 115.079 91.2423C114.657 90.2443 114.119 89.0928 113.006 87.6723C113.467 87.7108 113.889 87.9028 114.311 88.2482C115.808 89.2462 116.538 90.1291 117.459 91.6646C117.766 92.1637 118.073 92.6626 118.495 93.0848C119.762 94.3515 121.873 95.2729 124.061 94.9657C122.18 94.2363 120.914 92.9314 120.338 91.818C120.222 91.6262 120.146 91.4726 120.107 91.2808C119.762 90.2828 119.455 89.2462 118.457 87.5574C117.881 86.636 117.152 85.5996 115.847 84.333C116.269 84.333 116.73 84.4482 117.228 84.7168C118.841 85.4845 119.724 86.2522 120.875 87.5957C121.259 88.0562 121.604 88.4785 122.104 88.8242C123.562 89.8988 125.788 90.4746 127.899 89.8605C125.942 89.3999 124.483 88.3251 123.716 87.2885C123.6 87.1351 123.485 86.9816 123.408 86.8279C122.91 85.9068 122.487 84.9088 121.22 83.3733C120.491 82.5673 119.608 81.6461 118.111 80.6096C118.572 80.5327 119.032 80.6096 119.532 80.763C121.259 81.2621 122.218 81.9145 123.6 83.0662C124.061 83.4502 124.483 83.7956 125.021 84.0642C126.633 84.8702 128.898 85.139 130.894 84.1793C128.859 84.0259 127.285 83.1813 126.364 82.2985C126.211 82.1833 126.096 82.0299 125.98 81.8762C125.366 81.0318 124.752 80.149 123.293 78.8438C122.449 78.153 121.412 77.3852 119.8 76.579C120.222 76.4255 120.683 76.4255 121.22 76.5024C122.986 76.7327 124.061 77.1932 125.558 78.153C126.095 78.4599 126.556 78.7287 127.132 78.9207C128.859 79.4579 131.162 79.3427 132.966 78.0761C130.932 78.2681 129.243 77.6921 128.207 76.963L127.746 76.6175C127.017 75.8881 126.287 75.0821 124.598 74.0072C123.677 73.47 122.564 72.8558 120.798 72.3566C121.182 72.1263 121.681 72.0495 122.18 72.0495C124.023 71.9729 125.136 72.2798 126.748 72.9709C127.324 73.2012 127.823 73.393 128.437 73.5081C130.203 73.7769 132.467 73.3163 134.041 71.7809C132.084 72.2798 130.318 71.9729 129.166 71.3969C129.013 71.3203 128.821 71.2435 128.667 71.1283C127.823 70.5141 126.978 69.8615 125.174 69.0555C124.176 68.6717 122.948 68.2494 121.144 67.9806C121.489 67.712 121.95 67.5586 122.487 67.4817C124.253 67.1363 125.404 67.2514 127.132 67.6737C127.708 67.8272 128.245 67.9423 128.859 67.9423C130.663 67.9423 132.813 67.0977 134.157 65.3705C132.276 66.1383 130.471 66.1383 129.281 65.7543C129.09 65.7158 128.898 65.6391 128.744 65.5623C127.784 65.1017 126.863 64.5643 124.944 64.0654C123.869 63.8351 122.641 63.6048 120.798 63.6431C121.105 63.2977 121.528 63.1059 122.027 62.9522C123.754 62.2994 124.905 62.2611 126.671 62.3765C127.285 62.4531 127.823 62.4916 128.437 62.3765C130.203 62.1077 132.199 60.9562 133.235 58.9985C131.508 60.0733 129.742 60.3419 128.475 60.1885C128.283 60.15 128.092 60.1116 127.9 60.0348C126.902 59.7279 125.904 59.3439 123.946 59.1519C122.871 59.1134 121.566 59.0753 119.8 59.4208C120.031 59.0368 120.414 58.7297 120.914 58.4994C122.487 57.6165 123.6 57.3864 125.366 57.2328C125.98 57.1942 126.518 57.1559 127.093 56.9639C128.821 56.3882 130.625 54.9679 131.316 52.8567C129.819 54.2002 128.092 54.7376 126.825 54.7761C126.633 54.7761 126.441 54.7761 126.249 54.7376C125.213 54.5842 124.138 54.3539 122.18 54.5073C121.105 54.5842 119.839 54.7761 118.111 55.3902C118.303 54.9679 118.649 54.6225 119.071 54.3153C120.491 53.2024 121.566 52.7801 123.293 52.3578C123.878 52.2547 124.446 52.074 124.982 51.8204C126.556 50.9758 128.13 49.287 128.514 47.0989C127.209 48.6727 125.596 49.4789 124.33 49.7092C124.138 49.7475 123.946 49.7475 123.754 49.7475C122.718 49.7475 121.643 49.709 119.724 50.1315C118.649 50.4001 117.42 50.7839 115.847 51.6667C115.962 51.2061 116.23 50.8224 116.614 50.4767C117.843 49.1333 118.841 48.5575 120.491 47.8667C121.067 47.6364 121.566 47.4444 122.065 47.0606C123.485 45.9858 124.752 44.0664 124.79 41.8786C123.754 43.6058 122.295 44.6423 121.105 45.0646C120.914 45.1412 120.722 45.1798 120.53 45.2181C119.493 45.4101 118.418 45.5252 116.576 46.2544C115.616 46.6767 114.465 47.2141 113.006 48.3272C113.044 47.905 113.275 47.4444 113.582 47.0221C114.58 45.5252 115.501 44.7958 116.998 43.8746C117.535 43.5675 117.996 43.2603 118.418 42.8381C119.685 41.5715 120.645 39.4603 120.338 37.2723C119.57 39.1531 118.265 40.4198 117.152 41.034C116.998 41.1109 116.806 41.1875 116.653 41.226C115.655 41.5715 114.618 41.8786 112.891 42.8766C111.97 43.4523 110.933 44.1817 109.667 45.4867C109.667 45.0646 109.82 44.6038 110.05 44.1432C110.818 42.4926 111.586 41.6483 112.929 40.4583C113.39 40.0743 113.812 39.7289 114.196 39.2298C115.232 37.7712 115.847 35.5448 115.194 33.4339C114.733 35.3914 113.659 36.85 112.661 37.6177C112.507 37.7328 112.353 37.848 112.161 37.9248C111.24 38.4237 110.242 38.846 108.745 40.1128C107.901 40.842 106.979 41.7249 105.981 43.222C105.866 42.7998 105.943 42.3009 106.135 41.8017C106.634 40.0745 107.248 39.1148 108.4 37.7331C108.784 37.2723 109.167 36.8883 109.436 36.3126C110.242 34.7005 110.473 32.4357 109.513 30.4396C109.398 32.474 108.553 34.0479 107.67 34.9691C107.517 35.1226 107.402 35.2377 107.248 35.3531C106.404 35.9673 105.483 36.5814 104.177 38.0783Z" fill="#FFFF00"/>
</g>
<defs>
<clipPath id="clip0_451_12657">
<rect width="186" height="136" fill="white"/>
</clipPath>
</defs>
</svg>
