<svg width="186" height="136" viewBox="0 0 186 136" fill="none" xmlns="http://www.w3.org/2000/svg">
<path d="M185.369 115.077C185.369 120.626 183.199 125.948 179.336 129.872C175.474 133.796 170.235 136 164.772 136H20.5965C15.134 136 9.89519 133.796 6.03259 129.872C2.16999 125.948 0 120.626 0 115.077L0 94.1533H185.369V115.077Z" fill="#CE2028"/>
<path d="M0.31543 41.8457H185.684V94.1541H0.31543L0.31543 41.8457Z" fill="#22408C"/>
<path d="M165.404 0L21.2279 0C15.7653 0 10.5265 2.20442 6.66394 6.12831C2.80133 10.0522 0.631348 15.3741 0.631348 20.9234L0.631348 41.8467H186V20.9234C186 15.3741 183.83 10.0522 179.968 6.12831C176.105 2.20442 170.866 0 165.404 0Z" fill="#EEEEEE"/>
</svg>
