<svg width="260" height="200" viewBox="0 0 260 200" fill="none" xmlns="http://www.w3.org/2000/svg">
<path d="M92 62.7607L92.2236 146.45L167.492 190.791L167.268 107.027L92 62.7607Z" fill="#F5BC6F"/>
<path d="M167.266 107.027L167.49 190.791L243.279 146.45L243.056 62.7607L167.266 107.027Z" fill="#FFCF7A"/>
<path d="M92 62.7614L167.268 107.028L243.058 62.7614L167.79 18.4949L92 62.7614Z" fill="#FCD495"/>
<path d="M220.258 147.122C221.823 146.153 223.164 143.917 223.164 142.054V138.03L217.352 141.383V145.482C217.352 147.345 218.619 148.09 220.258 147.122Z" fill="#CF9975"/>
<path d="M220.108 152.785C220.108 152.785 220.331 152.487 220.331 152.338V144.588C220.331 144.588 220.257 144.364 220.108 144.439C219.959 144.439 219.884 144.662 219.884 144.886V152.636C219.884 152.636 219.959 152.86 220.108 152.785Z" fill="#CF9975"/>
<path d="M217.276 154.499L222.865 151.22C222.865 151.22 223.089 150.997 223.089 150.848C223.089 150.699 223.015 150.624 222.865 150.699L217.276 153.978C217.276 153.978 217.053 154.276 217.053 154.35C217.053 154.499 217.202 154.574 217.276 154.499Z" fill="#CF9975"/>
<path d="M212.88 148.835C213.402 148.537 213.923 148.463 214.296 148.612C214.222 145.258 211.762 143.991 208.856 145.705C205.875 147.494 203.416 151.742 203.341 155.244C203.714 154.499 204.31 153.903 204.906 153.53C205.801 153.009 206.546 153.158 206.918 153.828C207.291 152.71 208.036 151.667 208.931 151.145C209.825 150.624 210.57 150.773 210.943 151.444C211.315 150.326 212.06 149.282 212.955 148.761L212.88 148.835Z" fill="#CF9975"/>
<path d="M210.572 158.374L211.54 157.852C211.54 157.852 211.764 157.554 211.764 157.405C211.764 157.256 211.689 157.181 211.54 157.256L210.572 157.777C209.752 158.299 209.007 157.852 209.007 156.883V150.027C209.007 150.027 208.932 149.803 208.783 149.878C208.634 149.878 208.56 150.176 208.56 150.325V157.181C208.56 158.448 209.454 158.97 210.572 158.374Z" fill="#CF9975"/>
<path d="M233.297 141.086L233.968 137.285L236.799 136.614L236.203 137.359L237.172 138.701C237.172 138.701 237.246 139.074 237.172 139.297L235.756 142.949L233.893 140.34L233.297 141.086Z" fill="#CF9975"/>
<path d="M233.821 141.086L235.386 143.247L231.66 145.483V142.353L233.821 141.086Z" fill="#CF9975"/>
<path d="M228.53 144.215V143.395L230.692 144.513L228.53 148.165V147.345L226.667 148.463C226.667 148.463 226.295 148.537 226.22 148.463L224.804 146.451L228.53 144.29V144.215Z" fill="#CF9975"/>
<path d="M224.804 145.929L226.593 141.085L228.903 141.308L227.86 144.14L224.804 145.929Z" fill="#CF9975"/>
<path d="M228.156 137.21L229.124 134.751C229.124 134.751 229.348 134.304 229.571 134.23L232.403 132.59L230.54 137.434H231.136L228.304 140.117L227.634 137.136H228.23L228.156 137.21Z" fill="#CF9975"/>
<path d="M232.778 132.441L234.641 135.049L232.331 137.955L231.213 136.465L232.778 132.441Z" fill="#CF9975"/>
<path d="M201.623 38.0212L207.212 41.3002L130.901 85.7903L125.386 82.5113L201.698 38.0212H201.623Z" fill="#CF9975"/>
<path d="M125.313 95.4034L130.903 98.6824V85.7155L125.313 82.511V95.4034Z" fill="#CF9975"/>
<path d="M137.538 119.174L159.373 131.843V108.89L137.538 96.147V119.174Z" fill="#F1F2F2"/>
<path d="M139.472 107.102L140.59 107.773V100.767L139.472 100.097V107.102Z" fill="#6D6E71"/>
<path d="M141.787 108.443L142.904 109.114V102.109L141.787 101.438V108.443Z" fill="#6D6E71"/>
<path d="M144.094 109.786L145.212 110.456V103.451L144.094 102.781V109.786Z" fill="#6D6E71"/>
<path d="M146.336 112.468L147.528 113.139V104.792L146.336 104.121V112.468Z" fill="#6D6E71"/>
<path d="M148.644 112.542L149.836 113.138V106.133L148.644 105.463V112.542Z" fill="#6D6E71"/>
<path d="M150.95 113.883L152.142 114.479V107.474L150.95 106.878V113.883Z" fill="#6D6E71"/>
<path d="M153.264 116.567L154.457 117.163V108.817L153.264 108.146V116.567Z" fill="#6D6E71"/>
<path d="M155.57 116.566L156.688 117.237V110.232L155.57 109.487V116.566Z" fill="#6D6E71"/>
<path d="M139.328 117.237L156.841 127.446V126.85L139.328 116.566V117.237Z" fill="#6D6E71"/>
<path d="M139.328 114.555L156.841 124.839V124.168L139.328 113.884V114.555Z" fill="#6D6E71"/>
<path d="M139.328 111.871L156.841 122.155V121.485L139.328 111.2V111.871Z" fill="#6D6E71"/>
<path d="M130.9 33.6226L130.974 67.0832L171.142 90.707L171.068 57.2462L130.9 33.6226Z" fill="#F5BC6F"/>
<path d="M171.066 57.2462L171.141 90.707L211.532 67.0832L211.457 33.6226L171.066 57.2462Z" fill="#FFCF7A"/>
<path d="M130.9 33.6237L171.068 57.2474L211.459 33.6237L171.291 10L130.9 33.6237Z" fill="#FCD495"/>
<path d="M147.073 69.3196L164.809 79.6783V60.8985L147.073 50.4653V69.3196Z" fill="#F1F2F2"/>
<path d="M148.565 59.4824L149.534 60.004V54.2658L148.565 53.7441V59.4824Z" fill="#6D6E71"/>
<path d="M150.502 60.5993L151.396 61.121V55.3827L150.502 54.8611V60.5993Z" fill="#6D6E71"/>
<path d="M152.365 61.6438L153.259 62.24V56.5017L152.365 55.9055V61.6438Z" fill="#6D6E71"/>
<path d="M154.226 63.8785L155.194 64.4002V57.5441L154.226 57.0225V63.8785Z" fill="#6D6E71"/>
<path d="M156.09 63.8796L157.059 64.4012V58.663L156.09 58.1414V63.8796Z" fill="#6D6E71"/>
<path d="M157.952 64.9966L158.921 65.5182V59.78L157.952 59.2583V64.9966Z" fill="#6D6E71"/>
<path d="M159.897 67.1574L160.792 67.679V60.8975L159.897 60.3013V67.1574Z" fill="#6D6E71"/>
<path d="M161.76 67.1579L162.729 67.6796V61.9413L161.76 61.4197V67.1579Z" fill="#6D6E71"/>
<path d="M148.493 67.6801L162.801 76.1012V75.5795L148.493 67.1584V67.6801Z" fill="#6D6E71"/>
<path d="M148.493 65.5185L162.801 73.9396V73.3434L148.493 64.9968V65.5185Z" fill="#6D6E71"/>
<path d="M148.493 63.3572L162.801 71.7037V71.1821L148.493 62.761V63.3572Z" fill="#6D6E71"/>
<path d="M197.746 67.1576C198.79 66.5614 199.609 65.0709 199.609 63.8785V61.2703L195.883 63.4314V66.0397C195.883 67.2321 196.703 67.6792 197.746 67.083V67.1576Z" fill="#CF9975"/>
<path d="M197.676 70.8081C197.676 70.8081 197.825 70.659 197.825 70.51V65.5915C197.825 65.5915 197.825 65.4424 197.676 65.517C197.602 65.517 197.527 65.666 197.527 65.8151V70.7336C197.527 70.7336 197.527 70.8826 197.676 70.8081Z" fill="#CF9975"/>
<path d="M195.886 71.9252L199.463 69.8386C199.463 69.8386 199.613 69.6895 199.613 69.5405C199.613 69.3914 199.612 69.3914 199.463 69.4659L195.886 71.5526C195.886 71.5526 195.737 71.7016 195.737 71.8507C195.737 71.9997 195.737 71.9997 195.886 71.9252Z" fill="#CF9975"/>
<path d="M192.977 68.2756C192.977 68.2756 193.647 68.052 193.871 68.1265C193.871 65.9654 192.231 65.1456 190.368 66.2634C188.431 67.3813 186.866 70.0641 186.866 72.2998C187.089 71.8527 187.462 71.4801 187.835 71.182C188.431 70.8839 188.878 70.9584 189.101 71.4055C189.325 70.7348 189.772 69.9896 190.368 69.6915C190.964 69.3934 191.412 69.4679 191.635 69.9151C191.859 69.2444 192.306 68.4991 192.902 68.201L192.977 68.2756Z" fill="#CF9975"/>
<path d="M191.561 74.3853L192.157 74.0127C192.157 74.0127 192.306 73.8637 192.306 73.7146C192.306 73.6401 192.306 73.5656 192.157 73.7146L191.561 74.0127C191.039 74.3108 190.592 74.0127 190.592 73.4166V69.0197C190.592 69.0197 190.592 68.8707 190.443 68.9452C190.368 68.9452 190.294 69.0942 190.294 69.1688V73.5656C190.294 74.3854 190.89 74.758 191.561 74.3108V74.3853Z" fill="#CF9975"/>
<path d="M206.087 63.2836L206.534 60.8243L208.397 60.3772L208.024 60.8243L208.621 61.7186C208.621 61.7186 208.621 61.9422 208.621 62.0912L207.726 64.4014L206.534 62.6874L206.162 63.209L206.087 63.2836Z" fill="#CF9975"/>
<path d="M206.463 63.2825L207.432 64.6984L205.047 66.1143V64.1022L206.463 63.2825Z" fill="#CF9975"/>
<path d="M203.035 65.2941V64.7725L204.451 65.4432L203.035 67.7534V67.2317L201.843 67.9024C201.843 67.9024 201.619 67.9024 201.545 67.9024L200.65 66.6355L203.035 65.2196V65.2941Z" fill="#CF9975"/>
<path d="M200.65 66.4122L201.843 63.2822L203.333 63.4313L202.588 65.2943L200.65 66.4122Z" fill="#CF9975"/>
<path d="M202.815 60.8232L203.411 59.2582C203.411 59.2582 203.56 58.9601 203.709 58.8856L205.498 57.8423L204.305 60.9722H204.678L202.815 62.6862L202.368 60.7487H202.74L202.815 60.8232Z" fill="#CF9975"/>
<path d="M205.724 57.7678L206.991 59.4818L205.5 61.3449L204.755 60.3761L205.724 57.7678Z" fill="#CF9975"/>
<path d="M194.99 43.8344L189.476 47.0389L148.637 23.4897L154.226 20.2107L195.065 43.7599L194.99 43.8344Z" fill="#CF9975"/>
<path d="M194.987 56.8005L189.398 60.0049V47.038L194.987 43.8335V56.8005Z" fill="#CF9975"/>
<g clip-path="url(#clip0_307_4445)">
<path d="M18.8129 188C16.7819 188 15.2436 187.279 14.4828 185.966C13.722 184.653 13.8628 182.967 14.8816 181.213L65.5689 93.7188C66.5844 91.9653 67.982 91 69.5002 91C71.0184 91 72.4159 91.9653 73.4314 93.7188L124.119 181.21C125.134 182.963 125.275 184.653 124.518 185.963C123.757 187.275 122.218 187.997 120.187 187.997H18.8129V188Z" fill="#F7C300"/>
<path d="M66.1483 94.0528C67.9916 90.8698 71.0079 90.8698 72.8512 94.0528L94.8434 132.015C96.6867 135.198 99.703 140.402 101.546 143.585L123.539 181.547C125.382 184.73 123.874 187.332 120.187 187.332H18.8125C15.1259 187.332 13.6177 184.73 15.461 181.547L37.4532 143.585C39.2965 140.402 42.3128 135.198 44.1561 132.015L66.1483 94.0528Z" fill="url(#paint0_linear_307_4445)"/>
<path d="M114.507 177.315L72.0138 103.962C70.633 101.578 68.3674 101.578 66.9866 103.962L24.4936 177.315C23.1094 179.7 24.2422 181.654 27.0072 181.654H111.993C114.758 181.654 115.891 179.7 114.507 177.315ZM31.8467 175.976L69.5002 110.98L107.154 175.976H31.8467Z" fill="#333333"/>
<path d="M72.0908 142.055C70.4888 140.983 68.7662 138.451 69.1583 135.806C69.4097 134.33 72.0204 132.246 71.0753 129.56C75.6333 132.703 71.1155 138.802 72.0908 142.059V142.055ZM81.81 151.497C79.1657 153.495 80.3789 154.921 79.3769 156.487C77.2319 159.48 77.0878 155.916 77.8017 154.062C79.2327 150.639 80.0237 148.431 78.4485 144.867C77.5905 142.87 75.6568 140.943 73.7933 139.804C74.9395 141.514 75.2981 143.655 74.8021 145.412C73.6392 149.45 73.1231 148.855 71.7121 150.652C72.4058 149.61 72.0774 148.485 72.0774 147.436C71.9333 145.582 70.6463 144.366 69.6443 142.94C67.3552 139.66 66.7151 137.145 67.9149 133.438C64.721 134.814 63.3134 139.129 64.0641 141.658C64.349 143.228 65.1634 144.687 65.5086 146.22C66.0817 148.785 65.5924 150.014 65.2103 150.946C65.0226 147.172 61.2556 146.745 61.4902 142.369C56.6239 146.554 64.9254 154.079 60.3473 158.769C56.7479 160.028 59.972 151.594 58.2761 151.143C52.8401 160.338 55.6251 167.436 60.3473 167.185C59.8714 164.978 60.5082 162.923 62.3515 161.481C61.5337 165.155 63.9669 166.758 65.827 163.478C66.829 161.624 65.1466 159.527 67.0737 157.202C67.9317 160.338 70.6497 159.767 71.3669 165.899C74.7954 162.329 73.4548 159.373 73.3778 159.203C74.9295 159.854 77.376 163.622 75.6601 167.469C76.6153 167.068 77.376 166.614 78.2374 166.043C78.2709 166.521 78.1972 167.085 78.0363 167.673C78.9177 167.092 79.4908 166.795 80.6672 165.899C82.3831 164.5 83.3416 162.676 83.603 160.983C84.2432 156.848 81.81 154.493 81.81 151.497Z" fill="#333333"/>
<path d="M81.5988 168.628H57.3979V170.565H81.5988V168.628Z" fill="#333333"/>
</g>
<defs>
<linearGradient id="paint0_linear_307_4445" x1="69.4998" y1="187.332" x2="69.4998" y2="91.668" gradientUnits="userSpaceOnUse">
<stop stop-color="#FFC200"/>
<stop offset="1" stop-color="#FFE000"/>
</linearGradient>
<clipPath id="clip0_307_4445">
<rect width="111" height="97" fill="white" transform="translate(14 91)"/>
</clipPath>
</defs>
</svg>
