<svg width="260" height="200" viewBox="0 0 260 200" fill="none" xmlns="http://www.w3.org/2000/svg">
<path d="M144.63 47.3082C141.433 57.3544 134.036 75.0264 130.474 73.8848C129.15 73.4739 127.232 66.5785 128.373 63.382C131.022 55.9388 130.839 48.4498 132.848 42.1938C136.045 32.1477 139.059 31.1887 142.575 32.2847C146.137 33.4263 147.781 37.2621 144.63 47.3082Z" fill="#228FD8"/>
<path d="M132.301 73.7929C126.73 81.5558 114.309 94.1135 111.66 92.1499C110.656 91.4193 107.459 89.3187 108.829 86.5789C110.975 82.2864 119.971 74.2952 125.542 66.0756C126.775 64.2947 128.967 63.7924 131.616 65.7559C134.264 67.7195 136.228 68.2675 132.301 73.7929Z" fill="#228FD8"/>
<path d="M151.478 170.829C152.62 171.057 153.259 172.564 153.716 173.478C154.355 174.665 154.629 176.263 153.214 177.953C151.798 179.597 148.875 179.597 147.734 180.738C146.729 181.743 142.208 184.437 139.012 186.172C137.368 187.04 133.761 187.177 132.619 185.716C131.797 184.665 132.117 181.743 132.802 181.149C135.222 179.094 135.678 177.953 137.185 176.4C138.51 175.03 138.373 175.396 139.514 173.843C139.971 173.204 141.752 170.144 142.802 170.92L151.478 170.783V170.829Z" fill="#1E160D"/>
<path d="M157.735 103.52C156.731 108.68 157.187 113.886 156.548 119.092C155.818 125.257 157.05 132.517 154.219 138.225C153.352 139.961 150.566 142.792 147.141 142.518C145.132 142.335 140.885 141.741 141.159 140.371C141.479 138.956 140.337 136.353 140.383 135.074C140.52 132.654 140.429 118.361 140.292 113.749C140.155 110.005 140.246 107.63 140.292 103.475C140.292 103.475 139.378 95.7118 148.466 96.9447C157.507 98.1777 157.964 102.744 157.827 103.52H157.735Z" fill="#0E598C"/>
<path d="M155.359 137.951C154.857 134.618 155.268 131.969 155.222 128.27C155.176 125.531 140.792 128.499 140.518 135.074C140.518 135.074 143.167 160.783 141.294 168.912L141.066 170.282C141.066 170.282 140.609 171.515 141.614 172.382C141.705 172.428 143.075 173.569 144.856 174.026C147.368 174.62 150.747 174.391 152.528 172.473C156.866 167.816 157.094 149.139 155.405 137.951H155.359Z" fill="#0E598C"/>
<path d="M171.343 180.921C172.485 181.149 173.124 182.656 173.581 183.569C174.22 184.757 174.631 186.492 173.078 188.045C172.485 188.592 168.74 189.688 167.599 190.83C166.594 191.835 161.708 195.214 160.384 195.944C159.196 196.584 157.963 197.36 156.639 197.497C154.995 197.634 152.712 197.314 151.57 195.853C150.748 194.803 150.703 193.616 151.388 193.022C153.808 190.967 154.812 188.821 156.365 187.268C157.689 185.898 158.283 185.533 159.425 183.98C159.881 183.341 161.662 180.282 162.712 181.058L171.389 180.967L171.343 180.921Z" fill="#1E160D"/>
<path d="M169.288 109.091C168.694 114.297 170.201 119.776 170.019 124.982C169.79 131.192 171.617 138.316 169.242 144.252C168.512 146.033 166 149.093 162.53 149.093C160.52 149.093 156.228 148.864 156.411 147.449C156.593 145.988 155.223 143.522 155.178 142.243C155.086 139.823 153.853 125.576 153.351 121.009C152.895 117.265 152.575 113.84 151.159 110.187C151.159 110.187 150.109 102.15 159.242 102.104C166.868 102.104 169.379 108.315 169.288 109.091Z" fill="#13659C"/>
<path d="M171.388 147.906C170.612 144.618 170.794 141.969 170.429 138.271C170.155 135.576 155.588 136.946 155.862 143.522C155.862 143.522 161.068 171.651 159.881 179.916L159.744 181.286C159.744 181.286 159.424 182.565 160.429 183.341C160.52 183.341 161.981 184.437 163.808 184.711C166.365 185.122 169.698 184.574 171.342 182.519C175.27 177.542 173.991 158.865 171.388 147.906Z" fill="#13659C"/>
<path d="M158.191 35.7094C159.013 35.892 167.872 40.3215 171.799 44.7966C174.676 48.0844 175.042 55.8017 174.996 56.8063C174.905 60.0941 170.338 80.1864 169.653 84.6615C168.968 89.1366 169.47 94.0684 169.47 97.0822C169.47 99.8677 170.338 108.27 170.064 109.64C169.196 114.161 157.461 113.247 155.223 113.11C147.963 112.699 138.83 107.174 139.606 103.612C141.752 93.4291 140.976 63.7929 140.017 60.1398C139.104 56.5323 132.026 37.9013 137.597 32.9239C139.012 31.6453 141.889 30.8233 143.624 30.9146C149.789 31.2343 157.095 35.4354 158.146 35.618L158.191 35.7094Z" fill="#1976B3"/>
<path d="M153.625 32.5585C153.625 32.5585 146.912 32.4216 142.985 36.8967C139.012 41.4174 140.108 40.7325 140.108 40.7325L142.894 39.8192C142.894 39.8192 142.62 49.911 143.944 51.5549L156.41 45.7099L157.232 50.8243C157.232 50.8243 165.863 41.2804 164.721 38.8145C161.981 32.8782 155.132 30.6863 153.625 32.5585Z" fill="#228FD8"/>
<path d="M150.292 34.0191C150.292 34.0191 145.451 35.6173 144.766 42.1016C144.081 48.586 145.223 53.0611 145.223 53.0611C145.223 52.6044 151.89 46.8051 157.37 42.7409C157.963 42.2843 163.991 37.8549 157.37 34.7953L150.292 33.9734V34.0191Z" fill="#E6C283"/>
<path d="M157.233 42.8775C154.675 43.0145 151.936 42.8775 150.018 42.1012C147.734 41.2336 146.501 39.544 145.862 38.1284C145.816 38.2654 145.725 38.4024 145.68 38.4937C145.68 38.4937 145.542 38.7677 145.497 38.9047C145.451 39.0417 145.406 39.1787 145.314 39.3157C145.314 39.3157 145.314 39.3157 145.314 39.3614C145.269 39.4983 145.223 39.6353 145.177 39.7723C145.177 39.7723 145.177 39.818 145.177 39.8636C145.177 40.0006 145.086 40.1376 145.086 40.2746C145.086 40.3203 145.086 40.366 145.086 40.4573C145.086 40.5943 145.04 40.6856 144.995 40.8226C144.995 40.9139 144.995 41.0053 144.995 41.0966C144.995 41.1879 144.995 41.2793 144.949 41.3706C144.949 41.5532 144.903 41.7359 144.858 41.9642C144.173 48.4485 145.314 52.9236 145.314 52.9236C145.634 52.33 151.981 46.622 157.37 42.6948L157.233 42.8775Z" fill="white"/>
<path d="M159.059 24.9321C159.059 27.8546 158.557 29.3159 158.968 32.832C159.105 33.9737 159.607 35.3892 159.607 36.9418C159.607 39.5904 156.73 40.732 155.269 41.5083C153.945 42.1932 148.419 40.3667 148.739 38.4944C149.013 36.9875 148.693 34.75 149.196 33.2887C149.789 31.6448 151.342 30.7315 151.342 28.9962L159.059 24.9778V24.9321Z" fill="#E6C283"/>
<path d="M144.082 12.7853C144.082 14.4292 144.082 15.8448 143.717 17.443C143.443 18.5846 143.899 21.3701 143.488 24.3383C143.214 26.2106 143.899 28.0828 144.402 29.9094C144.813 31.325 144.995 33.0145 146.274 33.8822C149.425 36.074 153.032 33.7908 156.274 32.6949C159.471 31.5989 159.014 26.9869 160.064 24.3383C161.937 19.5892 160.658 12.8309 155.407 10.6847C153.078 9.72574 149.151 9.22344 146.73 10.0911C145.909 10.4107 144.036 11.0957 144.082 12.7853Z" fill="#FED8A7"/>
<path d="M161.022 7.03157C158.008 4.29171 151.935 5.15934 146.957 7.39689C144.491 8.53849 143.852 11.9633 143.852 11.9633C143.304 12.9223 145.952 14.9315 146.683 15.2968C148.099 16.0274 149.606 16.2558 151.204 16.3471C152.163 16.3928 153.167 16.3471 154.126 16.3471C154.72 16.3014 155.679 16.0274 156.273 16.1188C157.734 16.3014 157.78 18.265 158.008 19.4523C158.236 20.4569 158.556 21.2332 158.647 22.2834C158.647 22.7858 157.825 28.1285 158.556 28.2655C159.606 28.4481 163.807 23.562 164.081 20.7765C164.264 18.95 166.364 11.872 161.022 7.03157Z" fill="url(#paint0_linear_307_4373)"/>
<path d="M161.069 24.9782C160.384 26.7135 159.196 27.8551 158.466 27.5354C157.735 27.2158 156.913 25.5718 157.598 23.8823C158.283 22.147 160.201 21.0511 160.977 21.3251C161.754 21.6447 161.799 23.243 161.069 24.9782Z" fill="#FED8A7"/>
<path d="M172.073 60.0477C168.922 70.0939 161.479 87.7659 157.917 86.6243C156.593 86.2134 154.675 79.3181 155.817 76.1216C158.465 68.6783 158.282 61.1893 160.292 54.9333C163.488 44.8872 166.502 43.9282 170.018 45.0242C173.58 46.1658 175.224 50.0016 172.073 60.0477Z" fill="#228FD8"/>
<path d="M159.746 86.5792C154.175 94.3422 141.754 106.9 139.106 104.936C138.101 104.206 134.905 102.105 136.274 99.3652C138.421 95.0728 147.417 87.0815 152.988 78.862C154.22 77.0354 158.878 74.3869 161.527 76.3961C164.175 78.4053 163.673 81.0995 159.746 86.5792Z" fill="#228FD8"/>
<path d="M144.037 10.7307C144.037 10.7307 145.544 5.93593 148.466 4.74866C151.891 3.33306 157.097 2.55677 158.741 3.42439C161.024 4.56599 163.17 5.89026 164.083 8.63012C165.362 12.4659 164.677 15.1145 164.677 15.1145C164.677 15.1145 164.677 15.3884 164.494 15.6168C163.17 16.7584 158.421 20.2288 154.905 19.4069C152.165 18.7676 149.79 18.4936 149.79 18.4936L144.082 10.7307H144.037Z" fill="#FFB200"/>
<path d="M144.265 10.7305C144.265 10.7305 144.904 9.86285 149.06 12.1004C151.708 13.516 156.503 18.6304 155.453 19.7263C153.717 21.5529 149.197 21.7356 146.776 20.6853C143.854 19.4523 142.575 14.2923 137.918 14.8859C134.584 15.2969 140.84 11.3698 143.945 10.7305H144.174H144.265Z" fill="#FFBF29"/>
<path d="M136.606 85.0061L136.469 124.688L100.349 145.648L100.486 105.966L136.606 85.0061Z" fill="#F5BC6F"/>
<path d="M100.486 105.966L100.349 145.648L64 124.688L64.0913 85.0061L100.486 105.966Z" fill="#FFCF7A"/>
<path d="M136.606 85.0058L100.486 105.966L64.0913 85.0058L100.212 64.0002L136.606 85.0058Z" fill="#FCD495"/>
<path d="M75.0511 124.963C74.2748 124.506 73.6812 123.456 73.6812 122.542V120.625L76.4667 122.223V124.141C76.4667 125.008 75.8274 125.374 75.0967 124.917L75.0511 124.963Z" fill="#CF9975"/>
<path d="M75.1428 127.657C75.1428 127.657 75.0059 127.52 75.0059 127.475V123.821C75.0059 123.821 75.0515 123.73 75.1428 123.776C75.1885 123.776 75.2342 123.913 75.2342 123.958V127.612C75.2342 127.612 75.1885 127.703 75.1428 127.657Z" fill="#CF9975"/>
<path d="M76.4679 128.479L73.7737 126.926C73.7737 126.926 73.6367 126.789 73.6367 126.744C73.6367 126.698 73.6824 126.652 73.7737 126.698L76.4679 128.251C76.4679 128.251 76.5592 128.388 76.5592 128.433C76.5592 128.479 76.5135 128.525 76.4679 128.479Z" fill="#CF9975"/>
<path d="M78.6137 125.785C78.3397 125.648 78.1114 125.602 77.9287 125.693C77.9744 124.095 79.116 123.501 80.5772 124.323C82.0385 125.145 83.1801 127.154 83.2258 128.844C83.0431 128.524 82.7691 128.205 82.4951 128.022C82.0842 127.794 81.7189 127.839 81.5362 128.205C81.3536 127.702 80.9882 127.2 80.5772 126.926C80.1663 126.698 79.801 126.744 79.6183 127.109C79.4357 126.607 79.0703 126.104 78.6594 125.83L78.6137 125.785Z" fill="#CF9975"/>
<path d="M79.7108 130.305L79.2542 130.031C79.2542 130.031 79.1172 129.894 79.1172 129.848C79.1172 129.803 79.1628 129.757 79.2542 129.803L79.7108 130.077C80.1218 130.305 80.4414 130.122 80.4414 129.666V126.423C80.4414 126.423 80.4871 126.332 80.5328 126.378C80.5784 126.378 80.6698 126.515 80.6698 126.56V129.803C80.6698 130.396 80.2131 130.67 79.7108 130.351V130.305Z" fill="#CF9975"/>
<path d="M68.795 122.085L68.4754 120.304L67.1055 119.985L67.3795 120.35L66.9229 120.989C66.9229 120.989 66.9229 121.172 66.9229 121.263L67.6078 122.998L68.5211 121.72L68.795 122.085Z" fill="#CF9975"/>
<path d="M68.5212 122.131L67.7905 123.181L69.5714 124.186V122.724L68.5212 122.131Z" fill="#CF9975"/>
<path d="M71.0791 123.592V123.181L70.0288 123.683L71.0791 125.418V125.007L71.9924 125.51C71.9924 125.51 72.175 125.51 72.2207 125.51L72.9057 124.551L71.1248 123.501L71.0791 123.592Z" fill="#CF9975"/>
<path d="M72.9057 124.414L71.9925 122.131L70.8965 122.222L71.3988 123.546L72.9057 124.414Z" fill="#CF9975"/>
<path d="M71.2622 120.259L70.8055 119.117C70.8055 119.117 70.6685 118.889 70.5772 118.843L69.2529 118.067L70.1662 120.35H69.8922L71.2622 121.629L71.5818 120.213H71.3078L71.2622 120.259Z" fill="#CF9975"/>
<path d="M69.0696 118.021L68.1562 119.254L69.2522 120.624L69.8002 119.939L69.0696 118.021Z" fill="#CF9975"/>
<path d="M120.577 94.3213L117.929 95.8739L81.3516 74.777L84.0001 73.2244L120.623 94.3213H120.577Z" fill="#CF9975"/>
<path d="M120.576 100.486L117.927 101.993V95.8744L120.576 94.3218V100.486Z" fill="#CF9975"/>
<path d="M114.732 111.72L104.275 117.747V106.834L114.732 100.806V111.72Z" fill="#F1F2F2"/>
<path d="M113.817 106.011L113.27 106.331V102.997L113.817 102.678V106.011Z" fill="#6D6E71"/>
<path d="M112.723 106.65L112.175 106.97V103.636L112.723 103.316V106.65Z" fill="#6D6E71"/>
<path d="M111.581 107.29L111.033 107.609V104.276L111.581 103.956V107.29Z" fill="#6D6E71"/>
<path d="M110.484 108.568L109.936 108.888V104.915L110.484 104.595V108.568Z" fill="#6D6E71"/>
<path d="M109.389 108.569L108.841 108.888V105.555L109.389 105.235V108.569Z" fill="#6D6E71"/>
<path d="M108.293 109.208L107.745 109.527V106.194L108.293 105.874V109.208Z" fill="#6D6E71"/>
<path d="M107.197 110.487L106.649 110.806V106.834L107.197 106.514V110.487Z" fill="#6D6E71"/>
<path d="M106.101 110.486L105.508 110.806V107.472L106.101 107.153V110.486Z" fill="#6D6E71"/>
<path d="M113.864 110.806L105.461 115.646V115.372L113.864 110.486V110.806Z" fill="#6D6E71"/>
<path d="M113.864 109.527L105.461 114.413V114.093L113.864 109.207V109.527Z" fill="#6D6E71"/>
<path d="M113.864 108.294L105.461 113.134V112.815L113.864 107.974V108.294Z" fill="#6D6E71"/>
<path d="M139.743 99.5934C138.099 99.2738 135.679 100.552 135.085 100.826C133.944 101.374 132.3 101.42 131.843 102.836C131.615 103.566 131.295 103.658 130.747 104.16C130.154 104.662 130.656 105.21 131.295 105.21C131.889 105.21 132.482 105.21 132.848 104.708C133.304 104.023 134.218 102.836 135.04 103.749C135.862 104.662 134.948 105.484 134.537 106.306C133.898 107.63 133.167 108.178 133.304 109.685C133.304 110.462 134.766 110.735 135.542 109.685C135.542 109.868 135.222 110.142 135.633 110.37C136.638 110.736 137.597 110.142 137.871 109.32C137.779 110.872 139.88 110.005 139.971 108.772C140.565 109.685 142.072 108.087 142.346 107.539C142.894 106.534 143.396 104.525 143.442 103.384C143.442 102.425 142.529 100.644 141.57 100.233C141.159 100.05 140.154 99.5934 139.697 99.5934H139.743Z" fill="#FED8A7"/>
<defs>
<linearGradient id="paint0_linear_307_4373" x1="164.825" y1="19.0326" x2="143.877" y2="11.7048" gradientUnits="userSpaceOnUse">
<stop stop-color="#231F20"/>
<stop offset="0.09" stop-color="#231F20"/>
<stop offset="1" stop-color="#231F20"/>
</linearGradient>
</defs>
</svg>
