<svg width="260" height="200" viewBox="0 0 260 200" fill="none" xmlns="http://www.w3.org/2000/svg">
<path d="M119.764 190.723C119.764 190.723 119.764 190.541 119.794 190.45C119.794 190.358 119.825 190.237 119.855 190.145C119.855 190.085 119.855 190.024 119.886 189.932C119.886 189.872 119.886 189.811 119.946 189.75C119.946 189.659 120.007 189.567 120.007 189.476C120.007 189.415 120.038 189.385 120.068 189.324C120.098 189.233 120.129 189.111 120.159 189.02C120.159 188.989 120.159 188.929 120.19 188.898C120.251 188.746 120.311 188.624 120.342 188.472C120.342 188.472 120.342 188.472 120.342 188.442C120.403 188.32 120.464 188.199 120.524 188.077C120.524 188.046 120.555 188.016 120.585 187.955C120.646 187.833 120.707 187.712 120.768 187.62C120.768 187.62 120.768 187.59 120.798 187.56C120.859 187.438 120.95 187.316 121.042 187.164C121.042 187.134 121.102 187.103 121.102 187.042C121.163 186.951 121.224 186.86 121.285 186.769C121.315 186.738 121.346 186.677 121.376 186.617C121.437 186.556 121.498 186.465 121.559 186.404C121.62 186.343 121.65 186.282 121.711 186.221C121.772 186.16 121.802 186.099 121.863 186.069C121.954 185.978 122.015 185.887 122.106 185.795C122.167 185.734 122.198 185.674 122.258 185.643C122.289 185.613 122.35 185.552 122.38 185.521C122.441 185.461 122.532 185.4 122.593 185.339C122.623 185.309 122.684 185.278 122.715 185.248C122.806 185.187 122.867 185.126 122.958 185.065C122.988 185.065 123.049 185.004 123.08 184.974C123.201 184.883 123.323 184.822 123.445 184.761C123.597 184.67 123.749 184.578 123.931 184.518C123.992 184.518 124.023 184.487 124.084 184.457C124.175 184.426 124.266 184.396 124.357 184.366C124.418 184.366 124.479 184.335 124.54 184.305C124.601 184.305 124.631 184.305 124.692 184.274C124.753 184.274 124.814 184.274 124.905 184.274C124.935 184.274 124.966 184.274 125.027 184.274C125.118 184.274 125.179 184.274 125.27 184.274H125.3C125.3 184.274 125.513 184.274 125.605 184.305H125.635C125.726 184.305 125.787 184.335 125.878 184.366C125.878 184.366 125.909 184.366 125.939 184.366C126.031 184.396 126.122 184.426 126.183 184.487L123.688 183.027C123.688 183.027 123.566 182.936 123.506 182.936C123.506 182.936 123.445 182.936 123.445 182.905C123.445 182.905 123.384 182.905 123.353 182.875C123.353 182.875 123.293 182.875 123.232 182.875H123.201H123.141C123.141 182.875 122.988 182.844 122.897 182.844H122.654C122.654 182.844 122.623 182.844 122.593 182.844H122.471H122.41C122.41 182.844 122.319 182.844 122.289 182.844C122.228 182.844 122.198 182.844 122.137 182.844C122.137 182.844 122.076 182.844 122.045 182.844C122.045 182.844 121.985 182.844 121.954 182.875C121.863 182.875 121.772 182.936 121.68 182.966C121.65 182.966 121.62 182.966 121.589 182.997C121.589 182.997 121.559 182.997 121.528 182.997C121.376 183.057 121.224 183.149 121.042 183.24C120.92 183.301 120.798 183.392 120.676 183.453C120.646 183.453 120.585 183.514 120.555 183.544C120.464 183.605 120.403 183.666 120.311 183.727C120.281 183.757 120.22 183.788 120.19 183.848C120.129 183.909 120.038 183.97 119.977 184.031C119.946 184.061 119.886 184.122 119.855 184.153C119.855 184.153 119.794 184.213 119.764 184.213C119.764 184.213 119.703 184.274 119.673 184.305C119.581 184.396 119.49 184.487 119.429 184.578C119.429 184.578 119.368 184.639 119.338 184.67C119.338 184.67 119.308 184.731 119.277 184.731C119.216 184.791 119.186 184.852 119.125 184.913C119.095 184.943 119.064 185.004 119.034 185.035C119.034 185.065 118.973 185.096 118.973 185.126C118.943 185.187 118.912 185.217 118.882 185.278C118.882 185.278 118.821 185.339 118.821 185.369C118.79 185.43 118.76 185.491 118.699 185.552C118.699 185.582 118.638 185.613 118.638 185.674C118.638 185.674 118.638 185.704 118.638 185.734C118.577 185.826 118.517 185.947 118.456 186.039C118.456 186.039 118.456 186.099 118.425 186.099C118.395 186.16 118.334 186.252 118.304 186.343C118.304 186.373 118.273 186.404 118.243 186.465C118.243 186.495 118.212 186.525 118.182 186.586C118.182 186.617 118.152 186.647 118.121 186.677C118.091 186.769 118.03 186.86 117.999 186.951C117.999 186.951 117.999 186.982 117.999 187.012C117.939 187.134 117.908 187.225 117.847 187.347C117.847 187.347 117.847 187.377 117.847 187.408C117.847 187.438 117.817 187.499 117.787 187.529C117.787 187.59 117.756 187.651 117.726 187.712C117.726 187.742 117.726 187.803 117.695 187.833C117.695 187.894 117.665 187.925 117.634 187.986C117.634 188.016 117.634 188.046 117.634 188.077C117.634 188.138 117.634 188.199 117.604 188.259C117.604 188.32 117.574 188.381 117.543 188.442C117.543 188.442 117.543 188.472 117.543 188.503C117.543 188.564 117.543 188.594 117.543 188.655C117.543 188.746 117.513 188.868 117.482 188.959C117.482 188.959 117.482 189.02 117.482 189.05C117.482 189.111 117.482 189.172 117.482 189.233C117.482 189.263 117.482 189.324 117.482 189.354C117.482 189.507 117.482 189.628 117.482 189.78C117.482 190.815 117.817 191.606 118.334 192.031C118.395 192.092 118.486 192.153 118.577 192.214L121.072 193.674C120.403 193.279 119.977 192.457 119.977 191.271C119.977 191.149 119.977 190.997 119.977 190.845C119.977 190.784 119.977 190.754 119.977 190.723H119.764Z" fill="#231F20"/>
<path d="M123.474 184.761C125.543 183.574 127.247 184.517 127.247 186.921C127.247 189.324 125.573 192.214 123.505 193.431C121.436 194.647 119.733 193.674 119.733 191.271C119.733 188.868 121.406 185.978 123.474 184.761Z" fill="#2B2B2B"/>
<path d="M124.752 193.674C124.752 193.674 124.752 193.492 124.783 193.4C124.783 193.309 124.813 193.187 124.844 193.096C124.844 193.035 124.844 192.944 124.874 192.883C124.874 192.822 124.874 192.761 124.935 192.701C124.935 192.609 124.996 192.518 124.996 192.427C124.996 192.366 125.026 192.336 125.057 192.275C125.087 192.183 125.117 192.062 125.148 191.971C125.148 191.94 125.148 191.879 125.178 191.849C125.239 191.697 125.3 191.575 125.33 191.423C125.33 191.423 125.33 191.423 125.33 191.362C125.391 191.24 125.452 191.119 125.513 190.997C125.513 190.967 125.543 190.936 125.574 190.875C125.634 190.754 125.695 190.662 125.756 190.541C125.756 190.541 125.756 190.51 125.787 190.48C125.847 190.358 125.939 190.237 126.03 190.084C126.03 190.054 126.091 190.024 126.091 189.963C126.152 189.872 126.212 189.78 126.273 189.689C126.304 189.659 126.334 189.598 126.365 189.537C126.425 189.476 126.486 189.385 126.547 189.324C126.608 189.263 126.638 189.202 126.699 189.141C126.76 189.081 126.79 189.02 126.851 188.989C126.943 188.898 127.003 188.807 127.095 188.716C127.156 188.655 127.186 188.594 127.247 188.563C127.277 188.533 127.338 188.472 127.368 188.442C127.429 188.381 127.521 188.32 127.581 188.259C127.612 188.229 127.673 188.198 127.703 188.138C127.794 188.077 127.855 188.016 127.946 187.955C127.977 187.925 128.007 187.894 128.068 187.864C128.19 187.772 128.312 187.712 128.433 187.62C128.585 187.529 128.737 187.438 128.92 187.377C128.981 187.377 129.011 187.347 129.072 187.316C129.163 187.286 129.255 187.255 129.346 187.225C129.407 187.225 129.467 187.195 129.528 187.164C129.589 187.164 129.62 187.164 129.62 187.164C129.741 187.164 129.802 187.164 129.802 187.164C129.893 187.164 129.954 187.164 129.954 187.164H130.228H130.258C130.258 187.164 130.471 187.164 130.563 187.194H130.623C130.623 187.194 130.776 187.255 130.836 187.255H130.897C130.897 187.255 131.08 187.347 131.141 187.407L128.646 185.947C128.646 185.947 128.524 185.856 128.464 185.856C128.464 185.856 128.464 185.856 128.433 185.856C128.433 185.856 128.403 185.856 128.372 185.856C128.342 185.856 128.312 185.856 128.312 185.856C128.251 185.856 128.22 185.856 128.159 185.826C128.159 185.826 128.129 185.826 128.099 185.826H128.068C128.068 185.826 127.916 185.826 127.825 185.795H127.764C127.764 185.795 127.642 185.795 127.581 185.795H127.521C127.521 185.795 127.46 185.795 127.399 185.795C127.399 185.795 127.338 185.795 127.308 185.795H127.216C127.216 185.795 127.125 185.826 127.064 185.856H126.973C126.973 185.856 126.912 185.886 126.882 185.917C126.79 185.917 126.699 185.978 126.608 186.008C126.578 186.008 126.547 186.008 126.517 186.039C126.517 186.039 126.486 186.039 126.456 186.039C126.304 186.099 126.152 186.191 125.969 186.282C125.847 186.343 125.726 186.434 125.604 186.495C125.574 186.495 125.543 186.556 125.482 186.586C125.391 186.647 125.33 186.708 125.239 186.769C125.209 186.799 125.148 186.829 125.117 186.89C125.057 186.951 124.965 187.012 124.904 187.073C124.874 187.103 124.813 187.164 124.783 187.194C124.783 187.194 124.722 187.255 124.691 187.255C124.691 187.255 124.631 187.316 124.6 187.347C124.509 187.438 124.418 187.529 124.357 187.62C124.357 187.62 124.296 187.681 124.266 187.712C124.266 187.712 124.235 187.772 124.205 187.772C124.144 187.833 124.113 187.894 124.053 187.955C124.022 187.985 123.992 188.046 123.961 188.077C123.961 188.107 123.901 188.138 123.901 188.168C123.87 188.198 123.84 188.259 123.809 188.32C123.809 188.351 123.748 188.381 123.748 188.411C123.718 188.472 123.688 188.533 123.627 188.594C123.627 188.624 123.566 188.655 123.566 188.716C123.566 188.716 123.566 188.716 123.535 188.776C123.475 188.868 123.414 188.989 123.353 189.081C123.353 189.081 123.353 189.141 123.323 189.172C123.292 189.263 123.231 189.324 123.201 189.415C123.201 189.446 123.17 189.476 123.14 189.537C123.14 189.567 123.11 189.598 123.079 189.659C123.079 189.659 123.049 189.719 123.018 189.75C122.988 189.841 122.927 189.932 122.897 190.024C122.897 190.024 122.897 190.024 122.897 190.084C122.836 190.206 122.805 190.297 122.745 190.419C122.745 190.419 122.745 190.449 122.745 190.48C122.745 190.51 122.745 190.571 122.714 190.602C122.714 190.662 122.684 190.723 122.653 190.784C122.653 190.815 122.653 190.875 122.623 190.906C122.623 190.967 122.592 190.997 122.562 191.058C122.562 191.088 122.562 191.119 122.562 191.149C122.562 191.21 122.562 191.271 122.532 191.332C122.532 191.393 122.501 191.453 122.471 191.514V191.575C122.471 191.636 122.471 191.666 122.471 191.727C122.471 191.818 122.44 191.94 122.41 192.031C122.41 192.031 122.41 192.092 122.41 192.123C122.41 192.183 122.41 192.244 122.41 192.305C122.41 192.366 122.41 192.396 122.41 192.427C122.41 192.579 122.41 192.701 122.41 192.853C122.41 193.887 122.745 194.678 123.262 195.104C123.323 195.165 123.414 195.226 123.505 195.256L126 196.716C125.33 196.321 124.904 195.499 124.904 194.282C124.904 194.161 124.904 194.009 124.904 193.857C124.904 193.796 124.904 193.765 124.904 193.735L124.752 193.674Z" fill="#231F20"/>
<path d="M128.494 187.712C130.563 186.525 132.267 187.468 132.267 189.872C132.267 192.275 130.593 195.165 128.525 196.382C126.456 197.598 124.753 196.625 124.753 194.222C124.753 191.818 126.426 188.929 128.494 187.712Z" fill="#2B2B2B"/>
<path d="M63.0871 157.991C63.0871 157.991 63.0871 157.808 63.1175 157.717C63.1175 157.626 63.148 157.504 63.1784 157.413C63.1784 157.352 63.1784 157.291 63.2088 157.2C63.2088 157.139 63.2392 157.078 63.2696 157.017C63.2696 156.926 63.3305 156.835 63.3305 156.744C63.3305 156.683 63.3609 156.652 63.3913 156.591C63.4218 156.5 63.4522 156.378 63.4826 156.287C63.4826 156.257 63.4826 156.196 63.513 156.166C63.5739 156.013 63.6347 155.892 63.6651 155.74C63.6651 155.74 63.6651 155.709 63.6651 155.679C63.7259 155.557 63.7868 155.435 63.8476 155.314C63.8476 155.283 63.8781 155.223 63.9085 155.192C63.9693 155.07 64.0302 154.949 64.091 154.857C64.091 154.857 64.091 154.797 64.1214 154.797C64.1823 154.675 64.2735 154.553 64.3648 154.401C64.3648 154.371 64.4256 154.34 64.4256 154.279C64.4865 154.188 64.5473 154.097 64.6081 154.006C64.6386 153.975 64.669 153.914 64.6994 153.854C64.7603 153.793 64.8211 153.701 64.8819 153.641C64.9428 153.58 64.9732 153.519 65.034 153.458C65.0949 153.397 65.1253 153.336 65.1861 153.306C65.2774 153.215 65.3382 153.123 65.4295 153.032C65.4903 152.971 65.5208 152.911 65.5816 152.88C65.612 152.85 65.6729 152.789 65.7033 152.758C65.7641 152.698 65.8554 152.637 65.9162 152.576C65.9466 152.546 66.0075 152.515 66.0379 152.485C66.1292 152.424 66.19 152.363 66.2813 152.302C66.3117 152.302 66.3421 152.241 66.403 152.211C66.5246 152.12 66.6463 152.059 66.768 151.998C66.9201 151.907 67.0722 151.815 67.2547 151.755C67.3156 151.755 67.346 151.724 67.4069 151.694C67.4981 151.663 67.5894 151.633 67.6806 151.602C67.7415 151.602 67.8023 151.572 67.8631 151.542C67.924 151.542 67.9544 151.542 68.0153 151.511C68.0761 151.511 68.1369 151.511 68.2282 151.511C68.2282 151.511 68.289 151.511 68.3499 151.511H68.5933H68.6237C68.7453 151.511 68.8366 151.511 68.9279 151.542H68.9583C69.0495 151.542 69.1104 151.572 69.2017 151.602C69.2017 151.602 69.2321 151.602 69.2625 151.602C69.3538 151.633 69.445 151.663 69.5059 151.724L67.0114 150.264C66.9505 150.234 66.8897 150.203 66.8289 150.173C66.7984 150.173 66.768 150.173 66.768 150.173C66.768 150.173 66.7072 150.173 66.6767 150.142C66.6463 150.142 66.6159 150.142 66.6159 150.142C66.5551 150.142 66.5247 150.142 66.5247 150.142H66.4638C66.4638 150.142 66.3117 150.112 66.2509 150.112C66.2509 150.112 66.2204 150.112 66.19 150.112C66.19 150.112 66.0683 150.112 66.0075 150.112H65.9467H65.825C65.7945 150.112 65.7641 150.112 65.7641 150.112C65.7033 150.112 65.6729 150.112 65.6729 150.112C65.5816 150.112 65.5512 150.112 65.5512 150.112C65.4599 150.112 65.4295 150.112 65.4295 150.112H65.3383C65.3383 150.112 65.1557 150.203 65.0645 150.234C65.034 150.234 65.0036 150.234 64.9732 150.264C64.9732 150.264 64.9428 150.264 64.9124 150.264C64.7603 150.325 64.6081 150.416 64.4256 150.507C64.3039 150.568 64.1822 150.659 64.0606 150.72C64.0301 150.72 63.9997 150.781 63.9389 150.812C63.8476 150.872 63.7868 150.933 63.6955 150.994C63.6651 151.024 63.6043 151.055 63.5738 151.116C63.513 151.177 63.4217 151.237 63.3609 151.298C63.3305 151.329 63.2696 151.39 63.2392 151.42C63.2392 151.42 63.1784 151.481 63.148 151.481C63.148 151.481 63.0871 151.542 63.0567 151.572C62.9654 151.663 62.8742 151.755 62.8133 151.846C62.8133 151.846 62.7525 151.907 62.7221 151.937C62.7221 151.937 62.6916 151.998 62.6612 152.028C62.6004 152.089 62.57 152.15 62.5091 152.211C62.4787 152.241 62.4483 152.272 62.4179 152.333C62.4179 152.363 62.357 152.393 62.357 152.424C62.3266 152.485 62.2962 152.515 62.2658 152.576C62.2658 152.606 62.2049 152.637 62.2049 152.667C62.1745 152.728 62.1441 152.789 62.0832 152.85C62.0832 152.88 62.0224 152.911 62.0224 152.971C62.0224 152.971 62.0224 153.002 61.992 153.032C61.9311 153.123 61.8703 153.245 61.8094 153.336C61.8094 153.336 61.8094 153.397 61.779 153.397C61.7486 153.458 61.6878 153.549 61.6574 153.641C61.6574 153.671 61.6269 153.701 61.5965 153.762C61.5965 153.793 61.5661 153.823 61.5357 153.884C61.5357 153.914 61.5052 153.945 61.4748 153.975C61.4444 154.067 61.3836 154.158 61.3531 154.249C61.3531 154.249 61.3531 154.279 61.3531 154.31C61.2923 154.432 61.2619 154.523 61.201 154.645C61.201 154.645 61.201 154.675 61.201 154.705C61.201 154.736 61.201 154.797 61.1706 154.827C61.1706 154.888 61.1402 154.949 61.1098 155.01C61.1098 155.04 61.1098 155.101 61.0794 155.131C61.0794 155.192 61.0489 155.223 61.0185 155.283C61.0185 155.314 61.0185 155.344 61.0185 155.375C61.0185 155.435 61.0185 155.496 60.9881 155.557C60.9881 155.618 60.9577 155.679 60.9272 155.74C60.9272 155.74 60.9272 155.77 60.9272 155.801C60.9272 155.861 60.9272 155.892 60.9272 155.922C60.9272 156.013 60.8968 156.135 60.8664 156.226C60.8664 156.226 60.8664 156.287 60.8664 156.318C60.8664 156.378 60.8664 156.439 60.8664 156.5C60.8664 156.561 60.8664 156.591 60.8664 156.622C60.8664 156.774 60.8664 156.896 60.8664 157.048C60.8664 158.082 61.201 158.873 61.7182 159.299C61.779 159.36 61.8703 159.421 61.9616 159.481L64.456 160.942C63.7868 160.546 63.3609 159.725 63.3609 158.538C63.3609 158.386 63.3609 158.265 63.3609 158.112C63.3609 158.052 63.3609 158.021 63.3609 157.991H63.0871Z" fill="#231F20"/>
<path d="M66.8299 152.028C68.8985 150.811 70.6021 151.785 70.6021 154.188C70.6021 156.591 68.9289 159.481 66.8603 160.698C64.7917 161.915 63.0882 160.942 63.0882 158.538C63.0882 156.135 64.7613 153.245 66.8603 152.028H66.8299Z" fill="#2B2B2B"/>
<path d="M68.1089 160.941C68.1089 160.941 68.1089 160.759 68.1393 160.668C68.1393 160.576 68.1697 160.455 68.2001 160.363C68.2001 160.303 68.2001 160.242 68.2306 160.151C68.2306 160.09 68.2306 160.029 68.2914 159.968C68.2914 159.877 68.3522 159.785 68.3522 159.694C68.3522 159.633 68.3827 159.603 68.4131 159.542C68.4435 159.451 68.4739 159.329 68.5044 159.238C68.5044 159.207 68.5043 159.147 68.5348 159.116C68.5956 158.964 68.6565 158.842 68.6869 158.69C68.6869 158.69 68.6869 158.69 68.6869 158.66C68.7477 158.538 68.8086 158.417 68.8694 158.295C68.8694 158.264 68.8998 158.234 68.9302 158.173C68.9911 158.052 69.0519 157.93 69.1128 157.839C69.1128 157.839 69.1128 157.808 69.1432 157.778C69.204 157.656 69.2953 157.504 69.3865 157.382C69.3865 157.352 69.4474 157.321 69.4474 157.261C69.5082 157.169 69.5691 157.078 69.6299 156.987C69.6603 156.956 69.6907 156.896 69.7212 156.835C69.782 156.774 69.8429 156.683 69.9037 156.622C69.9645 156.561 69.995 156.5 70.0558 156.439C70.1166 156.378 70.1471 156.317 70.2079 156.287C70.2992 156.196 70.36 156.105 70.4513 156.013C70.5121 155.952 70.5425 155.892 70.6034 155.861C70.6338 155.831 70.6946 155.77 70.7251 155.74C70.7859 155.679 70.8772 155.618 70.938 155.557C70.9684 155.527 71.0293 155.496 71.0597 155.435C71.1509 155.374 71.2118 155.314 71.3031 155.253C71.3335 155.222 71.3943 155.192 71.4247 155.162C71.5464 155.07 71.6681 155.009 71.7898 154.918C71.9419 154.827 72.094 154.736 72.2765 154.675C72.3374 154.675 72.3678 154.644 72.4286 154.614C72.5199 154.584 72.6111 154.553 72.7024 154.523C72.7632 154.523 72.8241 154.492 72.8849 154.462C72.9458 154.462 72.9762 154.462 72.9762 154.462C73.0979 154.462 73.1587 154.431 73.2195 154.431C73.25 154.431 73.2804 154.431 73.2804 154.431C73.4021 154.431 73.4933 154.431 73.5542 154.431H73.5846C73.5846 154.431 73.7975 154.431 73.8888 154.462C73.8888 154.462 73.9192 154.462 73.9496 154.462C74.0105 154.462 74.1018 154.492 74.1626 154.523H74.2234C74.2234 154.523 74.406 154.614 74.4668 154.675L71.9723 153.215C71.9723 153.215 71.8506 153.123 71.7898 153.123C71.7898 153.123 71.7898 153.123 71.7594 153.123H71.6985C71.6985 153.123 71.6377 153.062 71.6073 153.062C71.5768 153.062 71.5464 153.062 71.4856 153.062H71.4247H71.3943H71.2422H71.1509H71.0901H70.8467H70.7859C70.7859 153.062 70.6642 153.062 70.6338 153.062H70.5425C70.5425 153.062 70.4513 153.093 70.3904 153.123H70.2992C70.2992 153.123 70.2383 153.154 70.2079 153.184C70.1166 153.184 70.0254 153.245 69.9341 153.275C69.9037 153.275 69.8733 153.275 69.8429 153.306C69.8429 153.306 69.8124 153.306 69.782 153.306C69.6299 153.367 69.4778 153.458 69.2953 153.549C69.1736 153.61 69.0519 153.701 68.9302 153.762C68.8998 153.762 68.839 153.823 68.8086 153.853C68.7173 153.914 68.6565 153.975 68.5652 154.036C68.5348 154.066 68.4739 154.097 68.4435 154.158C68.3827 154.218 68.2914 154.279 68.2306 154.34C68.2001 154.371 68.1393 154.431 68.1089 154.462C68.1089 154.462 68.048 154.523 68.0176 154.523C68.0176 154.523 67.9568 154.584 67.9264 154.614C67.8351 154.705 67.7438 154.796 67.683 154.888C67.683 154.888 67.6222 154.949 67.5917 154.979C67.5917 154.979 67.5613 155.04 67.5309 155.04C67.4701 155.101 67.4396 155.162 67.3788 155.222C67.3484 155.253 67.318 155.314 67.2875 155.344C67.2875 155.374 67.2267 155.405 67.2267 155.435C67.1963 155.466 67.1658 155.527 67.1354 155.587C67.1354 155.587 67.0746 155.648 67.0746 155.679C67.0442 155.74 67.0137 155.8 66.9529 155.861C66.9529 155.892 66.892 155.922 66.892 155.983C66.892 155.983 66.892 155.983 66.892 156.044C66.8312 156.135 66.7704 156.257 66.7095 156.348C66.7095 156.348 66.7095 156.409 66.6791 156.439C66.6487 156.53 66.5879 156.591 66.5574 156.683C66.5574 156.713 66.527 156.743 66.4966 156.804C66.4966 156.835 66.4662 156.865 66.4358 156.926C66.4358 156.956 66.4053 156.987 66.3749 157.017C66.3445 157.108 66.2836 157.2 66.2532 157.291C66.2532 157.291 66.2532 157.291 66.2532 157.352C66.2532 157.352 66.162 157.595 66.1011 157.717C66.1011 157.717 66.1011 157.747 66.1011 157.778C66.1011 157.808 66.0707 157.869 66.0403 157.899C66.0403 157.96 66.0099 158.021 65.9794 158.082C65.9794 158.112 65.9794 158.173 65.949 158.204C65.949 158.264 65.9186 158.295 65.8882 158.356C65.8882 158.386 65.8882 158.417 65.8882 158.447C65.8882 158.508 65.8882 158.569 65.8578 158.629C65.8578 158.69 65.8273 158.751 65.7969 158.812V158.873C65.7969 158.934 65.7969 158.964 65.7969 159.025C65.7969 159.116 65.7665 159.238 65.7361 159.329C65.7361 159.329 65.7361 159.39 65.7361 159.42C65.7361 159.481 65.7361 159.542 65.7361 159.603C65.7361 159.664 65.7361 159.694 65.7361 159.725C65.7361 159.877 65.7361 159.998 65.7361 160.151C65.7361 161.185 66.0707 161.976 66.5878 162.402C66.6487 162.462 66.74 162.523 66.8312 162.554L69.3257 164.014C68.6565 163.618 68.2306 162.797 68.2306 161.611C68.2306 161.489 68.2306 161.337 68.2306 161.185C68.2306 161.124 68.2306 161.094 68.2306 161.063L68.1089 160.941Z" fill="#231F20"/>
<path d="M71.8499 154.979C73.9185 153.793 75.6221 154.736 75.6221 157.139C75.6221 159.542 73.9489 162.432 71.8803 163.649C69.8117 164.866 68.1082 163.892 68.1082 161.489C68.1082 159.086 69.7813 156.196 71.8803 154.979H71.8499Z" fill="#2B2B2B"/>
<path d="M183.406 110.748L183.376 128.331L176.592 132.256L176.653 114.673L183.406 110.748Z" fill="#939598"/>
<path d="M176.654 114.672L176.593 132.255L158.919 122.065L158.979 104.481L176.654 114.672Z" fill="#808285"/>
<path d="M183.406 110.748L176.653 114.672L158.979 104.481L165.762 100.527L183.406 110.748Z" fill="#E6E7E8"/>
<path d="M178.264 33.9661L178.051 110.93L175.404 112.482L175.617 35.5175L178.264 33.9661Z" fill="#A7A9AC"/>
<path d="M175.617 35.5176L175.404 112.482L164.087 105.941L164.3 28.9468L175.617 35.5176Z" fill="#D5D7E3"/>
<path d="M178.264 33.9662L175.617 35.5177L164.301 28.9468L166.917 27.4258L178.264 33.9662Z" fill="#909294"/>
<path d="M202.297 150.081V153.153L130.474 194.89V191.818L202.297 150.081Z" fill="#6D6E71"/>
<path d="M130.474 191.818V194.89L58.1943 153.153V150.081L130.474 191.818Z" fill="#6D6E71"/>
<path d="M202.297 150.081L130.474 191.818L58.1949 150.081L130.018 108.344L202.297 150.081Z" fill="#1E1B1C"/>
<path d="M204 134.415L203.97 149.808L130.473 192.518L130.504 177.125L204 134.415Z" fill="#BCBEC0"/>
<path d="M130.504 177.125L130.473 192.518L56.4905 149.808L56.521 134.415L130.504 177.125Z" fill="#BCBEC0"/>
<path d="M204 134.415L130.504 177.125L56.5209 134.415L130.017 91.7041L204 134.415Z" fill="#D1D3D4"/>
<path d="M202.297 131.19V134.262L130.474 176V172.927L202.297 131.19Z" fill="#D1D3D4"/>
<path d="M130.474 172.927V176L58.1943 134.262V131.19L130.474 172.927Z" fill="#D1D3D4"/>
<path d="M202.297 131.19L130.474 172.927L58.1949 131.19L130.018 89.4531L202.297 131.19Z" fill="#F1F2F2"/>
<path d="M150.337 29.9504L153.592 30.1938L154.839 30.8935L151.584 30.6501L150.337 29.9504Z" fill="#161314"/>
<path d="M151.584 30.6499L154.839 30.8933L154.687 31.2583L151.432 31.015L151.584 30.6499Z" fill="#121011"/>
<path d="M157.576 11.2114L160.831 11.4548L153.591 30.1939L150.336 29.9505L157.576 11.2114Z" fill="#121011"/>
<path d="M152.861 27.3345L156.116 27.5778L154.839 30.8937L151.584 30.6503L152.861 27.3345Z" fill="#121011"/>
<path d="M155.387 6.19238L158.642 6.46618L149.059 31.3198L145.804 31.0764L155.387 6.19238Z" fill="#616263"/>
<path d="M151.433 31.0154L154.688 31.2588L158.734 33.6011L155.479 33.3274L151.433 31.0154Z" fill="#161314"/>
<path d="M155.631 32.9924L158.855 33.2358L158.734 33.6008L155.479 33.3271L155.631 32.9924Z" fill="#793224"/>
<path d="M157.576 11.2114L160.831 11.4548L156.025 23.8664L152.77 23.623L157.576 11.2114Z" fill="#121011"/>
<path d="M152.862 27.3345L156.117 27.5778L160.163 29.9202L156.908 29.6464L152.862 27.3345Z" fill="#923C2B"/>
<path d="M156.908 29.6467L160.163 29.9205L158.855 33.2364L155.63 32.993L156.908 29.6467Z" fill="#793224"/>
<path d="M156.907 29.6464L155.63 32.9927L155.477 33.3273L151.432 31.0154L151.584 30.6503L152.861 27.3345L156.907 29.6464Z" fill="#D7583F"/>
<path d="M155.631 32.9924L158.856 33.2358L161.259 34.6047L158.004 34.3613L155.631 32.9924Z" fill="#161314"/>
<path d="M158.004 34.3621L161.259 34.6054L161.107 34.9705L157.882 34.7271L158.004 34.3621Z" fill="#121011"/>
<path d="M159.282 31.0154L162.537 31.2892L161.259 34.605L158.004 34.3616L159.282 31.0154Z" fill="#121011"/>
<path d="M157.88 34.7266L161.104 34.9699L165.15 37.3123L161.895 37.0385L157.88 34.7266Z" fill="#161314"/>
<path d="M162.051 36.7043L165.306 36.9477L165.154 37.3127L161.899 37.039L162.051 36.7043Z" fill="#186A3B"/>
<path d="M163.328 33.3577L166.583 33.6315L165.305 36.9473L162.05 36.704L163.328 33.3577Z" fill="#186A3B"/>
<path d="M159.282 31.0154L162.537 31.2892L166.583 33.6316L163.328 33.3578L159.282 31.0154Z" fill="#1D7F47"/>
<path d="M164.453 38.0732L167.708 38.3166L167.556 38.6816L164.301 38.4383L164.453 38.0732Z" fill="#121011"/>
<path d="M162.05 36.7043L165.305 36.9477L167.708 38.3166L164.453 38.0733L162.05 36.7043Z" fill="#161314"/>
<path d="M165.731 34.7571L168.986 35.0004L167.708 38.3163L164.453 38.0729L165.731 34.7571Z" fill="#121011"/>
<path d="M164.3 38.4377L167.555 38.6811L171.601 41.0235L168.346 40.7497L164.3 38.4377Z" fill="#161314"/>
<path d="M168.498 40.4155L171.722 40.6589L171.6 41.024L168.345 40.7502L168.498 40.4155Z" fill="#616263"/>
<path d="M169.778 37.0691L173.033 37.3429L171.725 40.6587L168.5 40.4154L169.778 37.0691Z" fill="#616263"/>
<path d="M165.732 34.7571L168.987 35.0004L173.033 37.3428L169.778 37.069L165.732 34.7571Z" fill="#757778"/>
<path d="M169.776 37.069L168.498 40.4153L168.346 40.7499L164.3 38.438L164.452 38.0729L165.73 34.7571L169.776 37.069Z" fill="#ADAFB1"/>
<path d="M170.871 41.7842L174.126 42.0276L173.974 42.3926L170.749 42.1492L170.871 41.7842Z" fill="#121011"/>
<path d="M168.498 40.4155L171.723 40.6589L174.126 42.0278L170.871 41.7845L168.498 40.4155Z" fill="#161314"/>
<path d="M172.148 38.4683L175.403 38.7116L174.125 42.0275L170.87 41.7841L172.148 38.4683Z" fill="#121011"/>
<path d="M170.75 42.1489L173.975 42.3923L178.021 44.7347L174.766 44.4609L170.75 42.1489Z" fill="#161314"/>
<path d="M174.916 44.1267L178.171 44.3701L178.019 44.7351L174.764 44.4613L174.916 44.1267Z" fill="#616263"/>
<path d="M176.194 40.7803L179.449 41.0541L178.172 44.3699L174.917 44.1265L176.194 40.7803Z" fill="#616263"/>
<path d="M172.148 38.4683L175.403 38.7116L179.449 41.054L176.194 40.7802L172.148 38.4683Z" fill="#757778"/>
<path d="M174.918 44.1267L178.173 44.3701L180.545 45.739L177.29 45.4957L174.918 44.1267Z" fill="#161314"/>
<path d="M177.29 45.4956L180.545 45.739L180.424 46.104L177.169 45.8606L177.29 45.4956Z" fill="#121011"/>
<path d="M178.567 42.1797L181.822 42.4231L180.545 45.7389L177.29 45.4955L178.567 42.1797Z" fill="#121011"/>
<path d="M177.169 45.8604L180.424 46.1037L184.44 48.4461L181.215 48.1723L177.169 45.8604Z" fill="#161314"/>
<path d="M181.336 47.8381L184.591 48.0815L184.439 48.4466L181.215 48.1728L181.336 47.8381Z" fill="#616263"/>
<path d="M178.568 42.1797L181.823 42.4231L185.869 44.7654L182.614 44.4917L178.568 42.1797Z" fill="#757778"/>
<path d="M181.334 47.8381L184.589 48.0815L185.806 48.7812L182.551 48.5378L181.334 47.8381Z" fill="#161314"/>
<path d="M182.614 44.4915L185.869 44.7652L184.591 48.0811L181.336 47.8377L182.614 44.4915Z" fill="#616263"/>
<path d="M185.018 42.21L188.242 42.4837L185.809 48.7808L182.554 48.5375L185.018 42.21Z" fill="#121011"/>
<path d="M182.612 44.4917L181.335 47.8379L181.213 48.1726L177.167 45.8606L177.289 45.4955L178.566 42.1797L182.612 44.4917Z" fill="#ADAFB1"/>
<path d="M145.805 31.0762L149.06 31.3195L187.999 53.8004L184.744 53.5266L145.805 31.0762Z" fill="#757778"/>
<path d="M189.793 29.7984L185.017 42.21L152.771 23.623L157.578 11.2114L189.793 29.7984Z" fill="#177FC0"/>
<path d="M189.791 29.7988L193.046 30.0726L188.24 42.4842L185.015 42.2104L189.791 29.7988Z" fill="#2E2E2F"/>
<path d="M157.576 11.2114L160.831 11.4548L193.046 30.0722L189.791 29.7984L157.576 11.2114Z" fill="#373839"/>
<path d="M155.386 6.19238L158.641 6.46618L197.58 28.9166L194.325 28.6732L155.386 6.19238Z" fill="#161314"/>
<path d="M194.325 28.6729L197.58 28.9162L187.997 53.8003L184.742 53.5265L194.325 28.6729Z" fill="#121011"/>
<path d="M142.794 31.8366L186.204 56.9032L197.369 27.9428L153.958 2.87622L142.794 31.8366ZM184.744 53.557L145.836 31.0761L155.419 6.22248L194.327 28.7033L184.744 53.557Z" fill="#E6E7E8"/>
<path d="M150.337 29.951L151.584 30.6507L152.862 27.3349L156.907 29.6468L155.63 32.9931L158.003 34.362L159.28 31.0157L163.326 33.3581L162.049 36.7044L164.452 38.0733L165.729 34.7575L169.775 37.0694L168.498 40.4157L170.871 41.7846L172.148 38.4688L176.194 40.7808L174.916 44.127L177.289 45.496L178.567 42.1801L182.613 44.4921L181.335 47.8383L182.552 48.538L185.016 42.2105L152.77 23.6235L150.337 29.951Z" fill="#201D1D"/>
<path d="M194.326 28.6732L184.744 53.5269L145.836 31.046L155.418 6.19238L194.326 28.6732ZM182.584 48.5379L185.017 42.2104L189.793 29.7988L157.578 11.2118L150.368 29.9509L151.585 30.6506L151.464 31.0156L155.509 33.358L155.631 32.993L158.034 34.3619L157.882 34.7269L161.928 37.0693L162.05 36.7043L164.453 38.1036L164.331 38.4687L168.377 40.8111L168.499 40.446L170.902 41.8149L170.75 42.18L174.796 44.5224L174.948 44.1573L177.321 45.5262L177.199 45.8913L181.245 48.2337L181.367 47.8686L182.584 48.5683V48.5379Z" fill="#201D1D"/>
<path d="M158.004 34.3616L157.882 34.7267L161.897 37.0387L162.049 36.704L163.327 33.3578L159.281 31.0154L158.004 34.3616Z" fill="#2ABC68"/>
<path d="M176.196 40.7802L174.918 44.1265L174.766 44.4611L170.751 42.1492L170.872 41.7841L172.15 38.4683L176.196 40.7802Z" fill="#ADAFB1"/>
<path d="M153.957 2.87622L157.212 3.11959L200.592 28.1862L197.337 27.9124L153.957 2.87622Z" fill="#F1F2F2"/>
<path d="M197.337 27.9124L200.592 28.1861L189.458 57.1465L186.203 56.8728L197.337 27.9124Z" fill="#BCBEC0"/>
<path d="M162.414 108.831V136.757L128.586 156.561V128.635L162.414 108.831Z" fill="#F5BC6F"/>
<path d="M128.586 128.634V156.561L94.3936 136.97V109.013L128.586 128.634Z" fill="#FFCF7A"/>
<path d="M162.414 108.831L128.586 128.635L94.3936 109.013L128.252 89.2095L162.414 108.831Z" fill="#FCD495"/>
<path d="M148.877 138.643L133.88 147.344L133.849 131.677L148.816 122.946L148.877 138.643Z" fill="#F1F2F2"/>
<path d="M147.538 130.429L146.747 130.886V126.11L147.538 125.653V130.429Z" fill="#6D6E71"/>
<path d="M145.957 131.373L145.166 131.829V127.053L145.957 126.566V131.373Z" fill="#6D6E71"/>
<path d="M144.374 132.286L143.583 132.742L143.552 127.966L144.343 127.51L144.374 132.286Z" fill="#6D6E71"/>
<path d="M142.793 134.11L142.003 134.567L141.972 128.878L142.763 128.422L142.793 134.11Z" fill="#6D6E71"/>
<path d="M141.209 134.11L140.419 134.597L140.388 129.791L141.179 129.334L141.209 134.11Z" fill="#6D6E71"/>
<path d="M139.629 135.053L138.838 135.51L138.808 130.734L139.599 130.277L139.629 135.053Z" fill="#6D6E71"/>
<path d="M138.046 136.879L137.255 137.335L137.225 131.647L138.016 131.19L138.046 136.879Z" fill="#6D6E71"/>
<path d="M136.433 136.879L135.642 137.335V132.559L136.433 132.103V136.879Z" fill="#6D6E71"/>
<path d="M147.66 137.335L135.583 144.362V143.906L147.66 136.878V137.335Z" fill="#6D6E71"/>
<path d="M147.66 135.51L135.583 142.537V142.081L147.66 135.054V135.51Z" fill="#6D6E71"/>
<path d="M147.66 133.685L135.552 140.712V140.255L147.66 133.228V133.685Z" fill="#6D6E71"/>
<path d="M106.047 137H106.016C105.164 136.483 104.465 135.296 104.434 134.292V132.133L107.598 133.958V136.118C107.598 137.122 106.898 137.517 106.047 137Z" fill="#CF9975"/>
<path d="M106.137 140.042C106.137 140.042 106.015 139.889 106.015 139.829V135.691C106.015 135.691 106.076 135.57 106.137 135.631C106.197 135.661 106.258 135.783 106.258 135.844V139.981C106.258 139.981 106.228 140.102 106.137 140.042Z" fill="#CF9975"/>
<path d="M107.658 140.955L104.616 139.221C104.616 139.221 104.494 139.069 104.494 139.008C104.494 138.947 104.555 138.886 104.616 138.947L107.658 140.681C107.658 140.681 107.78 140.833 107.78 140.894C107.78 140.955 107.719 141.015 107.658 140.955Z" fill="#CF9975"/>
<path d="M110.062 137.882C109.758 137.73 109.515 137.7 109.302 137.76C109.363 135.966 110.671 135.266 112.253 136.179C113.895 137.122 115.203 139.373 115.234 141.259C115.021 140.894 114.717 140.559 114.382 140.346C113.895 140.072 113.5 140.164 113.317 140.529C113.135 139.951 112.709 139.373 112.222 139.099C111.735 138.825 111.31 138.916 111.158 139.281C110.975 138.703 110.549 138.125 110.062 137.852V137.882Z" fill="#CF9975"/>
<path d="M111.308 142.993L110.791 142.689C110.791 142.689 110.67 142.537 110.67 142.476C110.67 142.385 110.73 142.354 110.791 142.415L111.308 142.689C111.765 142.963 112.13 142.75 112.13 142.202V138.521C112.13 138.521 112.191 138.4 112.251 138.46C112.312 138.491 112.373 138.612 112.373 138.673V142.354C112.373 143.054 111.886 143.328 111.278 142.993H111.308Z" fill="#CF9975"/>
<path d="M98.9858 133.775L98.6208 131.767L97.0693 131.402L97.404 131.798L96.8868 132.528C96.8868 132.528 96.826 132.71 96.8868 132.832L97.6473 134.779L98.6512 133.349L98.9858 133.745V133.775Z" fill="#CF9975"/>
<path d="M98.6818 133.806L97.8604 134.962L99.8682 136.148L99.8377 134.475L98.6818 133.806Z" fill="#CF9975"/>
<path d="M101.573 135.448V135.022L100.387 135.6L101.573 137.547V137.121L102.577 137.699C102.577 137.699 102.76 137.76 102.821 137.699L103.581 136.635L101.573 135.479V135.448Z" fill="#CF9975"/>
<path d="M103.61 136.392L102.576 133.775L101.329 133.897L101.907 135.418L103.61 136.392Z" fill="#CF9975"/>
<path d="M101.727 131.706L101.209 130.398C101.209 130.398 101.057 130.155 100.966 130.094L99.445 129.212L100.449 131.798H100.114L101.666 133.258L102.031 131.676H101.696L101.727 131.706Z" fill="#CF9975"/>
<path d="M99.2635 129.182L98.2596 130.581L99.5068 132.132L100.115 131.311L99.2635 129.182Z" fill="#CF9975"/>
<path d="M108.327 117.501L113.012 120.178L147.448 100.405L142.763 97.7275L108.327 117.501Z" fill="#CF9975"/>
<path d="M108.359 128.3L113.074 131.008L113.043 120.208L108.328 117.501L108.359 128.3Z" fill="#CF9975"/>
<path d="M162.961 78.9888V106.945L129.103 126.749V98.7926L162.961 78.9888Z" fill="#F5BC6F"/>
<path d="M129.103 98.7924V126.749L94.9407 107.128V79.1711L129.103 98.7924Z" fill="#FFCF7A"/>
<path d="M162.961 78.9887L129.103 98.7925L94.9409 79.1713L128.769 59.3674L162.961 78.9887Z" fill="#FCD495"/>
<path d="M149.394 108.801L134.427 117.502L134.366 101.835L149.363 93.1348L149.394 108.801Z" fill="#F1F2F2"/>
<path d="M148.086 100.619L147.295 101.075L147.265 96.299L148.056 95.8123L148.086 100.619Z" fill="#6D6E71"/>
<path d="M146.506 101.531L145.715 101.988L145.685 97.2117L146.476 96.7554L146.506 101.531Z" fill="#6D6E71"/>
<path d="M144.922 102.444L144.131 102.901L144.101 98.1245L144.892 97.6682L144.922 102.444Z" fill="#6D6E71"/>
<path d="M143.342 104.269L142.551 104.725L142.521 99.0366L143.312 98.5803L143.342 104.269Z" fill="#6D6E71"/>
<path d="M141.729 104.299L140.938 104.756V99.9797L141.729 99.4929V104.299Z" fill="#6D6E71"/>
<path d="M140.146 105.212L139.355 105.668V100.892L140.146 100.436V105.212Z" fill="#6D6E71"/>
<path d="M138.565 107.038L137.774 107.494V101.805L138.565 101.349V107.038Z" fill="#6D6E71"/>
<path d="M136.981 107.068L136.191 107.525V102.749L136.981 102.262V107.068Z" fill="#6D6E71"/>
<path d="M148.208 107.493L136.101 114.521V114.064L148.208 107.037V107.493Z" fill="#6D6E71"/>
<path d="M148.208 105.669L136.101 112.696V112.24L148.178 105.212L148.208 105.669Z" fill="#6D6E71"/>
<path d="M148.179 103.843L136.102 110.87V110.414L148.179 103.387V103.843Z" fill="#6D6E71"/>
<path d="M106.594 107.158H106.564C105.712 106.641 105.012 105.455 104.982 104.451V102.291L108.146 104.116V106.276C108.146 107.28 107.446 107.675 106.594 107.158Z" fill="#CF9975"/>
<path d="M106.654 110.2C106.654 110.2 106.533 110.048 106.533 109.987V105.85C106.533 105.85 106.563 105.728 106.654 105.789C106.715 105.819 106.776 105.941 106.776 106.002V110.139C106.776 110.139 106.715 110.261 106.654 110.2Z" fill="#CF9975"/>
<path d="M108.176 111.113L105.134 109.379C105.134 109.379 105.012 109.227 105.012 109.166C105.012 109.105 105.073 109.044 105.134 109.105L108.176 110.839C108.176 110.839 108.297 110.991 108.297 111.052C108.297 111.143 108.237 111.174 108.176 111.113Z" fill="#CF9975"/>
<path d="M110.579 108.07C110.275 107.918 110.032 107.857 109.819 107.949C109.88 106.154 111.188 105.454 112.77 106.367C114.412 107.31 115.721 109.561 115.751 111.447C115.538 111.082 115.234 110.747 114.899 110.534C114.412 110.261 114.017 110.352 113.834 110.717C113.652 110.139 113.226 109.561 112.739 109.287C112.253 109.013 111.857 109.105 111.675 109.47C111.492 108.892 111.066 108.314 110.579 108.04V108.07Z" fill="#CF9975"/>
<path d="M111.825 113.181L111.308 112.877C111.308 112.877 111.187 112.725 111.187 112.664C111.187 112.603 111.247 112.543 111.308 112.603L111.825 112.908C112.282 113.181 112.647 112.968 112.647 112.421V108.74C112.647 108.74 112.677 108.618 112.768 108.679C112.829 108.71 112.89 108.831 112.89 108.892V112.573C112.89 113.273 112.403 113.546 111.795 113.212L111.825 113.181Z" fill="#CF9975"/>
<path d="M99.5332 103.933L99.1681 101.926L97.6167 101.561L97.9513 101.956L97.4342 102.686C97.4342 102.686 97.3733 102.869 97.4342 102.99L98.1947 104.937L99.1986 103.507L99.5332 103.903V103.933Z" fill="#CF9975"/>
<path d="M99.2298 103.964L98.378 105.15L100.386 106.306V104.633L99.2298 103.964Z" fill="#CF9975"/>
<path d="M102.121 105.606V105.18L100.935 105.758L102.121 107.705V107.279L103.125 107.857C103.216 107.918 103.308 107.918 103.368 107.857L104.129 106.793L102.121 105.637V105.606Z" fill="#CF9975"/>
<path d="M104.129 106.55L103.125 103.964L101.878 104.055L102.456 105.576L104.129 106.55Z" fill="#CF9975"/>
<path d="M102.274 101.865L101.757 100.557C101.757 100.557 101.605 100.313 101.513 100.253L99.9924 99.3704L100.996 101.956H100.662L102.213 103.416L102.578 101.834H102.243L102.274 101.865Z" fill="#CF9975"/>
<path d="M99.811 99.3398L98.7767 100.739L100.054 102.291L100.632 101.469L99.811 99.3398Z" fill="#CF9975"/>
<path d="M108.874 87.6586L113.558 90.3661L147.995 70.5927L143.31 67.8853L108.874 87.6586Z" fill="#CF9975"/>
<path d="M108.906 98.458L113.591 101.165L113.56 90.3661L108.876 87.6587L108.906 98.458Z" fill="#CF9975"/>
</svg>
