<svg width="260" height="200" viewBox="0 0 260 200" fill="none" xmlns="http://www.w3.org/2000/svg">
<g style="mix-blend-mode:multiply" opacity="0.3">
<path d="M243.031 116.999L92.9771 196.75C89.1027 198.79 82.9108 198.79 79.0725 196.716L24.7577 167.481C20.8832 165.373 20.8832 161.974 24.8301 159.866L174.884 80.115C178.758 78.0413 184.95 78.0753 188.788 80.149L243.103 109.384C246.978 111.492 246.978 114.925 243.031 116.999Z" fill="#D8CBC7"/>
</g>
<path d="M236.476 109.691L236.44 110.779L180.75 80.2175V79.1296L236.476 109.691Z" fill="#2E7D98"/>
<path d="M180.749 79.1296V80.2175L47.1348 152.252V151.164L180.749 79.1296Z" fill="#3186AB"/>
<path d="M102.826 181.691V182.813L47.1348 152.252V151.164L102.826 181.691Z" fill="#176E8C"/>
<path d="M236.476 109.691L236.44 110.778L102.826 182.813V181.691L236.476 109.691Z" fill="#3699DB"/>
<path d="M180.749 79.1296L236.476 109.691L102.826 181.691L47.1348 151.164L180.749 79.1296Z" fill="#3186AB"/>
<path d="M102.826 182.813V183.9L45.1074 152.251V151.13L102.826 182.813Z" fill="#2E7D98"/>
<path d="M238.468 109.691V110.778L102.826 183.901V182.813L238.468 109.691Z" fill="#3186AB"/>
<path d="M180.784 78.0415L238.503 109.69L102.861 182.813L45.1421 151.164L180.784 78.0415ZM102.861 181.725L236.475 109.69L180.784 79.1293L47.1698 151.164L102.861 181.725Z" fill="#48ADE5"/>
<path d="M103.441 106.053L103.332 120.705L47.243 151.096L46.6274 150.756L47.243 75.2881L103.441 106.053Z" fill="#176E8C"/>
<path d="M103.44 106.053L236.62 34.1211L236.041 109.623L102.861 181.555L103.44 106.053Z" fill="#237592"/>
<path d="M47.2075 75.288L180.388 3.35571L236.621 34.1207L103.442 106.053L47.2075 75.288Z" fill="#3498DB"/>
<path d="M103.875 181.793L102.97 181.317V105.815L103.875 106.325V181.793Z" fill="#176E8C"/>
<path d="M103.875 106.325L102.97 105.815L106.446 103.98L107.315 104.456L103.875 106.325Z" fill="#3186AB"/>
<path d="M107.315 104.455L107.351 179.957L103.875 181.793V106.325L107.315 104.455Z" fill="#217DA5"/>
<path d="M110.067 178.461L109.162 177.985V102.483L110.067 102.993V178.461Z" fill="#176E8C"/>
<path d="M110.067 102.993L109.162 102.483L112.638 100.647L113.507 101.123L110.067 102.993Z" fill="#3186AB"/>
<path d="M113.507 101.123V176.625L110.067 178.461V102.993L113.507 101.123Z" fill="#217DA5"/>
<path d="M116.258 175.13L115.353 174.654V99.1521L116.258 99.662V175.13Z" fill="#176E8C"/>
<path d="M116.258 99.6618L115.353 99.1519L118.829 97.2822L119.698 97.7921L116.258 99.6618Z" fill="#3186AB"/>
<path d="M119.698 97.7917L119.735 173.26L116.258 175.129V99.6614L119.698 97.7917Z" fill="#217DA5"/>
<path d="M122.451 171.798L121.545 171.322V95.8203L122.451 96.3302V171.798Z" fill="#176E8C"/>
<path d="M122.451 96.3303L121.545 95.8204L125.022 93.9507L125.891 94.4606L122.451 96.3303Z" fill="#3186AB"/>
<path d="M125.891 94.4602V169.928L122.451 171.798V96.3299L125.891 94.4602Z" fill="#217DA5"/>
<path d="M128.643 168.467L127.774 167.958L127.738 92.4897L128.643 92.9657V168.467Z" fill="#176E8C"/>
<path d="M128.643 92.9653L127.738 92.4893L131.214 90.6196L132.083 91.1296L128.643 92.9653Z" fill="#3186AB"/>
<path d="M132.082 91.1292L132.118 166.597L128.642 168.467V92.9649L132.082 91.1292Z" fill="#217DA5"/>
<path d="M134.834 165.136L133.929 164.626V89.158L134.834 89.6339V165.136Z" fill="#176E8C"/>
<path d="M134.834 89.6337L133.929 89.1578L137.405 87.2881L138.274 87.798L134.834 89.6337Z" fill="#3186AB"/>
<path d="M138.274 87.7976L138.311 163.265L134.834 165.135V89.6333L138.274 87.7976Z" fill="#217DA5"/>
<path d="M141.027 161.804L140.158 161.294L140.122 85.8267L141.027 86.3026V161.804Z" fill="#176E8C"/>
<path d="M141.027 86.3021L140.122 85.8262L143.598 83.9565L144.467 84.4325L141.027 86.3021Z" fill="#3186AB"/>
<path d="M144.467 84.4326L144.503 159.934L141.027 161.804V86.3023L144.467 84.4326Z" fill="#217DA5"/>
<path d="M147.22 158.473L146.314 157.963V82.4949L147.22 82.9708V158.473Z" fill="#176E8C"/>
<path d="M147.22 82.9706L146.314 82.4947L149.791 80.625L150.66 81.1009L147.22 82.9706Z" fill="#3186AB"/>
<path d="M150.659 81.1008V156.603L147.219 158.472V82.9705L150.659 81.1008Z" fill="#217DA5"/>
<path d="M153.411 155.108L152.542 154.632L152.506 79.1638L153.411 79.6397V155.108Z" fill="#176E8C"/>
<path d="M153.411 79.6395L152.506 79.1636L155.982 77.2939L156.851 77.7699L153.411 79.6395Z" fill="#3186AB"/>
<path d="M156.85 77.7698V153.272L153.41 155.107V79.6395L156.85 77.7698Z" fill="#217DA5"/>
<path d="M159.603 151.776L158.734 151.3L158.698 75.7983L159.603 76.3083V151.776Z" fill="#176E8C"/>
<path d="M159.603 76.308L158.698 75.7981L162.174 73.9624L163.043 74.4383L159.603 76.308Z" fill="#3186AB"/>
<path d="M163.043 74.4377L163.08 149.939L159.604 151.775V76.3075L163.043 74.4377Z" fill="#217DA5"/>
<path d="M165.794 148.444L164.925 147.969L164.889 72.4668L165.794 72.9767V148.444Z" fill="#176E8C"/>
<path d="M165.795 72.9767L164.89 72.4668L168.366 70.6311L169.235 71.1071L165.795 72.9767Z" fill="#3186AB"/>
<path d="M169.234 71.1067L169.27 146.608L165.794 148.444V72.9764L169.234 71.1067Z" fill="#217DA5"/>
<path d="M171.986 145.113L171.117 144.637L171.081 69.1355L171.986 69.6454V145.113Z" fill="#176E8C"/>
<path d="M171.986 69.6455L171.081 69.1356L174.557 67.2659L175.426 67.7758L171.986 69.6455Z" fill="#3186AB"/>
<path d="M175.426 67.7751L175.462 143.277L171.986 145.113V69.6449L175.426 67.7751Z" fill="#217DA5"/>
<path d="M178.178 141.782L177.272 141.306V65.8042L178.178 66.3141V141.782Z" fill="#176E8C"/>
<path d="M178.178 66.3137L177.272 65.8038L180.749 63.9341L181.618 64.444L178.178 66.3137Z" fill="#3186AB"/>
<path d="M181.618 64.4438L181.654 139.912L178.178 141.781V66.3136L181.618 64.4438Z" fill="#217DA5"/>
<path d="M184.37 138.45L183.5 137.974L183.464 62.4727L184.37 62.9486V138.45Z" fill="#176E8C"/>
<path d="M184.37 62.9484L183.464 62.4725L186.94 60.6028L187.809 61.1127L184.37 62.9484Z" fill="#3186AB"/>
<path d="M187.809 61.1123L187.845 136.58L184.369 138.45V62.948L187.809 61.1123Z" fill="#217DA5"/>
<path d="M190.561 135.119L189.692 134.609L189.656 59.1411L190.561 59.617V135.119Z" fill="#176E8C"/>
<path d="M190.561 59.6168L189.656 59.1409L193.132 57.2712L194.001 57.7811L190.561 59.6168Z" fill="#3186AB"/>
<path d="M194.001 57.7808L194.038 133.249L190.562 135.118V59.6165L194.001 57.7808Z" fill="#217DA5"/>
<path d="M196.754 131.787L195.885 131.277L195.849 55.8088L196.754 56.2848V131.787Z" fill="#176E8C"/>
<path d="M196.754 56.2848L195.849 55.8089L199.325 53.9392L200.194 54.4151L196.754 56.2848Z" fill="#3186AB"/>
<path d="M200.193 54.4148L200.23 129.917L196.753 131.786V56.2845L200.193 54.4148Z" fill="#217DA5"/>
<path d="M202.945 128.455L202.076 127.945L202.04 52.4775L202.945 52.9535V128.455Z" fill="#176E8C"/>
<path d="M202.945 52.9535L202.04 52.4776L205.516 50.6079L206.385 51.0838L202.945 52.9535Z" fill="#3186AB"/>
<path d="M206.386 51.0833L206.422 126.585L202.946 128.455V52.9529L206.386 51.0833Z" fill="#217DA5"/>
<path d="M209.136 125.09L208.267 124.614L208.231 49.146L209.136 49.6219V125.09Z" fill="#176E8C"/>
<path d="M209.137 49.6217L208.231 49.1458L211.708 47.2761L212.577 47.752L209.137 49.6217Z" fill="#3186AB"/>
<path d="M212.577 47.752L212.613 123.254L209.137 125.089V49.6216L212.577 47.752Z" fill="#217DA5"/>
<path d="M215.329 121.759L214.46 121.283L214.423 45.781L215.329 46.2909V121.759Z" fill="#176E8C"/>
<path d="M215.329 46.2907L214.423 45.7808L217.899 43.9451L218.805 44.421L215.329 46.2907Z" fill="#3186AB"/>
<path d="M218.805 44.4207V119.922L215.329 121.758V46.2903L218.805 44.4207Z" fill="#217DA5"/>
<path d="M221.52 118.427L220.651 117.951L220.615 42.4497L221.52 42.9596V118.427Z" fill="#176E8C"/>
<path d="M221.52 42.9592L220.615 42.4492L224.091 40.6135L224.96 41.0895L221.52 42.9592Z" fill="#3186AB"/>
<path d="M224.96 41.0891L224.997 116.591L221.521 118.427V42.9588L224.96 41.0891Z" fill="#217DA5"/>
<path d="M227.714 115.096L226.845 114.62L226.809 39.1182L227.714 39.6281V115.096Z" fill="#176E8C"/>
<path d="M227.714 39.6279L226.809 39.1179L230.285 37.2822L231.154 37.7581L227.714 39.6279Z" fill="#3186AB"/>
<path d="M231.155 37.7576L231.191 113.259L227.715 115.095V39.6273L231.155 37.7576Z" fill="#217DA5"/>
<path d="M233.905 111.764L233.036 111.288V35.7864L233.905 36.2963V111.764Z" fill="#176E8C"/>
<path d="M233.905 36.2964L233.036 35.7864L236.476 33.9167L237.381 34.4267L233.905 36.2964Z" fill="#3186AB"/>
<path d="M237.382 34.4263V109.894L233.906 111.764V36.296L237.382 34.4263Z" fill="#217DA5"/>
<path d="M46.4106 76.9537L47.3159 76.4438L47.0986 151.164L46.1934 151.64L46.4106 76.9537Z" fill="#3186AB"/>
<path d="M45.5405 76.4439L46.4095 75.968L47.3148 76.4439L46.4095 76.9538L45.5405 76.4439Z" fill="#57B4E7"/>
<path d="M46.4101 76.9537L46.1928 151.64L45.2876 151.164L45.5411 76.4438L46.4101 76.9537Z" fill="#4AAEE5"/>
<path d="M102.137 106.937L103.006 106.461L103.912 106.937L103.042 107.413L102.137 106.937Z" fill="#57B4E7"/>
<path d="M103.043 107.413L103.912 106.937L103.514 181.929L102.645 182.405L103.043 107.413Z" fill="#176E8C"/>
<path d="M103.007 107.413V107.651L102.645 181.453V182.405L101.739 181.929V180.943L102.138 107.141V106.937L103.007 107.413Z" fill="#4AAEE5"/>
<path d="M236.223 33.2033V34.2912L180.207 3.93408V2.81226L236.223 33.2033Z" fill="#2E7D98"/>
<path d="M180.206 2.81226V3.93408L47.3882 76.3763V75.2885L180.206 2.81226Z" fill="#3186AB"/>
<path d="M103.405 106.733V107.855L103.007 107.651L102.137 107.141L74.8352 92.3871L74.1834 92.0471L47.2433 77.3955L45.3604 76.4097V75.2878L47.2433 76.3077L103.405 106.733Z" fill="#2E7D98"/>
<path d="M238.251 33.2031V34.2909L103.405 107.855V106.767L238.251 33.2031Z" fill="#3186AB"/>
<path d="M180.17 1.72412L238.251 33.203L103.405 106.767L45.3247 75.2882L180.17 1.72412ZM103.369 105.645L236.187 33.169L180.17 2.81194L47.3525 75.2882L103.369 105.645Z" fill="#48ADE5"/>
<mask id="mask0_106_15825" style="mask-type:luminance" maskUnits="userSpaceOnUse" x="46" y="75" width="56" height="107">
<path d="M101.956 106.665L101.848 181.181L47.243 151.096L46.6274 150.756L47.243 75.2878L101.956 106.665Z" fill="white"/>
</mask>
<g mask="url(#mask0_106_15825)">
<path d="M49.6689 127.537L49.7414 151.435L72.626 164.081L72.5536 140.183L49.6689 127.537Z" fill="#FFCF7A"/>
<path d="M72.5522 140.183L72.6247 164.081L95.6542 151.435L95.618 127.537L72.5522 140.183Z" fill="#F5BC6F"/>
<path d="M49.6689 127.538L72.5536 140.184L95.6193 127.538L72.6984 114.892L49.6689 127.538Z" fill="#FCD495"/>
<path d="M88.6665 151.606C89.1372 151.334 89.5355 150.688 89.5355 150.144V148.988L87.7612 149.94V151.096C87.7612 151.64 88.1595 151.844 88.6302 151.572L88.6665 151.606Z" fill="#CF9975"/>
<path d="M88.6315 153.237C88.6315 153.237 88.704 153.169 88.704 153.101V150.891C88.704 150.891 88.7039 150.823 88.6315 150.857C88.5953 150.857 88.5591 150.925 88.5591 150.959V153.169C88.5591 153.169 88.5591 153.237 88.6315 153.203V153.237Z" fill="#CF9975"/>
<path d="M87.7609 153.713L89.4627 152.761C89.4627 152.761 89.5352 152.693 89.5352 152.659C89.5352 152.625 89.5351 152.591 89.4627 152.625L87.7609 153.577C87.7609 153.577 87.6885 153.645 87.6885 153.679C87.6885 153.713 87.6885 153.747 87.7609 153.713Z" fill="#CF9975"/>
<path d="M86.4217 152.116C86.4217 152.116 86.7476 152.014 86.8563 152.048C86.8563 151.096 86.0958 150.722 85.1906 151.198C84.2853 151.708 83.5249 152.898 83.5249 153.918C83.6335 153.714 83.8146 153.544 83.9956 153.442C84.2491 153.306 84.5026 153.34 84.6112 153.544C84.7198 153.238 84.9371 152.932 85.2268 152.762C85.4802 152.626 85.7337 152.66 85.8423 152.864C85.951 152.558 86.1683 152.252 86.4579 152.116H86.4217Z" fill="#CF9975"/>
<path d="M85.7337 154.836L86.0234 154.7C86.0234 154.7 86.0958 154.632 86.0958 154.564C86.0958 154.53 86.0958 154.496 86.0234 154.53L85.7337 154.7C85.4803 154.836 85.263 154.7 85.263 154.462V152.49C85.263 152.49 85.263 152.422 85.1906 152.456C85.1544 152.456 85.1182 152.524 85.1182 152.592V154.564C85.1182 154.938 85.4078 155.074 85.7337 154.904V154.836Z" fill="#CF9975"/>
<path d="M92.6123 149.873L92.8296 148.785L93.6987 148.581L93.5176 148.819L93.8073 149.193C93.8073 149.193 93.8073 149.295 93.8073 149.363L93.3728 150.417L92.7934 149.669L92.6123 149.873Z" fill="#CF9975"/>
<path d="M92.7938 149.906L93.2646 150.518L92.1421 151.164V150.28L92.7938 149.906Z" fill="#CF9975"/>
<path d="M91.1661 150.79V150.552L91.8178 150.858L91.1661 151.912V151.674L90.5867 151.98C90.5867 151.98 90.4781 151.98 90.4419 151.98L90.0073 151.402L91.1299 150.79H91.1661Z" fill="#CF9975"/>
<path d="M90.0439 151.3L90.5871 149.906L91.3113 149.974L90.9854 150.756L90.0439 151.3Z" fill="#CF9975"/>
<path d="M91.0927 148.784L91.3824 148.07C91.3824 148.07 91.4548 147.934 91.5272 147.9L92.3962 147.424L91.8169 148.818H91.998L91.129 149.6L90.9116 148.75H91.0927V148.784Z" fill="#CF9975"/>
<path d="M92.4678 147.424L93.0472 148.172L92.3229 149.022L91.9971 148.58L92.4678 147.424Z" fill="#CF9975"/>
<path d="M83.0161 120.5L84.718 121.418L61.5437 134.098L59.8418 133.18L83.0161 120.5Z" fill="#CF9975"/>
<path d="M59.8062 136.852L61.508 137.803V134.098L59.8062 133.18V136.852Z" fill="#CF9975"/>
<path d="M63.5376 143.651L70.164 147.288V140.693L63.5376 137.09V143.651Z" fill="#F1F2F2"/>
<path d="M64.1167 140.218L64.4426 140.388V138.382L64.1167 138.212V140.218Z" fill="#6D6E71"/>
<path d="M64.8047 140.592L65.1668 140.796V138.79L64.8047 138.586V140.592Z" fill="#6D6E71"/>
<path d="M65.4927 140.966L65.8548 141.17V139.164L65.4927 138.96V140.966Z" fill="#6D6E71"/>
<path d="M66.2178 141.748L66.5437 141.918V139.538L66.2178 139.368V141.748Z" fill="#6D6E71"/>
<path d="M66.9058 141.747L67.2679 141.917V139.946L66.9058 139.742V141.747Z" fill="#6D6E71"/>
<path d="M67.5928 142.122L67.9549 142.326V140.32L67.5928 140.116V142.122Z" fill="#6D6E71"/>
<path d="M68.3184 142.903L68.6442 143.073V140.693L68.3184 140.49V142.903Z" fill="#6D6E71"/>
<path d="M69.0054 142.903L69.3675 143.073V141.068L69.0054 140.898V142.903Z" fill="#6D6E71"/>
<path d="M64.0444 143.073L69.4035 146.03V145.826L64.0444 142.903V143.073Z" fill="#6D6E71"/>
<path d="M64.0444 142.325L69.4035 145.249V145.045L64.0444 142.121V142.325Z" fill="#6D6E71"/>
<path d="M64.0444 141.577L69.4035 144.501V144.297L64.0444 141.373V141.577Z" fill="#6D6E71"/>
<path d="M74.6528 138.007L74.7253 164.863L100.47 179.072L100.362 152.217L74.6528 138.007Z" fill="#FFCF7A"/>
<path d="M100.362 152.217L100.47 179.072L126.36 164.863L126.288 138.007L100.362 152.217Z" fill="#F5BC6F"/>
<path d="M74.6528 138.008L100.362 152.217L126.288 138.008L100.543 123.798L74.6528 138.008Z" fill="#FCD495"/>
<path d="M112.13 130.053L114.013 131.107L87.942 145.385L86.0591 144.331L112.13 130.053Z" fill="#CF9975"/>
<path d="M86.0234 148.478L87.9426 149.532V145.384L86.0234 144.331V148.478Z" fill="#CF9975"/>
<path d="M90.2222 156.093L97.6452 160.172V152.795L90.2222 148.716V156.093Z" fill="#F1F2F2"/>
<path d="M90.875 152.252L91.2733 152.456V150.212L90.875 149.974V152.252Z" fill="#6D6E71"/>
<path d="M91.6719 152.659L92.034 152.897V150.654L91.6719 150.416V152.659Z" fill="#6D6E71"/>
<path d="M92.4326 153.102L92.8309 153.306V151.062L92.4326 150.858V153.102Z" fill="#6D6E71"/>
<path d="M93.2285 153.951L93.6268 154.189V151.504L93.2285 151.3V153.951Z" fill="#6D6E71"/>
<path d="M94.0259 153.951L94.388 154.189V151.946L94.0259 151.708V153.951Z" fill="#6D6E71"/>
<path d="M94.7861 154.393L95.1845 154.597V152.353L94.7861 152.149V154.393Z" fill="#6D6E71"/>
<path d="M95.582 155.243L95.9804 155.481V152.796L95.582 152.592V155.243Z" fill="#6D6E71"/>
<path d="M96.3789 155.277L96.7773 155.481V153.237L96.3789 152.999V155.277Z" fill="#6D6E71"/>
<path d="M90.8027 155.482L96.8136 158.779V158.575L90.8027 155.278V155.482Z" fill="#6D6E71"/>
<path d="M90.8027 154.632L96.8136 157.929V157.691L90.8027 154.428V154.632Z" fill="#6D6E71"/>
<path d="M90.8027 153.748L96.8136 157.045V156.841L90.8027 153.544V153.748Z" fill="#6D6E71"/>
<path d="M87.9424 128.66L87.9786 139.402L101.702 146.983L101.666 136.241L87.9424 128.66Z" fill="#FFCF7A"/>
<path d="M101.667 136.241L101.703 146.983L115.499 139.402L115.462 128.66L101.667 136.241Z" fill="#F5BC6F"/>
<path d="M87.9419 128.66L101.665 136.241L115.461 128.66L101.738 121.079L87.9419 128.66Z" fill="#FCD495"/>
<path d="M93.4453 140.116L99.5285 143.448V137.397L93.4453 134.065V140.116Z" fill="#F1F2F2"/>
<path d="M93.9893 136.955L94.3151 137.125V135.289L93.9893 135.119V136.955Z" fill="#6D6E71"/>
<path d="M94.6411 137.295L94.9309 137.465V135.629L94.6411 135.459V137.295Z" fill="#6D6E71"/>
<path d="M95.2568 137.669L95.5827 137.839V136.003L95.2568 135.799V137.669Z" fill="#6D6E71"/>
<path d="M95.9092 138.349L96.2351 138.519V136.343L95.9092 136.173V138.349Z" fill="#6D6E71"/>
<path d="M96.5615 138.348L96.8874 138.518V136.683L96.5615 136.513V138.348Z" fill="#6D6E71"/>
<path d="M97.2124 138.723L97.502 138.893V137.057L97.2124 136.887V138.723Z" fill="#6D6E71"/>
<path d="M97.8271 139.403L98.153 139.607V137.397L97.8271 137.227V139.403Z" fill="#6D6E71"/>
<path d="M98.48 139.403L98.8059 139.607V137.737L98.48 137.567V139.403Z" fill="#6D6E71"/>
<path d="M93.9541 139.607L98.8423 142.292V142.122L93.9541 139.437V139.607Z" fill="#6D6E71"/>
<path d="M93.9541 138.893L98.8423 141.578V141.408L93.9541 138.723V138.893Z" fill="#6D6E71"/>
<path d="M93.9541 138.179L98.8423 140.899V140.695L93.9541 138.009V138.179Z" fill="#6D6E71"/>
<path d="M109.85 131.923L107.967 132.977L94.0264 125.43L95.9092 124.376L109.85 131.923Z" fill="#CF9975"/>
<path d="M56.6211 116.965L56.6573 127.707L70.3809 135.288L70.3446 124.546L56.6211 116.965Z" fill="#FFCF7A"/>
<path d="M70.3452 124.546L70.3815 135.288L84.1774 127.707L84.1412 116.965L70.3452 124.546Z" fill="#F5BC6F"/>
<path d="M56.6211 116.965L70.3446 124.546L84.1406 116.965L70.4171 109.418L56.6211 116.965Z" fill="#FCD495"/>
<path d="M62.1245 128.421L68.2077 131.753V125.736L62.1245 122.404V128.421Z" fill="#F1F2F2"/>
<path d="M62.667 125.26L62.9929 125.464V123.629L62.667 123.425V125.26Z" fill="#6D6E71"/>
<path d="M63.3198 125.635L63.6457 125.804V123.969L63.3198 123.799V125.635Z" fill="#6D6E71"/>
<path d="M63.9351 125.974L64.2609 126.144V124.308L63.9351 124.138V125.974Z" fill="#6D6E71"/>
<path d="M64.5874 126.688L64.9133 126.858V124.682L64.5874 124.479V126.688Z" fill="#6D6E71"/>
<path d="M65.2402 126.688L65.5661 126.858V125.022L65.2402 124.852V126.688Z" fill="#6D6E71"/>
<path d="M65.8901 127.028L66.216 127.198V125.362L65.8901 125.192V127.028Z" fill="#6D6E71"/>
<path d="M66.5059 127.742L66.8317 127.912V125.736L66.5059 125.566V127.742Z" fill="#6D6E71"/>
<path d="M67.1587 127.742L67.4846 127.912V126.076L67.1587 125.906V127.742Z" fill="#6D6E71"/>
<path d="M62.6318 127.912L67.5201 130.597V130.427L62.6318 127.742V127.912Z" fill="#6D6E71"/>
<path d="M62.6318 127.232L67.5201 129.918V129.748L62.6318 127.062V127.232Z" fill="#6D6E71"/>
<path d="M62.6318 126.519L67.5201 129.204V129.034L62.6318 126.349V126.519Z" fill="#6D6E71"/>
<path d="M79.4691 127.741C79.8312 127.537 80.0847 127.095 80.0847 126.688V125.838L78.8174 126.552V127.401C78.8174 127.775 79.1071 127.945 79.4329 127.741H79.4691Z" fill="#CF9975"/>
<path d="M79.4332 128.931L79.4694 128.863V127.265C79.4694 127.265 79.4694 127.231 79.4332 127.265C79.4332 127.265 79.397 127.333 79.397 127.367V128.965C79.397 128.965 79.397 128.999 79.4332 128.965V128.931Z" fill="#CF9975"/>
<path d="M78.8185 129.271L80.0496 128.591L80.0858 128.523C80.0858 128.523 80.0858 128.489 80.0496 128.523L78.8185 129.203C78.8185 129.203 78.7822 129.271 78.7822 129.305C78.7822 129.339 78.7823 129.339 78.8185 129.305V129.271Z" fill="#CF9975"/>
<path d="M77.8404 128.115C77.8404 128.115 78.0576 128.047 78.1662 128.081C78.1662 127.401 77.6231 127.129 76.9713 127.469C76.3195 127.843 75.7764 128.693 75.7764 129.441C75.8488 129.305 75.9937 129.169 76.1023 129.101C76.2833 128.999 76.4644 129.033 76.5368 129.169C76.6092 128.965 76.7903 128.727 76.9713 128.625C77.1523 128.523 77.3334 128.557 77.4059 128.693C77.4783 128.489 77.6593 128.251 77.8404 128.149V128.115Z" fill="#CF9975"/>
<path d="M77.3334 130.052L77.5507 129.951C77.5507 129.951 77.5869 129.883 77.5869 129.849C77.5869 129.815 77.5869 129.815 77.5507 129.849L77.3334 129.951C77.1524 130.052 77.0076 129.95 77.0076 129.781V128.353C77.0076 128.353 77.0075 128.319 76.9713 128.353C76.9713 128.353 76.8989 128.421 76.8989 128.455V129.882C76.8989 130.154 77.08 130.256 77.3334 130.12V130.052Z" fill="#CF9975"/>
<path d="M82.3301 126.484L82.4749 125.702L83.0905 125.566L82.9456 125.736L83.1629 126.008C83.1629 126.008 83.1629 126.076 83.1629 126.144L82.8732 126.891L82.4749 126.348L82.3301 126.518V126.484Z" fill="#CF9975"/>
<path d="M82.439 126.518L82.7649 126.96L81.9683 127.402V126.756L82.439 126.518Z" fill="#CF9975"/>
<path d="M81.2795 127.163V126.993L81.7503 127.231L81.2795 127.979V127.809L80.8812 128.047C80.8812 128.047 80.8088 128.047 80.7726 128.047L80.4829 127.639L81.2795 127.197V127.163Z" fill="#CF9975"/>
<path d="M80.4463 127.503L80.8446 126.517L81.3515 126.551L81.1343 127.129L80.4463 127.503Z" fill="#CF9975"/>
<path d="M81.2067 125.701L81.424 125.191C81.424 125.191 81.4964 125.089 81.5326 125.089L82.1481 124.75L81.7498 125.735H81.8947L81.2791 126.279L81.1343 125.667H81.2791L81.2067 125.701Z" fill="#CF9975"/>
<path d="M82.2214 124.75L82.6198 125.259L82.1128 125.871L81.8594 125.565L82.2214 124.75Z" fill="#CF9975"/>
<path d="M78.5283 120.262L76.6454 121.316L62.7046 113.769L64.5875 112.716L78.5283 120.262Z" fill="#CF9975"/>
<path d="M78.5275 124.41L76.6084 125.463V121.282L78.5275 120.262V124.41Z" fill="#CF9975"/>
<path d="M84.5376 105.339L84.5014 116.115L70.7778 123.662L70.814 112.92L84.5376 105.339Z" fill="#F5BC6F"/>
<path d="M70.8142 112.92L70.778 123.662L56.9458 116.115L56.982 105.373L70.8142 112.92Z" fill="#FFCF7A"/>
<path d="M84.5372 105.339L70.8136 112.92L56.9814 105.373L70.705 97.7925L84.5372 105.339Z" fill="#FCD495"/>
<path d="M78.9993 116.796L72.916 120.127V114.11L78.9993 110.779V116.796Z" fill="#F1F2F2"/>
<path d="M78.4904 113.634L78.1646 113.838V112.003L78.4904 111.799V113.634Z" fill="#6D6E71"/>
<path d="M77.8405 114.009L77.5146 114.179V112.343L77.8405 112.173V114.009Z" fill="#6D6E71"/>
<path d="M77.1882 114.348L76.8623 114.518V112.682L77.1882 112.512V114.348Z" fill="#6D6E71"/>
<path d="M76.5378 115.062L76.2119 115.232V113.056L76.5378 112.886V115.062Z" fill="#6D6E71"/>
<path d="M75.9201 115.062L75.5942 115.231V113.396L75.9201 113.226V115.062Z" fill="#6D6E71"/>
<path d="M75.2697 115.402L74.9438 115.572V113.736L75.2697 113.566V115.402Z" fill="#6D6E71"/>
<path d="M74.6174 116.116L74.2915 116.286V114.11L74.6174 113.94V116.116Z" fill="#6D6E71"/>
<path d="M73.965 116.116L73.6392 116.286V114.45L73.965 114.28V116.116Z" fill="#6D6E71"/>
<path d="M78.5281 116.286L73.6035 118.971V118.802L78.5281 116.116V116.286Z" fill="#6D6E71"/>
<path d="M78.5281 115.606L73.6035 118.292V118.122L78.5281 115.436V115.606Z" fill="#6D6E71"/>
<path d="M78.5281 114.892L73.6035 117.578V117.408L78.5281 114.722V114.892Z" fill="#6D6E71"/>
<path d="M61.6903 116.116C61.3282 115.912 61.0747 115.47 61.0747 115.062V114.212L62.3421 114.926V115.776C62.3421 116.15 62.0524 116.32 61.7265 116.116H61.6903Z" fill="#CF9975"/>
<path d="M61.691 117.305C61.691 117.305 61.6548 117.237 61.6548 117.203V115.606C61.6548 115.606 61.6548 115.572 61.691 115.606L61.7272 115.674V117.271C61.7272 117.271 61.7272 117.305 61.691 117.271V117.305Z" fill="#CF9975"/>
<path d="M62.3059 117.646L61.0748 116.966C61.0748 116.966 61.0024 116.898 61.0024 116.864C61.0024 116.864 61.0024 116.83 61.0748 116.864L62.3059 117.544C62.3059 117.544 62.3422 117.612 62.3422 117.646C62.3422 117.646 62.3422 117.68 62.3059 117.646Z" fill="#CF9975"/>
<path d="M63.2824 116.489C63.2824 116.489 63.0651 116.421 62.9927 116.455C62.9927 115.775 63.5358 115.503 64.1876 115.843C64.8394 116.217 65.3825 117.067 65.3825 117.781C65.3101 117.645 65.1653 117.509 65.0567 117.441C64.8756 117.339 64.6946 117.373 64.6222 117.509C64.5497 117.305 64.3687 117.067 64.1876 116.965C64.0066 116.863 63.8255 116.897 63.7531 117.033C63.6807 116.795 63.4997 116.591 63.3186 116.489H63.2824Z" fill="#CF9975"/>
<path d="M63.7896 118.427L63.5723 118.325L63.5361 118.257C63.5361 118.257 63.5361 118.223 63.5723 118.257L63.7896 118.359C63.9706 118.461 64.1154 118.359 64.1154 118.189V116.761C64.1154 116.761 64.1155 116.727 64.1879 116.761C64.1879 116.761 64.2241 116.829 64.2241 116.863V118.291C64.2241 118.563 64.0068 118.665 63.7896 118.529V118.427Z" fill="#CF9975"/>
<path d="M58.8294 114.858L58.6845 114.076L58.069 113.94L58.2138 114.11L57.9966 114.382C57.9966 114.382 57.9966 114.45 57.9966 114.518L58.2863 115.266L58.6845 114.722L58.8294 114.892V114.858Z" fill="#CF9975"/>
<path d="M58.6853 114.892L58.3594 115.334L59.156 115.776V115.164L58.6853 114.892Z" fill="#CF9975"/>
<path d="M59.8794 115.537V115.367L59.4087 115.605L59.8794 116.353V116.183L60.2777 116.421C60.2777 116.421 60.3501 116.421 60.3863 116.421L60.676 116.013L59.8794 115.571V115.537Z" fill="#CF9975"/>
<path d="M60.6772 115.878L60.2789 114.892L59.772 114.926L59.9892 115.504L60.6772 115.878Z" fill="#CF9975"/>
<path d="M59.9507 114.076L59.7335 113.566C59.7335 113.566 59.661 113.464 59.6248 113.464L59.0093 113.125L59.4076 114.11H59.2627L59.8783 114.654L60.0231 114.042H59.8783L59.9507 114.076Z" fill="#CF9975"/>
<path d="M58.9379 113.124L58.5396 113.634L59.0465 114.246L59.2637 113.94L58.9379 113.124Z" fill="#CF9975"/>
<path d="M76.5711 101.056L78.4541 102.109L64.5132 109.656L62.6304 108.602L76.5711 101.056Z" fill="#CF9975"/>
<path d="M62.6304 112.784L64.5132 113.838V109.691L62.6304 108.637V112.784Z" fill="#CF9975"/>
</g>
<path d="M101.378 110.132L102.32 107.072L101.378 106.562L74.1123 121.35L74.4744 195.152L75.4159 195.628L75.7779 194.438L101.378 180.399V110.132Z" fill="#3186AB"/>
<path d="M75.0527 121.826L75.4149 195.628L102.319 180.908V107.072L75.0527 121.826Z" fill="#3498DB"/>
<path d="M98.5524 176.421L97.5748 175.911L97.5386 170.506L98.5162 169.962L98.5524 176.421Z" fill="#2A88BC"/>
<path d="M98.5527 176.421L79.2891 186.789V185.701L97.5751 175.911L98.5527 176.421Z" fill="#5BA3CB"/>
<path d="M79.2891 186.789V180.33L97.5389 170.506L98.5165 169.962V176.421L79.2891 186.789Z" fill="#2E7D98"/>
<path d="M97.5757 175.91L79.2896 185.701L79.2534 180.33L97.5394 170.505L97.5757 175.91Z" fill="#3186AB"/>
<path d="M98.5524 163.129L97.5748 162.585L97.5386 157.18L98.5162 156.636L98.5524 163.129Z" fill="#2A88BC"/>
<path d="M98.5527 163.129L79.2891 173.497V172.409L97.5751 162.585L98.5527 163.129Z" fill="#5BA3CB"/>
<path d="M79.2891 173.497V167.038L97.5389 157.214L98.5165 156.67V163.129L79.2891 173.497Z" fill="#2E7D98"/>
<path d="M97.5757 162.585L79.2896 172.409L79.2534 167.004L97.5394 157.179L97.5757 162.585Z" fill="#3186AB"/>
<path d="M98.5524 136.477L97.5748 135.967L97.5386 130.562L98.5162 130.018L98.5524 136.477Z" fill="#2A88BC"/>
<path d="M98.5527 136.477L79.2891 146.846V145.758L97.5751 135.967L98.5527 136.477Z" fill="#5BA3CB"/>
<path d="M79.2891 146.845V140.386L97.5389 130.562L98.5165 130.018V136.477L79.2891 146.845Z" fill="#2E7D98"/>
<path d="M97.5757 135.967L79.2896 145.757L79.2534 140.386L97.5394 130.562L97.5757 135.967Z" fill="#3186AB"/>
<path d="M98.5524 123.186L97.5748 122.642L97.5386 117.237L98.5162 116.693L98.5524 123.186Z" fill="#2A88BC"/>
<path d="M98.5527 123.185L79.2891 133.554V132.466L97.5751 122.641L98.5527 123.185Z" fill="#5BA3CB"/>
<path d="M79.2891 133.554V127.095L97.5389 117.27L98.5165 116.726V123.185L79.2891 133.554Z" fill="#2E7D98"/>
<path d="M97.5757 122.641L79.2896 132.465L79.2534 127.06L97.5394 117.236L97.5757 122.641Z" fill="#3186AB"/>
<path d="M81.0283 189.271L80.5938 189.033V191.039L81.0283 191.277V189.271Z" fill="#7B7B7B"/>
<path d="M92.0366 183.288L91.602 183.05L80.5942 189.033L81.0288 189.271L92.0366 183.288Z" fill="#D6D7D7"/>
<path d="M81.0283 189.271V191.277L92.0362 185.328V183.288L81.0283 189.271Z" fill="#ACADAD"/>
<path d="M81.0288 120.432L80.5942 120.194V122.234L81.0288 122.472V120.432Z" fill="#7B7B7B"/>
<path d="M92.0371 114.483L91.6025 114.211L80.5947 120.194L81.0293 120.432L92.0371 114.483Z" fill="#D6D7D7"/>
<path d="M81.0293 120.432V122.472L92.0371 116.489V114.483L81.0293 120.432Z" fill="#ACADAD"/>
<path d="M89.2835 173.361L88.849 173.124L87.3281 173.973L87.7627 174.211L89.2835 173.361Z" fill="#CACBCB"/>
<path d="M87.7632 174.212L87.3286 173.974V174.45L87.7632 174.688V174.212Z" fill="#797979"/>
<path d="M89.2845 173.838V173.362L87.7637 174.212V174.688L89.2845 173.838Z" fill="#B2B3B3"/>
<path d="M86.4233 174.926L86.8579 175.163V176.319C86.8579 176.319 86.9303 176.523 87.0027 176.591L86.5682 176.353C86.5682 176.353 86.4233 176.217 86.4233 176.081V174.926Z" fill="#CACBCB"/>
<path d="M86.8579 174.687L86.4233 174.449V174.925L86.8579 175.163V174.687Z" fill="#797979"/>
<path d="M86.8578 174.687L86.4233 174.449L84.1421 175.673L84.5766 175.911L86.8578 174.687Z" fill="#CACBCB"/>
<path d="M87.2924 172.818C87.0389 172.954 86.8579 173.26 86.8579 173.532V174.687V175.163V176.319C86.8579 176.591 87.0752 176.693 87.2924 176.557C87.5459 176.421 87.7269 176.115 87.7269 175.843V174.687V174.212V173.056C87.7269 172.784 87.5097 172.682 87.2924 172.818Z" fill="#B2B3B3"/>
<path d="M86.4598 173.056C86.4598 173.056 86.4598 173.022 86.4598 172.988C86.4598 172.988 86.4598 172.988 86.4598 172.954C86.4598 172.954 86.4598 172.954 86.4598 172.92C86.4598 172.92 86.4598 172.92 86.4598 172.886C86.4598 172.886 86.4598 172.886 86.496 172.886C86.496 172.886 86.4959 172.886 86.5322 172.886C86.5322 172.886 86.5322 172.886 86.6046 172.886C86.6408 172.886 86.7132 172.852 86.7494 172.852H86.7857H86.8218L87.2564 173.09C87.184 173.056 87.0753 173.056 86.9667 173.09C86.8581 173.158 86.7494 173.259 86.677 173.395C86.677 173.395 86.5322 173.667 86.5322 173.803V174.959L86.0977 174.721V173.565C86.0977 173.565 86.0977 173.395 86.0977 173.327L86.4598 173.056Z" fill="#CACBCB"/>
<path d="M86.8584 174.687L84.5771 175.911V176.387L86.8584 175.163V174.687Z" fill="#B2B3B3"/>
<path d="M84.5766 175.912L84.1421 175.674V176.15L84.5766 176.387V175.912Z" fill="#CACBCB"/>
<path d="M83.2368 191.378L83.8524 191.038L82.7661 190.427L82.1143 190.766L83.2368 191.378Z" fill="#D9DADA"/>
<path d="M83.8521 192.399L84.4676 192.059L84.7211 119.004L84.0693 119.344L83.8521 192.399Z" fill="#E6E7E8"/>
<path d="M84.0686 119.344L84.7204 119.004L82.9823 118.052L82.3306 118.426L84.0686 119.344Z" fill="#F1F2F2"/>
<path d="M82.3316 118.427V119.106L83.4541 119.684L83.2368 191.379L82.1143 190.767V191.447L83.8524 192.399L84.0696 119.344L82.3316 118.427Z" fill="#BCBEC0"/>
<path d="M89.6464 187.741L90.2982 187.401L89.2118 186.823L88.5601 187.163L89.6464 187.741Z" fill="#D9DADA"/>
<path d="M90.2983 188.795L90.9138 188.421L91.1673 115.367L90.5156 115.741L90.2983 188.795Z" fill="#E6E7E8"/>
<path d="M90.5164 115.741L91.1681 115.367L89.4301 114.449L88.7783 114.789L90.5164 115.741Z" fill="#F1F2F2"/>
<path d="M88.7774 114.79V115.469L89.8637 116.081L89.6464 187.742L88.5601 187.164V187.844L90.2982 188.796L90.5154 115.741L88.7774 114.79Z" fill="#BCBEC0"/>
<path d="M90.2616 166.529L89.8271 166.291L87.5459 167.549L87.9805 167.787L90.2616 166.529Z" fill="#CACBCB"/>
<path d="M87.9805 167.787L87.5459 167.549V168.025L87.9805 168.262V167.787Z" fill="#797979"/>
<path d="M90.2617 167.005V166.529L87.9805 167.787V168.263L90.2617 167.005Z" fill="#B2B3B3"/>
<path d="M87.1102 168.705V169.861C87.1102 169.861 87.1827 170.065 87.2551 170.133L86.8205 169.895C86.8205 169.895 86.7119 169.759 86.7119 169.623V168.467L87.1464 168.705H87.1102Z" fill="#CACBCB"/>
<path d="M87.1113 168.263L86.6768 168.025V168.501L87.1113 168.705V168.263Z" fill="#797979"/>
<path d="M87.1117 168.263L86.6772 168.025L85.1201 168.841L85.5547 169.079L87.1117 168.263Z" fill="#CACBCB"/>
<path d="M87.5453 166.393C87.2919 166.529 87.1108 166.835 87.1108 167.107V168.263V168.739V169.895C87.1108 170.167 87.3281 170.269 87.5453 170.133C87.7988 169.997 87.9799 169.691 87.9799 169.419V168.263V167.787V166.631C87.9799 166.359 87.7626 166.257 87.5453 166.393Z" fill="#B2B3B3"/>
<path d="M86.7133 166.631C86.7133 166.631 86.7133 166.597 86.7133 166.563C86.7133 166.563 86.7133 166.563 86.7133 166.529C86.7133 166.529 86.7133 166.529 86.7133 166.495C86.7133 166.495 86.7133 166.495 86.7133 166.461C86.7133 166.461 86.7132 166.461 86.7494 166.461C86.7494 166.461 86.7857 166.461 86.8219 166.427C86.8219 166.427 86.9305 166.393 86.9667 166.359H87.0754L87.5099 166.597C87.4375 166.563 87.3288 166.563 87.184 166.597C87.0754 166.665 86.9667 166.767 86.8943 166.903C86.8943 166.903 86.7494 167.175 86.7494 167.311V168.467L86.3149 168.229V167.073C86.3149 167.073 86.315 166.937 86.3512 166.835L86.7133 166.631Z" fill="#CACBCB"/>
<path d="M87.1117 168.263L85.5547 169.079V169.555L87.1117 168.705V168.263Z" fill="#B2B3B3"/>
<path d="M85.5547 169.079L85.1201 168.841V169.317L85.5547 169.555V169.079Z" fill="#CACBCB"/>
<path d="M46.3022 80.5228L47.2437 77.4293L46.3022 76.9534L19 91.707L19.3983 165.509L20.3397 166.019L20.7019 164.795L46.3022 150.789V80.5228Z" fill="#3498DB"/>
<path d="M20.0503 92.2507L20.4486 166.019L47.3163 151.299V77.4631L20.0503 92.2507Z" fill="#3186AB"/>
<path d="M43.5505 146.845L42.5728 146.302L42.5366 140.896L43.5143 140.353L43.5505 146.845Z" fill="#2A88BC"/>
<path d="M43.5508 146.846L24.2871 157.214V156.126L42.5731 146.302L43.5508 146.846Z" fill="#5BA3CB"/>
<path d="M24.2871 157.214V150.755L42.5369 140.931L43.5146 140.387V146.846L24.2871 157.214Z" fill="#48ADE5"/>
<path d="M42.5732 146.301L24.2872 156.126L24.251 150.72L42.537 140.896L42.5732 146.301Z" fill="#176E8C"/>
<path d="M43.5505 133.52L42.5728 132.976L42.5366 127.571L43.5143 127.061L43.5505 133.52Z" fill="#2A88BC"/>
<path d="M43.5508 133.52L24.2871 143.889V142.801L42.5731 132.976L43.5508 133.52Z" fill="#5BA3CB"/>
<path d="M24.2871 143.888V137.429L42.5369 127.605L43.5146 127.061V133.52L24.2871 143.888Z" fill="#48ADE5"/>
<path d="M42.5732 132.976L24.2872 142.8L24.251 137.429L42.537 127.571L42.5732 132.976Z" fill="#176E8C"/>
<path d="M43.5505 106.902L42.5728 106.358L42.5366 100.953L43.5143 100.409L43.5505 106.902Z" fill="#2A88BC"/>
<path d="M43.5508 106.903L24.2871 117.271V116.183L42.5731 106.359L43.5508 106.903Z" fill="#5BA3CB"/>
<path d="M24.2871 117.271V110.812L42.5369 100.987L43.5146 100.443V106.902L24.2871 117.271Z" fill="#48ADE5"/>
<path d="M42.5732 106.358L24.2872 116.183L24.251 110.778L42.537 100.953L42.5732 106.358Z" fill="#176E8C"/>
<path d="M43.5505 93.5764L42.5728 93.0325L42.5366 87.6273L43.5143 87.1174L43.5505 93.5764Z" fill="#2A88BC"/>
<path d="M43.5508 93.5766L24.2871 103.945V102.857L42.5731 93.0327L43.5508 93.5766Z" fill="#5BA3CB"/>
<path d="M24.2871 103.945V97.4857L42.5369 87.6613L43.5146 87.1174V93.5764L24.2871 103.945Z" fill="#48ADE5"/>
<path d="M42.5732 93.0323L24.2872 102.857L24.251 97.4856L42.537 87.6272L42.5732 93.0323Z" fill="#176E8C"/>
</svg>
