<svg width="56" height="56" viewBox="0 0 56 56" fill="none" xmlns="http://www.w3.org/2000/svg">
<path d="M52.6002 35.0114L47.4458 31.16V26.9516C47.4458 26.4588 47.046 26.0605 46.5547 26.0605C46.0619 26.0605 45.6636 26.4588 45.6636 26.9516V29.8279L40.7366 26.146V23.2834C40.7366 22.7921 40.3383 22.3907 39.8454 22.3907C39.3526 22.3907 38.9543 22.792 38.9543 23.2834V24.8138L31.537 19.2718C31.537 19.2718 31.537 12.1963 31.537 10.3881C31.537 8.57993 29.5717 4.88599 28 4.88599C26.4283 4.88599 24.463 8.58013 24.463 10.3883C24.463 12.1965 24.463 19.272 24.463 19.272L17.0457 24.814V23.2836C17.0457 22.7923 16.6475 22.3909 16.1546 22.3909C15.6617 22.3909 15.2635 22.7922 15.2635 23.2836V26.1462L10.3364 29.8266V26.9518C10.3364 26.459 9.93663 26.0607 9.44532 26.0607C8.95401 26.0607 8.5542 26.459 8.5542 26.9518V31.1602L3.39981 35.0114C3.14805 35.2006 3 35.4951 3 35.8079V38.2555C3 38.5942 3.1709 38.907 3.45469 39.0917C3.73545 39.2748 4.09404 39.3022 4.40078 39.1649L8.5542 37.2438V38.5882C8.5542 39.0795 8.95401 39.4777 9.44532 39.4777C9.93663 39.4777 10.3364 39.0795 10.3364 38.5882V36.4183L15.2635 34.1402V35.9667C15.2635 36.4596 15.6617 36.8578 16.1546 36.8578C16.6475 36.8578 17.0457 36.4596 17.0457 35.9667V33.3147L25.1344 29.5718L25.8394 42.0702C25.8394 43.0727 25.4564 43.8555 24.5973 44.4628C22.8333 45.7125 19.7541 47.7297 19.7541 47.7297C19.3605 48.0104 19.1926 48.5155 19.3391 48.9764C19.4871 49.4387 19.9158 49.7516 20.4011 49.7516L26.6907 48.717V49.805C26.6907 50.5282 27.2767 51.1142 27.9999 51.1142C28.7232 51.1142 29.3091 50.5282 29.3091 49.805V48.717L35.5988 49.7516C36.084 49.7516 36.5113 49.4388 36.6608 48.9764C36.8073 48.5155 36.6394 48.0104 36.2457 47.7297C36.2457 47.7297 33.165 45.7125 31.4011 44.4628C30.5436 43.8555 30.1606 43.0727 30.1606 42.0702L30.8656 29.5718L38.9542 33.3147V35.9667C38.9542 36.4596 39.3525 36.8578 39.8453 36.8578C40.3382 36.8578 40.7365 36.4596 40.7365 35.9667V34.1402L45.6635 36.4183V38.5882C45.6635 39.0795 46.0618 39.4777 46.5546 39.4777C47.0459 39.4777 47.4457 39.0795 47.4457 38.5882V37.2438L51.5977 39.1649C51.9059 39.3022 52.263 39.2748 52.5453 39.0917C52.829 38.907 52.9999 38.5942 52.9999 38.2555V35.8079C53 35.4951 52.852 35.2006 52.6002 35.0114ZM25.9034 10.2311C25.9034 9.07447 26.8418 8.13609 28 8.13609C29.1567 8.13609 30.0966 9.07447 30.0966 10.2311H25.9034Z" fill="white"/>
</svg>
