<svg width="56" height="56" viewBox="0 0 56 56" fill="none" xmlns="http://www.w3.org/2000/svg">
<g clip-path="url(#clip0_299_771)">
<path d="M15.7742 35.4189C12.6915 35.4189 10.1938 37.9166 10.1938 40.9993C10.1938 44.0819 12.6915 46.5796 15.7742 46.5796C18.8568 46.5796 21.3545 44.0819 21.3545 40.9993C21.3545 37.9166 18.8568 35.4189 15.7742 35.4189ZM15.7742 43.5103C14.387 43.5103 13.2631 42.3865 13.2631 40.9993C13.2631 39.6121 14.387 38.4882 15.7742 38.4882C17.1614 38.4882 18.2852 39.6121 18.2852 40.9993C18.2852 42.3865 17.1613 43.5103 15.7742 43.5103Z" fill="white"/>
<path d="M43.431 35.4189C40.3484 35.4189 37.8506 37.9166 37.8506 40.9993C37.8506 44.0819 40.3484 46.5796 43.431 46.5796C46.5136 46.5796 49.0113 44.0819 49.0113 40.9993C49.0113 37.9166 46.5135 35.4189 43.431 35.4189ZM43.431 43.5103C42.0438 43.5103 40.92 42.3865 40.92 40.9993C40.92 39.6121 42.0438 38.4882 43.431 38.4882C44.8181 38.4882 45.942 39.6121 45.942 40.9993C45.942 42.3865 44.8181 43.5103 43.431 43.5103Z" fill="white"/>
<path d="M55.7023 11.7263C55.4143 11.0464 54.9387 10.4721 54.3354 10.0661C54.0351 9.86261 53.7023 9.70052 53.3463 9.5895C52.9915 9.47947 52.6128 9.42041 52.2244 9.42041H18.2022C17.7213 9.42041 17.2466 9.49621 16.7974 9.65294C16.4609 9.76932 16.1395 9.9313 15.8418 10.1356C15.3953 10.4395 15.0094 10.8367 14.703 11.3035C14.4079 11.7509 14.1877 12.2583 14.0406 12.8114L10.7045 21.9771L10.6895 22.0397C10.6473 22.2053 10.5935 22.347 10.5301 22.4748C10.4332 22.6633 10.3144 22.8244 10.1663 22.9759C10.0183 23.1265 9.83959 23.2675 9.63167 23.4004L1.74377 28.44C0.657781 29.1332 0 30.3336 0 31.6212V37.0898C0 37.6077 0.105656 38.1078 0.296844 38.5606C0.585703 39.2396 1.06313 39.8139 1.66469 40.2208C1.96503 40.4243 2.29786 40.5845 2.65366 40.6955C3.00858 40.8064 4.78767 40.9968 5.17705 40.9968H8.33361C8.33536 36.8881 11.6654 33.5589 15.7741 33.5589C19.8826 33.5589 23.2128 36.8881 23.2146 40.9968H35.9906C35.9925 36.8881 39.3224 33.5589 43.4312 33.5589C47.5398 33.5589 50.8699 36.8881 50.8716 40.9968H51.6819C51.6819 40.9668 51.6811 40.9368 51.6801 40.9069H51.6819L51.6801 40.906C51.6801 40.8927 51.6792 40.8795 51.6792 40.8663H52.2244C52.7423 40.8663 53.2425 40.7597 53.6944 40.5686C54.3744 40.2797 54.9476 39.8041 55.3546 39.2016C55.5589 38.9004 55.7201 38.5684 55.8301 38.2125C55.9412 37.8576 56.0001 37.4779 56.0001 37.0896V13.1953C56 12.6775 55.8935 12.1781 55.7023 11.7263ZM18.2533 27.1321C18.2533 26.6652 18.6319 26.2866 19.0987 26.2866H22.819C23.2858 26.2866 23.6645 26.6652 23.6645 27.1321C23.6645 27.5989 23.2858 27.9775 22.819 27.9775H19.0987C18.632 27.9776 18.2533 27.5989 18.2533 27.1321ZM14.5014 23.0922C14.2617 22.7495 14.2045 22.3128 14.348 21.9208L17.3768 13.6234L17.4077 13.5062C17.4809 13.2297 17.5838 12.9893 17.7143 12.7929C17.8305 12.6159 17.9653 12.4758 18.1159 12.3728C18.2215 12.2996 18.3255 12.2476 18.4329 12.2107C18.5958 12.1534 18.7684 12.126 18.9544 12.126H22.5002C23.2057 12.126 23.7781 12.6985 23.7781 13.404V22.3594C23.7781 23.0648 23.2055 23.6373 22.5002 23.6373H15.5485C15.131 23.6373 14.74 23.4339 14.5014 23.0922ZM28.4751 22.3594V13.404C28.4751 12.6985 29.0476 12.126 29.7531 12.126H41.8527C42.5581 12.126 43.1306 12.6985 43.1306 13.404V22.3594C43.1306 23.0648 42.5581 23.6373 41.8527 23.6373H29.7532C29.0477 23.6373 28.4751 23.0648 28.4751 22.3594Z" fill="white"/>
</g>
<defs>
<clipPath id="clip0_299_771">
<rect width="56" height="56" fill="white"/>
</clipPath>
</defs>
</svg>
