<svg width="56" height="56" viewBox="0 0 56 56" fill="none" xmlns="http://www.w3.org/2000/svg">
<path d="M22.5435 28.2655C18.8549 27.2407 19.6749 22.1188 19.6749 22.1188C19.6749 22.1188 1.87904 17.1673 1.61567 17.0923C0.313669 16.7451 -0.0737374 17.9835 0.0111376 18.6604C2.09747 35.3087 12.5031 43.6332 12.5031 43.6332H52.8688C55.7268 41.2491 56 34.1447 56 34.1447C56 34.1447 26.2316 29.2903 22.5435 28.2655ZM10.2361 29.6468C9.40087 29.6468 8.7234 28.9698 8.7234 28.1341C8.7234 27.2985 9.40076 26.6216 10.2361 26.6216C11.0717 26.6216 11.7492 27.2985 11.7492 28.1341C11.749 28.9698 11.0717 29.6468 10.2361 29.6468Z" fill="white"/>
<path d="M36.9742 14.7721L25.749 12.3667L22.6675 14.5923V16.6084L36.9742 19.675V14.7721Z" fill="white"/>
<path d="M49.7157 17.5026L38.3154 15.0597V19.9619L49.7157 22.4048V17.5026Z" fill="white"/>
<path d="M40.6999 21.87L29.771 19.5272V22.9286L40.6999 24.947V21.87Z" fill="white"/>
<path d="M29.771 28.3091C32.9777 28.8884 36.8834 29.563 40.6999 30.2111V26.6144L29.771 24.5951V28.3091Z" fill="white"/>
<path d="M52.7213 24.4459L42.3389 22.2203V25.2496L52.7213 27.1671V24.4459Z" fill="white"/>
<path d="M42.3389 30.4886C46.3453 31.1663 50.1218 31.7925 52.7213 32.2218V28.8338L42.3389 26.9169V30.4886Z" fill="white"/>
<path d="M22.9087 26.949C23.665 27.1594 25.5803 27.5408 28.1318 28.0105V24.2926L20.97 22.97C20.9228 24.1105 21.0615 26.4354 22.9087 26.949Z" fill="white"/>
<path d="M21.2162 21.1299L21.1826 21.3417L28.1321 22.6253V19.1763L14.471 16.2488L11.4692 18.4165C15.7817 19.6172 19.9548 20.7789 20.0408 20.8023L21.2162 21.1299Z" fill="white"/>
</svg>
