<svg width="56" height="56" viewBox="0 0 56 56" fill="none" xmlns="http://www.w3.org/2000/svg">
<path d="M37.1714 45.2574V45.1954H18.8662V45.2574H17.8365L11.7871 53H16.2445L17.5829 51.0241H38.4163L39.7544 53H44.2133L38.1635 45.2574H37.1714ZM18.8746 49.118L20.2406 47.1016H35.7594L37.1254 49.118H18.8746Z" fill="white"/>
<path d="M28 3C14.0104 3 9.97217 8.07637 9.97217 11.9515V37.2055C9.97217 40.6132 12.7349 43.3789 16.1464 43.3789H39.8539C43.2662 43.3789 46.0274 40.6132 46.0274 37.2055V11.9515C46.0274 8.07637 41.9899 3 28 3ZM21.4657 8.56514H34.5336C35.4016 8.56514 36.1064 9.26924 36.1064 10.1372C36.1064 11.0075 35.4016 11.7108 34.5336 11.7108H21.4657C20.5977 11.7108 19.8937 11.0075 19.8937 10.1372C19.8936 9.26924 20.5976 8.56514 21.4657 8.56514ZM18.6517 38.0038C17.5684 38.0038 16.6903 37.1258 16.6903 36.0425C16.6903 34.9591 17.5684 34.0812 18.6517 34.0812C19.735 34.0812 20.613 34.9591 20.613 36.0425C20.6129 37.1258 19.735 38.0038 18.6517 38.0038ZM26.627 26.367H16.1571V16.7904H26.627V26.367ZM37.3491 38.0038C36.2657 38.0038 35.3878 37.1258 35.3878 36.0425C35.3878 34.9591 36.2657 34.0812 37.3491 34.0812C38.4323 34.0812 39.3104 34.9591 39.3104 36.0425C39.3104 37.1258 38.4323 38.0038 37.3491 38.0038ZM40.3091 26.367H29.3729V16.7904H40.3091V26.367Z" fill="white"/>
</svg>
