<svg width="30" height="30" viewBox="0 0 30 30" fill="none" xmlns="http://www.w3.org/2000/svg">
<path d="M5.20772 24.7905C5.27406 24.8569 5.35284 24.9096 5.43956 24.9456C5.52627 24.9815 5.61922 25 5.7131 25C5.80697 25 5.89992 24.9815 5.98664 24.9456C6.07335 24.9096 6.15213 24.8569 6.21847 24.7905L14.9974 16.0124L23.7799 24.7905C23.9139 24.9245 24.0957 24.9998 24.2853 24.9998C24.4748 24.9998 24.6566 24.9245 24.7907 24.7905C24.9247 24.6565 25 24.4747 25 24.2852C25 24.0956 24.9247 23.9139 24.7907 23.7799L16.0082 15.0017L24.7871 6.21998C24.9211 6.08596 24.9964 5.90419 24.9964 5.71465C24.9964 5.52511 24.9211 5.34334 24.7871 5.20932C24.6531 5.07529 24.4713 5 24.2817 5C24.0922 5 23.9104 5.07529 23.7763 5.20932L14.9974 13.991L6.2149 5.21289C6.07825 5.09587 5.90248 5.03473 5.7227 5.04167C5.54292 5.04862 5.37239 5.12314 5.24517 5.25034C5.11796 5.37754 5.04343 5.54806 5.03649 5.72782C5.02954 5.90758 5.09069 6.08334 5.20772 6.21998L13.9867 15.0017L5.20772 23.7834C5.07468 23.9172 5 24.0983 5 24.287C5 24.4757 5.07468 24.6567 5.20772 24.7905Z" fill="black"/>
</svg>
