<svg xmlns="http://www.w3.org/2000/svg"><style>:root svg:not(:target){display:none}</style><svg viewBox="0 0 175 27" id="logo" fill="var(--logo-text-color, #FAAA00)" xmlns="http://www.w3.org/2000/svg"><path fill="var(--logo-square-color, #20212B)" d="M0 0h27v27H0z"/><path d="M4.45 23.588V3.264h5.786v8.307h.297l5.34-8.307h5.638L16.32 10.83l.148.296 6.23 12.462h-6.823l-3.412-7.418-2.077 2.522v4.896H4.45Z" fill="#fff"/><path d="M156.751 23.588V3.264h5.786v8.307h.297l5.341-8.307h5.637l-5.192 7.566.148.296 6.231 12.462h-6.824l-3.413-7.418-2.076 2.522v4.896h-5.935ZM41.539 3.264h-5.934v20.472h14.093v-4.895h-7.863V3.264h-.296ZM84.21 12.29v4.348h4.947v5.063h.389l.644 1.951h2.947V12.29H84.21Z"/><path fill-rule="evenodd" clip-rule="evenodd" d="M93.269 13.453c0 5.843-5.798 10.58-8.91 10.58-5.749 0-9.603-3.936-9.603-10.58 0-5.843 3.953-10.782 9.602-10.58 4.369 0 7.743 2.434 8.668 7.2l-5.589.673c-.55-2.01-1.697-3.388-2.994-3.362-1.778.037-3.174 2.237-3.098 5.945.067 3.247.954 5.813 3.339 5.813 2.656-.264 3.164-2.698 3.098-5.945-.008-.35-.031-.691-.07-1.023h5.553c.017.413.018.84.004 1.28ZM61.895 24.033c5.434 0 9.839-4.737 9.839-10.58s-4.405-10.58-9.84-10.58c-5.433 0-9.838 4.737-9.838 10.58s4.405 10.58 9.839 10.58Zm-.008-4.607c1.615 0 2.924-2.65 2.924-5.92s-1.31-5.921-2.924-5.921c-1.615 0-2.925 2.65-2.925 5.92s1.31 5.921 2.925 5.921Z"/><path d="M98.128 23.612V3.351h6.161v20.261h-6.161ZM145.489 23.612V3.351h6.161v20.261h-6.161ZM119.865 9.45l5.088-1.642c-.401-.765-1.552-2.717-3.931-3.89-1.905-.937-3.62-.892-4.712-.85-1.546.058-4.157.156-6.097 2.153-.365.377-1.795 1.893-1.872 4.246-.018.501-.048 2.169 1.029 3.617 1.504 2.017 4.448 2.632 6.436 3.05 1.584.332 2.916.395 3.254 1.258.181.46.036 1.041-.27 1.391-.456.526-1.634.633-2.637.565-.95-.068-1.371-.289-2.134-.92-.673-.555-.943-1.265-1.05-1.62l-5.655.904c.561 2.318 1.73 3.552 2.314 4.08 2.303 2.077 5.448 2.068 7.78 2.06.816 0 1.448-.01 2.29-.212.647-.154 3.151-.756 4.665-3.12.32-.502 1.16-1.855 1.053-3.754-.018-.32-.163-2.394-1.754-3.925-.869-.837-1.913-1.155-3.967-1.751-3.106-.905-4.836-.83-5.219-1.908a1.274 1.274 0 0 1 .089-1.038c.484-.837 2.042-.793 2.944-.546 1.376.377 2.118 1.465 2.356 1.851ZM131.971 23.544V8.305h-4.145V3.266h14.344v5.04h-4.307v15.238h-5.892Z"/></svg></svg>