<svg width="1019" height="1018" fill="none" xmlns="http://www.w3.org/2000/svg"><g opacity=".05" fill="#1A1B27"><path d="M467.401 919.343s1.658.523 2.463.695c48.093 1.283 99.865-7.51 151.916-27.024-.627-.218-1.122-.661-1.749-.879-52.362 19.783-104.359 28.444-152.63 27.208ZM777.257 797.192s.633.977.904 1.288c42.802-37.662 77.652-81.068 102.967-126.768l-.506-1.961c-25.447 45.924-60.609 89.6-103.589 127.309l.224.132ZM624.577 890.582s1.122.661 1.749.879c21.968-8.519 43.833-18.914 65.595-31.183 29.86-17.021 57.511-36.703 82.556-58.376-.138-.535-.587-.799-.903-1.288-25.223 21.718-53.007 41.626-83.045 58.692-21.716 12.448-43.76 22.888-65.906 31.454l-.046-.178ZM883.201 667.944c13.139-24.305 23.636-49.259 31.273-74.236.692-3.221 1.251-6.217 1.942-9.438-7.753 27.479-18.947 54.895-33.41 81.443.184.713.322 1.248.328 2.007l-.133.224ZM927.814 523.718c.607-8.713.81-17.512.703-26.041l-.193-8.126a293.477 293.477 0 0 1-.486 31.308l.155 2.813-.179.046ZM925.82 538.112c-.202 2.905-.405 5.809-.653 8.535 1.026-6.349 1.649-12.785 2.319-19.042l-.155-2.812c-.37 4.469-.963 8.805-1.557 13.141l.046.178ZM456.991 919.557c2.906.201 5.812.402 8.85.378-.805-.172-1.657-.523-2.462-.695a236.529 236.529 0 0 1-15.693-1.085c3.176.511 6.128.89 9.259 1.223l.046.179ZM208.595 793.882c8.722 7.256 18.066 13.973 27.761 19.837-.632-.977-1.444-1.909-2.076-2.886-11.042-6.659-21.376-14.26-30.955-22.627 1.8 1.817 3.423 3.681 5.224 5.498l.046.178ZM827.57 235.47l-5.138-5.9a215.472 215.472 0 0 1 25.502 34.681c1.49 2.087 3.026 4.353 4.74 6.573a218.945 218.945 0 0 0-25.104-35.354ZM719.177 719.578c.812.932 1.444 1.909 2.256 2.841 46.664-41.131 84.882-88.448 112.535-138.363-.811-.932-1.623-1.864-2.255-2.841-27.699 49.737-65.871 97.233-112.536 138.363ZM882.083 423.904c-4.409 50.764-21.14 103.186-48.212 153.141.811.932 1.623 1.863 2.255 2.841 27.072-49.956 43.803-102.377 48.212-153.141l-2.433-2.795.178-.046ZM553.506 820.883c.811.931 1.444 1.909 2.255 2.84 23.885-9.204 47.799-20.507 71.518-34.042 32.709-18.516 62.938-40.005 90.112-63.748-.811-.932-1.444-1.909-2.255-2.841-27.398 23.611-57.45 45.054-90.159 63.57-23.718 13.535-47.632 24.838-71.517 34.042l.046.179ZM239.947 815.835c40.168 23.672 88.304 36.922 140.424 39.067-.633-.977-1.444-1.909-2.077-2.887-52.298-2.098-100.255-15.395-140.423-39.067.632.978 1.444 1.91 2.076 2.887ZM382.719 852.205c.633.977 1.444 1.909 2.077 2.887 52.518 1.471 109.02-8.162 165.929-29.499-.811-.932-1.444-1.909-2.255-2.841-56.909 21.337-113.411 30.971-165.751 29.453ZM164.715 745.499l4.516 6.44s.587.8.857 1.11l-1.76-2.398c-1.22-1.777-2.393-3.375-3.613-5.152ZM882.499 419.614l2.433 2.794c3.17-43.028-2.723-85.05-18.556-123.556-1.358-2.312-2.669-4.445-4.027-6.757.138.535.23.891.546 1.38 16.599 39.26 22.676 81.994 19.604 126.139ZM194.913 689.223c35.905 21.159 78.711 32.932 125.422 34.761a6721.58 6721.58 0 0 0-1.103-4.279c-46.355-1.921-88.937-13.562-124.617-34.589.144 1.294.333 2.767.477 4.061l-.179.046ZM110.48 595.02c17.675 39.743 46.009 70.651 81.47 92.305-.143-1.294-.333-2.766-.298-4.106-35.237-21.522-63.347-52.298-80.975-91.862-.081 1.162-.162 2.323-.064 3.439l-.133.224ZM108.847 591.639c.08-1.162.161-2.323.064-3.439-5.274-12.329-9.345-25.159-12.3-38.087.287 2.588.62 5.354.907 7.942 2.944 11.409 6.647 22.813 11.15 33.63l.179-.046ZM766.399 339.856c-3.959 45.134-18.634 91.511-42.752 135.951 1.214 1.018 2.382 1.858 3.774 2.829 24.251-44.664 39.058-91.266 43.104-136.802-1.301-.615-2.601-1.23-3.947-2.024l-.179.046ZM323.122 720.033l1.104 4.278c46.797 1.427 97.274-7.223 148.077-26.414-.725-1.334-1.45-2.668-2.042-4.227-50.492 18.921-100.612 27.479-147.185 26.184l.046.179ZM91.767 474.547l-.248 2.726c-.364 5.227-.596 10.231-.781 15.412.127-.983.075-1.921.202-2.904.186-5.182.417-10.185.827-15.234ZM578.585 96.447l-8.724-1.362c10.87 1.569 21.476 3.586 31.684 6.276 2.82.604 5.864 1.34 8.73 2.121-10.255-2.868-20.774-5.288-31.69-7.035ZM474.629 692.163a168.87 168.87 0 0 1 2.22 4.181c21.255-8.336 42.631-18.414 63.903-30.367 29.193-16.658 56.044-35.754 80.467-56.886-1.082-1.242-1.939-2.352-3.021-3.594-24.29 20.907-51.141 40.004-79.977 56.57-21.094 11.907-42.291 21.939-63.546 30.274l-.046-.178ZM766.728 335.968l3.901 1.846c2.974-39.365-2.535-77.683-17.448-112.624-2.318-5.296-4.59-10.414-7.173-15.262-1.254-.437-2.463-.696-3.717-1.133 2.583 4.848 5.033 9.92 7.172 15.262 14.868 34.763 20.331 72.903 17.311 112.09l-.046-.179ZM90.968 493.576s-.253 1.967-.202 2.905c-.042 6.475.14 13.083.456 19.466-.023-3.036.001-5.894-.021-8.931-.212-4.508-.245-9.063-.279-13.618l.046.178ZM621.75 602.299c1.082 1.242 1.939 2.352 3.021 3.594 41.691-36.805 75.701-79.044 100.4-123.444-1.214-1.018-2.382-1.857-3.596-2.875-24.567 44.176-58.398 86.369-99.825 122.725ZM91.767 474.547l.49-6.212c-.207 2.146-.46 4.112-.49 6.212ZM740.525 205.638c1.254.437 2.463.696 3.717 1.133-20.247-37.178-50.619-65.658-87.583-85.023-.403-.086-.852-.351-1.255-.437-.805-.173-1.789-.299-2.595-.471 37.096 19.14 67.29 47.667 87.537 84.844l.179-.046ZM649.938 119.299s-.627-.219-1.03-.305c0 0 .449.264.627.218l.357-.092.046.179ZM529.66 133.977c-26.416-13.149-57.387-19.609-90.765-19.174-.8.587-1.422 1.127-2.222 1.714 32.797-.475 63.365 5.899 89.379 18.962 1.249-.322 2.406-1.001 3.654-1.323l-.046-.179ZM148.224 464.735a8981.87 8981.87 0 0 1 2.119-3.589c-8.731-20.565-12.736-42.728-12.592-65.772-.754.765-1.462 1.708-2.216 2.473-.277 23.268 3.821 45.788 12.822 66.663l-.133.225ZM228.033 208.372s-.627-.218-.852-.351c-27.733 26.74-50.167 57.055-65.799 88.659.713-.185 1.157-.679 1.824-1.042 15.368-31.154 37.359-60.975 64.827-87.266ZM589.051 195.281c1.473-.19 2.946-.38 4.465-.391-14.357-26.148-35.731-46.303-61.837-59.722-1.249.322-2.452.822-3.654 1.323 25.703 13.333 46.76 32.999 60.893 59.014l.133-.224ZM607.322 286.017c1.611.345 3.177.512 4.788.857 1.986-27.703-1.874-54.467-12.198-78.994a128.553 128.553 0 0 0-5.038-10.679c-1.473.19-2.993.202-4.466.392 1.812 3.335 3.492 6.895 4.993 10.501 10.231 24.169 14 50.577 12.099 77.877l-.178.046ZM159.971 299.325c-15.229 31.69-23.927 64.356-24.545 95.888.754-.765 1.462-1.708 2.216-2.473.756-30.997 9.143-63.393 24.332-94.502-.714.184-1.335.725-1.825 1.041l-.178.046ZM433.813 116.494s1.422-1.127 2.222-1.714c-33.464.838-69.112 8.704-104.749 23.982-.265.449-.351.851-.616 1.3 35.102-15.14 70.214-22.868 103.275-23.792l-.132.224ZM208.517 533.221c25.133 14.812 55.223 23.02 87.944 24.466-.057-1.697-.068-3.215-.125-4.911-32.319-1.36-61.827-9.528-86.69-24.029-.391 1.432-.737 3.042-1.129 4.474ZM404.38 533.457c.414 1.605 1.185 3.117 1.732 4.497 14.883-5.741 29.979-12.868 44.754-21.243 20.427-11.545 39.363-25.177 56.505-39.866l-3.245-3.727c-16.785 14.598-35.456 27.781-55.705 39.28-14.596 8.329-29.336 15.364-44.041 21.059ZM299.017 552.844c.057 1.697.068 3.215.126 4.911 32.807 1.043 68.333-5.08 103.895-18.438-.414-1.604-1.184-3.116-1.777-4.675-35.027 13.22-70.017 19.205-102.244 18.202ZM327.596 141.425s.351-.851.616-1.299c-10.423 4.59-20.708 9.715-30.988 15.6-25.054 14.259-47.72 31.135-67.602 49.954.178-.046.627.219.852.351 19.571-18.549 42.105-35.2 66.624-49.322 10.101-5.838 20.207-10.917 30.452-15.462l.046.178ZM506.613 470.956l3.244 3.726c29.126-25.768 53.085-55.336 70.507-86.64-1.525-.748-2.871-1.541-4.218-2.335-17.203 30.678-40.673 59.93-69.309 85.381l-.224-.132ZM149.225 467.138c12.493 27.77 32.18 49.5 57.048 64.76.392-1.432.738-3.042 1.129-4.474-24.419-14.995-44.014-36.369-56.236-63.829-.662 1.122-1.279 2.422-2.119 3.589l.178-.046ZM607.252 288.697c-2.764 31.326-13.073 63.647-29.695 94.365 1.525.747 2.871 1.541 4.396 2.288 17.065-31.212 27.415-64.114 30.266-95.843-1.612-.345-3.223-.689-4.788-.856l-.179.046ZM286.181 246.419s-1.438-1.15-2.336-1.679c-10.827 10.399-19.589 22.167-25.531 34.537 1.162.081 2.325.161 3.441.063 5.723-11.744 14.088-22.838 24.293-32.697l.133-.224ZM253.072 344.516c1.243-1.081 2.533-1.984 3.776-3.065-3.318-7.7-4.72-16.085-4.649-24.66-1.382.547-2.717 1.272-3.92 1.772-.111 9.156 1.561 17.851 4.972 25.907l-.179.046ZM253.481 345.362c4.906 10.903 12.563 19.195 22.304 25.238.973-1.392 1.722-2.916 2.695-4.308-9.247-5.6-16.455-13.627-21.224-23.996-1.243 1.082-2.532 1.985-3.775 3.066ZM276.684 371.129c9.873 5.819 21.514 8.9 34.209 9.427l1.037-4.83c-12.113-.488-23.173-3.529-32.598-9.083-.973 1.392-1.722 2.916-2.694 4.308l.046.178ZM428.506 276.629c-.941 11.842-4.874 23.885-11.225 35.41 1.479.569 2.912.96 4.391 1.529 6.569-12.152 10.721-24.822 11.703-37.244-1.698.058-3.395.115-5.047.351l.178-.046ZM401.561 215.702c-10.271-5.146-22.356-7.733-35.223-7.455-.663 1.121-1.1 2.375-1.762 3.496 12.332-.139 23.789 2.229 33.612 7.11 1.064-1.035 2.308-2.116 3.373-3.151ZM428.633 275.646c1.698-.058 3.35-.294 5.048-.351.86-10.68-.691-21.118-4.694-30.733-.547-1.38-1.317-2.892-2.042-4.226-1.56.592-3.074 1.363-4.633 1.955.724 1.335 1.271 2.715 1.771 3.917 3.865 9.08 5.278 18.983 4.505 29.26l.045.178ZM363.459 211.841c.662-1.121 1.1-2.375 1.762-3.496-13.046.323-26.922 3.333-40.775 9.378.23.892.149 2.053.247 3.169 13.185-5.683 26.347-8.509 38.812-8.872l-.046-.179ZM257.784 280.175c-5.942 12.371-9.335 25.035-9.603 37.273 1.382-.547 2.717-1.272 3.92-1.772.227-11.657 3.355-23.873 9.078-35.617-1.162-.08-2.278.018-3.619-.017l.224.133ZM421.724 241.492c1.56-.592 3.073-1.363 4.633-1.955-5.482-10.185-13.985-18.068-24.078-23.26-1.243 1.081-2.308 2.116-3.551 3.198 9.643 4.927 17.652 12.368 22.818 22.063l.178-.046ZM323.49 221.393c-.276-1.07-.328-2.007-.425-3.123-4.098 1.818-7.972 3.768-11.932 6.12-9.79 5.568-18.545 12.2-26.356 19.539.72.575 1.439 1.15 2.204 1.904 7.322-7.023 15.812-13.206 25.113-18.458a171.695 171.695 0 0 1 11.442-5.804l-.046-.178ZM390.801 345.11l3.106 3.192c11.323-9.956 20.712-21.505 27.459-33.704-1.479-.569-2.957-1.138-4.39-1.529-6.351 11.525-15.296 22.58-25.997 31.995l-.178.046ZM352.318 368.538l1.15 4.457c5.882-2.278 11.626-5.091 17.457-8.306 7.965-4.527 15.344-9.854 21.872-15.53-1.036-1.064-2.071-2.128-2.929-3.238-6.395 5.453-13.284 10.463-20.939 14.719-5.474 3.124-11.085 5.712-16.611 7.898ZM312.736 375.898c-.346 1.61-.691 3.221-.859 4.785 12.828.303 26.53-1.901 40.389-7.188l-1.15-4.457c-13.191 4.925-26.312 7.169-38.38 6.86Z"/><path d="M927.012 511.756c.187-35.415-4.011-71.599-13.255-107.432-11.222-43.499-28.989-83.598-51.82-119.728.046.178.316.489.54.621 7.353 9.321 13.68 19.097 18.938 29.149l-3.354-6.36c-5.027-9.161-10.722-17.959-17.441-26.303-.812-.931-1.623-1.863-2.256-2.84-1.806-2.577-3.48-5.377-5.286-7.953a127.832 127.832 0 0 0-4.74-6.573c-43.25-59.954-101.551-106.708-167.861-136.565 8.107 2.662 16.042 6.129 23.534 10.09l-5.696-2.903c-7.446-3.784-15.111-6.94-23.173-9.424-20.801-9.084-42.483-16.419-64.643-21.92-2.866-.782-5.685-1.386-8.73-2.121-33.168-7.605-67.379-11.138-102.184-10.334l5.093-.174-2.636.11-2.457.064c-1.698.057-3.574.161-5.272.219-29.798 1.033-59.707 5.326-89.68 13.059-71.185 18.365-133.352 53.988-183.01 101.215l-2.884 2.835c-33.236 31.962-60.713 69.283-81.596 110.036a63.367 63.367 0 0 0-3.575 6.056l-1.849 3.9c.968-2.151 2.16-4.17 3.53-6.235-24.62 49.133-39.55 103.372-43.34 159.49-.426 2.772-.853 5.544-1.1 8.27-.128.984-.076 1.921-.203 2.904-.162 2.324-.277 4.825-.26 7.103l-.048 5.716c-.023-3.036.18-5.94.336-9.023.127-.983.075-1.921.202-2.904.208-2.145.415-4.291.755-6.66a380.327 380.327 0 0 0-.522 20.1c-.024 2.858-.002 5.894.02 8.931.683 32.147 4.898 64.714 13.269 97.16 3.542 13.727 7.705 26.914 12.403 39.962 1.921 5.969 4.066 12.071 6.521 17.902l2.865 6.676c-2.635-5.785-4.866-11.484-6.787-17.453 12.618 32.681 29.196 63.01 48.881 90.635l1.761 2.398c97.693 135.273 271.85 204.045 443.301 159.812 117.394-30.286 210.134-107.451 263.437-206.195-.219.627-.484 1.075-.702 1.702l2.072-3.767s.616-1.3.968-2.151c25.12-47.931 40.999-100.703 46.049-155.625.202-2.905.45-5.631.652-8.535.577-6.613.752-13.313.88-20.191.195 2.231.436 4.641.453 6.918l.154 2.812c.034 4.555.021 8.931-.348 13.4l.45-5.63c.329-3.888.434-7.908.181-11.836l-.154-2.812c-.201-2.99-.448-6.159-.827-9.104l.444-.494Zm-10.55 72.693c-.513 3.174-1.25 6.217-1.942 9.437-6.695 31.579-17.061 62.204-30.702 91.202.543-5.274.412-10.944-.571-16.965-.184-.713-.322-1.248-.327-2.007-3.873-22.388-17.477-49.301-41.518-79.795-1.668-2.042-3.383-4.261-5.051-6.303-.811-.931-1.623-1.863-2.255-2.84-27.5-32.835-64.299-66.313-106.675-98.542-1.214-1.017-2.382-1.857-3.774-2.829-42.733-32.137-91.174-62.801-141.827-90.233-1.524-.747-2.871-1.54-4.396-2.288-50.784-27.207-103.734-51.004-155.482-69.407-1.479-.569-2.911-.96-4.39-1.529-27.822-9.745-55.052-17.931-81.551-24.024 26.234 6.542 53.556 15.084 81.067 25.099 1.479.569 2.958 1.139 4.391 1.529 51.529 19.03 104.213 43.276 154.733 70.932 1.347.793 2.871 1.541 4.218 2.334 50.387 27.88 98.564 58.993 141.164 91.354 1.214 1.018 2.382 1.858 3.596 2.875 42.244 32.454 78.91 66.156 106.41 98.99.811.932 1.622 1.863 2.255 2.841 1.714 2.22 3.383 4.261 5.051 6.302 24.042 30.495 37.777 57.183 41.829 79.525l.506 1.961c1.028 6.2 1.205 12.048.53 17.546-4.842 9.996-10.266 19.951-15.781 29.55a413.526 413.526 0 0 1-78.79 96.573c-.874-3.387-3.865-9.08-8.927-16.901-.138-.535-.587-.799-.903-1.288-9.809-15.152-26.509-37.844-50.775-68.47-1.668-2.042-3.382-4.261-5.097-6.481-.811-.931-1.444-1.909-2.255-2.841-26.924-33.553-59.25-72.558-94.407-113.684-1.082-1.243-1.939-2.352-3.02-3.594-35.382-41.259-73.462-84.864-111.893-127.618l-3.244-3.726c-38.431-42.754-76.811-84.57-112.705-122.654l-3.107-3.192c-19.141-20.35-37.603-39.544-54.892-57.14a4005.38 4005.38 0 0 1 53.959 57.951c1.036 1.064 2.072 2.128 2.929 3.238 35.451 38.579 73.387 80.89 111.151 124.006l3.244 3.726c37.942 43.07 75.711 86.945 110.782 128.474 1.081 1.242 1.939 2.352 3.02 3.594 35.025 41.351 67.172 80.402 93.964 114.18.811.931 1.444 1.909 2.255 2.84 1.714 2.22 3.383 4.261 5.097 6.481 24.042 30.494 41.145 53.272 51.085 68.2.138.535.633.978.903 1.288 5.287 7.953 8.41 13.422 9.417 16.585-38.226 34.01-83.339 61.24-133.658 79.355-7.193.145-15.163-1.982-23.731-6.427-.627-.218-1.122-.661-1.749-.879-18.349-9.907-39.856-29.837-63.897-60.332-1.669-2.041-3.383-4.261-5.097-6.48-.812-.932-1.444-1.909-2.255-2.841-25.767-34.232-51.998-76.901-76.657-124.539a168.87 168.87 0 0 1-2.22-4.181c-24.705-47.816-47.97-100.376-68.472-154.03a361.845 361.845 0 0 0-1.731-4.497c-20.324-53.7-37.839-108.315-50.912-160.462l-1.15-4.457c-6.818-27.903-12.468-54.966-16.634-80.701 3.631 25.873 8.924 53.028 15.385 81.023l1.15 4.457c12.36 52.332 29.207 107.309 48.996 161.147.414 1.604 1.184 3.116 1.777 4.675 19.967 53.792 42.921 106.623 67.268 154.531.725 1.334 1.45 2.668 2.042 4.227 24.481 47.684 50.355 90.444 76.122 124.677.811.931 1.444 1.909 2.255 2.84 1.714 2.22 3.382 4.261 5.097 6.481 24.041 30.494 45.726 50.379 64.254 60.239.627.219 1.122.661 1.749.88 8.746 4.398 16.716 6.525 23.91 6.381-10.832 3.745-21.934 7.179-33.173 10.079-46.209 11.922-92.656 15.538-137.773 11.777-1.611-.345-3.222-.69-4.88-1.213-.805-.172-1.657-.523-2.462-.696-27.051-8.232-53.467-27.276-77.508-57.77-1.669-2.042-3.383-4.261-4.919-6.527-.633-.977-1.444-1.909-2.077-2.887-24.875-34.462-44.366-78.299-58.493-127.893l-1.104-4.279c-13.638-49.911-21.819-105.222-23.979-162.277-.058-1.696-.069-3.215-.126-4.911-1.804-57.147 2.458-115.859 12.86-172.161.345-1.611.691-3.221.858-4.785 5.901-30.234 13.505-59.765 22.996-87.883-9.848 28.21-17.855 57.655-24.158 87.802l-1.037 4.831c-11.161 56.309-15.826 114.934-14.557 172.219.057 1.697.068 3.215.125 4.911 1.58 57.015 9.404 112.419 22.817 162.197l1.104 4.279c13.724 49.508 33.216 93.345 57.912 127.853.633.978 1.444 1.909 2.077 2.887 1.714 2.22 3.204 4.307 4.919 6.527 24.041 30.494 50.635 49.492 77.91 57.856.852.351 1.657.524 2.463.696 1.209.259 2.417.517 3.671.954l-12.343-1.379c-3.131-.333-6.129-.89-9.259-1.223-53.057-7.988-103.597-26.132-149.151-52.978-13.015-7.67-25.409-15.881-37.451-24.943-5.627-5.584-11.167-11.57-16.264-18.05-1.669-2.042-3.383-4.261-4.919-6.527-.633-.978-1.444-1.909-2.077-2.887-24.023-34.111-38.054-76.695-42.957-123.726-.143-1.294-.333-2.766-.476-4.06-4.414-47.347.48-99.186 13.902-151.895.391-1.432.737-3.043 1.129-4.475 13.957-52.846 36.443-106.563 67.037-157.617.973-1.392 1.721-2.916 2.694-4.308 16.558-27.279 35.446-53.637 56.532-78.852-21.357 24.904-40.648 51.177-57.43 78.323-.972 1.392-1.721 2.916-2.694 4.308-31.043 50.79-53.977 104.242-68.205 156.778-.392 1.432-.737 3.042-1.129 4.474-13.825 52.623-18.942 104.33-14.799 151.366.143 1.294.333 2.767.298 4.107 4.678 46.898 18.663 89.304 42.686 123.415.633.978 1.444 1.909 2.077 2.887 1.536 2.266 3.204 4.307 4.919 6.527 4.51 5.681 9.285 10.914 14.193 15.922-16.628-12.822-32.284-27.037-46.874-42.287-1.801-1.817-3.423-3.68-5.224-5.497-40.997-45.324-72.721-99.695-91.183-161.671-1.373-10.484-2.032-21.151-1.621-32.095.081-1.162.162-2.324.064-3.44 1.714-40.561 14.943-82.953 38.681-124.443.662-1.121 1.278-2.421 2.119-3.588 24.14-41.404 58.656-81.682 102.315-118.234 1.243-1.081 2.486-2.163 3.776-3.066 23.72-19.429 49.817-37.76 78.474-54.28C182.068 375.384 97.111 508.534 110.22 620.566l-2.161-8.379c-4.646-18.005-7.996-36.155-10.184-54.224-.287-2.588-.62-5.354-.907-7.942-2.985-29.272-2.707-58.435.436-86.816 7.297-22.608 20.096-44.543 38.177-65.18.754-.765 1.462-1.708 2.216-2.473 26.64-29.499 63.984-55.866 110.482-76.989 1.381-.546 2.717-1.271 3.92-1.772 25.254-11.269 53.202-20.951 83.71-28.821-30.421 7.468-58.415 16.972-83.583 27.838-1.382.547-2.763 1.093-3.92 1.772-46.636 20.588-83.939 46.373-110.539 75.292-.755.765-1.463 1.708-2.217 2.473-17.551 19.74-30.177 40.87-37.658 62.765 6.453-52.432 22.976-102.709 48.113-148.363 4.174-3.738 8.796-7.212 14.091-10.29.713-.184 1.335-.724 1.824-1.041 22.343-12.229 54.739-18.685 95.81-18.063 1.163.08 2.279-.018 3.62.017 22.392.497 47.211 3.031 74.505 7.778-27.161-4.972-51.894-7.907-73.975-8.675-1.163-.081-2.325-.161-3.442-.063-40.852-1.249-72.983 4.758-95.061 16.539-.714.184-1.157.679-1.825 1.041-5.162 2.853-9.652 6.103-13.693 9.617 1.411-2.645 3-5.337 4.589-8.029 19.73-33.421 44.172-64.064 72.619-90.988.806.173 1.433.391 2.239.564.178-.046.627.218.851.35 10.617 3.536 29.519 15.582 55.813 36.368.719.575 1.438 1.15 2.336 1.679 14.338 11.322 31.063 25.261 49.728 41.551-18.354-16.561-34.769-30.769-48.796-42.362-.719-.575-1.438-1.15-2.204-1.903-25.804-21.103-44.084-33.689-54.436-37.674-.178.046-.627-.218-.852-.35-.851-.351-1.432-.391-2.06-.61 30.404-28.189 65.353-52.036 104.007-70.374-1.105 1.616-2.343 3.456-3.178 5.383-.265.448-.351.851-.616 1.3-6.904 15.281-8.412 41.148-4.353 76.798.23.891.149 2.053.425 3.123 2.332 19.363 6.383 41.705 12.241 66.623-5.547-25.189-9.242-47.623-11.216-67.078-.276-1.069-.149-2.053-.247-3.168-3.392-36.012-1.17-62.064 6.223-77.662.265-.448.352-.851.616-1.3a37.811 37.811 0 0 1 3.668-5.699c22.446-10.354 46.112-18.932 70.911-25.33 21.409-5.523 42.921-9.172 64.444-11.302-11.545 3.929-23.073 10.136-34.095 18.303-.801.587-1.422 1.128-2.222 1.714-25.551 19.712-48.963 50.66-68.592 91.851-.662 1.121-1.099 2.375-1.761 3.497-10.382 22.452-19.625 47.844-27.551 76.128 8.329-28.198 17.929-53.681 28.713-76.048.616-1.3 1.1-2.375 1.762-3.497 20.164-41.328 44.336-72.283 70.289-91.908.8-.587 1.422-1.127 2.222-1.714 11.511-8.484 23.443-14.604 35.523-18.672 60.334-5.108 119.739 3.144 174.669 22.817.403.086.627.219 1.03.305l-.357.092c-37.404-6.322-78.299-1.095-120.1 14.633-1.249.322-2.406 1.001-3.655 1.323-41.795 16.487-84.14 43.383-124.398 80.579-1.065 1.035-2.308 2.117-3.373 3.152-21.615 20.217-42.493 43.286-62.325 68.938a563.687 563.687 0 0 1 63.176-68.587c1.244-1.082 2.309-2.117 3.552-3.198 40.753-36.753 83.679-63.61 125.745-79.786 1.249-.322 2.405-1.001 3.654-1.323 42.026-15.596 83.369-20.558 120.998-14.104.806.172 1.79.299 2.595.471.403.086.852.351 1.255.437 21.733 8.273 42.811 18.427 62.828 30.375 46.676 27.507 87.923 64.21 120.956 108.167-26.098-24.45-58.85-42.24-96.379-53.473-1.255-.437-2.463-.695-3.718-1.132-43.928-12.434-94.138-16.023-146.83-10.795-1.473.19-2.946.38-4.466.392-52.911 5.854-108.304 20.526-162.693 44.255-1.559.592-3.073 1.363-4.633 1.956-29.22 12.862-57.929 28.445-85.994 46.523 28.157-17.722 57.136-32.994 86.403-45.678 1.559-.593 3.073-1.363 4.633-1.956 54.751-23.062 110.236-37.377 163.417-42.921 1.474-.19 2.947-.38 4.466-.391 52.963-4.918 103.264-.973 147.285 11.818 1.254.437 2.463.695 3.717 1.132 38.784 11.67 72.572 30.524 98.991 56.221a504.86 504.86 0 0 1 17.35 25.947c1.357 2.311 2.669 4.445 4.027 6.756 19.051 32.543 33.924 68.064 43.812 106.393 7.451 28.881 11.685 57.83 12.789 86.447-5.784-20.945-16.575-42.118-32.994-62.981-1.668-2.041-3.382-4.261-5.229-6.256l-2.434-2.795c-27.805-31.805-66.303-59.33-111.823-81.621l-3.901-1.846c-45.832-22.02-98.639-38.629-154.619-49.095-1.611-.345-3.176-.511-4.788-.856-56.066-10.063-115.304-13.984-173.641-10.723-1.698.058-3.396.116-5.047.352-31.267 1.982-62.562 6.063-92.903 12.369a665.631 665.631 0 0 1 92.776-11.386c1.697-.057 3.395-.115 5.047-.351 58.475-2.727 117.449 1.642 173.653 12.241 1.611.345 3.222.689 4.787.856 55.894 10.868 108.661 28.058 154.36 50.303 1.3.615 2.6 1.23 3.947 2.024 45.388 22.515 83.932 50.218 111.783 82.202l2.433 2.794c1.669 2.042 3.561 4.215 5.23 6.257 17.005 21.662 28.158 43.502 33.724 65.073.706 29.29-1.54 58.2-6.83 86.374l-.495-.442Z"/></g><circle cx="436.606" cy="115.811" r="4" transform="rotate(-14.466 436.606 115.811)" fill="#FAAA00"/><circle cx="109.827" cy="590.495" r="4" transform="rotate(-14.466 109.827 590.495)" fill="#FAAA00"/><circle cx="742.419" cy="208.35" r="4" transform="rotate(-14.466 742.419 208.35)" fill="#FAAA00"/><circle cx="618.796" cy="605.835" r="4" transform="rotate(-14.466 618.796 605.835)" fill="#FAAA00"/><circle cx="317.466" cy="722.819" r="4" transform="rotate(-14.466 317.466 722.819)" fill="#FAAA00"/><circle cx="135.046" cy="396.029" r="4" transform="rotate(-14.466 135.046 396.029)" fill="#FAAA00"/><circle cx="577.612" cy="386.158" r="4" transform="rotate(-14.466 577.612 386.158)" fill="#FAAA00"/><circle cx="207.596" cy="529.125" r="4" transform="rotate(-14.466 207.596 529.125)" fill="#FAAA00"/><circle cx="885.459" cy="426.534" r="4" transform="rotate(-14.466 885.459 426.534)" fill="#FAAA00"/></svg>