<svg width="1146" height="194" fill="none" xmlns="http://www.w3.org/2000/svg"><g clip-path="url(#a)"><path d="M147.657 92.24c1.045-.067 2.074.473 3.137.135 4.532-1.912 6.893-2.919 7.085-3.02.416-.214 1.006-.799 1.771-1.755.101-.135.849-.573 2.243-1.316 1.738-.945 3.34-2.109 5.162-2.919 9.361-4.218 10.121-4.859 10.137-4.876-1.282-.438-3.137 1.367-3.93-.32-3.553.832-5.437 1.31-5.651 1.434-.421.169-.995.405-1.416.574-.034-.034-.102-.085-.135-.119-.338.068-.675 0-1.013.051-.995.186-1.804.911-2.833.979-.675.05-1.265-.422-1.957-.372-.118 0-.422.102-.995.608-1.333.303-2.716.388-4.048.793-2.008.76-3.914 1.754-6.005 2.278l.809.337c.962.574.928.844-.135 1.417a31.388 31.388 0 0 1-2.53 2.042v.405c-.169.033-.405.084-1.214.708l-.776.726-.523.725-2.345 1.806c1.231-.169 5.027-.979 5.06-.979l.152.641-.05.017Z" fill="#1A1B27" fill-opacity=".2"/><path d="M216.984 77.595s-.051-.05-2.041 0c-.158-.191-.799-.157-1.923.101a2.297 2.297 0 0 1-.422-.388c-.809-.045-1.282-.101-1.417-.169-1.45.777-1.602.844-2.513.372-.017-.085-.051-.203-.067-.287-.506-.203-.962.084-1.451.135l-.118-.287c.303-.624 1.012-.827 1.383-1.4-.388-.574-2.159-1.35-2.176-1.35-.017-.068-.202-.624.051-1.148a1.289 1.289 0 0 0-.54-.185c2.384-1.226 3.677-1.946 3.88-2.16-.017-.286-.119-.556-.119-.826-.995-.085-1.062-.068-1.416 0-2.834.776-4.723 1.456-5.668 2.041.27.186.354.253 2.395.135.051.169.118.388.169.54-1.029.405-2.328-.86-3.205.388-2.935.27-3.306.304-4.048 1.991.123.157.168.422.135.793.371.101.742.169 1.113.27.506 2.463-2.564 2.008-2.598 1.99 0-.151.068-.37.169-.505-.152-.085-.354-.186-.523-.22a1.487 1.487 0 0 1-.118-.54c-.472-.348-1.361-.545-2.665-.59l-.287-.22c-.692-.033-2.277.237-2.834.844.692.084 1.4.017 2.092.152-.169.22-.287.388-2.21.928-1.214 0-2.041 1.012-3.171 1.215.506-.388 1.063-.675 1.518-1.114-.894-.506-2.986-.607-7.978 1.89.168 0 .388-.034.539-.085-.641.675-2.648 1.047-2.665 1.047.439-.962 1.569-1.165 2.176-1.94.051-1.84-14.776 5.651-14.928 5.786.321.152.405.203 1.215.068-2.283 1.35-3.599 2.154-3.947 2.413 0 0 .033.185.067.27 1.383 0 2.53-.793 3.812-1.097-.202.236-.562.472-1.079.709 1.366.202 6.005-1.57 7.944-2.329-2.564 2.835-6.932 1.586-9.581 4.235 2.092.911 11.757-2.548 11.859-2.581 1.99-.776 6.308-1.367 6.696-1.35-.607.641-1.973.894-1.99.894l-14.338 4.505c.59 1.957 4.959.675 4.993.658.05 0 4.318-1.249 5.229-1.13 0 .37 0 .388-.388 1.046.826.202 1.771.421 11.689-2.835.54-.152 3.458-1.248 8.67-3.223 1.744-.978 2.744-1.49 3.003-1.535 0 .169-.084.388-.169.54 4.184-.22 12.786-1.687 14.304-3.425-.483-.079-.809-.23-.978-.456-.759-.016-.978-.016-2.412.895.017-.085.05-.203.067-.304a1.072 1.072 0 0 0-.556-.118c.393-.259 1.641-.832 3.744-1.721.186.186 3.053.557 3.661-1.282l-.034-.05ZM264.079 34.487c-.894.759-2.108.776-3.087 1.383.079.034 1.8-.4 5.162-1.299-1.316 1.046-2.986 1.333-4.419 2.11.657.387.894.32 2.817-.17.033.135.084.32.135.473 4.891 0 6.021-.49 6.831-1.046 1.102-.653 2.446-1.215 4.031-1.688-.927.743-2.142.945-3.053 1.738.371.169.641.27 1.164.22a9.57 9.57 0 0 0-1.973 1.35c.05.134.101.32.135.455.151.034.354.05.489.084.05.135.135.304.185.439 6.905.337 11.218.242 12.938-.287-.214.236-.916.557-2.108.962-.372.084-.878.202-1.249.287.563-.068 1.029-.011 1.4.168-3.036 2.11-6.561.743-9.8 1.333-.051 0-4.655.928-6.342 2.869l.287.404c1.192-.134 2.243-.404 3.154-.81 1.062 1.08 3.188-.522 4.74-1.687.27.456.371.625 1.214.625-1.062.961-2.513.894-3.744 1.434.236.09.697.067 1.383-.068-.135.254-.439.54-.692.675.86.523 1.619.641 2.311.54-2.446.624-3.778.186-3.812.186-.506-.27-6.208-.473-7.506 1.299.697.405 1.596.59 2.699.557-.068.118-.152.286-.22.405-2.429.506-6.932 1.434-7.978 2.986.438.506.809.945 2.378-.034l.456-.573c0 .135.016.337.033.472.017 0 4.099.034 6.731-1.434.185.152.506.287.742.27.719-.101 1.192-.135 1.417-.101.742-.18 1.304-.299 1.686-.355l.422-.151c.051-.136.101-.321.152-.456 1.282-.18 1.99-.32 2.125-.422l.169-.337.354-.135c.456.286.658.422 1.029.219l.742-.084.287-.152c.658-.135.843-.118 1.316.017.54.146.989.208 1.349.185l.574-.185c.562-.225.989-.456 1.282-.692a7.735 7.735 0 0 0-.287-.371c-.152 0-.337-.034-.472-.05.292-.27.714-.293 1.265-.068l.438-.051c.793 0 1.535-.27 2.328-.253a8.56 8.56 0 0 1-.708.658c.303.135.646.169 1.029.101.607-.202 1.197-.472 1.804-.708l.54-.152c.725-.203 1.468-.422 2.193-.625l.894-.421c.27-.119.624-.338.86-.54.169.067.405.135.574.236 1.462-.574 2.294-1.074 2.496-1.502a15.746 15.746 0 0 0-.877-.54c-2.339.619-3.587.94-3.745.962 1.535-1.18 3.391-1.755 5.078-2.666-.186-.32-.591-.489-.675-.91l1.029-.321c.59 0 2.159-.051 5.583-1.097l.928-.186.624-.287c.017-.134.051-.337.067-.472.422-.236.878-.422 1.333-.624a2.688 2.688 0 0 0-.961-.236c.775-.642 1.788-.507 2.648-.827l.101-.152v-.185c.27-.102.658-.203.961-.287-1.332-.068-2.665-.034-3.997-.102 2.53-.382 3.846-.826 3.947-1.332-.472-.085-1.282-.22-5.246.573.067-.118.152-.287.202-.422h.085c1.113-.151 2.243-.185 3.373-.32l.894-.186c.776-.27 1.586-.422 2.396-.641l.826-.202c.759-.27 1.586-.355 2.311-.743-.186-.202-.54-.388-.81-.455 1.198-.473 2.497-.253 3.728-.456 2.75-.337 3.964-1.181 4.352-1.518v-.051c.084-.135.186-.304.253-.422.287-.067.675-.185.962-.303-.574.044-1.372.168-2.396.37 1.164-.455 2.48-.354 3.593-.978l.186-.152c-.135-.05-.321-.135-.439-.185 1.164-.405 2.412-.49 3.593-.878l1.383-.658s3.711-1.636 14.254-5.196c-.315-.18-.99-.13-2.025.151-3.845.945-6.19 1.435-6.19 1.435 4.976-2.16 10.374-2.835 15.501-4.455l1.046-.219.489-.236c.557-.338 1.198-.49 1.805-.742-2.361-1.148-4.807 0-7.202-.22.236-.22.556-.49.826-.658-2.024-.067-3.997.49-6.005.607-.236.304-2.642 1.03-7.219 2.177-.81.056-1.962.304-3.458.742 2.311-.928 4.824-1.214 7.135-2.125a2.762 2.762 0 0 0-.911-.051c-.034 0-6.022.86-9.682 1.113-.472-.033-.793-.05-1.451.068-.562.112-1.349.343-2.361.692.27.1.658.202.961.236-.371.169-.984.253-1.838.253a107.63 107.63 0 0 0-.338-.337c-3.351.697-5.099 1.108-5.246 1.231-.151.068-.354.152-.506.22.22.151.591.286.861.303-1.805.506-2.278.152-2.784-.22-8.062 1.266-8.417 1.418-9.26 1.806 1.164.726 2.581.203 3.778.726-.995.573-3.221 0-3.238 0-1.771-.675-9.041 1.248-9.092 1.282.202.18.489.292.86.337l.523.119c-3.036.247-4.802.46-5.296.64.472.422.489.44 1.298.406-1.163.59-2.53.287-3.727.759-.034.135-.102.32-.135.455-.641.158-1.114.293-1.417.405.202.17.405.304.624.422-.557.084-1.097.186-1.535.338.236.056.714.118 1.434.185-3.104 1.552-6.663-.793-9.716 1.114.118.084.27.202.388.287-1.367.489-2.868.438-4.184 1.13 1.839-.101 3.627-.793 5.516-.607a1.992 1.992 0 0 1-1.872.59c-3.272-.76-19.314 5.011-19.449 5.079.259.067 2.345-.433 6.258-1.502v-.084Zm12.719 10.224c1.805-.725 3.306-2.733 5.33-2.7-2.092 1.418-3.863 2.228-5.33 2.7Zm18.588-17.446c-.101.119-.219.27-.32.405a56.76 56.76 0 0 0-2.817-.067c1.045-.338 2.074-.59 3.137-.32v-.018Zm-12.836 6.159c-.034.152-.068.337-.102.489.996.388 5.229-.877 5.263-.877l.489-.169c4.74-1.468 9.075-4.032 13.95-5.146-3.812 1.35-4.217 1.586-5.87 2.548 1.856.624 3.441-.658 5.212-.692-8.422 2.114-14.495 3.824-18.217 5.129.169.202.624.76 3.812.59a6.59 6.59 0 0 1-.287.372c.248.045 1.788-.175 4.622-.658-4.419 1.94-9.378-.236-14 .118 1.265-.422 2.935-.979 5.128-1.721v.017Z" fill="#1A1B27" fill-opacity=".2"/><path d="M241.696 44.323c.067.388 1.282 1.063 1.518 1.046.354 0 .708-.084 1.062-.169-.219.119-.236.237-.269.405 1.13.591 2.833.338 4.267-.658.017.051.051.118.068.17-.034.05-.068.117-.102.168 1.923.186 3.273-1.468 5.111-1.57.034.051.068.119.085.153.658.185 1.147-.287 1.737-.405-.253.303-1.99.793-2.53.776a.517.517 0 0 0 0 .32c1.316-.185 2.496-.793 3.812-.995-.675.641-8.484 2.514-9.142 2.514.326.371 1.366.433 3.12.185.135.102.191.26.169.473.27.017.54 0 .81-.034a1.542 1.542 0 0 0-.27.304c.337.54 3.778.202 3.812.185 2.305-.483 3.525-.725 3.66-.725 0 0 .068-.118.085-.152-.124-.315-.186-.495-.186-.54 1.012-.54 1.855-.27 1.974-.202v.168c.236.068.792 0 .708-.455.86-.692 2.227.27 2.969-.877a1.527 1.527 0 0 0-.152-.085c.084-.135.253-.388 1.585-.59 0 .05 0 .118-.016.168.05.017.101.068.151.085.54-.32.54-.32.473-.692a4.158 4.158 0 0 1-.54-.067 1.067 1.067 0 0 0-.169-.304c.191-.36.709-.647 1.552-.86-.152.404-.877.472-.725 1.062.253 0 1.838-.607 8.94-3.492-.135.033-.304.084-.422.1.523-.252.557-.269.709-.404-.608-.574-1.013-.962-5.466.253-.017-.05-.05-.118-.067-.169.135-.151.303-.236.455-.354-.033-.056-.281-.101-.742-.135.056-.09.247-.247.574-.472-.72-.135-1.682-.08-2.885.168 1.226-.506 1.861-.793 1.906-.86-.388-.32-2.327-.574-3.458.439 0 .05.017.135.034.185.169.05.354.084.523.135v.169c-.304.371-1.788.337-2.041.185.067-.388.32-.843.32-.843l-4.183.557V38.4c-.118-.152-.303-.236-.405-.388-3.407-.624-4.554-.844-7.894-.084-1.889.455-2.142.759-2.361 1.029.033.034.101.084.135.118 1.248-.152 2.429-.658 3.711-.574-.169.186-1.805.49-3.694.844-.068.186-.102.287-.574.523-2.035.292-3.137.658-3.306 1.097.995 1.046 2.024-.389 3.07-.237 0 .051-.034.118-.051.17-1.568.809-3.39.387-4.976 1.113a2.43 2.43 0 0 1 .574 0c-.101.168-.118.219-.928.64.214.023.388.068.523.136-.692.472-1.636.388-2.277.978 2.952-.084 5.583-1.08 7-1.62-.574.557-1.957 1.114-3.34 1.334-.304.05-4.099.759-4.116.776l.085.067Zm11.048 2.092c.405-.118.81-.236 1.231-.286-.354.27-.792.286-1.231.286Zm-5.06-2.244c-.101.169-.186.32-1.451.557-.472.084-.843.169-1.13.236.81-.286 1.602-.64 2.429-.877a.442.442 0 0 0 .152.084ZM253.925 57.349l.793-.102s.084-.017.134-.033c.051 0 .085 0 .135-.034.051 0 .085-.017.135-.034.051 0 .085-.017.135-.034.81-.202 1.636-.303 2.429-.607.776-.338 1.501-.827 2.311-1.114.034.05.084.135.101.186a3.164 3.164 0 0 1-.151.354c.033.101.084.236.118.355a54.929 54.929 0 0 0 4.132-1.198c.169.118.456.303 1.333-.102l.961-.135c1.282-.438 2.632-.573 3.931-.877l.506-.186c1.653-.472 3.542.051 5.009-1.214 0-.118.034-.287.102-.405.281-.045.511-.062.691-.05 0 0-.017.151-.034.218.675.372 4.487-.303 4.538-.32 3.149-1.102 4.7-1.783 4.655-2.042.861-.287 1.839-.219 2.632-.742-.562-.067-.883-.163-.962-.287.338-.371.861-.557 1.114-1.03-.557-.32-1.215.187-1.755-.235-1.703.253-3.441.135-5.144.472-.793-.607-4.47 1.181-4.504 1.198-.523-.54-8.788 1.788-9.21 2.598-.562.135-.922.214-1.08.237v-.051c-.506 0-1.012-.067-1.518-.067-3.238.438-5.752 1.501-5.752 1.518-.219.05-.32.084-.624-.084-.067-.27-.067-.287.085-.625-.169-.056-.765-.022-1.788.102 0 0 .067-.152.084-.203-.371-.186-.388-.169-1.94.32l.152-.151c-.157-.068-.382-.084-.675-.05 1.13-1.367 2.783-.659 4.167-1.064.084-.101.219-.253.32-.37-.928.033-3.272.235-3.289.235-.219-.202-1.619-.421-2.733-.185-3.829.843-4.824 1.164-5.549 1.687a.505.505 0 0 0 .219-.236c-.253-.523-.624-.49-2.142-.372-.034 0-5.651.912-6.427 1.097-1.72.506-2.564 1.046-2.513 1.62 0 0 1.99-.034 2.108-.068.557-.202.658-.185.709-.151-.135.202-.371.253-.54.404.034 0 .084.034.118.017.933-.09 1.484-.185 1.653-.286.101-.068.152-.102.607-.051.894.101 2.412-.135 2.429-.152.844-.169 2.868-.81 2.918-1.13-.067-.068-.134-.118-.219-.186.219-.337.658-.304.979-.472-.186.135-.355.303-.557.489.185.202.236.236.573.32.017.068.051.152.068.22.759.067 1.501.287 2.26.287.124.326.214.523.27.59-.489.54-1.214.726-1.72 1.215.269.32.286.32.691.54-.371 1.265 2.885.59 2.918.557.068-.034.152-.102.22-.152l.084-.253.557-.22c-.051.118-.135.27-.186.389.32.067.658-.017.961.118l-.033.017ZM231.676 75.672c.36.168.596.236.708.202.776-.253 1.164-.76 1.265-.911 0 0-.826-.32-2.833.472-.203.085-1.991.59-1.991.59-.371.035-.438-.1-.557-.353-.404-.068-2.294.185-2.58.253-.203.05-.827.37-.827.37-.169.102-1.029.844-.995 1.08.034.287-1.366.996-1.366.996-.557.253-1.13.27-1.13.27-.726 0-.844.135-1.401.776 0 .034.034.085.051.135 0 0-.05.034-.067.034 1.062.034 1.99-.54 3.019-.675-.034.169-.186.22-.287.354.624.287 1.147-.168 1.704-.236 1.293-.135 2.125-.258 2.496-.371.759-.236 1.552.067 2.328-.101.709-.152 1.248-.692 1.923-.911.624-.203 1.231-.473 1.856-.675a.918.918 0 0 1 0-.355l-.051-.05c-.084 0-.135 0-.894.135-.051-.439-1.366-.186-1.366-.186-.017-.185.05-.371-.068-.54.051-.084.068-.1.388-.151.219-.051.405-.27.658-.152h.017ZM233.936 65.801c-.236-.27-1.923-.067-2.227.776l.658-.067c.287.371-.556.607-.944.675l-.068-.068c.068-.759-1.147-.573-1.164-.556 0 0 .017.016.017.033-1.383.585-2.12.867-2.21.844 1.434-.945 3.037-1.62 4.47-2.581.152-.102.608-.422.439-.726l-2.092.152c.349-.236.495-.45.439-.641-.304.084-.607.135-.911.22-3.171.809-3.913 1.332-4.2 1.535.27.185.574-.119.843.033 0 .068 0 .135.034.186 0 0-.422.506-2.075.135-.657-.152-1.45.135-1.585.287.034.017.067.05.084.067-.742.894-2.075-.017-2.8.894-.607.76-1.585.878-2.328 1.418.186.033.371-.068.54-.102.894 1.198 2.125-.421 3.154.152.051.034.135.05.203.068v.118c-.287.152-.675 0-.911.303.304.203.304.22.337.372l-2.648.944c-.759.051-1.316-.523-2.024-.64-.742.657-1.94.37-2.564 1.248-.354.49.826.692 1.164.725.32.017.573.287.911.254.725-.051 1.383-.372 2.091-.507 0 .068.017.152.017.22.742.287 1.535-.355 2.277.151.27.186.54-.084.81 0 .455.119.928.186 1.4.27.523.102.506.17.489.355.658.709 1.367-.135 2.058-.118 0 .017.034.05.068.084.989-.551 1.49-.888 1.501-1.012-.259-.203-.416-.349-.472-.439.05-.118.067-.169.438-.22.084.085.101.102.051.288.084.1.118.135.607.286l3.306-1.484c1.839-.422 1.653-1.35 1.636-1.384-.123-.079-.197-.157-.219-.236.27-.472.826-.641 1.13-1.08 0-.034-.034-.067-.034-.101-.101-.034-.359-.073-.776-.118 0 0-.033-.05-.067-.085.354-.32.928-.354 1.096-.91l.051-.018ZM244.175 59.373c1.737-.624.86-2.008.675-2.109 0 0-1.046-.405-1.384-.388-.219 0-.792.034-3.12.557a.273.273 0 0 0-.152.05c-.489.237-.911.557-1.383.81-.388.22-.827.287-1.198.507-1.102.652-1.698 1.09-1.788 1.316 0 0 .54.135.86.118 0 0 0-.034.017-.034.473-.118.945 0 1.417 0 .624 0 3.441-.186 3.458-.186.827-.118 2.598-.607 2.598-.607v-.034Z" fill="#1A1B27" fill-opacity=".2"/><path d="m214.454 193.507.135.185c1.4.422 2.631 1.266 4.082 1.57.393.292.635.523.725.691-.641.608-1.164 2.042-.287 2.177.338.05.658-.051.979-.068.978.169 1.523.18 1.636.034l.219-.439c-.067-.05-.152-.118-.219-.168l.185-.186c.085.034.186.068.27.084.051.152.118.338.152.473.135.084.422.287 2.648.169.152.202.405.337.506.59-.067.068-.135.152-.202.203.051.523.219.523.776.556v.253c.63-.135 1.029-.303 1.198-.506 3.193.079 4.97.113 5.33.101 0 0 .034.203.05.287.135.051.304.102.439.102.641-.18 1.136-.107 1.484.219-.05.084-.135.202-.135.304l1.097-.085.691-.253a3.9 3.9 0 0 0 1.232-.81c-.304-.54-.467-.86-.489-.961 1.282-.574 2.277-1.62 3.542-2.228.118.102.236.27.287.422 1.147.203 2.108-.59 3.204-.624.034.034.068.084.085.101.303.253.506.371 1.164.489-.832.349-1.361.67-1.586.962.945 2.598 5.145-1.282 5.195-1.333-.522-.371-1.349-.27-1.602-1.063-1.771-.472-3.728.237-5.415-.81-3.677 1.721-5.645 2.582-5.903 2.582-3.222.86-6.258 1.67-7.962-1.468-.455-.253-.877-.574-1.333-.844 2.632-4.808 2.885-5.213 3.796-6.192.405-.438.539-.573.607-.759.034-.079-.27-.343-.911-.793-.843-.877-2.345-.304-3.12-1.35-2.649.287-5.128 1.316-7.777 1.569-2.496.237-4.486.945-5.144 1.316-1.417.827-1.502.793-1.839.692.017-.067.034-.168.051-.236.911-1.502 2.935-2.109 3.34-4.016-.102-.151-.287-.286-.422-.371.32-.506.978-.438 1.366-.81-.067-.354-.236-.674-.354-1.029.219-.236.337-.371.995-.641 0 .304 0 .607.051.911a.8.8 0 0 0 .793-.708c.455-2.852 2.833-4.151 5.364-5.518-.405-1.012-1.519-.793-1.89-.708-3.491 1.08-7.337 1.029-10.508 3.205-1.057.732-1.631 1.193-1.721 1.384-.506 1.147-.95 1.833-1.332 2.058-2.857 1.71-4.448 2.61-4.774 2.7 0 0-.152-.085-.219-.135-1.4.472-2.699 1.215-4.116 1.636-1.653.422-3.239 1.114-4.892 1.536-.388-.253-.877-.287-1.231-.608-1.934.192-3.059.248-3.374.169 0-.658-.489-1.13-.641-1.721-.624-.05-1.13-.438-1.703-.624-1.204-2.328-1.518-3.751-.945-4.269.81-.725.692-1.046.523-1.535.81-1.012 1.186-1.783 1.13-2.312 1.316-.989 2.092-1.642 2.328-1.957.506-.894.523-1.046.691-2.21a2.932 2.932 0 0 0-.792-.489c0-.034 4.099-3.847 5.549-4.083 3.627-.591 5.567-3.071 5.583-3.088 2.075-.54 3.897-2.075 6.225-1.67 2.344.27 4.419-1.637 6.831-.844.017.084.051.203.068.287.258.045 1.04-.129 2.344-.523 0 0-.152.135-.219.185 1.063.203 1.721-.927 2.749-.86a1.3 1.3 0 0 0 .338.456c.185-.051.843-.237 1.349-.692a3.695 3.695 0 0 1-.573-.287c-.045-.203-.011-.456.101-.759-.304-.017-.725-.068-.961-.253-.574.101-1.148.219-1.738.32 1.113-1.13 2.699-.641 3.981-1.181 1.282-.523 2.699-.607 3.998-1.147.09.045 2.057-.281 5.903-.979l1.468-.135c.05.102.118.253.169.355.393.09.669.241.826.455.124.011 1.799-.478 5.027-1.468 1.13.692 2.58.776 3.593 1.721-.034.225-.411.906-1.131 2.042.253 1.08 2.615 1.636 1.603 2.75h.118c.326.169 1.096.231 2.311.186.067.303.084.607.135.911.472.337 1.012.135 1.518.202v.051c.692-.422 2.108-1.299 2.918-2.548-.067-.051-.169-.101-.236-.152.135-.787.326-1.361.573-1.721-.033-.084-.067-.202-.101-.287-.337-.151-.472-.59-.877-.675-.202-.573-.253-1.197-.405-1.788.253-.337.591-.59.844-.945-.506-.843-1.974-1.029-1.738-2.396l2.733-3.425c3.778-3.374 8.855-4.218 13.056-6.782 1.265-.692 2.665-1.046 3.98-1.654-.185-.135-.404-.303-.573-.422.084-.202.185-.455.253-.658 1.839-.354 2.024-.388 3.34-1.282-.169-.118-.405-.287-.574-.405.023-.191.259-.849.709-1.974-.726-.135-1.468-.135-2.176-.304.185-.084.438-.202.641-.303-.135-1.238-.18-1.941-.135-2.109.045-.169 1.001-.917 2.867-2.244-.27.675-.624 1.316-.826 2.008.202.101.455.219.658.32-.118.203-.287.473-.405.675.169.135.388.304.54.422.826-.304.91-.338 2.766-2.143a30.283 30.283 0 0 0-.523-1.316c3.239-.439 3.981-1.299 5.465-3.02-.152-.152-.337-.371-.472-.523.034-.203.067-.489.101-.692.484-.304.928-.517 1.333-.641l-.456.827c3.88-1.907 8.266-2.481 12.111-4.505a5.677 5.677 0 0 1-.809-1.114c1.805-2.311 3.12-3.965 10.66-5.686 1.265-.388 3.88-1.181 4.335-1.518.102-.186.22-.439.321-.624h-.287c3.88-.709 7.557-2.295 7.574-2.312.118.169.286.405.405.591.91-.135 1.788-.49 2.732-.439-.118.169-.27.405-.388.59-1.653-.219-8.113 1.772-8.855 3.965 1.788.76 17.745-5.804 17.896-5.871.388-.068.911-.169 1.299-.236-.388-.102-.877-.439-1.079-.793-2.21.084-4.2 1.333-6.461 1.214a4.113 4.113 0 0 0-.253-.337c-1.518.27-2.125.388-4.149-.354-.101-.293-.574-.765-1.417-1.418.388-.253.911-.59 1.299-.826.017-.203.05-.49.084-.692-.911.051-1.771.59-2.716.236 1.771-.995 3.846-1.265 5.567-2.328-5.044-2.598-19.078 4.623-23.244 6.901 1.366-1.89 4.048-3.021 12.954-6.817 1.563-1.012 3.093-1.788 4.588-2.328 4.15-1.282 8.519-1.282 12.719-2.227l.691.152.692-.102c.236-.033.455-.067.691-.101l.692-.101c.236-.034.456-.068.692-.101 5.887-1.654 11.554-3.915 17.357-5.821l1.4-.692.658-.59-.844-.422c.034-.22.101-.49.152-.709.186-.101.439-.253.624-.354.051-.405.203-.962.388-1.333-.776-.473-2.867-1.333-5.549.607.118-.388.135-.945.016-1.333-1.956.152-3.002.59-4.335 1.13-3.171 1.137-4.948 1.677-5.33 1.62 1.181-1.063 8.316-2.85 8.383-2.868l1.232-.388c.337-.118.776-.287 1.113-.405-.922-.045-1.574-.292-1.957-.742-.927.185-1.804.472-2.715.708-.22-.32-.675-.674-1.046-.793-.978.53-1.636.85-1.974.962-.101-.185-.219-.455-.32-.641-2.109.05-3.576-1.839-5.651-1.907.506-.59 1.518-.489 1.839-1.332a1.249 1.249 0 0 1-.27-.085c-.056-.135-.54-.461-1.451-.978.034-.085.068-.203.101-.287.36-.113.641-.22.844-.32-.523-.423-2.682-.574-2.699-.574v-.304c-.456-.388-1.113-.084-1.569-.439.034-.551.034-.855 0-.91-.146-.046-.59-.276-1.332-.693 0 0 .168-.1.236-.151-.473-.304-1.046-.44-1.451-.878h-.32c-.158-.169-.236-.439-.236-.81-.81.287-1.35 1.03-2.193 1.283-.034.05-.068.118-.102.168-.387.388-.961.355-1.383.658.079.214.265.422.557.625-.489.455-1.113.658-1.653 1.029a.977.977 0 0 0 .54.05c-1.62 1.789-1.906 1.57-2.497 1.114-1.046-.81-1.653.894-2.513 1.248l-2.294.726s.017-.203.034-.287c-1.131-.54-1.704.692-2.615.81-.017-.084-.051-.202-.067-.287.303-.27.641-.49.944-.76a1.971 1.971 0 0 1-.135-.539c-1.906-1.265-3.221 2.193-5.111.658.034-.084.068-.202.085-.287 1.079-.101 1.726-.202 1.939-.303.017-.085.051-.203.068-.287h-.287c-.084-.726-.118-.743-.641-.945a3.488 3.488 0 0 1-.101-.574c.793-.658.54-.86.152-1.18.287-.777 1.113-.98 1.636-1.52-.995-.691-1.822.186-2.716.287-.017-.084-.05-.185-.067-.27-.506.136-1.029.27-1.535.389-2.648.168-2.598-.085-2.48-.726-.45-.27-1.197-.349-2.243-.236-.489-.827-.979-1.67-5.263-.186-2.08.72-3.733 1.08-4.959 1.08-.079-.124-.287-.332-.624-.624-1.08.287-2.21.253-3.306.439-3.627 1.08-3.711 1.417-3.846 1.957l.877 1.164h.27c-.574.59-.911 1.367-1.451 1.974.219.354.624.506.911.776-.017.169-.067.405-.101.574.348.55.433.9.253 1.046-1.569 1.366-3.559 2.041-5.212 3.256 1.45.506 2.968-.456 4.419.135 1.839.742 1.602 1.84 1.501 2.26-.573.653-.815 1.272-.725 1.857-2.969 3.222-8.147 1.906-10.998 5.365.202.085.489.203.692.287.281 1.586.337 2.745.168 3.476.321.27.743.624 1.08.877-.135.146-.686.591-1.653 1.333.135.152.337.371.472.523a3.81 3.81 0 0 1-.995.945c-.978-.27-1.872-.152-2.682.354.101.186.253.439.354.641-1.569-.506-1.619-.489-4.301.591.731-.495 1.265-.956 1.602-1.384-1.889-.995-2.952-.624-3.475-.455.27-.236.641-.557.945-.743-.675-.202-1.366-.32-2.041-.523 0-.81.202-1.603.236-2.412a11.368 11.368 0 0 1-.253-.658c.203-.355.591-.777.945-1.013l.118-.708c-1.484-.962-9.058 1.198-9.109 1.231-1.889-1.333-6.46-.27-6.494-.253-.287-.32-.911-.978-3.88-.81-.506.034-1.371.012-2.597-.067 0 0-.118 0-.169.034-.067 0-.135.033-.202.05-.338.135-.81.253-1.164.253-.315-.27-.72-.388-1.215-.354 0 0 .051-.051.169-.118-.056 0-.337.073-.843.219-1.012.304-2.075.49-3.053.911-1.198.523-1.755.692-2.025.776 0 0-1.366.389-1.585.338.118-.186.27-.304.675-.54.539-.337.809-.523.809-.557 0-.118-.034-.152-.287-.32-.354-.253-.371-.304-.472-.591 0-.034 0-.101-.017-.135 0-.112-.112-.264-.337-.455-.169-.152-.034-.355-.084-.523.05-.068.118-.085.185-.135a.322.322 0 0 0-.169-.051c-1.99-.287-2.462-.068-4.267.725a11.675 11.675 0 0 0-.084-.691 7.746 7.746 0 0 1-.658-.253c.989-1.733 1.478-2.801 1.467-3.206 3.936-3.093 5.938-4.752 6.005-4.977l.742-.287c.253-.101.523-.203.776-.304.585-.259.889-.5.911-.725h-.236c0-.068 0-.17.017-.237.556-.253 1.147-.405 1.737-.607.203-.068.473-.152.675-.22-.084-.117-.202-.27-.27-.387.995-.557 2.159-.355 3.188-.743l.675-.405c.562-.146.967-.326 1.214-.54-.27-.287-.809-.067-.995-.54-.315-.078-1.124-.039-2.429.119 0 0 0-.152.034-.22-.158-.079-.692.062-1.603.422a1.944 1.944 0 0 1-.337-.304c-.439 0-.877.034-1.316-.033.09-.034.799-.13 2.126-.287 0 0-.034.152-.051.22 4.577-.788 7.045-1.53 7.405-2.228.574-.169.675-.152.894-.118l.776.101s.118-.034.169-.034c.067 0 .118-.033.185-.033.068 0 .118-.034.186-.034.067 0 .118-.034.185-.034.675-.22 1.384-.32 2.041-.574l1.367-.674c.315-.113 1.231-.642 2.749-1.586l.169-.304 1.147-.624.27-.355.152-.658s-.119.017-.186.034c-.067 0-.118.017-.186.034-.05 0-.118.034-.185.034-.068 0-.118.016-.186.033-.405 0-.809.068-1.214.085.809-.203 2.969-.76 6.376-3.24-.169-.213-.68-.326-1.535-.337.079-.147.815-.383 2.21-.709 1.164-.455 2.327.388 3.491 0 .995-.59 2.311-.05 3.239-.877-.068-.169-.202-.293-.405-.371-.922-.383-1.822-.501-2.699-.355.371-.22.894-.05 1.164-.506 0 0 2.244.911 3.981 1.046-.146-.213.647-.68 2.378-1.4v-.236c.388-.203.861-.186 1.181-.54 1.063-.844 2.496-1.148 3.357-2.278-.118-.05-.456-.236-2.665-.506l-.102-.203c.051-.034.119-.1.169-.135 0-.017-.422-.573-.978-.523 1.197-1.383 3.323-.64 4.554-1.94-.607-.169-.658-.135-1.366.118a1.338 1.338 0 0 0-.456-.169c.439-.303 1.063-.135 1.417-.64-.033-.136-.084-.304-.118-.423-.742 0-4.082.186-4.099.186.22-.287.709-.304.776-.76-2.648.22-5.431.743-8.299 1.553-.034-.05-.101-.135-.135-.186-.253.068-.371.085-.86.456.118.05.287.067.422.05 0 .484-.102.794-.304.928.506.068 1.13-.421 1.552.186-.017.068-.051.152-.068.22.439.1.574.118 1.215-.017-.692.624-1.636.658-2.429 1.08-.607.32-1.063.81-1.619 1.18-.473.304-.624.422-.557.996-.157.09-.467.208-.928.354-.663.428-1.389 1.069-2.176 1.924-2.226.607-2.378.793-2.833 1.383-.259-.528-.838-.905-1.738-1.13-.185-.32.051-.76-.304-1.03.54-.624 1.957-.1 2.025-1.214a3.377 3.377 0 0 0-.338-.304l.152-.422-.354-.27-.287-.287-.725.22-.827-.085c-1.203.057-2.496.456-3.879 1.198 0 0-.034.17-.034.237-1.023.63-1.721 1.158-2.092 1.586-.084-.878.135-1.03 1.164-1.688h-1.585c.337-.691 1.113-.405 1.602-.742a4.55 4.55 0 0 0-.084-.456c-1.147.085-2.294-.928-3.441 0 0 .068 0 .17-.017.237-1.215.54-2.783.573-3.02.54.017-.085.051-.186.085-.254-.203.102-.422.203-.624.304 2.294-1.158 3.581-1.72 3.862-1.687.422.05.54-.186.692-.523-.079-.09-1.333-.4-3.762-.928 0-.731-.039-1.12-.118-1.164-1.248-.338-2.609-.445-4.082-.32.793-.558 1.755-.777 2.598-1.199l.506-.489 1.147-.658c-.135-.169-.32-.388-.455-.54.281-.112.837-.292 1.67-.54.989-.304 1.602-.472 1.838-.506 1.788-.27 2.024-.304 2.75-.709.573-.32.641-.422.911-.978.123-.259.382-.456.775-.59.793-.288 1.839-1.013 1.839-1.013.219-.169.405-.337.607-.523.518-.439.726-.748.624-.928-.624-.101-1.467-.101-5.397.945-.27-.203-1.704-.017-1.704-.017-.236.05-.472.118-.708.185-5.05 1.53-8.328 3.324-9.834 5.383.286.32.641.759.91 1.08-.438 1.299-1.906 1.872-2.26 3.222-.776.135-2.395.405-3.542 2.21.337.22.86.388 1.248.405-.731.664-1.147 1.198-1.248 1.603.658.574.708.624 1.805.338l.708-.034c.86-.085 1.738 0 2.598-.085l1.029-.168c-.22.337-.388.877-.422 1.265-.371.22-.86.523-1.231.76.944-.08 1.81-.434 2.597-1.064.118 4.1-5.026 2.92-7.354 4.674.186.101.422.22.607.32.051.203.135.473.203.675l-.388.608c-.135-.152-.338-.354-.473-.506-.854.146-1.535.146-2.041 0 .49-.506 1.164-.827 1.518-1.468-.134-.152-.32-.354-.455-.506-.202.084-.523.135-.675.287-1.602-.068-6.544 1.046-6.595 1.063 0 .202-.034.489-.034.691-5.752 2.582-15.754 4.893-20.882 4.117-.894-2.598-10.694 2.851-10.779 2.919.118.152.304.371.422.523 4.858-1.434 8.586-3.256 8.619-3.273-1.67 2.53-4.925 1.906-7.05 3.543.123.236.573.754 1.349 1.552-.388.169-.894.354-1.299.49 0 .202.017.472.017.674-.708-.033-1.417.085-2.125.05 1.079-.843 1.653-1.298 1.72-1.366-.067-.022-.984.068-2.749.27-.118-.101-.27-.236-.388-.337-6.95-1.907-12.162 3.796-18.589 4.218.979-.844 1.029-.894 3.813-1.907-2.531-2.784-17.594 1.89-29.705 5.636.034-.203.085-.473.135-.675-.202.033-.472.084-.675.118.203-.371.473-.86.675-1.232-.585.101-1.462.439-2.631 1.013v.708c-1.485.354-2.733 1.434-4.352 1.417-1.856-2.024-3.829-1.214-3.846-1.214a12.14 12.14 0 0 0-.472 1.316c-2.716 1.434-5.668 2.379-8.282 4.015-.928.557-1.991.844-3.054 1.131 1.519-.743 2.058-1.013 3.29-1.603 3.879-1.907 3.997-2.278 4.031-2.396-.051-.034-.641.118-.658.118-.658.219-1.248.574-1.872.86-.607.287-.843.237-.911.203-.084.034-7.219 2.969-11.116 5.264.135-.135.304-.321.439-.455-2.682-.186-7.287 3.087-7.321 3.121.354.118.843.253 1.214.337 0 .034.034.085.051.102-1.13.067-1.687.101-2.446.286-4.503 1.553-4.79 1.654-7.236 1.198h-.135a7.672 7.672 0 0 1-.574-.202c-.016 0-.033 0-.067.034-.528.27-2.277.894-5.246 1.872v.017h-.05c-15.047 1.89-30.329 8.386-30.48 8.453-.406-.18-.98-.107-1.721.22-.102-.152-.22-.355-.32-.507-.496.057-3.796 1.21-9.902 3.459.185-.304.556-.641.877-.827a4.921 4.921 0 0 0-2.514.203c-4.065 2.295-8.77 3.374-12.38 6.529l-16.042 9.803-.81.186-1.012.557c-.118.05-.236.084-.354.135-.118.05-.236.084-.354.134-.118.051-.236.085-.354.135-.118.051-.236.085-.355.135-.927.574-1.72 1.316-2.597 1.941 1.889 0 3.677-1.198 5.634-.422.033.186.1.422.135.59.067.023 2.03-.472 5.886-1.484v.607c.22.034.507.068.726.101 1.552-.686 2.58-1.13 3.087-1.333l.421-.05s-6.072 4.117-11.318 5.23c.169-.32.49-.725.776-.945-1.147-.27-13.343 6.58-13.68 7.188 1.62-.219 3.07-1.046 4.673-1.266-.428.259-1.21.636-2.345 1.131.236.27.624.59.928.793.725-.236 1.5-.338 2.226-.591l.152-.05.152-.051.152-.05.151-.051c.506-.186.996-.388 1.485-.591.067-.033 10.255-4.589 11.622-5.179-.034.168-.068.421-.101.59a8.481 8.481 0 0 0-.962.776c.169.068.388.169.557.236 0 4.067-4.96 2.953-7.118 4.86-4.454 2.407-6.686 3.678-6.697 3.813-.652.213-2.497 1.552-5.533 4.015.101.152.22.372.32.523.158.012 1.345-.646 3.56-1.974-.49.473-1.063.81-1.586 1.232.641.382 1.968.107 3.981-.827a6.049 6.049 0 0 1-.135.591c-.152.084-.354.219-.506.303-.393-.033-.95.158-1.67.574-.472-.18-1.569.281-3.289 1.384 4.15-.923 7.444-2.222 9.884-3.898-.663.821-.944 1.721-.843 2.7a7.24 7.24 0 0 0-.995.742c.169.051.405.118.574.186-.203.303-.473.708-.692.995 1.366-.371 6.612-2.817 6.663-2.834.607.05 1.197.253 1.805.236l.506-.371.607-.793c.59-.372.944-1.013 1.535-1.367l.337.068c-.22.286-.59.641-.894.86.135.067.32.169.456.236l.286.034 1.384-.776.421-.287c.72-.36 1.71-.979 2.969-1.856-1.771 3.712-6.292 4.235-8.535 7.39-.169.135-.337.287-.523.405 0 0-2.935 1.637-3.745 2.025-.354.168-.405.202-.742.455-.675.506-.945.641-1.569.979-.438.219-.59.742-1.012.978-.776.439-1.67.608-2.496.928-2.395 1.131-4.487 2.801-6.781 4.1.017.034.05.068.067.102.08 0 .248-.034.506-.102 0 0 0 .169-.016.236.09 0 .286-.056.59-.168l.354-.152.439-.422.337-.169.118.22c2.17-1.552 3.464-2.39 3.88-2.514 0 0 .034.169.017.236.286 0 .995-.472 1.029-.506.253-.085.59-.186.826-.27.304.185.304.185 1.4-.692l.203-.27c1.135-.54 1.714-.804 1.737-.793-.067.118-.152.203-.22.321l.928-.439.287-.27.557-.388c2.519-1.395 3.8-2.115 3.846-2.16l.404-.202s-.151-.135-.219-.203c.045-.101.844-.613 2.396-1.535.556-.27 1.096-.557 1.636-.86 1.45-.726 1.5-.76 1.973-1.114-.523.186-1.046.371-1.569.574.523-.186 1.046-.371 1.552-.574.355-.287.709-.574 1.063-.877.169-.214.793-.602 1.872-1.164l.405-.338.911-.523 1.012-.54.49-.337 1.079-.557c1.299-.793 2.547-1.67 3.812-2.497 1.35-.523 1.586-1.046 1.805-1.552-.439.033-1.04.185-1.805.455.574-1.265 3.475-2.531 3.508-2.531.945-.472 1.704-1.231 2.615-1.788l.118-.219a5.86 5.86 0 0 1 .709-.608l.708-.422c5.297-4.083 10.12-5.618 10.171-5.635-.832.562-1.343.922-1.535 1.08.186.05.422.118.59.169-2.884 2.142-6.713 2.75-9.108 5.669a7.643 7.643 0 0 0 1.231-.253c-.202.483-.843.928-1.922 1.332-.051.135-.102.287-.152.422 3.795-1.366 11.942-6.023 13.072-6.9-.185-.034-.421-.085-.59-.102.146-.506.849-1.164 2.108-1.974l.59-.253c-.185.186-.455.439-.64.624 1.417.119 3.947-1.467 3.964-1.484.354.118.826.253 1.18.303-.32.152-.708.439-.944.709.36-.09 1.018-.202 1.974-.337l.32-.119c.995-.354 1.855-.978 2.783-1.451-.287.237-.691.54-1.012.743 1.316.371 2.328.27 5.415-1.029l.708-.22.49-.236.505-.219.675-.253c2.935-.726 5.668-2.295 8.805-2.194-.506.338-1.08.591-1.602.895.792.286 3.846 1.062 10.02-.979.067-.169.151-.405.202-.574.59.085 1.13.422 1.737.321.067-.017.135-.034.202-.068l.203-.05c.067-.017.135-.051.202-.068.068-.017.135-.033.203-.067.219-.287.388-.759.438-1.114.765.596 1.912.776 3.441.54.051.169.135.405.186.574.185-.051.421-.101.607-.152-.101.152-.236.371-.337.523.168.051.405.118.573.169-.118.135-.27.32-.388.455.22.068.523.186.759.169.135 0 .27-.034.405-.051.118.017.27.051.388.068.034.118.051.236.068.354.168.034.337.017.506.051.202.354.59.118.86.303.017.49.691-.016 1.029.051-.017.068-.068.118-.388.253-.191.079-.534.349-1.029.81.169.017 1.316-.388 1.316-.405.32-.118.607-.32.944-.422.371-.118.472-.152.557-.135.118.186.337.287.506.439 0 .067 0 .118-.456.321-.286.135-.489.354-.506.404.051.051.068.068.473.034.556-.05.506.135.506.135-.186.355-.658.27-.861.574-.05.067-.253.388-.067.506.27.169.455-.135.692-.118l-.237.472c-.303.203-.461.321-.472.355 0 0-.017.05.236.118l.304.152.084-.034.81-.371s.084-.017.118-.034a.31.31 0 0 0 .118-.034.31.31 0 0 0 .118-.034.309.309 0 0 0 .118-.033l.203-.085.118-.05a8.937 8.937 0 0 1-.253.573c-.236.102-.557.22-.793.304a9.127 9.127 0 0 0-.354.506 6.237 6.237 0 0 0 1.248-.202c.101.101.253.219.354.32l.304.118.084-.05a14.716 14.716 0 0 0 1.552-1.029l.371-.237c-.017.372-.034.895 0 1.266.787.382 1.265.737 1.434 1.063h.961l-.033.05.826-.337.472-.287c.186 0 .439-.034.624-.05.034.067.068.151.102.219-.338.118-.793.27-1.13.388h-.034c-1.738 1.08-2.008 1.248-1.873 1.721.186-.084.422-.203.608-.287-.236.287-.557.675-.776.979.303.185.776.32 1.113.303h.051v-.033l.236-.119c.202 0 .472.017.658.017l.067-.033c.405-.22.978-.473 1.434-.54.118.152.27.354.388.506.675-.034 1.197-.068 3.626-.945h.051v-.034l.371-.185c-.118.152-.27.371-.388.523.152.067.338.168.472.236l.068-.034h.034l.084-.05c-.034.168-.084.421-.135.607.253 0 .59.017.827-.034.05 0 .101-.034.151-.05.051 0 .102-.034.152-.051.051 0 .101-.034.152-.051.051 0 .101-.033.152-.05l.607-.169c.118.152.253.337.371.489.956-.078 1.569-.062 1.839.051 0 0 .034.101.05.135-.168.135-.455.27-.523.472h.068c.337.118.843.186 1.214.135-1.349 3.037-4.486 1.603-6.612 2.666 0 .338-.185.827-.421 1.063.337.152.826.304 1.197.354-.101 1.125-.14 1.733-.118 1.823-.152.118-.371.27-.523.388l.169.607c-.203.186-.489.422-.709.591-2.575 4.161-4.205 6.529-4.891 7.103.017.388.168.894.354 1.231-.36.664-.489 1.243-.388 1.738-.928 1.029-1.653 1.974-1.653 1.991.067.186.152.422.219.591.169.084.388.185.557.253.067.168.135.405.202.59a2.71 2.71 0 0 0-.32 1.198c.489.388 1.079.658 1.585 1.046 1.434-.27 2.817-.725 4.234-1.029-1.012.473-2.086 1.159-3.222 2.058.102.152.253.355.355.507.185 0 .421.033.607.05 0 .371-.068.878-.169 1.232 1.406.607 2.165.95 2.277 1.029.051.388.118.894.152 1.266 1.704.978 3.155-.422 4.74-.54 3.464.562 5.134 1.136 5.01 1.721l-.084.05c.151.996 1.534 2.295 2.31 2.582-.033.59.118 1.181.085 1.771.225.236.613.383 1.164.439l.539.152.608.034.759.202.337.169.388.101c.219.135.489.371.658.574-.101.253-.236.607-.337.86-1.114.388-2.311.557-3.408 1.012.922.518 1.428.827 1.518.928 3.284-.022 5.381.079 6.292.304.068.118.135.287.202.405-.472 1.114-.028 1.89 1.333 2.328 2.024.658 3.357 1.215 3.643 1.553.574-.124 1.254-.422 2.041-.895v-.438c-.157-.135-.354-.529-.59-1.181-.911-.102-1.822.202-2.732-.068.022-.247.269-.619.742-1.113-.304-.321-.709-.507-.928-.912-.135 0-.321-.033-.455-.05.185-.203.506-.439.775-.557-.91-1.383-1.045-1.569-3.643-2.463 0-.135-.034-.321-.034-.439-.253-.152-.556-.371-.793-.54 0-.135-.033-.32-.05-.455a4.008 4.008 0 0 1-.472-.135c.067-.27.269-.608.489-.776a4.295 4.295 0 0 0-.085-.456c-1.13-.624-2.378.709-3.491-.186-.979-.793.405-1.805-.101-2.682 1.619-1.181 3.508-.253 5.229-.675.118.185.286.422.388.607-.152.186-.338.422-.49.591.118.05.287.118.405.185.27.692.894 1.333 1.366 1.755v.456a2 2 0 0 0 .827.27c.214.337.422.584.624.742 1.113.186 2.244.152 2.244.152h.371l.151.185-.185.743c1.181.101 2.345.303 3.492.607-.338.439-.439.557-.962.996.034.135.017.371.135.472l.54.051h.472c.697.045 1.22.168 1.569.371.652-.101 1.074-.101 1.265 0-.068.118-.135.287-.202.405.438.928 3.103 1.316 3.12 1.316.36.022 1.451.528 3.272 1.518 0 .27 0 .641.034.894-.101.085-.253.203-.354.287.202.186.422.473.557.709-.686 1.136-1.221 1.828-1.603 2.075-.017.135-.05.321-.067.456.185.202.438.472.641.675-.017.135-.051.32-.068.472.405.186.844.321 1.232.523 2.209-.725 7.523.101 7.59.118 2.879.146 5.072.366 6.579.658l.236-.05c.084-.017.152-.034.236-.051.067-.017.152-.034.236-.051.067 0 .152-.033.219-.05.085 0 8.94.236 12.01-.641 5.555-1.586 9.171-2.211 10.846-1.873.596.157 1.024.18 1.282.067.894.827.911.945.962 1.131.056.067 1.366.129 3.93.185.894.051 1.72-.405 2.614-.303 1.654.146 3.009.168 4.066.067 1.754-.27 3.491-.658 5.279-.843-.033.179-.135.393-.303.641l-.017-.017Zm-8.704-75.368c.523-.405.945-.911 1.518-1.232.337-.185.709-.169 1.08-.253.91-.219 1.045-.236 2.294-1.94.135.219.118.489.286.692.456 0 .759-.473 1.232-.372-.034.085-.051.135-.979.591-1.09.54-1.653.827-1.686.86 0 0 0 .034.017.051.573.253 1.248-.051 1.804.321 0 .101 0 .168-.371.624-.078.09-.112.152-.101.185 0 0 .253.203.59.135.237-.05.338 0 .372.068.067.101 0 .236-.068.32-.253.405-.067.608.068.642.472.185.371.776.725 1.029a.32.32 0 0 0 .219.084c.169 0 .371.169.624.489.085.119.101.422.085.591-.085.692-2.092 2.446-2.817 1.957 0 0-.321-.287.708-1.451.354-.405.641-.725.607-1.316-.084.034-.843.405-1.096.591-.084.067-.27.152-.422.135 0 0 0-.034-.017-.034.068-.203.287-.321.304-.54 0-.068.017-.371-.202-.472-.192-.09-.726.022-1.603.337-.219.084-.219.034-.219-.051 0 0 0-.118-.422-.32-.337-.169-.725-.236-1.079-.405a2.047 2.047 0 0 1-.237-.152c-.202-.202 0-.354.338-.624.337-.27.337-.27.337-.338-.185-.017-.54.102-1.4.388-.32.102-.388.118-.438.051 0 0-.304-.388 0-.624l-.051-.017Zm39.724 2.362a1.647 1.647 0 0 1-.321.489c.068.034.169.085.253.118 1.732-.742 2.744-1.006 3.037-.793 0 .158-.135.422-.405.793.354.237.776.253 1.164.372-.09.157-.326.343-.709.556 0 0-.034.203-.05.287.404.135.843.068 1.265.135a.992.992 0 0 1-.017.54c.675.084 1.214 0 1.552-.101 6.797-1.856 10.93-.439 11.689-.135.259.9-1.602 1.181-5.583.843a1.097 1.097 0 0 0-.304.473c.489.101.894.388 1.333.574-.354 1.147-1.586.927-2.311 1.501.05.844.067 1.401-1.484 2.109-1.013.456-4.454 2.936-4.487 2.953.523.253 2.311-.321 2.884-.709 1.063-.692 4.369-1.822 4.403-1.822 1.585-.124 2.53-.292 2.833-.506 1.265-.827 2.868-.591 4.15-1.316a2.387 2.387 0 0 1-.236-.203c-.675.068-1.35.118-2.024.169 0-.084.016-.202.033-.27 1.552-.81 2.328-1.265 2.328-1.367.354-.253 5.415-1.451 5.465-1.451.051.068.135.135.186.203.315-.011 3.25-1.254 8.805-3.729 0 0-.169.152-.253.203-.017 0-2.868 1.822-3.509 2.058-.961.371-1.197 1.518-2.091 1.957-2.412 1.232-5.196.591-7.658 1.569-.152.068-.253.321-.287.49-.253 1.214-4.133 2.8-4.166 2.817-.102.034-10.644 4.066-12.702 3.054 1.366-1.771 3.88-2.463 4.656-4.808-.237-.237-.287-.287-.81-.27-.051-.068-.118-.169-.169-.237-1.349.304-2.176 1.974-3.846 1.468.726-.945 2.379-.438 2.834-1.805.86-2.548.877-2.582-1.45-2.278-3.239.439-3.661.489-5.297 2.717-.18.011-.433-.102-.759-.338-3.171 1.299-3.677 3.577-3.677 3.594.303.253.742.27 1.029.574-.169.455-1.805 4.369-6.056 3.846-.303-.573-.422-1.788-.405-1.788l1.721-2.716c2.159-2.149 3.261-3.307 3.306-3.476-1.248.506-1.957 1.721-3.121 2.345-.033-.084-.084-.185-.118-.27 4.217-4.673 12.145-5.315 13.68-5.399-.135-.152-.438-.472-1.434-.405-.759.051-1.484-.253-2.243-.169-1.653.186-3.036 1.266-4.689 1.485-1.518.186-2.986-.405-4.504-.169-.405.068-.793.203-1.198.304.894-.827 2.092-1.012 3.138-1.535-.101-.056-3.07 1.063-8.906 3.357-.625.253-.996.388-2.379.405.118-.135.287-.32.422-.438-1.586.033-2.783 1.248-4.335 1.383.152-.489 12.06-5.99 12.178-6.023 3.728-2.143 5.584-3.206 9.649-1.215Zm-80.359-10.933c-.011-.18-.663-.473-1.956-.878h-.034a39.95 39.95 0 0 1 5.819-.236c3.981-.152 5.921-1.754 5.938-1.754l3.12-1.654c.844-.27 1.4-1.046 2.261-1.316.033 0 2.732-.776 4.554-.81 0 .051.034.101.051.135-1.316.743-2.885.506-4.234 1.131.472.033.927-.135 1.4-.085-.759 1.536-2.396.776-3.509 1.35-2.687 1.372-4.543 2.469-5.566 3.29a6.294 6.294 0 0 1-.658.456c-.86.438-1.872.236-2.733.641-.624.303-.826 1.063-1.45 1.35-2.632 1.248-2.969.995-3.087.911-1.35.405-2.598 1.113-4.015 1.349-3.171.507-4.723.523-4.655.051.101 0 .236.034.32.084.169.102.827.372 2.159-.388.473-.27 1.159-.478 2.058-.624.928-.152 1.35-1.012 2.041-1.485.658-.455 1.485-.371 2.21-.624 0 0 .843-.439 1.046-.59-.287-.237-1.08-.287-1.08-.287v-.017Zm-20.275-4.184c.877-.462 2.047-.9 3.509-1.317 1.13-.32 2.125-.961 3.188-1.434 1.332-.556 2.597-1.265 3.997-1.67.861-.236 1.755-.051 2.632-.186-2.665.844-3.509 1.35-3.509 1.35.169.034.304.079.405.135v.135c-.54.321-1.181.354-1.771.523 1.771-.034 3.407-.759 5.128-1.08 1.248-.219 3.39-2.851 3.609-1.096-1.844 1.169-2.788 1.799-2.833 1.889l.202.051c.388-.068.759-.321 1.181-.219 0 .033.05.067.067.101-.405.32-1.889.843-2.479.658-.281-.079-1.738.41-4.369 1.468.371.135.776-.017 1.164.084 0 .034.033.084.05.118-.151.27-5.583 2.784-5.634 2.801-.674.304-1.197.456-1.315.354l.202-.236.641-.371c1.366-.523 2.665-1.012 3.644-1.89l.118-.168v-.169c-2.598-.203-3.846 2.362-6.056 2.969-3.137.878-3.289.827-3.576.743 0-.034 0-.085-.017-.135.068-.068.169-.203 1.316-.523l.236-.152.27-.27c.489-.489.523-.506 1.974-1.282.151-.068.404-.237.455-.473-.506-.236-.945.152-1.417.152.202-.27 2.26-.81 2.277-.81 0 .034 0 .084.017.135.388.101 2.007-.489 2.345-.742-.321-.186-1.974 0-1.991 0-1.754.303-3.289 1.333-5.06 1.586-.843.118-1.535.641-2.362.81-.877.185-1.703 1.687-2.58.776.348-.461 2.457-1.339 6.325-2.632l.017.017Zm-28.912 2.446c.878-.439 1.67-.827 2.345-1.164a5.445 5.445 0 0 0-.675.894c-1.327.517-2.142.776-2.445.776.219-.169.506-.405.759-.506h.016ZM466.578 38.857s-.135-.102-.185-.152c-1.451.32-4.453.978-8.181.202l-.86-.067-.979.05c-5.128 1.148-8.13 1.648-9.007 1.502 4.059-.81 6.202-1.361 6.426-1.654.945-.118 2.311-.37 3.425-.961-.827-.928-1.299-.844-8.603 1.366.118.102.321.203.472.237-.911.151-1.838.033-2.766.118.118-.152 1.282-1.536 5.246-1.873 2.716-.236 4.504-.742 5.33-1.03v-.252l-2.513-.32h-.81l-.607.083-.725.034c-.135-.034-.321-.067-.473-.118.147-.09 1.766-.09 4.858 0 2.716.32 3.981 1.114 3.981 1.13l-.034.304c.27.59.49.557 1.586.338.725.556 1.586.152 2.362.32.202-.033.455-.084.657-.135a1.141 1.141 0 0 1-.05-.472c.219-.152.354-.236.776-.186 0 .169 0 .388.017.54.354.101 2.175.506 2.867-.978-.371-.27-.826-.203-1.248-.321.146-.112.399-.163.759-.152l.27-.253c.27-.084.691-.186.843-.422-.185-.675-1.653-.658-1.822-.64-.253.1-.59.218-.843.303-.067-.05-.152-.101-.219-.152.05-.068.101-.135.135-.203-.102-.236-.152-.354-.557-.303-.017-.068-.051-.169-.067-.236 0 0-1.704-.86-2.429-.726l-.439-.135c-.86-.185-1.754-.32-2.614-.523l-.76.034c-.084-.05-.219-.118-.303-.169.101-.118.202-.304.27-.456a5.078 5.078 0 0 0-.439-.202c.034-.067.068-.169.085-.236-.287-.118-.388-.169-1.029-.135.118-.101.286-.203.421-.27a1.254 1.254 0 0 0-.253-.405h-5.178s-.068-.169-.085-.236c.54-.118 5.179-.54 5.213-.54.101-.034.219-.084.32-.118-.05.05-.118.135-.169.185 1.434 1.097 2.986.102 4.47.253 0-.067.034-.168.051-.253-.09-.1-1.096-.225-3.019-.37 0 0 .135-.119.185-.17-.59-.354-1.113.321-1.703.135.033-.067.067-.168.101-.236.05-.017.118-.05.168-.067l.405-.068c.225.045 1.125-.146 2.699-.573 1.923-.068 3.239-.006 3.947.185-1.096.304-2.209-.287-3.306.068 0 .05-.017.118-.034.168l-.05.355c1.687.37 5.015.14 9.986-.692.269.05.371.067.995-.253-.023-.191.073-.428.287-.709a.732.732 0 0 0-.422-.22c-.928-.117-1.872.27-2.8-.033-.877-.287-1.873.878-2.648-.101 1.079-.81 2.209.067 3.306-.118l2.867-.523.591-.236c2.8-.237 2.85-.254 4.689-1.232-.658-.675-1.468 0-2.159-.253l-.354.05-.439.135c-.253 0-.624 0-.86-.118a2.57 2.57 0 0 1 .978-.422l-.135-.185-1.653-.22c-.528-.022-.866-.09-1.012-.202 0-.152 0-.354.067-.506.911-.32 1.772.32 2.666.169.961-.152 1.467-.996 2.243-1.468l.101-.186v-.168c-.101-.09-.95-.54-2.547-1.35l-.253-.068h-.523l-.675.085c-.894-.034-1.788.067-2.682.05-.877.101-1.096.118-1.501 0-.354-.455-.472-.59-1.467-.624-.338.067-.63.028-.877-.118 0 0 .033-.186.05-.253.911-.54 1.704.573 2.615.185 0 0 2.496-.759 2.665-.776.573-.067 1.147-.168 1.72-.202 1.046-.388 4.386-.085 4.42-.068.034 0 2.53.27 2.361-.995l-.05-.169-.051-.169-.422-.287-.202.152-1.265-.27-.675.085a6.662 6.662 0 0 1-1.872.101l-.506-.135h-.54l-.455-.034h-.743c-.219-.253-.573-.27-.843-.421a2.56 2.56 0 0 1 .186-.27c1.012 0 2.024.202 3.036.236h.607l.405-.05.32-.052.641-.118.051-.168-.641-.17-.371-.067-.523-.033-.422-.102-.32-.067h-3.998l-.557.101c-.725.287-1.248 1.03-2.125.878-.034-.192.832-1.08 2.598-2.666 0 0-.118-.186-.169-.27.034-.101.068-.236.084-.354.894-.49 1.603-.456 1.62-.456.911-.135 1.568-.276 1.973-.422a2.73 2.73 0 0 1 .135-.32c1.012-.36 1.754-.59 2.227-.692l.523-.203-.169-.202-1.164-.034.101-.067c-.168-.068-.371-.27-.472-.439 1.737-2.345 4.588-.557 6.629-1.805-.034-.085-.101-.203-.135-.304a2.635 2.635 0 0 0-1.181-.101h-.135c-.472.017-.961.067-1.433.101-.726 0-1.434.422-2.159.05-.726-.252-1.232-.151-2.379.17-.236.64-1.113 1.214-1.855.978-.034-.084-.085-.22-.118-.304l.067-.067.675-.338c1.439-.45 2.485-.663 3.137-.64 1.333-.052 2.665-.186 3.998-.17 3.036-.1 5.263-.843 6.056-1.484-.793-.287-1.569.05-2.362.033l-.152-.118a25.08 25.08 0 0 0-1.956 0l-.506.169c-1.367.32-1.535.22-1.772.067l.085-.033c.922-.304 1.754-.428 2.496-.371l.877-.152c1.569-.068 3.104-.388 4.673-.49l.894-.118h.59c1.198-.168 1.299-.185 2.024-.421a2.21 2.21 0 0 0-.303-.557c2.564-1.08 5.515-.709 7.995-2.11-.99-.36-2.243-.545-3.762-.556-1.686-.017-3.356-.523-5.043-.186-4.521.54-7.175 1.013-7.962 1.418-1.27.584-2.395.826-3.373.725-.962-.186-2.902.068-2.918.068l-.388.118-.506.219c-.203.05-.473.101-.675.152.101-.169.303-.371.472-.49-.067-.067-.135-.168-.202-.253-1.704.152-2.311.473-2.497.591l-.438.169c-1.147.37-2.311.64-3.424 1.096l-.49.17-.894.32c-2.85.793-2.85.81-3.474 1.198l-.422.286c-.253.068-.59.17-.86.237.281-.135.472-.27.573-.405l.118-.169c.557-.422 1.248-.574 1.873-.894l.691-.27c1.147-.354 3.239-1.57 3.947-2.413-.517-.619-1.197-.9-2.041-.843-3.373.663-5.066 1.034-5.077 1.113v.32c-1.366.557-2.851.372-4.234.71l-1.046.252-.658.152c-1.197.388-2.445.473-3.643.827.017-.084.051-.22.067-.32.355-.051 3.577-.574 6.191-1.57.017-.101.051-.22.084-.32-1.113-.827-8.67.253-19.178 1.805.826-.22 1.653-.49 2.513-.59 1.737-.22 3.424-.642 5.128-.962.421-.068.86-.05 1.299-.101 4.183-.507 8.433-.507 12.6-1.165.067 0 5.364-.877 5.398-.877.337-.067 3.356-.607 4.031-1.249-.214-.09-.399-.129-.557-.118-1.096-.067-2.176-.236-3.272-.202l-.742-.068h-.675c-.776-.016-1.585.895-2.294.085h-1.552c-1.029.152-1.973.725-3.053.573l.81-.37.472-.17.658-.236.304-.202-.22-.27-.354-.135c-2.142.034-2.733.152-3.239.253v.034l-1.467.303c-2.159.27-4.318.372-6.477.608.112-.045 1.804-.27 5.077-.675 0 0 2.749-.371 3.93-.911-1.788-.152-10.829-.236-12.482.236-2.328.844-4.706.068-7.068.287-.152 0-.287.034-.438.034-4.217.405-8.384 1.282-12.634 1.468-.911.624-.979.624-1.282.54h-.355c-1.315-.203-5.313.86-5.347.877 0 .101.034.236.034.32 1.063.355 2.125 0 3.188.068-.624.169-4.031 1.012-4.048 1.012.32.135.658.203.978.32-.236.136-1.051.08-2.446-.168.203-.22.54-.304.675-.59-.962-.17-1.299-.119-2.378.05 0 .101.033.236.05.32-.759.878-4.655.389-4.689.389 0 0-2.092-.355-4.538.152-.933.258-1.714.433-2.344.523l-.776.135c-.692.118-1.063.185-4.217.54.051.05.118.1.169.135.067.067.168.151.253.219a69.64 69.64 0 0 0-.253.253c-2.429-.068-3.745.073-3.948.422.068.022 1.997-.05 5.786-.22-.112.102-.883.293-2.311.574.236.18.636.259 1.198.236l.54.135c.944-.034 3.137.355 3.154.355-.945.202-1.872-.27-2.817-.085-1.855 0-3.694-.185-5.55-.034-.843.068-1.585.71-2.445.743 1.99.354 6.983 1.063 7.034 1.063l.32.168.574.136c-.203.09-.613.19-1.232.303h-.556l-.574-.05-.438-.102-.388-.05-.557-.034h-.776c-.337-.09-1.012-.174-2.024-.253l-.54.084c-1.586-.05-3.171-.067-4.757-.135l-.219-.067h-.489c-4.037.18-6.146.483-6.326.91l.051.288c.225.19.59.32 1.096.388l.439.202.186.085.269.05h.591l.202.068c-.281.123-.804.202-1.568.236l-.625.034-.421.05-.371.135v.101c-.135.068-.321.17-.49.237-.258-.326-1.237-.574-2.935-.743l-1.737-.05c-1.035-.034-1.743.107-2.125.421l.219.186c.135.068.304.152.439.203.067.202.067.489.016.674-.168.08-.5.208-.995.389l-.489.253-.27.32-.371.253-.304.101-.219-.27c.321-.573.86-1.012.978-1.704-.168-.151-.472-.405-2.648-.556l-.59-.034c-.27.169-.557.337-1.687.557l-.573.219c-.76.304-1.67.186-2.278.86-.219.051-.556.034-.759-.084-.067.017-.168.05-.236.085l-.489.151-.354.118-.608.135-.151-.151-1.299.27-.219.067c-3.599.821-5.471 1.271-5.617 1.35 2.513.523 5.077.422 7.607.725-.455.388-6.157-.152-6.207-.152-.051-.084-.118-.202-.169-.286-2.328-.422-6.511.691-7.658 1.434.017.118.05.27.084.37.338 0 .641.153.995.153-.016.101-.05.236-.067.337-.63.248-1.04.428-1.231.54 0 0 0 .135.016.203l.405.202v.22l-.438.168c-.726.169-1.468 0-2.21.034-1.839.017-3.846.624-4.048.793l.118.236.253.338c-.169 0-.388-.068-.54-.152h-.253l-1.012-.135-.354.067-.911.135-.27.118-.557.186c-.438.185-1.096.354-1.433.692-.473.236-.996.303-1.502.472l-.05.118-.287.27-.455.152-.456.135-.422.084c-.843.203-1.062.304-1.163.355-1.198.37-1.654.506-2.075.826-1.113.473-1.754.799-1.923.979.05.084.101.22.135.304.236 0 .658.033 1.062-.034 1.62-.354 1.957-.338 2.362-.32 1.434.286 5.381-1.047 5.415-1.064l.404-.151c.591-.152.658-.136.743-.119l-.338.17c-.573.202-1.164.353-1.737.539l-.591.169-.387.253-.237.287.118.236-.101.27.034.22.101.185-.202.168-.034.102c-.202.05-.455.1-.658.168l-.32.17-.304.235-.438.22-.456.236c-.54.169-1.096.27-1.636.472-.27.051-.557.118-1.147.304-1.687.281-2.688.517-3.003.709-1.332.489-2.732.607-4.082 1.012l-.303.135-.321.186-.202.202c-.146.056-1.569.439-4.268 1.147l-.691.186-.422.202-.675.27c-.843.186-1.72.203-2.547.54l-.27.135-.168.118-.186.17c-.489.201-1.029.185-1.535.269l-.455.22-.321.202-.152.303-.455.254-.169.118c.354.202.759.202 1.13.303h.49c.179.068.629.085 1.349.051.894.034 1.754-.169 2.631-.236l.237.05.286.068c.473 0 .979.017 2.008-.22l.455-.185.439.152h.489l-.017.185v.17l.641-.085c.348-.012.916-.197 1.704-.557l.624-.135.354.101.185.034c2.041-.439 3.964-1.417 6.123-1.316l.54.068.405.168c-1.316.523-2.749.608-4.082 1.114-2.688.405-4.105.64-4.251.708-.708.27-1.231.45-1.568.54-1.738.355-3.458.658-5.196 1.03-.281.09-.539.185-.776.286a1.23 1.23 0 0 0-.438.338l.303.084h.372l.455.034.152.118.287.034.455-.085c.81-.152.894-.168 1.383-.405l.742-.27.102.085-.405.202-.034.203.354.101.287.068.59-.085s.085 0 .118-.017c.034 0 .085 0 .118-.017.034 0 .085 0 .119-.017.033 0 .084 0 .118-.016l.539-.102.506-.05.557-.101h.405c.067 0 .118-.017.185-.034.068 0 .119-.017.186-.034.067 0 .118-.017.186-.034l.371-.084.185-.034h.776l.135.085-.287.202-.894.203h-.421l-.22.067h-.337c-.349.18-.557.276-.624.287l-.439.084-.354.118-.304.186-.185.169h.32c.214.247.428.36.641.337l.236.068h.608l.725-.034c1.417.59 2.699-.287 4.031-.422l.507-.101.236-.118a5.163 5.163 0 0 1-.523-.287c.05-.084.101-.186.152-.253.641.022 1.023.062 1.147.118.123.056.539-.101 1.248-.473.326-.135.624-.196.894-.185h.54l-.085.169.152.219 1.012-.152.287-.067c.495-.124.815-.225.961-.304l.473-.236.607-.102c.54-.354.877-.489.877-.489.326-.045.782-.005 1.366.118.355-.017 1.788-.573 2.176-.978l.321-.034.405.067.944.051.658-.068.742-.067.675-.084c1.586.388 3.137-.152 4.706-.22l.236.05c.405 0 3.256.102 3.273.119l.27.084.725-.033.759-.068.607-.084.034.152.202.236h.338l.185.118.051.084-.169.22-.202.151.05.254.152.253.439.219c.809-.034 2.327-.084 3.002.169 0 .067.034.152.051.22l.219.269.354.034c.405.05.793.118 1.198.168l.438.237c-.118.05-.286.118-.421.168-.085.81.776.844 1.13 1.3v-.034l.253.236.118.236v.253l.169.118c.286.034.691.085.944.22-.101.506-.523.776-.793 1.18.945-.303 2.21-.1 2.227-.083a2.75 2.75 0 0 1-.287.86c.214.157.495.225.844.202 0 .085 0 .203.017.287-.776-.067-1.249.557-1.299.624l-.304.254c-.438.286-.472.303-1.484.793.894.236 1.518-.523 2.294-.675l-.068.185-.236.152-.27.169-.523.202-.843.371-.439.119c-.371.1-.742.219-1.13.32-.084.034-.202.101-.303.135.101.152.27.32.421.405.743.068.759.068 2.109-.236 1.501.388 2.479-.793 3.728-1.198l.438-.22.456-.219c-.287-.354-.692-.573-.979-.928.085-.135.27-.303.422-.354-.186.624.658.658.843 1.08.304.079.686-.006 1.147-.253.118 0 .27-.017.371-.034-.123.146-.326.298-.607.456l-.084.236.084.152c.388-.085.742-.355 1.164-.237l.236.102c.461-.057.742-.057.844 0l-.085.168c1.012.254 1.89-.64 2.902-.337 0 .034.033.067.05.101l-.472.101-.354.254c-.135.202-.445.399-.928.59v.118l.405.017.708-.067.591.1c.455.338.556.355.86.44l.388.067-.051.169-.152.27.135.202.287.186.068.151-.557.237h-.27l-.405.05h-.337c-.86-.067-1.535.068-1.535.068l-.304-.169c-.793.068-1.568-.135-2.361-.169 0 0-1.906-.033-2.058 0-.388.068-.759.186-1.147.253-.422.068-.86.085-1.282.152-.287.05-.557.068-.844.135 0 0-.556.169-.489.304l.068.202.27.17c.36.09.629.14.809.151.473.017.945-.05 1.434-.05.051 0 .101 0 .152-.018.051 0 .101 0 .152-.016.05 0 .101 0 .152-.017.05 0 .101 0 .151-.017.461.022.939 0 1.434-.068.27-.045.495-.033.675.034l.084.169.118.05.169.068.506.084.641.068.152-.034.624-.084.691-.068.22.085.607-.135.337-.152.169-.034.337-.05.237.084.674-.085c.726-.067 1.417-.286 2.126-.337l-.051.169-.219.151.236.119-.101.236-.456.118-.354.22.236.168v.169c-.455.253-.961.405-1.417.64.101.102.236.237.354.27l.186.136.169.303.759-.303c-.101.22-.236.506-.338.725-.32.05-.641 0-.961 0l-.371-.05h-.607l-.287.185-.135.304h.54l.084.202c-.191.113-.529.254-1.012.422.051.085.101.22.152.304.135 0 .337.017.472.034l-.202.168-.338.118-.118.119v.219l.118.084.203.05.135.153c.286.152.624.168.911.27.894-.253.961-.287 1.163-.135l.034.169v.084l-.185.152.135.067.438.068-.034.084-.388.135-.371.067s-.101 0-.168.017c-.051 0-.102 0-.152.017-.051 0-.101 0-.169.017-.05 0-.101 0-.152.017l-.286.084-.135.135h.59c.152 0 .371.017.523.034-1.215.225-2.26.292-3.138.203-.927-.051-1.855.084-2.8.067l-.421.05-.995.051h-.085l-.59.152-.877.22-.439.151-.27.169c-.641.456-1.434.54-2.108.894l.017.017c.084 0 .185-.017.269 0 .135.236 2.025-.32 2.041-.32 0 0 1.35-.203 1.434-.17l.27-.05.135-.033c.956-.214 1.614-.316 1.974-.304.472 0 .91-.203 1.4-.203h.32l.152.068-.101.152v.084c.18 0 1.214-.152 3.103-.456 0 0-.05.034-1.214.405h-.354c-.034 0-.085 0-.118.017l-.169.102c-.236.033-.455.118-.692.135-.843-.237-2.035-.265-3.576-.085l-.404.118-.372.118-.151.034a8.388 8.388 0 0 1-.844.186c-.27.033-.54 0-.793 0l-.809.151c-.523.152-1.046.304-.641.54.067.051.135.102.219.135 0 0 .557.119.725.119.248-.012.906-.152 1.974-.422.18-.034.517-.04 1.012-.017-.287.32-.304.354-1.164.658-.169.067-.337.152-.506.202h-.034c-.151.034-.303 0-.472 0-.118.034-.202.152-.32.169h-.135c-.051 0-.085 0-.135.017-.051 0-.085 0-.135.017h-.135s-.557.22-.844.49c-.084.083-.185.134-.236.252 0 0-.118.287-.05.338.067.05.135.033.202.033h.658c1.136-.303 1.777-.495 1.923-.573.826-.456.894-.49 1.198-.574 1.298-.59 2.918-1.316 5.161-1.805l.371.084c-.258.124-.764.264-1.518.422-2.463.692-2.884.911-3.39 1.147l-.523.287-.911.456-.405.168-.219.085-.844.253-.624.27-.084.185-.068.169.27.084.422-.067.961-.203.254-.05c1.534-.405 1.889-.355 1.956-.32-.753.27-1.265.432-1.535.489l-.489.067-.253.05-.557.102-.573.22v.134l-.118.27h.641c.135.034.287.05.421.068 1.552.202 2.784-.945 4.268-1.047l.911-.084.067.084-.32.136c-.697 0-1.209.044-1.535.135l-.422.118-.202.118c-.405.236-.86.37-1.248.658l.033.236-.455 1.063c.084.05.219.101.304.152a5.788 5.788 0 0 1 2.108-.473s-.118.068-.169.118l-.135.152-.556.152-.523.169-.405.084-.253.135-.304.253-.168.22-.068.168.051.169c.118.068.287.186.405.253.27-.079.5-.202.691-.371.456-.371.945-.675 1.4-1.03l.388-.134.388-.169h.591l.269-.236c.034-.22.085-.523.152-.743.422.237.422.237.709.54h.641c.562-.033.905-.033 1.029 0l.371.169-.22.354.27.17.574.168c-.675.64-1.889-.186-2.395.894h-.253l-.625.118-.641.152-.269.354-.169.085-.304.1-.438.068-.118.085-.118.101-.422.49c.557.1 1.096-.136 1.653-.153.017.034.051.068.067.102l-.185.185-.219.203.421.1c-.152.102-.354.237-.523.338.506.034.996-.05 1.502-.033-.22.067-.523.168-.743.236.945.135 1.53.174 1.755.118l.573-.135-.118.22-.304.185.051.084.253.152-.169.22-.404.185c-.102.05-.253.118-.355.186 0 .1-.033.236-.05.337.152.084.573.32 1.45.169h.152l.152.084-.169.22.034.135.186.118.472.05c.388-.101.759-.236 1.13-.337.152.118.422.236.624.27 0 .033 0 .067-.034.101a8.726 8.726 0 0 0-.708.27c.135.05.304.118.455.101v.152l-.118.118v.169h.237c.421 0 .472 0 1.012.185v.135l-.27.17-.068.134.253.101.321.05.405-.134.421-.22.22-.151.185.118v.27l.321-.034.101.084-.338.102-.421.152c.033.219.101.523.135.742 1.113.152 1.956-.641 2.985-.81.051.084.135.203.203.27 2.058-.236 2.665-.641 3.964-1.535.067.1.185.253.168.37l.574.085.995-.506.169.405-.523.439c-.253.118-.591.286-.776.489.225.202.894.186 2.007-.05-.05.084-.135.202-.185.303.18.113.506.124.978.034-.152.152-.32.37-.439.556.085.085.186.17.27.254.591-.118 1.13-.389 1.721-.49l.101.152.86-.034c0 .118.034.27.051.372.776-.22 2.176-.895 2.176-.912-.371-.303-.877-.27-1.299-.489.675-.152 1.4-.118 2.041-.371.051-.101.101-.22.135-.32.663-.237 1.074-.445 1.231-.625-.033-.056.315-.512 1.046-1.367-.101-.05-.219-.118-.32-.168.421-.793 1.366-1.181 1.619-2.11-.394-.213-.973-.365-1.737-.455.016-.101.05-.236.084-.337 1.855-1.046 3.998-1.384 5.921-2.227a67.408 67.408 0 0 1-.253-.253c-.102 0-.237 0-.338.017-.067-.085-.185-.17-.253-.254.422-.168.894-.202 1.316-.404.135.067.303.168.438.236.861-.54.894-.675.979-1.063-.248-.214-1.04-.298-2.379-.253 1.147-.608 2.598-.253 3.678-1.097-.675-.641-1.653-.422-2.413-.844a2.45 2.45 0 0 1 .085-.337c3.081-.652 4.644-.99 4.689-1.012-.112-.034-.45-.09-1.012-.17.118-.185.321-.421.54-.505 1.383-.54 2.901-.085 4.284-.557 1.13-.388 1.518-1.84 2.834-1.94.202 0 .455.017.641.033-.624.49-1.99 1.367-1.99 1.367v.354c.292.124.843-.118 1.653-.725.894.303 1.754-.203 2.631-.05v-.338c.191-.158.495-.293.911-.405.247.157.59.264 1.029.32 1.619-1.316 4.217-.455 5.499-2.497.489.169.793.287 1.602-.573.034-.034 5.196-3.02 5.972-3.155.421-.068.657-.102.894-.22 0 0 .472-.27.32-.371-.051-.034-.186-.05-.304-.068-.236-.033-.253-.033-.371-.202-.135-.202-.185-.202-.354-.253l-.185-.304c.084-.05.185-.1.269-.152 1.131.085 2.126.726 3.273.777.017 0 1.585.033 1.872-.557.405-.085.759.152 1.147.168l1.265-.27.152-.202c-.219 0-.422.017-.641.034a.442.442 0 0 1-.084-.101c.101-.17.455-.507 1.568 0 .119 0 .27.067.371.033l2.531-.54c4.138-1.012 6.516-1.512 7.135-1.501 2.243.05 4.031-1.3 6.039-1.94.084-.017 7.523-2.278 8.197-2.565v-.253l-.135.169Zm-27.596-31.94c.574-.1.675-.1.962-.067.32.017.641 0 .945-.034-.253.102-.355.135-.979.237-.354.067-.708.135-1.079.168.05-.084.101-.22.151-.303ZM397.74 205.25c-.135-.186-25.048-10.461-34.646-3.678.118-.574.236-1.333.303-1.907-2.091-1.012-9.597-3.779-18.639 2.987-1.18-.625-2.479-.355-3.727-.557 4.768-1.463 7.343-2.52 7.725-3.172-.219-.203-.523-.456-.742-.658-4.734.776-7.231 1.243-7.489 1.4.067.287.151.658.219.945-.27.084-.641.202-.911.287-.202-.236-.455-.54-.658-.759.321-3.223 4.217-2.481 5.33-4.826-.371-.551-1.169-.945-2.395-1.181a11.015 11.015 0 0 0-.911-3.661c-3.188-.523-5.853-3.054-9.345-2.413h-.202c-5.263.219-10.559-.675-15.788.473-.293-1.114-1.704-1.913-4.234-2.396-2.092-.726-2.463-.844-4.858.118.287-.489.776-1.097 1.231-1.468-1.062-.793-2.412-.203-3.525-.759-1.434.708-1.535.675-2.75.303.068-.286.152-.658.22-.944.27-.119.607-.27.86-.389-.607-.05-20.09 3.156-20.191 3.189-.472-.438-1.979-.776-4.521-1.012-.033-.287-.067-.692-.101-.979-.793-.168-2.125-.455-7.506 3.527 2.53 4.623-1.586 3.323-1.636 3.29-.236-.169-.388-.54-.557-.76.523-.894 1.282-1.636 1.636-2.632-.185-.27-.523-.624-.523-.944v-.034c1.316-.945 2.868-1.333 4.285-2.042-.337-.152-.843-.388-1.215-.337-13.899 2.919-19.684 8.74-23.142 12.232-1.046.878-2.345 1.417-3.391 2.278 0 .523.27 1.265.624 1.653-1.366 3.206-1.096 5.13-1.012 5.484-2.581 2.075-5.701 3.374-8.063 5.77-.168.236-.371.557-.539.793-.698.101-2.193.619-4.487 1.552-.023.394-1.232 2.166-3.627 5.315.219 1.35.523 1.586 1.636 1.957a18.33 18.33 0 0 0 1.434-1.366c-.54 1.636-.826 1.771-1.957 2.395-2.822 1.406-4.599 2.768-5.33 4.084.203.506.709 1.096 1.181 1.366-.186.22-.439.489-.624.709.101.27.253.641.371.928 2.952.371 4.217 3.391 6.815 4.319.961 3.509 5.684 5.18 4.655 9.634.118.051.253.118.371.169 6.359 2.143 13.275 2.514 19.162 6.141-.641 1.502-.405 3.189-1.046 4.691 1.265 2.531-10.137 20.769-10.306 20.871-6.781 12.8-13.607 24.633-20.478 35.499.119.253.27.607.388.86 1.569.591 3.121-.236 4.69-.118l-3.559 9.263c-1.125.438-1.884 1.006-2.278 1.704.135.27.304.641.422.911-2.361.624-3.019 3.088-4.74 4.404-.422-.355-1.13-.642-1.67-.709-.168-.236-.371-.557-.54-.793-1.922.557-3.019 2.446-4.942 3.003.135.253.338.608.473.861.348-.068 1.242-.456 2.682-1.164.202.202.489.455.691.641.523-.27 1.215-.625 1.721-.911-.034.247-.833 1.124-2.396 2.632.253.151.574.354.827.506.978-.27 1.417-.405 3.677.438-1.4.625-3.171.287-4.267 1.688.033.067.067.168.084.236-.591.455-1.366 1.046-1.94 1.485.287 0 .675 0 .962.017.281.314.247 1.428-.102 3.34-.523.236-1.13.759-1.467 1.232.236.169.573.388.809.557-.067.286-.151.675-.219.961-.894.473-1.855.743-2.749 1.181 1.18.726 2.513.287 3.761.439l.608.776c-.119.27-.27.641-.388.911.236.152.556.371.792.523.894-.303 1.451-.489 4.133-1.586-.051.304-.135.692-.186.996-.472.32-1.13.725-1.619 1.012.169.219.405.506.59.726 3.458-1.03 4.504.658 4.993 1.484-1.062.642-2.378.675-3.441 1.367-.033.287-.084.692-.118.979.776.562 2.733-.445 5.87-3.02l.995-.507c1.811-.933 2.997-1.389 3.56-1.366h.135c-.996 1.029-2.345 1.484-3.509 2.244.585.337 1.49.421 2.716.253-.135.253-.321.59-.456.843h-.944c-.354.422-.709 1.131-.793 1.688.573.202 1.299.54 1.805.843-2.395.979-5.314.304-7.405 2.261.135 0 17.947-.219 24.256-2.851-.152-.237-.354-.557-.506-.793-2.677.18-4.875-.102-6.596-.844-.016-.287-.05-.675-.067-.962-1.113.147-2.238-.32-3.374-1.4.152-.27.338-.641.49-.911a21.333 21.333 0 0 0-.422-.861c-.776.068-1.501.372-2.26.523-.506-.27-1.266-.523-1.839-.573-.084-.27-.219-.624-.304-.894 1.518-.608 3.138.05 4.69-.355-3.239-10.157 10.306-11.034 15.214-16.754-.202-.202-.489-.455-.691-.658.185-.506.708-1.113 1.181-1.366 0-.287-.017-.675-.034-.962-1.788-.658-4.858 1.839-5.499-.709-.354-1.434 2.412-4.201 4.116-4.808 3.958-1.44 6.353-2.919 7.185-4.438l-.404-.489c1.765-1.665 3.036-2.711 3.812-3.138-.22-.22-.506-.506-.742-.726.151-.253.371-.573.522-.81.27-.067.641-.135.911-.202.388.439.945.962 1.4 1.316.54-.281 1.237-1.001 2.092-2.16-1.855-1.484-3.424.844-5.195.371-.068-.286-.152-.674-.22-.961.686-1.046.923-1.918.709-2.615.185-.22.438-.49.624-.709 1.164 0 1.434.017 2.986-.152.151.253.371.591.522.844 2.649.033 3.509-.304 7.591-1.974-.304-.085-.708-.186-1.029-.27v-.945c2.007-1.586 2.024-1.873 2.125-4.151 15.339-4.521 23.289-7.975 23.852-10.359-.54-.253-1.147-.793-1.468-1.299.793-1.468.793-1.485.422-2.683-2.058 0-2.244-.034-4.032-.405-.135-.253-.303-.59-.438-.844 1.096-1.147.928-3.07 2.412-3.981.084-.439.202-1.046.354-1.468.169 2.041-1.467 3.577-1.535 5.551 4.892 1.535 13.646.27 15.063-.54 2.176-1.249 29.502-20.567 28.861-24.448-.101-.574-.658-1.164-.944-1.67.236-.186.556-.422.809-.608a16.785 16.785 0 0 1-.185-.978c.961-.557 2.091-.523 3.103-.911 2.756-1.856 6.438-3.245 11.049-4.168.084-.27.219-.624.304-.894 2.479-.439 2.715-.81 3.255-1.704 6.933 1.012 14.321-4.471 14.388-4.522.017-.287.051-.658.085-.945a244.62 244.62 0 0 1 5.465-4.201c1.063-3.492 6.41-5.315 4.318-9.988 1.282-2.649 1.113-3.543.911-4.606.422-.405 1.164-.793 1.737-.895-.27-.05-.641-.135-.927-.202 7.927-3.83 17.272-9.263 16.733-13.464.506-.574.719-1.22.641-1.94l-.135-.203.016.186ZM517.536 69.159c-.809.225-1.298.456-1.467.692 0 0 .05.05.084.067l.354.118h.338l.32-.135.253.203c-.185.101-.371.185-.556.27.078.056.247.062.506.017l.489-.152.287-.169.151-.152.152-.169.253-.1c.287.016.591-.051.877 0 0 0-.843.978-1.855 1.147v.151c-.034.034-.084.068-.118.102.287.168.624.084.624.084l.472-.202c.995-.186 2.109-.068 2.109-.068-.169.186-.27.405-.422.59.27.119.574.153.827.338-.068.068-.169.135-.237.186.085.016.186.05.27.05-.033.203-.556.59-1.552 1.114-.118.962 2.176.827 2.716.455l.287.034h.489c.315-.011.619-.062.911-.152 0 0 .034-.101.051-.135 1.315-.236 1.366-.034 1.4.118-.27.321-.962.17-.979.76 0 0 0 .016.017.033l.54.085.641.253c0 .084-.034.202-.051.287.355.118.742.1 1.114.168-.068.27-.355.304-.523.473.05.101.118.236.202.303l-.118.287c.157.416-.529.675-2.058.776-1.046.068-1.67.118-2.142.777.287.337.843.472 1.063.54.045.123.061.27.05.438-.303.152-.742.017-.928.422l.068.135c-.371.354-2.8.86-2.834.86l-.405.54.675.135.607-.067.54-.05c1.619-.254 3.154.59 4.79.421l.692-.253c.422-.135.843-.186 1.265-.338 0 .827-2.108 1.165-3.222 1.232a.435.435 0 0 0-.05-.135 3.181 3.181 0 0 0-1.299.068c-.506.202-4.976 2.024-5.263 2.53.844 1.097 1.872-.59 2.885-.607 1.225-.011 1.967.017 2.226.084.321.102.472.085.574.068 0 0 .253-.034.826-.22l.354-.27c.282-.258.495-.393.641-.404 1.384-.186 2.784-.085 4.167-.253l.556-.254.911.102.506.152c2.126-.152 4.234-.507 6.376-.456l2.328-.405.928-.371s.152-.186.219-.253c-.928-.49-2.007.186-2.935-.354 1.215-.692 2.75-.625 3.863-1.603l.169-.371.337-.186c.101-.084.219-.203.32-.287-1.619-2.143-3.879-.118-5.701-.86.118-.287.489-.304.658-.557-.152-.506-.405-.59-.911-.726l-.219-.32c-.371-.18-.591-.5-.658-.962-.186-.068-.27-.084-.607-.304-.911-1.316-3.323-.118-3.745-2.109-.27-.135-.658-.438-1.113-.91l-.608-.372-.32-.067c-.101 0-.236-.034-.337-.051-.068-.101-.557-.574-2.919-.101.09-.225.518-.462 1.282-.709l.152-.236-.034-.236c.608-.293 1.142-.59 1.603-.895l.067-.354.54-.22c1.603-1.062.607-1.535.591-1.535-.119-.033-.27 0-.439.034-.371.068-.557.084-.675.101 0 0-2.833.102-3.036.102-.86.017-1.687.455-2.564.32-.084-.22-.287-.405-.236-.675 1.653-.663 2.468-1.068 2.446-1.215l-.084-.37c-1.384-.119-2.75.489-4.133 0l-1.35-.068c-.084.236-.202.54-.725.995l-.658-.084.169.844c-1.063-.034-1.653-.068-1.754.607.286.354.708.59.843 1.063-.101.118-.27.32-1.046.81l-.135-.034Z" fill="#1A1B27" fill-opacity=".2"/><path d="M502.81 81.105c2.109.944 6.073-.406 6.106-.422.793-.287 1.434-.878 2.278-1.063 0 0 .523-.085 1.13-.05l2.142-.153s1.4-1.046 1.603-3.003c-.051-.067-.22-.236-.76-.422.051-.388.051-.472.861-.557.725-.084 2.125-.64 2.226-.843-.455-.979-2.243-1.502-2.26-1.502l-.557-.185h-.894l-.927.135-1.603.59-.152.422-.927.405-.928.455v.287c.354.068.86.169 1.231.236-1.484-.084-1.754-.1-1.771-.303 0-.118-.017-.186-.32-.253l-.456.151-.944.456c-.372-.067-1.013-.011-1.923.169-.523.101-1.012-.152-1.535-.152-.439 0-.877-.068-1.333 0-.354.05-.354.49-.253.59.017.017.068.034.084.051.799.247 1.209.388 1.232.422-.236.405-1.552.607-.995.928.135.084.86.034 1.45-.017.489-.05 1.366.135 1.366.135.051.118.051.118-.033.253-.624.27-.928.388-.911.658.084.05.185.101.557.186l-.793.523c-1.822.54-3.694 1.113-2.008 1.873h.017ZM891.868 188.04c1.282.574 1.755.793 1.485 2.919.101.051.236.118.337.186-.034 1.113-.405 2.176-.27 3.307-.056.36-.107.618-.152.776.287.219.54.185.54.185 1.164-.455 6.528 4.269 6.579 4.32-.034.033-.068.084-.102.118-.337.017-.658 0-.978 0 .017.033.051.084.068.118 0 0 .607.455 1.669.59.405.051.81.102 1.384.726.337.354.286.86.438 1.282.152.422.59.574.86.911.388.473.304 1.148.709 1.603l3.677 3.223s4.436 2.935 7.152 4.083l2.564.877c.506.219 1.198.523 1.704.742.759-.32.455-.86.438-.894a2.757 2.757 0 0 0-.388-.455l-3.036-2.852c-.54-.281-1.029-.894-1.467-1.839-.304-.641.134-1.434-.388-2.041-.641-.76-3.745-2.97-5.095-3.459-.219-.084-.455-.118-.674-.186-.591-.152-.641-.911-1.215-1.063-.556-.151-1.046-.472-1.585-.658l-2.834-1.029c-.422-.202-.827-.472-.827-.489-1.518-1.029-1.332-2.025-1.332-2.025-.321-.607-1.839-1.501-1.856-1.501-2.181-2.925-2.789-5.276-1.821-7.053l-.405-1.265c.236-.287.539-.692.776-.979l19.448 10.899c-.236.304-.556.709-.809.996.05.185.135.455.185.641.152.27.253.439.726.54.404.084.826-.118.978-.203 1.231-.354 2.53-.269 3.761-.539-.151-.355-.354-.827-.506-1.181.27-.27.608-.625.877-.878 2.75.861 3.037.962 7.49-.084.05-.743.32-1.738.658-2.413-2.755-3.892-4.706-6.186-5.853-6.884-3.222-1.974-11.774-7.204-11.336-9.853.371-.034.877-.084 1.249-.135.067-.371.185-.861.253-1.232 2.867-.32 4.318-.405 4.318-.405a16.518 16.518 0 0 0 1.822-.371l.573.489c1.72.912 2.125.945 3.761.945.27.591.692 1.384 1.063 1.924.439.287 1.046.658 1.485.945-.068-.372-.135-.878-.203-1.249.321-.186.759-.422 1.08-.624 3.255.911 6.663.202 9.935.945.304-.237.691-.54.978-.777 1.867.732 7.613.231 17.239-1.501-.219-.338-.489-.776-.708-1.097 1.079-1.755 1.434-1.822 2.901-2.058.152-.355.337-.81.489-1.164.338.033.793.067 1.13.084.321.051.473.067.506-.017.051-.101-.033-.202 0-.304.034-.135.152-.219.186-.354 0-.034.017-.101.034-.135 0-.101.033-.304-.102-.472-.236-.327-.343-.518-.32-.574 0 0 .051-.084.084-.118.152-.118.405-.506.742-1.164-.472-.152-1.028.118-1.45-.27-.304-.27-.574-.591-.894-.827-.152-.118-.321-.169-.506-.219-.371-.085-.86-.186-1.232-.27.287-.152.658-.338.945-.49.489 0 .962.119 1.434.085.253-.017.455-.135.354-.253-.051-.068-.219-.135-.337-.203-.304-.152-.473-.236-.709-.489-.793-.861-.691-.844-.506-.844.034 0 .135 0 .489.102.203.067.338.084.388.067.152-.034-.084-.371-.084-.388 0 0-2.007-1.333-2.328-1.485-2.277-1.619-9.075-7.086-9.125-7.12 3.058-1.203 4.925-1.833 5.6-1.889 1.147-.034 1.45.05 2.041.236.793.236 1.046.287 1.366.219.709-.118.844-.152.422-.54-.084-.067-.877-.759-3.745-1.147-.101 0-.202-.034-.658-.287-4.115-2.666-9.648-1.923-13.342-5.585 2.648-.944 10.492-1.569 10.542-1.569 2.244.338 2.682.844 3.07 1.316-.405.76-1.4.641-1.889 1.283.146.247.506.478 1.08.691-.22.372-.237.422-.776.506-.27.051-.675.254-.675.27.067.034.472.169.877.22 2.8.118 5.6-.658 8.4-.034 5.145 1.147 4.824 2.413 4.69 2.953-.45.225-.731.405-.844.54.439 3.205 5.752-.051 6.106 3.172.388.556 1.198.725 1.451 1.451-.236.112-.849.056-1.839-.169.591.607 1.586 1.485 1.586 1.485.798.877 1.158 1.591 1.08 2.142-.248.124-.776.343-1.586.658-.084.557 0 1.738 2.378.658l.405.878 1.451-.135c2.901.388 5.887.067 8.737.911-1.433-1.046-2.361-2.126-2.361-2.126.793-2.379-7.574-7.306-7.658-7.339 0 0-1.535-.827-1.738-1.519.248-.157.495-.506.743-1.046 1.349-.219 2.631.624 3.98.27.085-.017.237-.068.287-.152.405-.709.641-1.518 1.063-2.227.067-.118.236-.405 2.007-.54 1.181-.101 2.412-1.755 3.492-.489.27.303.405.405.86.168 2.553 1.519 4.723 2.199 6.511 2.042 3.458-.287 6.258-2.396 9.46-3.408.41-1.181 2.9-2.396 3.19-2.531.98-.472 1.46-1.496 1.45-3.071 0-.337 0-.337-.15-.759-.29-.624-.66-1.468-.91-2.092.86-1.822 1.92-4.1-.95-5.551-2.19-1.519-7.165-3.746-7.198-3.763l-.928-.067c-.219.253-.489.59-.708.844a47.462 47.462 0 0 1-2.21-.27 11.238 11.238 0 0 0-1.333-1.772c.22 0 .506-.034.726-.051a26.33 26.33 0 0 0-1.08-.253c-.219.253-.489.591-.708.861-.321-.118-.743-.27-1.063-.388-.135-.371-1.94-1.468-5.415-3.29 4.504-1.924 10.037.253 14.085-3.51 9.642.349 15.702 1.328 18.202 2.936.82.45 1.71.658 2.66.624l.61.304c4.08 2.109 8.89 1.907 12.96 4.066-.66-.219-1.56-.438-2.25-.573 1.06 1.13 1.1 1.147 11.59 3.34-.88-1.198-2.58-1.198-3.47-2.362 5.58-3.121 10.81.726 16.22.861-.1.32-.23.742-.34 1.063.58.472 1.44.506 1.83 1.214 1.82 1.401 3.89-.337 5.77.439.32.152.72.337 1.02.472-.05-.337-.13-.759-.2-1.096 1.33-.844 2.35-1.232 5.18.472-.34.034-.79.068-1.13.085-.37.523-.62 1.383-.62 2.024-2.33 1.806-13.57 2.75-16.4 2.21 0 .338 0 .777.02 1.114-.61.27-1.42.624-2.04.877-.64 2.43 7.3 12.064 8.9 13.987 1.88-.607 1.96-.607 3.39-.438.96-1.721 2.41-2.284 4.36-1.688-.34-.573-.7-1.417-.83-2.058 1.92-.388 3.76.473 5.65.439-.44-.506-1.11-1.131-1.65-1.502.22-.624.65-1.4 1.08-1.906.47.438 1.23.911 1.83 1.113.04-.337.07-.793.11-1.13-.61-.304-1.35-.827-1.88-1.266.12-.303.27-.725.39-1.046-1.3-1.451-3.42-1.501-4.79-2.851.56-.473 4.03-.894 10.41-1.266 2.29 3.898 6.36 1.738 9.48 2.784 1.15.861 2.68 2.008 3.84 2.869.19-.27.44-.642.63-.928 11.65 1.012 19.08 2.26 22.3 3.745.3-.135.71-.337 1.01-.472-1.11-2.312-11.45-8.166-11.56-8.2 4.09-1.13 6.87 2.531 10.56 2.868.14-.303.34-.692.48-.995-.29-.186-.68-.456-.98-.641.12-.304.27-.726.39-1.03.67.186 1.55.507 2.17.81.44 1.294 6.22 4.758 17.33 10.394.18-.085.43-.203.62-.287 1.02 1.035 2.2 1.451 3.54 1.248-.27-.202-.61-.472-.88-.675.12-.033.29-.084.43-.118l.23.118c-.39-.54-.96-1.231-1.45-1.704 2.43 1.103 4.6 1.586 6.51 1.451-4.15-4.167-12.72-7.457-14.76-7.896.49.456 1.08 1.147 1.44 1.704-.51-.084-1.2-.219-1.66-.438-5.04-6.007-5.97-6.479-49.96-26.017-.03.337-.08.776-.12 1.096.43.225 1.31.833 2.65 1.823-5.5 2.379-7.1-5.012-11.77-4.809-2.12-.664-3.36-1.097-3.75-1.299l-.92-.236-1.13-.388c-.12-.034-.24-.085-.36-.119-.12-.033-.24-.084-.35-.118-.12-.033-.24-.084-.36-.118a2.826 2.826 0 0 1-.35-.118c-1.05-.422-2.03-.978-3.11-1.316l-.52-.034-.86-.354-.96-.388-1.2-.27-.86-.337a10.35 10.35 0 0 0-2.16-.439c.07.337.14.776.21 1.097-2.78-1.699-4.73-2.784-5.84-3.257-.07-3.307-7.79-5.635-7.86-5.652l-1.05-.304s-.08-.033-.13-.033-.09-.034-.14-.034c-.05 0-.08-.034-.13-.034-.04 0-.09-.034-.12-.034-.08-.033-.19-.05-.27-.084-.08-.034-.17-.051-.27-.084-.08-.034-.19-.051-.27-.085-.08-.033-.17-.05-.27-.084-1.05-.371-2.09-.675-3.12-1.08l-1.4-.354-.61-.085c-10.76-2.547-12.14-2.885-19.77-7.525.64.22 1.5.54 2.13.81-6.06-5.297-9.127-4.353-9.144-4.353-.421-.151-1.012-.32-1.349-.624-4.942-2.311-8.484-3.003-8.501-3.02-5.645-1.878-8.744-2.941-9.295-3.189l-.624.911c-1.551-.506-1.889-.59-3.221-.945.759.793.91 1.974 1.72 2.734-1.872-.102-3.525-1.063-5.33-1.418a43.94 43.94 0 0 0-.928.625c-10.177-3.656-15.428-5.59-15.754-5.804-.54.303-1.249.759-1.738 1.147-1.417 1.063-2.598.945-11.099-4.42a32.03 32.03 0 0 0 2.227-.237 6.078 6.078 0 0 0-1.906-1.198c-1.417-3.307-6.63-5.854-15.502-7.609-.574.253-1.484.354-2.092.202.068.675.237 1.553.405 2.194-2.21-.641-4.267-1.755-6.595-1.991-.068 0-8.198-2.497-8.873-3.442-5.195-.709-9.614-5.635-15.434-2.818-.624-.337-1.349-1.012-1.703-1.62-3.593-.438-6.764-2.699-10.526-2.345.304.186.708.439 1.012.625-1.102.157-2.626.157-4.571 0-4.465-.383-7.304-.523-8.519-.422.658-.709 1.502-1.603 5.651-.996 1.434.203 15.603-.708 15.738-.708.017-.355.051-.844.084-1.198-.691-.287-1.585-.675-2.277-.945a30.18 30.18 0 0 1 2.412.692c-.337-.624-.944-1.367-1.467-1.84-.354.051-.827.102-1.181.136-2.867-2.346-4.757-3.88-18.723-5.18.27-.236.624-.557.894-.793-1.265-.894-1.333-.945-8.063-2.227.691-.118 1.653-.169 2.361-.118-.843-.911-1.349-1.451-5.347-2.38-2.075-.202-5.937-.607-8.299.929.236.27.557.64.81.91-2.007-.185-3.981-.691-6.005-.826.59.456 1.434.962 2.108 1.282-3.997.186-7.843-1.45-11.858-1.029-.135-.337-.32-.776-.455-1.114-4.571-1.197-9.784-.708-9.834-.708-2.328-.236-3.711-.433-4.15-.59l-.995-.034-1.349-.203-.489.169-.76-.034-1.383-.118-2.007.101a85.68 85.68 0 0 1-4.757.59c-.202.22-.472.524-.674.743l-.776.456.05.202.759.203.186.303.843.304c-6.747 2.362-12.937-2.936-19.617-1.434.371 1.069 2.586 2.649 6.646 4.741-6.494 5.13-10.964-5.045-17.256-3.29 1.721.765 2.834 1.198 3.34 1.3-.146.055-1.681-.108-4.605-.49.067.354.169.843.253 1.198 2.311 1.029 5.094.793 7.135 2.598-2.48-.202-4.774-1.215-7.203-1.637-.742-.151-1.72-.37-2.462-.523-.995-1.586-.928-1.974-.726-3.408-.489-.506-1.366-.995-2.041-1.164.135.388.422.894.405 1.3l-.152.387c-3.789.99-5.729 1.513-5.819 1.57.489.185 1.13.421 1.619.573 1.164 1.046 1.316 1.181 3.155 1.822-.49.523-1.299 1.08-1.94 1.384.54 1.552 1.197 3.492 5.802 3.172 1.67-.118 5.044.135 9.025 3.054-.321.168-.759.405-1.08.573.405.765 1.782 1.406 4.133 1.924-1.552.1-1.653.118-4.774-.979-1.096-2.278-2.041-4.252-9.142-3.864-.034.355-.068.827-.085 1.198.253.27.608.624.861.878-4.841 6.698-16.986 1.18-17.104 1.113 1-.225 3.806-.079 8.417.439 1.433-1.198 1.788-1.249 3.272-1.384.236-.64.894-1.4 1.484-1.737-.562-.473-1.653-1.047-3.272-1.721-.214-1.643-.568-2.75-1.063-3.324.439-1.294-.27-2.435-2.125-3.425.169-.658.742-1.468 1.316-1.84.05-.354.101-.843.152-1.197-.653-.394-1.788-.827-3.408-1.3 0 0-.135-.016-.202-.033-.068 0-.135 0-.203-.017a.847.847 0 0 1-.202-.034c-.067 0-.135 0-.202-.017l-1.62-.405c-2.564-.28-3.981-.46-4.25-.54-.085 0-.186-.016-.27-.033-.085 0-.169-.017-.27-.034-.085 0-.186-.017-.27-.034-.084 0-.186-.017-.27-.033l-.59.168-.186.32c-.523.456-1.029 1.283-1.198 1.958-1.838.843-4.014.675-5.735 1.873.591.37 1.502.691 2.193.793.118.337.27.81.405 1.147l-.675 1.012c.169.321.405.743.574 1.047 1.4.185 3.728.489 6.258 3.12-.354.203-.827.575-1.248.642-2.531-.675-12.162-4.1-12.196-4.1l-.067-.034c-2.935-1.08-8.316-2.176-12.499-2.53-2.413-.743-4.622-2.126-7.22-2.295 0 .354.034.843.034 1.198 1.72.517 3.93 1.513 6.629 2.986-.54.456-1.434.877-2.125.979l-.017.017.101.253-.422.202c-.388 0-.894-.017-1.282-.034-.978-1.923-2.395-2.244-6.072-1.332l-1.198.185-1.602-.388-1.552-.068h-.658c-2.496 0-5.01.372-7.506.068.253-.27.59-.624.826-.877-.033-.068-.084-.17-.101-.236.371-.152.877-.355 1.248-.507-2.867-.253-3.323-.067-5.92 1.03-.388-.186-.877-.456-1.265-.642-4.133.186-8.181 1.114-12.297 1.434-.281.62-.849 1.075-1.704 1.367-.888.034-3.418-.371-7.59-1.215.05-.253.135-.59.185-.86.827-.27 1.383-.456 1.991-.27.776 0 1.805.034 2.564.034-.596-.889-3.959-1.738-10.087-2.548 1.282.641 1.945 1.468 1.99 2.48-.219.169-.489.388-.708.557.32.405.927.81 1.4.962.118.236.253.54.371.776a4.782 4.782 0 0 0-.776 1.552c-6.567-.574-11.021-.326-13.36.742.068.254.169.59.237.844.556.084 1.265.422 1.703.776-4.301 2.7-7.894-2.497-12.077-1.097.067.653 1.473 1.435 4.217 2.346 0 0-.051.033-9.514-1.046-.202-.72-.731-1.4-1.585-2.042.236-.49.556-1.114.809-1.603-2.479-1.333-5.549-1.282-7.759-3.273-.27-.101-.658-.236-.928-.337 8.181.151 15.839 3.83 24.071 3.543 2.969-.236 3.373-.49 5.094-1.553-1.4-3.93-22.401-7.44-23.295-7.592-1.923.152-2.817.22-5.229-.456.253-.135.591-.303.844-.438-.563-.461-1.878-.72-3.947-.776-.405.168-.996.337-1.434.37-1.771-.27-3.61-.084-5.347-.725 1.4-.489 2.901-.556 4.335-.894 0-.27 0-.624-.017-.894-3.97-.574-6.82-.495-8.552.236a39.502 39.502 0 0 1-.337-.81c.236-.118.556-.27.775-.371-.269-.27-.657-.692-1.028-.692-.54.034-1.266.118-1.805.186-.743 1.13-1.046 1.215-2.109 1.35-.135-.237-.303-.574-.438-.81-1.805-.203-3.239 1.248-5.027 1.164.551-.54 1.304-.99 2.26-1.35-4.217-1.738-7.961 1.367-12.027 1.232-.168.22-.388.523-.539.742-3.88-.05-7.237-.101-8.603.456 0 .05-.017.118-.034.169-1.535 1.501-3.306-.355-4.891.37.118.237.27.557.388.794-.49.168-1.198.27-1.704.236.051.084.101.202.135.287l-.169.202c-2.277.827-4.942-.422-7.034 1.316.034 0 4.555.05 5.044.506-.253.085-.591.22-.827.304-.157-.079-1.793.197-4.908.827-.085.253-.186.59-.27.843-4.15 1.907-4.588 2.683-4.74 2.97-1.316.079-2.17.259-2.564.54.253.067.607.152.86.22-.236.134-.539.32-.776.455-.05.185-.101.438-.151.607l-.304.388c-1.906.506-9.176 4.1-9.227 4.134-.27.118-.641.27-.928.388-.404-.287-1.096-.49-1.602-.49-1.957 2.447-5.415.76-7.54 2.734-2.867 1.114-4.47 1.946-4.807 2.497l.624.624a4.582 4.582 0 0 1-.692 1.586c.101.253.253.574.354.81.54.034 1.266.135 1.788.253-.202.506-.607 1.114-.978 1.519.219.151.506.354.725.506.253-.068.608-.169.861-.236.017.27.05.607.067.877-.236.118-.573.27-.809.388.067.253.151.59.236.844 4.267.472 14.287 1.586 15.822-2.582.776.625 1.956.49 2.564 1.4-.068.254-.152.591-.22.861 1.496 1.192 2.435 2.244 2.817 3.155 1.417.422 1.569.54 2.362 1.249 0 .27.034.624.05.877-.219.135-.522.32-.759.456 4.605 4.42 8.974-2.126 13.528-.372a8.1 8.1 0 0 0 1.046-1.484c-.253.05-.607.1-.877.151.023-1.462 2.182-3.143 6.477-5.044.051-.253.118-.608.169-.86.253-.102.59-.22.843-.321-.033-.253-.067-.608-.101-.86-1.703-.98-5.111-1.654-5.128-1.654a11.724 11.724 0 0 0-.573-1.688c.877-.674.978-.759.843-2.26.506-.169 1.181-.355 1.704-.422-.034-.27-.101-.624-.135-.894.084 0 9.311-1.063 11.791-3.577-.236-.152-.54-.338-.776-.49 1.197-3.863 11.605-3.138 12.6-1.096.118.236.169.59.236.843-1.838-.067-12.516 3.527-13.697 5.45.372.686 1.013 1.254 1.923 1.704.068.253.169.59.237.844-.304.49-.574 1.265-.625 1.839 1.856 1.192 11.128 1.918 27.816 2.176-1.856.878-3.981.287-5.854 1.114-4.891 1.114-9.901-.641-14.776.641-.05.27-.118.608-.168.877.809.86 2.041 1.046 2.918 1.806-.102.405-.203.978-.118 1.4-3.492 1.907-7.372-.776-10.88.911.101.236.219.557.32.81-.202.118-.472.253-.691.371l.523.59c-.186.186-.439.456-.625.642.203.169.49.388.692.54-1.788 1.552-3.087 2.666-8.265 2.345-.574-.574-1.771-1.755-8.08-.05-1.282.348-6.91.584-16.885.708-.152-.22-.354-.506-.506-.709-.674.023-1.546-.118-2.614-.421a17.256 17.256 0 0 1-.354-.827c-.523-.135-1.215-.338-1.738-.49.101-.252.219-.573.321-.826 2.192-.866 3.609-1.339 4.25-1.417-.556-.658-1.467-.844-2.007-1.519l.827-.439c.084-.523.185-1.197.253-1.72-.085 0-8.924-.793-8.637 4.96.506.118 1.181.287 1.687.439-.202.168-.472.404-.675.573.371.776.624 1.282 1.299 1.367.135.22.304.523.439.76a8.611 8.611 0 0 0-1.299 1.18c-1.738.085-3.509-.49-5.229.152-4.268.709-7.709 3.594-11.909 4.488-1.973.76-4.133.962-6.055 1.89v.894c-.894.675-1.147.86-3.205 1.114-1.08.652-4.015.86-8.805.624a6.7 6.7 0 0 0 1.163 2.227c-7.27-.27-10.036.152-10.07.169-.185.337-.421.793-.607 1.13.9.585 3.346 1.102 7.338 1.552.123.169 1.484 1.153 4.082 2.953 0 .253.05.574.05.81-.421 3.51-1.046 3.796-1.923 4.2-8.451 1.266-17.053-.353-25.47 1.401.084.675.219 1.586.354 2.244.81 2.767-1.737 4.556-2.041 7.002.675.27 1.501.945 1.872 1.569-.236.304-.539.726-.776 1.046 7.321 3.78 14.912.102 22.35.793l.726-.219c2.867-1.063 5.414-2.851 8.383-3.661-.388-.624-.725-1.62-.759-2.362 1.822-1.732 5.803-3.352 11.942-4.859-.927-4.826 6.596-3.105 6.68-3.088 2.272.686 5.145.281 8.62-1.215 5.521-.157 8.445-.202 8.771-.135 4.521 7.947 14.979 3.493 20.309 9.752-.118.76-.557 1.755-1.08 2.312.956 0 2.486-.675 4.588-2.025-.388-.658-.843-1.552-1.113-2.261 1.181-.337 2.845-.135 4.993.608-.742-1.148-1.265-1.958-7.203-3.054-.202-.321-.472-.759-.674-1.063-1.282-.011-5.145-1.625-11.589-4.842-.219-.726-.506-1.704-.725-2.43 1.265-.101 2.446-.624 3.728-.726a8.837 8.837 0 0 0 1.72 1.823c.017 0 11.757 3.56 15.35 5.213.686.158 1.856.714 3.509 1.67.067.76.067 1.806 0 2.565.422.337.995.776 1.434 1.063.269.27.624.641.91.911h.22c1.636.574 3.137 1.502 4.824 1.974-.152.354-.337.827-.489 1.181.371.354.86.894 1.349 1.046v.388c.293.225 1.895.754 4.808 1.586-.135-.371-.304-.86-.422-1.214a42.044 42.044 0 0 1 2.53-.591 23.336 23.336 0 0 1-2.463-.827c.186-.219.439-.489.641-.708l.962.455c.54.169 1.248.371 1.771.54-.186-.337-.422-.776-.607-1.113.388 0 .894.033 1.282.05-.799-.731-2.553-1.918-5.263-3.56.118-.371.287-.86.405-1.215 1.259.72 2.907 1.046 4.942.979-.287-.253-.675-.608-.961-.861.354-.151.809-.354 1.163-.506.355.186.81.439 1.147.641 5.432-2.227 11.015.388 16.497-.59-1.585-.658-3.357-.861-4.74-1.974-.354-.203-.809-.473-1.164-.675 0-.388.051-.894.068-1.282.961-.557 2.159-.608 2.986-1.418.05-.37.101-.877.151-1.265.585-.371 1.777-.787 3.576-1.249a15.04 15.04 0 0 1-.084-.843c2.294-1.687 5.819-2.548 5.853-2.548 1.721 2.227 5.836 1.468 5.87 1.451a8.725 8.725 0 0 1-2.311 1.063c.844.574 1.873.692 2.733 1.215.118.371.253.86.371 1.231 3.374.422 6.646-.674 10.003-.759-1.704-1.383-4.133-.54-5.837-1.906 4.251-2.447 10.83-2.059 10.88-2.059.793-.05 1.839-.084 2.632-.1-.945.556-2.058.708-3.037 1.163.405.22.945.523 1.35.76-1.665.933-2.806 1.44-3.424 1.518.657 1.535.708 1.653 2.918 1.873l11.993 5.23c.303.22.725.523 1.029.759-.118.287-.27.658-.371.928-9.699 2.666-18.572-4.386-28.22-2.379l-15.165 2.43c-2.985.607-6.224-1.029-9.058.995.405.18 1.44.912 3.104 2.194-.219.32-.523.742-.742 1.046.337.186.793.422 1.13.607-.321.186-.759.456-1.096.641 8.366 3.375 13.308 3.409 13.359 3.409.202-.287.472-.658.675-.945 5.836-.354 11.588 1.586 17.458.658.084.574.084 1.434-.253 1.89v.05c.152.641.354 1.485.422 2.143v.067c-1.468 2.464-4.487 5.923-4.504 5.939.388 1.721 1.855 2.869 2.395 4.522-3.475-6.833-16.767-4.1-16.902-4.066-4.723 1.552-16.783-1.384-16.884-1.417-1.704-.81-10.61-4.674-18.673-1.367.101 2.447.017 2.531-.287 2.835-1.462.315-6.595-.254-15.4-1.705-.416-.652-2.244-1.569-5.482-2.75-6.399-.708-10.863-1.439-13.393-2.193.135-.248 1.102-.99 2.901-2.227-.186-.692-.793-1.569-1.4-1.957.169-.355.371-.827.54-1.198-2.677-.9-5.499-1.119-8.468-.658-2.733.219-11.436.405-11.453.405l-.422-.253c-.152 0-18.943 1.332-22.974 3.728-2.362.861-4.723-.253-7.085.051-3.542.658-6.241-.304-7.523-.928-2.159 1.063-3.559 3.088-5.549 4.353-3.273.725-10.054 2.261-9.311 7.761a18.71 18.71 0 0 1-4.217 2.413c-2.682 1.771-6.14 1.417-8.822 3.172 1.349-.068 2.699-.135 4.031-.186 1.35-.067 2.699-.118 4.049-.185 1.349-.068 2.698-.118 4.048-.169 1.349-.068 2.699-.118 4.048-.169l.084-.287.304.287-.287-.287-.084.287c-1.349.051-2.699.101-4.048.169-1.35.051-2.699.118-4.049.169-1.349.067-2.698.118-4.031.185-1.349.068-2.699.135-4.048.186l-.591.978c-7.916 5.579-12.645 9.522-14.186 11.828h-.033c.944.894 2.058 1.62 2.918 2.615-.27.287-.624.658-.877.945.202.371.489.843.674 1.232.152.371.338.877.49 1.248-.017.051-3.29 5.467-4.605 6.192.033.388.067.894.101 1.266.337.202.793.455 1.13.641.135.691 0 1.721-.354 2.328l.034.658-.034.337c1.602.675 3.424.338 5.01 1.131l-.051.523c.337.337.776.86 1.198 1.08 1.838 1.265 4.065 1.839 5.751 3.34l.237.254c.877.624 1.72 1.214 1.4 2.176 2.699.793 3.525 1.384 4.031 1.738 5.263 1.029 9.868 4.285 15.384 4.404 9.597-2.801 19.836-.574 29.4-3.712.967-.338 2.491-.698 4.572-1.08 6.696-1.147 8.383-.675 13.393.708.607 1.806 1.383 4.033 11.149 1.806 3.464 3.374 5.094 5.14 4.892 5.298-.202.157-.349 1.355-.439 3.593-3.204 1.451-1.147 3.915-1.045 4.016l10.424 6.918c2.058 1.906 3.154 4.572 5.077 6.597-.185.674-.742 1.501-1.299 1.906 2.227 3.813 3.273 5.939 3.138 6.378-1.282 4.319-5.921 5.905-7.894 9.668v1.586c-.54 5.146 4.874 5.939 6.781 9.279 5.195 5.501 4.402 14.746 11.824 18.846 1.338 1.024 2.35 1.716 3.036 2.076.169.9 1.828 3.065 4.976 6.495 0 .372-.05.861-.067 1.232-.489.371-1.215.793-1.805.945 1.467 2.278 4.892 5.922 11.419 4.69 3.07-.523 19.162-.742 19.196-.725 1.333-.084 2.53-.81 3.897-.726H636.37c1.198-.151 24.206-8.79 24.476-18.559-.355-.084-.81-.186-1.147-.27.416-.945 3.705-2.053 9.867-3.324 1.114-3.138-.911-5.905-1.046-8.874-.607-.338-1.298-1.047-1.602-1.671 5.668-6.276 16.244-1.08 21.152-9.077 1.097-1.772 2.665-6.833-6.14-15.387 0-.709-.185-1.671-.438-2.329.084-.067.185-.152.27-.219a53.4 53.4 0 0 0 .675-.979c-1.89-1.316-2.778-2.491-2.666-3.526.253-2.295 3.02-2.7 3.543-4.775 6.156-2.328 10.93-7.575 17.745-8.554 7.725-1.89 11.824-6.074 18.639-13.008.776-1.03 1.096-2.312 1.72-3.409-.236-.725-.742-1.619-1.248-2.193-2.834.051-7.068.675-7.101.692-.225.022-1.895.022-5.01 0l-.506.05-.928-.033c-1.889.556-3.795 0-5.684.168-5.499.844-7.827-1.4-8.232-1.856l-.304-.185-1.231-.338a33.79 33.79 0 0 0 1.181-.523c-.135-.354-.304-.843-.439-1.198-1.771-.523-2.952-2.075-4.706-2.632-1.99-1.096-3.711-2.041-6.359-2.834-.945-.321-1.704-1.029-2.648-1.35-2.564-.742-2.598-3.897-4.74-5.045-4.06-2.103-5.853-4.088-5.381-5.956-2.851-3.34-3.019-3.543-6.056-4.454-.253-.287-.573-.692-.826-.978.101-.372.253-.844.354-1.215-4.166-2.615-6.241-7.626-10.947-9.634-.169-.355-.405-.81-.574-1.148.394.147 2.097 1.266 5.111 3.358.388-.034.928-.101 1.316-.135.135-.388.253-.945.489-1.282l.304-.624.27-.524c-.085.372-.186.878-.253 1.249 3.66 1.384 30.8 24.313 30.885 24.465l.624.978.034.355.168.371-.236.489c3.559 5.416 6.359 9.702 23.092 4.167l.523-.286c.54-.203 2.84-.45 6.899-.743 1.333-.135 2.142-.219 3.222-.438h.084c.253-.169.591-.355.827-.49-.023-.517.838-1.029 2.581-1.535l.59-.034h.337c.607.068 1.187 0 1.738-.202 1.214-.456 2.446.05 3.66-.034.607-.045 1.018-.191 1.231-.439 0 0 .827-.911 1.114-.961.792-.119 1.568.084 2.361.118.321 0 .742-.034 1.063-.051.05-.202 0-.439.084-.641.641-.186.945-.911 1.636-1.046.186-.034 2.615.169 2.632.169 0-.709-.321-1.401-.22-2.109.051 0 .102.016.152.033.146-.157 1.288-.72 3.424-1.687 1.316-.596 2.323-1.327 3.02-2.193l-.776-.135-.523-.439c-1.029-.607-1.94-1.367-3.053-1.839-2.615-1.13-5.583-1.232-8.012-2.851-.237-.169-1.265-1.502-1.265-1.502-.321-.742-.119-1.569-.388-2.312-.709.338-1.249.979-2.041 1.182l-.793.236c-.911.843-2.244 1.434-3.964 1.754-2.007.372-4.049-.118-6.056.135-.618.079-1.304-.033-2.058-.337-.742-.084-1.737-.439-2.378-.827.202-.725.54-1.687.826-2.379-.624-.388-1.636-.624-2.361-.557-.236.304-.557.709-.793 1.013a18.08 18.08 0 0 1-2.395-1.097c.152-.354.354-.81.506-1.164-3.087-1.552-5.566-3.948-8.417-5.838.219-.54.557-1.265.961-1.687 3.29-1.08 8.232 1.114 9.531 3.526l.337.523c.911.793 2.092 1.063 3.121 1.603l.067.405s-.101 0-.084.068c0 .033.084.101.118.135 12.668-2.244 22.755 7.17 34.781 7.727h.068c2.733.202 14.557 1.147 14.574 1.147 1.383-.101 3.694-.27 9.581 4.353 2.614 1.569 3.12 1.789 5.954 2.244-.573.422-1.569.709-2.294.658 5.313 5.332 9.868 3.729 11.588 3.122a34.222 34.222 0 0 1-.421-1.198c.371-.085.86-.186 1.231-.253 3.728 4.572 3.441 11.456 8.636 15.185l12.145 13.261s0 .084.017.118c.068.473.894.861 1.164.979.455.219.961.354 1.417.573.219.119.354.237.405.287 0 0 .017.051.05.068.085 0 2.058.371 2.935-.776.068-.085.085-.135.152-.304 1.653-.349 2.941-.472 3.863-.371-.692-.22-1.535-.81-2.007-1.384.725-.168 1.67-.489 2.344-.81.101-.371.236-.843.338-1.214a39.25 39.25 0 0 0-.709-1.063c.293-.428.163-2.762-.388-7.002.27-.27.641-.625.911-.894 6.899.151 20.258-5.906 20.377-5.956a33.773 33.773 0 0 0-.085-1.266c.799-.337 1.867-.506 3.205-.506.607.101 1.417.236 2.007.354 1.878.349 3.537.287 4.976-.185 2.446 1.383 9.446 3.087 9.48 3.087-.405.085-.928.186-1.332.253.185.203.438.473.624.692.05.034 5.617 3.594 5.836 4.37 3.255.996 1.771 5.855 5.347 6.58 2.817.574 5.516-1.788 8.367-.388.708.338 1.467 1.097 2.091 1.586l5.769 9.195-.034.034Zm-7.742-77.679c1.023.236 3.059.332 6.106.287l1.181-.507c-.354.152-.793.473-1.181.507-.017 0-3.374.118-4.655.05l-1.468-.337h.017Zm14.068-2.042h.033c.051 0 .119 0 .169-.017-.067 0-.135 0-.202.034v-.017Zm-.118.574c-.253-.321 0-.506.101-.574-.118.051-.219.355-.101.574Zm-.743-2.936s.085-.118.135-.169c-.033.051-.05.119-.101.169h-.034Zm-2.665 2.885Zm-2.985.237c-.118.05-.236.05-.371.05a3.24 3.24 0 0 0 .792-.32c-.135.101-.269.202-.438.253l.017.017Zm-5.28.978c.236-.017.489-.034.81-.067h-.051c-.27.033-.523.05-.759.067Zm2.412-.489a7.17 7.17 0 0 1 .793-.236c-.27.067-.523.151-.793.236Zm2.176-.422h.236-.236Zm8.94-2.581c.017-.102.034-.203.068-.304l.388-.422c-.304.304-.388.405-.456.709v.017Zm-.185-2.244h-.658c.185 0 .405-.017.658 0Zm-1.097.067h.135-.135Zm-.101.017c-.101.017-.169.051-.236.067 0 0 .084-.033.236-.067Zm-1.822 1.788c-.135.034-.27.068-.371.152v-.017c.101-.084.236-.101.371-.135Zm-.742 1.316-.017.017c-.067.034-.152.051-.219.068.084-.017.152-.068.236-.101v.016Zm-1.333.49c.304-.287.709-.287 1.08-.388-.405.118-.827.135-1.147.455l.067-.067Zm-9.125 2.024a.543.543 0 0 1-.236-.05s-.034-.017-.051-.017c0 0 .186.05.287.067Zm-1.046-.354s.068.017.118.034c-.033 0-.067-.017-.118-.034Zm-166.368-9.499h-.034.051-.017Zm-.118-.034-.253-.101c.202.051.253.068.304.101a1.298 1.298 0 0 0-.304-.101c.118.051.186.084.253.101Zm4.672 9.449c-1.703.05-3.339-.506-5.043-.49-.068.372-.135.878-.202 1.249a18.35 18.35 0 0 0 2.462.827c-.219.32-.506.742-.708 1.046.759.152 1.771.455 2.496.759.253 1.265.405 2.565.675 3.847-1.097.523-1.906.911-6.342.304-3.627-.523-7.051-1.84-10.593-2.734l-.304-.573-.186-.557c-.118-.54-.286-1.266-.556-1.721a73.809 73.809 0 0 0 1.552-.422c.253-.641.674-1.485 1.113-2.008l-1.316-.911-.843-.607c-1.586-1.417-2.626-2.233-3.121-2.447-1.079-.725-2.041-1.603-3.12-2.328.168-.354.371-.844.539-1.215-1.821-.978-3.07-1.546-3.744-1.704 2.53-1.89 6.157-1.164 8.484-3.543 3.621-.821 6.584-.889 8.89-.203 2.597-.506 3.036.085 4.352 1.84-.169.337-.405.793-.574 1.13.321.236.725.574 1.046.81-1.451-.186-2.884-.506-4.352-.709-.135 0-.253-.034-.388-.05-1.619-.135-1.957-.118-2.024-.102-.124.023-.366.18-.725.473-.057.045-.242.112-.557.202-.051.169.54.523.557.523.388.169.877.405 1.045.557v.051c-1.248.017-2.395-.591-3.643-.557-.354 0-.388.54-.321.658 1.429.281 2.227.484 2.396.607-.051.135-.203.169-.253.287.05.101.101.135.59.236.101.017.574.135.945.27.135.338.118.692.168 1.029 1.535.507 1.805.658 1.957.743.202.118.287.152.439.219.185.068.269.051.59.017.742.169 1.704.523 2.378.877-.202.321-.489.76-.708 1.08.27.692.843 1.536 1.383 2.025.725-1.805 1.316-1.974 2.952-1.974.54.776 1.732 1.603 3.576 2.48l.523.574-1.485.084v.051Z" fill="#1A1B27" fill-opacity=".2"/><path d="M939.858 137.053a61.939 61.939 0 0 0-1.991-1.553M933.684 132.548c-37.666-24.988-117.856-38.216-171.513 4.1M760.181 138.25c-.641.54-1.299 1.08-1.94 1.637M760.872 141.591c66.561-10.815 136.546 12.469 172.947 90.081M752.27 139.887c-20.663-24.161-69.58-33.896-107.955-9.094" stroke="#FAAA00" stroke-width=".75" stroke-miterlimit="10" stroke-linecap="round"/><path d="M750.532 141.237c-21.034-10.545-97.564.371-133.83 108.488M531.722 75.52c35.928-35.162 251.551-119.05 394.405 45.605M184.783 188.681c25.825-21.495 89.99-40.341 131.283 17.159M328.329 208.523c41.681-33.744 179.07-64.114 266.192 34.588M288.386 119.016C323.15 67.944 428.457 15.624 527.842 77.173M195.41 172.484s25.285-62.781 86.583-51.747" stroke="#FAAA00" stroke-width=".75" stroke-miterlimit="10" stroke-linecap="round"/><path d="M952.896 118.071c0-6.141-4.976-11.118-11.116-11.118-6.139 0-11.115 4.977-11.115 11.118 0 4.573 2.766 8.504 6.713 10.208l4.402 8.774 4.403-8.774c3.947-1.704 6.713-5.635 6.713-10.208Z" fill="#FAAA00"/><path d="M946.942 118.071a5.18 5.18 0 0 1-5.179 5.18 5.17 5.17 0 0 1-5.178-5.18 5.169 5.169 0 0 1 5.178-5.179 5.17 5.17 0 0 1 5.179 5.179Z" fill="#fff"/><path d="M766.827 120.906c0-6.142-4.976-11.119-11.116-11.119s-11.116 4.977-11.116 11.119c0 4.572 2.766 8.503 6.713 10.208l4.403 8.773 4.402-8.773c3.947-1.705 6.714-5.636 6.714-10.208Z" fill="#FAAA00"/><path d="M760.873 120.906a5.18 5.18 0 0 1-5.179 5.18 5.17 5.17 0 0 1-5.178-5.18 5.17 5.17 0 0 1 5.178-5.18 5.17 5.17 0 0 1 5.179 5.18Z" fill="#fff"/><path d="M653.542 111.812c0-6.142-4.976-11.119-11.116-11.119s-11.116 4.977-11.116 11.119c0 4.572 2.766 8.503 6.713 10.207l4.403 8.774 4.403-8.774c3.947-1.704 6.713-5.635 6.713-10.207Z" fill="#FAAA00"/><path d="M642.426 116.992a5.18 5.18 0 0 0 5.178-5.18 5.179 5.179 0 1 0-10.356 0 5.18 5.18 0 0 0 5.178 5.18Z" fill="#fff"/><path d="M540.679 56.539c0-6.142-4.976-11.12-11.116-11.12s-11.116 4.978-11.116 11.12c0 4.572 2.766 8.503 6.713 10.207l4.403 8.774 4.402-8.774c3.947-1.704 6.714-5.635 6.714-10.207Z" fill="#FAAA00"/><path d="M529.563 61.718c2.86 0 5.178-2.319 5.178-5.18a5.179 5.179 0 1 0-10.357 0 5.18 5.18 0 0 0 5.179 5.18Z" fill="#fff"/><path d="M296.229 100.035c0-6.141-4.976-11.119-11.116-11.119-6.139 0-11.115 4.978-11.115 11.119 0 4.572 2.766 8.504 6.713 10.208l4.402 8.773 4.403-8.773c3.947-1.704 6.713-5.636 6.713-10.208Z" fill="#FAAA00"/><path d="M290.275 100.035a5.18 5.18 0 0 1-5.179 5.18 5.17 5.17 0 0 1-5.178-5.18 5.17 5.17 0 0 1 5.178-5.18 5.17 5.17 0 0 1 5.179 5.18Z" fill="#fff"/><path d="M192.829 169.7c0-6.141-4.976-11.119-11.116-11.119s-11.116 4.978-11.116 11.119c0 4.573 2.766 8.504 6.714 10.208l4.402 8.773 4.403-8.773c3.947-1.704 6.713-5.635 6.713-10.208Z" fill="#FAAA00"/><path d="M186.874 169.7a5.18 5.18 0 0 1-5.178 5.18 5.17 5.17 0 0 1-5.178-5.18 5.17 5.17 0 0 1 5.178-5.18 5.17 5.17 0 0 1 5.178 5.18Z" fill="#fff"/><path d="M334.267 186.859c0-6.141-4.976-11.119-11.116-11.119s-11.116 4.978-11.116 11.119c0 4.573 2.766 8.504 6.713 10.208l4.403 8.773 4.402-8.773c3.947-1.704 6.714-5.635 6.714-10.208Z" fill="#FAAA00"/><path d="M328.329 186.859a5.18 5.18 0 0 1-5.178 5.18 5.17 5.17 0 0 1-5.179-5.18 5.17 5.17 0 0 1 5.179-5.18 5.17 5.17 0 0 1 5.178 5.18Z" fill="#fff"/></g><defs><clipPath id="a"><path fill="#fff" d="M0 0h1146v194H0z"/></clipPath></defs></svg>